<?xml version="1.0" encoding="utf-8"?><!DOCTYPE svg PUBLIC "-//W3C//DTD SVG 1.1//EN" "http://www.w3.org/Graphics/SVG/1.1/DTD/svg11.dtd"><svg width="1620" height="1017" viewBox="0 0 1620 1017" xmlns="http://www.w3.org/2000/svg" xmlns:xlink="http://www.w3.org/1999/xlink"><svg viewBox="-5 -5 20.3 28.4" width="20.3" height="28.4" id="facebook"><path fill="#FFF" d="M9.6.5v2.7H8.1c-.6 0-1 .1-1.2.4-.2.2-.3.5-.3 1v1.9h2.9l-.4 3H6.6v7.6H3.5V9.5H1v-3h2.6V4.3c0-1.2.3-2.2 1-2.9.7-.7 1.6-1 2.8-1 .9 0 1.7.1 2.2.1z"/></svg><svg viewBox="-5 -5 25.4 25.4" width="25.4" height="25.4" id="instagram" x="21" y="29"><path fill="#FFF" d="M15.4 2v11.5c0 .5-.2 1-.6 1.4-.4.4-.9.6-1.4.6H2c-.5 0-1-.2-1.4-.6-.4-.4-.6-.9-.6-1.4V2C0 1.5.2 1 .6.6 1 .2 1.4 0 2 0h11.5c.5 0 1 .2 1.4.6.3.4.5.8.5 1.4zm-1.7 11V6.5h-1.4c.1.4.2.9.2 1.3 0 .8-.2 1.6-.6 2.3-.4.7-1 1.3-1.7 1.7-.7.4-1.5.6-2.4.6-1.3 0-2.4-.5-3.4-1.4S3 9 3 7.7c-.1-.3 0-.7.1-1.2H1.7V13c0 .2.1.3.2.4s.3.2.4.2H13c.2 0 .3-.1.4-.2s.3-.2.3-.4zM9.9 9.8c.6-.6.9-1.3.9-2.1s-.3-1.5-.9-2.1-1.3-.9-2.2-.9c-.8 0-1.6.3-2.2.9s-.9 1.3-.9 2.1.3 1.5.9 2.1c.6.6 1.3.9 2.2.9.9 0 1.6-.3 2.2-.9zm3.8-5.7V2.4c0-.2-.1-.4-.2-.5-.1-.1-.3-.2-.5-.2h-1.7c-.2 0-.4.1-.5.2-.1.1-.2.3-.2.5v1.7c0 .2.1.4.2.5.1.1.3.2.5.2H13c.2 0 .4-.1.5-.2.1-.2.2-.3.2-.5z"/></svg><svg viewBox="-5 -5 208.9 94.2" width="208.9" height="94.2" id="logo-briarbriar" x="47" y="55"><g fill="#BBB"><path d="M14.7 19.7c0-1.2-.1-5-.1-5.6-.1-1.8-.6-1.9-2-1.9h-1c-.2 0-.3-.1-.3-.2v-.8c0-.2.1-.2.3-.2.5 0 1.9.1 4.2.1 1 0 2.9-.1 4-.1 2.4 0 4.5.2 5.6.8 1.8 1 2.4 2.4 2.4 4.3 0 3.1-1.4 3.9-3.8 5.2l.1.1c3 1 5.1 2.9 5.1 6.2 0 1.6-1 3.8-2.4 4.7-1.3.8-3.1 1.1-6 1.1-2.2 0-3.4-.1-4.7-.1-1.6 0-3.4.1-4 .1-.4 0-.4-.1-.4-.2v-.8c0-.2.1-.2.3-.2h1.5c1 0 1.1-.4 1.3-1.4.1-.7.2-4.9.2-7.4v-3.7zm2.8 1.2c.5.1 1.1.1 1.6.1 1.8 0 3.2-.3 4-.8 1.3-1 1.8-2.4 1.8-3.8 0-1.2-.4-2.4-1.5-3.3-1.1-.8-2.7-1.1-4.3-1.1h-1c-.3.1-.4.3-.4.6 0 .6-.1 3.4-.1 6v2.3zm0 3v4.3c0 2.9.7 4.2 3.3 4.2 2.6 0 5-1.3 5-5 0-2.5-1.3-4.2-3.1-4.9-1.3-.5-2.8-.5-4.2-.5h-1v1.9zM34.7 25c0-1.6-.3-1.9-1.1-2.4l-.6-.3c-.2-.1-.3-.1-.3-.2v-.2c0-.1.1-.2.3-.3l3.1-1.6c.2-.1.3-.1.4-.1.2 0 .2.2.2.4l.2 2.2h.1c.9-1.4 2.4-2.7 3.8-2.7 1.1 0 1.6.7 1.6 1.4 0 .9-.8 1.5-1.3 1.5-.3 0-.7-.1-.9-.3-.3-.2-.6-.3-1-.3-.5 0-1.3.3-1.9 1.3-.2.3-.3.9-.3 1V31c0 1 .2 1.3.9 1.3h1.5c.2 0 .2.1.2.3v.6c0 .2 0 .3-.2.3s-1.6-.1-3.3-.1c-1.9 0-3.3.1-3.4.1-.1 0-.2-.1-.2-.3v-.5c0-.2.1-.3.3-.3H34c.5 0 .7-.2.7-.6V25zM46.5 24.2c0-1.1-.2-1.6-1.8-1.9-.2 0-.3-.1-.3-.2v-.3c0-.1.1-.2.2-.2 1-.4 2.2-.9 3.4-1.5.3-.1.4-.2.6-.2.2 0 .2.2.2.4-.1.5-.1 2.5-.1 5.1v6.1c.1.6.2.8.5.8h1.4c.3 0 .3.1.3.3v.5c0 .2-.1.3-.3.3-.3 0-1.7-.1-3-.1-1.8 0-3 .1-3.4.1-.2 0-.3-.1-.3-.3v-.6c0-.2.1-.3.3-.3H46c.3 0 .5-.1.5-.6v-7.4zm-1.4-9.5c0-.8.7-1.6 1.9-1.6 1.1 0 1.6.8 1.6 1.5 0 .8-.6 1.7-1.8 1.7-.7 0-1.7-.6-1.7-1.6zM55.9 25c-.1.3-.1.8-.1 1.5 0 3.1 1.9 5.4 4.5 5.4 1.9 0 3.3-1.1 3.8-2.1.1-.1.2-.2.3-.2l.4.2c.1 0 .2.1 0 .5-.6 1.3-2.2 3.4-5 3.4-1.8 0-3.8-.5-4.9-2.2-1.1-1.6-1.4-2.8-1.4-5 0-1.2.3-3.3 2-5 1.3-1.4 2.9-1.7 4.5-1.7 3.6 0 4.6 3.4 4.6 4.6 0 .4-.4.5-.9.5h-7.8zm5-.9c.6 0 .8-.2.8-.4 0-.7-.4-2.8-2.4-2.8-1.4 0-2.7.9-3.3 3.2h4.9zM69.4 25c0-1.6-.3-1.9-1.1-2.4l-.6-.3c-.2-.1-.3-.1-.3-.2v-.2c0-.1.1-.2.3-.3l3.1-1.6c.2-.1.3-.1.4-.1.2 0 .2.2.2.4l.2 2.2h.1c.9-1.4 2.4-2.7 3.8-2.7 1.1 0 1.6.7 1.6 1.4 0 .9-.8 1.5-1.3 1.5-.3 0-.7-.1-.9-.3-.3-.2-.6-.3-1-.3-.5 0-1.3.3-1.9 1.3-.2.3-.3.9-.3 1V31c0 1 .2 1.3.9 1.3H74c.2 0 .2.1.2.3v.6c0 .2 0 .3-.2.3s-1.6-.1-3.3-.1c-1.9 0-3.3.1-3.4.1-.1 0-.2-.1-.2-.3v-.5c0-.2.1-.3.3-.3h1.2c.5 0 .7-.2.7-.6V25zM101.8 28.8c-1.5 1.9-3.8 5-7.8 5-3 0-6.6-1.9-6.6-5.5 0-2.3 1.3-4.1 2.5-5.3 1.1-1 2.4-1.9 3.6-2.6-2.2-1.3-3.3-2.8-3.3-3.9 0-2.5 3.2-5.4 5.1-5.4 2.4 0 4.5 2.3 4.4 4.4-.1 1.6-2.1 3.6-3.4 4.3 2.2 1.2 5 3.8 6.6 6.1 1-1.3 3-4.2 3.1-5.1.1-.5-.3-1-1-1h-.5c-.2 0-.2-.1-.2-.2V19c0-.1 0-.2.2-.2.3 0 2 .1 3 .1 1.2 0 3-.1 3.2-.1.2 0 .2.1.2.2v.7c0 .1 0 .2-.2.2h-.5c-1.6 0-1.9.1-2.4.9-.2.3-3.5 5.1-4.3 6 .5.5 1.9 2.2 2.4 2.6.8.8 2.2 2.4 4.2 2.4 1.9 0 3.3-2.2 3.4-2.4.1-.1.1-.1.3 0l.5.3c.1 0 .1.1 0 .3-.5 1-2.2 4-5.8 4-3.4-.2-5.4-3.4-6.7-5.2zm-.7-.7c-1.4-2-4-5.4-6.9-7-2.3 1.3-4.3 3.6-4.2 6.1.1 2.6 2.8 4.7 5.2 4.7 3 0 5-2.9 5.9-3.8zm-8.7-12.2c0 1.2 1.7 2.5 3.2 3.4.8-.6 2.3-1.5 2.3-4 0-1.1-1-3.1-2.5-3.1-1.6.1-3 1.9-3 3.7zM125.7 19.7c0-1.2-.1-5-.1-5.6-.1-1.8-.6-1.9-2-1.9h-1c-.2 0-.3-.1-.3-.2v-.8c0-.2.1-.2.3-.2.5 0 1.9.1 4.2.1 1 0 2.9-.1 4-.1 2.4 0 4.5.2 5.5.8 1.8 1 2.4 2.4 2.4 4.3 0 3.1-1.4 3.9-3.8 5.2l.1.1c3 1 5.1 2.9 5.1 6.2 0 1.6-1 3.8-2.4 4.7-1.3.8-3.1 1.1-6 1.1-2.2 0-3.4-.1-4.7-.1-1.6 0-3.4.1-4 .1-.4 0-.4-.1-.4-.2v-.8c0-.2.1-.2.3-.2h1.5c1 0 1.1-.4 1.3-1.4.1-.7.2-4.9.2-7.4v-3.7zm2.7 1.2c.6.1 1.1.1 1.7.1 1.8 0 3.2-.3 4-.8 1.3-1 1.8-2.4 1.8-3.8 0-1.2-.4-2.4-1.5-3.3-1.1-.8-2.7-1.1-4.3-1.1h-1c-.2.1-.4.3-.4.6 0 .6-.1 3.4-.1 6v2.3zm0 3v4.3c0 2.9.7 4.2 3.3 4.2 2.6 0 5-1.3 5-5 0-2.5-1.3-4.2-3.1-4.9-1.3-.5-2.8-.5-4.2-.5h-1v1.9zM145.7 25c0-1.6-.3-1.9-1.1-2.4l-.6-.3c-.2-.1-.3-.1-.3-.2v-.2c0-.1.1-.2.3-.3l3.1-1.6c.2-.1.3-.1.4-.1.2 0 .2.2.2.4l.2 2.2h.1c.9-1.4 2.4-2.7 3.8-2.7 1.1 0 1.6.7 1.6 1.4 0 .9-.8 1.5-1.3 1.5-.3 0-.7-.1-.9-.3-.3-.2-.6-.3-1-.3-.5 0-1.3.3-1.8 1.3-.2.3-.3.9-.3 1V31c0 1 .2 1.3.9 1.3h1.5c.2 0 .2.1.2.3v.6c0 .2 0 .3-.2.3s-1.6-.1-3.3-.1c-1.9 0-3.3.1-3.4.1-.1 0-.2-.1-.2-.3v-.5c0-.2.1-.3.3-.3h1.2c.5 0 .7-.2.7-.6V25zM157.5 24.2c0-1.1-.2-1.6-1.8-1.9-.2 0-.3-.1-.3-.2v-.3c0-.1.1-.2.2-.2 1-.4 2.2-.9 3.4-1.5.2-.1.4-.2.6-.2.2 0 .2.2.2.4-.1.5-.1 2.5-.1 5.1v6.1c.1.6.2.8.5.8h1.4c.3 0 .3.1.3.3v.5c0 .2-.1.3-.3.3-.3 0-1.7-.1-3-.1-1.8 0-3 .1-3.4.1-.2 0-.3-.1-.3-.3v-.6c0-.2.1-.3.3-.3h1.5c.3 0 .5-.1.5-.6v-7.4zm-1.4-9.5c0-.8.7-1.6 1.9-1.6 1.1 0 1.6.8 1.6 1.5 0 .8-.6 1.7-1.8 1.7-.7 0-1.7-.6-1.7-1.6zM166.9 25c-.1.3-.1.8-.1 1.5 0 3.1 1.9 5.4 4.5 5.4 1.9 0 3.3-1.1 3.8-2.1.1-.1.2-.2.3-.2l.4.2c.1 0 .2.1 0 .5-.6 1.3-2.2 3.4-5 3.4-1.8 0-3.8-.5-4.9-2.2-1.1-1.6-1.4-2.8-1.4-5 0-1.2.3-3.3 2-5 1.3-1.4 2.9-1.7 4.5-1.7 3.6 0 4.6 3.4 4.6 4.6 0 .4-.4.5-.9.5h-7.8zm5-.9c.6 0 .8-.2.8-.4 0-.7-.4-2.8-2.4-2.8-1.4 0-2.7.9-3.3 3.2h4.9zM180.3 25c0-1.6-.3-1.9-1.1-2.4l-.6-.3c-.2-.1-.3-.1-.3-.2v-.2c0-.1.1-.2.3-.3l3.1-1.6c.2-.1.3-.1.4-.1.2 0 .2.2.2.4l.2 2.2h.1c.9-1.4 2.4-2.7 3.8-2.7 1.1 0 1.6.7 1.6 1.4 0 .9-.8 1.5-1.3 1.5-.3 0-.7-.1-.9-.3-.3-.2-.6-.3-1-.3-.5 0-1.3.3-1.8 1.3-.2.3-.3.9-.3 1V31c0 1 .2 1.3.9 1.3h1.5c.2 0 .2.1.2.3v.6c0 .2 0 .3-.2.3s-1.6-.1-3.3-.1c-1.9 0-3.3.1-3.4.1-.1 0-.2-.1-.2-.3v-.5c0-.2.1-.3.3-.3h1.2c.5 0 .7-.2.7-.6V25z"/></g><g fill="#BBB"><path d="M2.8 61.5c0-.3 0-2.9-.1-3.1 0-.3-.2-.5-.7-.5h-.8c-.1 0-.1 0-.1-.1v-.4c0-.1 0-.1.1-.1h4.1c.1 0 .1 0 .1.1v.4c0 .1 0 .1-.1.1h-.7c-.3 0-.5.1-.5.4v8c0 .4.2.5.7.5h.6c.1 0 .1 0 .1.1v.4c0 .1 0 .1-.1.1h-4c-.1 0-.1 0-.1-.1v-.4c0-.1 0-.1.1-.1h.8c.3 0 .6 0 .6-.4 0-.2.1-3.2.1-4v-.9zM12.6 66.6c0 .2.1.3.3.3h.4c.1 0 .2 0 .2.1v.2c0 .1 0 .2-.1.2h-2.6c-.1 0-.1 0-.1-.2V67c0-.1 0-.1.2-.1h.4c.2 0 .3-.1.3-.3V63.5c0-.6 0-1-.4-1.3-.3-.3-.7-.3-1-.3-.2 0-.7.1-1.1.5-.3.3-.3.7-.3 1v2.9c0 .4 0 .5.3.5h.4c.1 0 .1 0 .1.1v.2c0 .1 0 .1-.1.1H7.1c-.1 0-.1 0-.1-.1V67c0-.1 0-.1.1-.1h.4c.2 0 .3 0 .3-.3v-3.3c0-.4-.2-.7-.6-.8l-.2-.1c-.1 0-.1-.1-.1-.1v-.1c0-.1.1-.1.1-.1l1.2-.7c.1-.1.2-.1.3-.1.1 0 .1.1.1.2l.1.9c.4-.5 1.2-1 1.9-1 .4 0 .9.1 1.2.3.4.3.8 1 .8 1.3v3.6zM15 67.1c-.1 0-.1-.1-.1-.2l-.2-1.3c0-.1 0-.1.1-.1h.2c.1 0 .1 0 .1.1l.4.7c.3.5.5.9 1.2.9.5 0 1.1-.3 1.1-1 0-.6-.3-1-1.4-1.3-.8-.2-1.7-.7-1.7-1.8 0-1 .9-1.7 2-1.7.7 0 1 .2 1.3.3.2.1.2.2.3.3l.2 1c0 .1 0 .1-.1.1l-.3-.1c-.1 0-.1 0-.1-.1l-.5-.6c-.2-.3-.4-.5-1-.5-.5 0-1.1.3-1.1.9 0 .8.7 1 1.3 1.2 1 .3 1.7.7 1.7 1.8s-.9 1.9-2.1 1.9c-.6-.1-1.2-.4-1.3-.5zM25.2 64.5v1.7c0 .4.2.5.4.5h.5c.1 0 .2 0 .2.1v.2c0 .1 0 .1-.1.1l-1.5.5c-.1 0-.2.1-.3.1-.1 0-.1 0-.1-.2l-.1-.8c-.4.5-1.2 1-1.9 1-.4 0-.9 0-1.3-.6-.6-.7-.5-1.2-.5-2.7v-1.6c0-.4-.2-.5-.5-.5-.2 0-.3 0-.3-.1v-.3c0-.1 0-.1.2-.1H21.5c.1 0 .2.1.2.2s-.1.8-.1 1.6v1c0 .6-.1 1.5.3 2.1.4.5.7.5 1.1.5s.9-.4 1.2-.7c.1-.1.1-.3.1-.4v-3.3c0-.4-.3-.5-.6-.5-.2 0-.3 0-.3-.1V62c0-.1 0-.1.2-.1h1.7c.1 0 .1.1.1.1 0 .1-.1.5-.1 1.9v.6zM28 63.6c0-.7-.1-.9-.5-1.1l-.3-.1c-.1 0-.1 0-.1-.1v-.1c0-.1 0-.1.1-.1l1.4-.7c.1 0 .1-.1.2-.1s.1.1.1.2l.1 1h.1c.4-.6 1.1-1.2 1.7-1.2.5 0 .7.3.7.6 0 .4-.3.7-.6.7-.2 0-.3-.1-.4-.1-.1-.1-.3-.1-.5-.1s-.6.1-.8.6c-.1.2-.1.4-.1.4v2.9c0 .4.1.6.4.6h.7c.1 0 .1 0 .1.1v.3c0 .1 0 .1-.1.1h-3c-.1 0-.1 0-.1-.1V67c0-.1 0-.1.2-.1h.5c.2 0 .3-.1.3-.3v-3zM36.5 65.7c0 .8.2 1.1.4 1.1s.4-.1.5-.2l.1-.1.1.1s.1.1 0 .3c-.1.2-.4.7-1.1.7-.5 0-.9-.4-1-.9-.3.4-.8.6-1.4.9-.3.1-.5.1-.8.1-.3 0-.8-.3-.8-1.2 0-.6.3-1.2 1.4-1.7.6-.3 1.4-.6 1.6-.8v-.9c0-.2 0-.6-.2-.8s-.4-.3-.8-.3c-.3 0-.7.1-.9.3-.2.2-.1.4-.1.6 0 .5-.2.8-.7.8-.2 0-.3-.1-.3-.4 0-.4.4-1 1-1.3.6-.4 1.1-.5 1.7-.5.7 0 .9.2 1.1.4.3.3.3.6.3 1v2.8zm-1-1.4c-.5.4-1.9.7-1.9 1.8 0 .5.3.8.7.8.4 0 1.1-.5 1.1-.9v-1.7zM44.4 66.6c0 .2.1.3.3.3h.4c.1 0 .2 0 .2.1v.2c0 .1 0 .2-.1.2h-2.6c-.1 0-.1 0-.1-.2V67c0-.1 0-.1.2-.1h.3c.2 0 .3-.1.3-.3V63.5c0-.6 0-1-.4-1.3-.3-.3-.7-.3-1-.3-.2 0-.7.1-1.1.5-.3.3-.3.7-.3 1v2.9c0 .4 0 .5.3.5h.4c.1 0 .1 0 .1.1v.2c0 .1 0 .1-.1.1h-2.4c-.1 0-.1 0-.1-.1V67c0-.1 0-.1.1-.1h.4c.2 0 .3 0 .3-.3v-3.3c0-.4-.2-.7-.6-.8l-.1-.1c-.1 0-.1-.1-.1-.1v-.1c0-.1.1-.1.1-.1l1.2-.7c.1-.1.2-.1.3-.1.1 0 .1.1.1.2l.1.9c.4-.5 1.2-1 1.9-1 .4 0 .9.1 1.2.3.4.3.8 1 .8 1.3v3.6zM47.4 63.9c0 .8.3 1.6.7 2.1.5.6 1.1.7 1.5.7.7 0 1.1-.2 1.5-.6h.1l.1.1c.1.1.1.1 0 .2-.4.5-1.3 1-2.3 1-.7 0-1.5-.2-2.2-1-.5-.7-.6-1.3-.6-1.9 0-1.6 1.1-3.3 3-3.3 1.5 0 1.9.8 1.9 1.1 0 .3-.2.5-.5.5s-.6-.2-.8-.6c-.3-.6-.6-.6-.9-.6-.7.2-1.5.9-1.5 2.3zM53.5 63.6v.7c0 1.4.9 2.4 2 2.4.9 0 1.5-.5 1.7-1 0-.1.1-.1.1-.1l.2.1s.1.1 0 .2c-.3.6-1 1.5-2.2 1.5-.8 0-1.7-.2-2.2-1-.5-.7-.6-1.2-.6-2.2 0-.5.1-1.5.9-2.2.6-.6 1.3-.7 2-.7 1.6 0 2.1 1.5 2.1 2.1 0 .2-.2.2-.4.2h-3.6zm2.2-.4c.3 0 .4-.1.4-.2 0-.3-.2-1.2-1.1-1.2-.6 0-1.2.4-1.5 1.4h2.2zM66.7 65.7c0 .8.2 1.1.4 1.1s.4-.1.5-.2l.1-.1.1.1s.1.1 0 .3c-.1.2-.4.7-1.1.7-.5 0-.9-.4-1-.9-.3.4-.8.6-1.4.9-.3.1-.5.1-.8.1-.3 0-.8-.3-.8-1.2 0-.6.3-1.2 1.4-1.7.6-.3 1.4-.6 1.6-.8v-.9c0-.2 0-.6-.2-.8s-.4-.3-.8-.3c-.3 0-.7.1-.9.3-.2.2-.1.4-.1.6 0 .5-.2.8-.7.8-.2 0-.3-.1-.3-.4 0-.4.4-1 1-1.3.6-.4 1.1-.5 1.7-.5.7 0 .9.2 1.1.4.3.3.3.6.3 1v2.8zm-1.1-1.4c-.5.4-1.9.7-1.9 1.8 0 .5.3.8.7.8.4 0 1.1-.5 1.1-.9v-1.7zM74.5 66.6c0 .2.1.3.3.3h.4c.1 0 .2 0 .2.1v.2c0 .1 0 .2-.1.2h-2.6c-.1 0-.1 0-.1-.2V67c0-.1 0-.1.2-.1h.4c.2 0 .3-.1.3-.3V63.5c0-.6 0-1-.4-1.3-.3-.3-.7-.3-1-.3-.2 0-.7.1-1.1.5-.3.3-.3.7-.3 1v2.9c0 .4 0 .5.3.5h.4c.1 0 .1 0 .1.1v.2c0 .1 0 .1-.1.1H69c-.1 0-.1 0-.1-.1V67c0-.1 0-.1.1-.1h.4c.2 0 .3 0 .3-.3v-3.3c0-.4-.2-.7-.6-.8l-.1-.1c-.1 0-.1-.1-.1-.1v-.1c0-.1.1-.1.1-.1l1.2-.7c.1-.1.2-.1.3-.1.1 0 .1.1.1.2l.1.9c.4-.5 1.2-1 1.9-1 .4 0 .9.1 1.2.3.4.3.8 1 .8 1.3v3.6zM81.1 58.8c0-.5-.1-.7-.9-.8-.1 0-.1 0-.1-.1v-.2c0-.1 0-.1.1-.1.5-.1 1.3-.2 1.5-.3h.3c.1 0 .1.1.1.3 0 .7-.1 2.7-.1 4.5v3.1c0 .5 0 1.1.1 1.3.1.1.4.2.6.2.2 0 .3 0 .3.1v.1c0 .1 0 .1-.1.2l-1.6.5c-.1 0-.2 0-.2-.1l-.2-.6c-.4.4-1.3.8-2.1.8-.5 0-1 0-1.7-.6-.7-.7-.9-1.3-.9-2.3 0-.9.3-1.7 1-2.4.5-.6 1.3-.9 2.1-.9.6 0 1.1.1 1.5.2v-2.9zm0 4.4c0-.2 0-.5-.1-.7-.2-.4-.6-.8-1.5-.8-.4 0-.9.1-1.3.5-.5.6-.6 1.3-.6 1.9 0 1.6 1.1 2.7 1.9 2.7.8 0 1.4-.4 1.5-.8.1-.2.1-.3.1-.5v-2.3zM90.7 62c.1 0 1.6-.1 1.8-.1.4-.1.5-.2.6-.6 0-.1.1-.4.1-.7 0-.1 0-.1.1-.1h.4c.1 0 .1.1.1.1v1.6c0 .5.1 1.2.1 1.5 0 .1 0 .1-.1.1h-.3c-.1 0-.1 0-.1-.1 0-.2-.1-.5-.2-.7-.1-.3-.2-.5-.6-.5-.7-.1-1.6-.1-1.9-.1v3.3c0 .7.4 1 .8 1.1.3.1.7.1 1 .1h1.2c.2 0 .9-.2 1.2-.5.2-.1 1-1.1 1.1-1.5 0-.1.1-.1.2-.1l.2.1c.1 0 .1.1 0 .2l-.7 2.1c0 .1-.1.2-.3.2H88c-.1 0-.1 0-.1-.1v-.4c0-.1 0-.1.1-.1h.6c.6 0 .7-.1.7-.6V61.5v-3.1c-.1-.4-.2-.5-.7-.5h-.5c-.1 0-.1 0-.1-.1v-.4s0-.1.1-.1h7.1c.1 0 .1 0 .1.1.1.2.7 2.1.7 2.3v.1l-.2.1h-.1c0-.1-1.1-1.4-1.4-1.6-.3-.2-.7-.4-1.1-.4l-2.5-.1V62zM102.6 63.7c0-1-.2-1.3-.4-1.5-.2-.2-.6-.3-.9-.3-.4 0-1 .2-1.3.8-.2.3-.2.5-.2.9v2.8c0 .2.1.4.3.4h.5c.1 0 .1 0 .1.1v.2c0 .1 0 .2-.1.2H98c-.1 0-.1 0-.1-.1V67c0-.1 0-.1.2-.1h.5c.1 0 .2-.1.2-.4v-3.2c0-.3-.1-.5-.4-.7l-.4-.2c-.1 0-.1-.1-.1-.1v-.1l.1-.1 1.2-.6c.1-.1.2-.1.3-.1.1 0 .1.1.1.2l.1.8c.4-.6 1.2-1.1 2.1-1.1.7 0 1.3.4 1.6 1.1h.1c.4-.5 1.2-1.1 2.1-1.1.5 0 .9.1 1.3.4.3.3.7.6.7 1.7v3.1c0 .2.1.3.3.3h.4c.1 0 .2 0 .2.1v.2c0 .1 0 .1-.1.1h-2.5c-.1 0-.1 0-.1-.1V67c0-.1 0-.1.2-.1h.4c.2 0 .3-.1.3-.3v-3.2c0-.5-.1-.9-.4-1.1-.3-.2-.6-.3-1-.3s-1 .3-1.2.7c-.2.4-.2.8-.2 1.4v2.4c0 .2.1.3.3.3h.5c.1 0 .2 0 .2.1v.2c0 .1 0 .2-.1.2h-2.5c-.1 0-.1 0-.1-.1V67c0-.1 0-.1.1-.1h.4c.2 0 .3-.1.3-.2v-3zM110.2 63.4c0-.3-.1-.5-.5-.8l-.3-.2c-.1 0-.1-.1-.1-.1v-.1s0-.1.1-.1l1.3-.7c.1-.1.2-.1.3-.1.1 0 .1.1.1.3l.1.7c.4-.5 1.1-.9 2-.9.7 0 1.2.3 1.6.7.5.5.8 1.1.8 2.2 0 1.8-1.3 3.3-3 3.3-.4 0-1-.1-1.4-.2v3c0 .4.1.5.3.5h.6c.1 0 .1.1.1.1v.2c0 .1 0 .1-.1.1h-2.8c-.1 0-.1 0-.1-.1v-.3c0-.1 0-.1.2-.1h.5c.2 0 .3-.1.3-.4v-7zm1 2.5c0 .3 0 .6.3.7.4.3.8.4 1.4.4.8 0 1.6-.6 1.6-2.3 0-2-.9-2.7-1.8-2.7-.6 0-1.2.3-1.5.9v3zM118.8 63.2v3.3c0 .2.1.4.4.4h.6c.1 0 .2 0 .2.1v.2c0 .1 0 .1-.1.1h-3.2c-.1 0-.1-.1-.1-.1V67c0-.1 0-.1.2-.1h.7c.2 0 .3-.1.3-.4V62v-2.6c0-.5-.3-.7-.7-.8l-.3-.1c-.1 0-.1 0-.1-.1v-.1s0-.1.1-.1c.5-.2 1.1-.5 1.6-.8.1-.1.2-.1.3-.1.1 0 .1.1.1.3 0 .8-.1 3.7-.1 4.5v1.1zM121.5 66.5c-.6-.8-.8-1.3-.8-2.3 0-.7.4-1.6 1.2-2.3.7-.6 1.4-.7 1.9-.7.8 0 1.5.4 2 .8.6.6 1 1.4 1 2.3 0 1.5-1.4 3.1-3.1 3.1-.7.1-1.6-.2-2.2-.9zm4.1-2.2c0-1.6-1.1-2.5-1.9-2.5-.4 0-.7.1-1.1.4-.5.6-.7 1.1-.7 2.2 0 .8.1 1.3.5 2 .3.5.7.7 1.4.7 1.1 0 1.8-1.3 1.8-2.8zM127.4 70.4c0-.3.3-.5.6-.5s.5.1.6.2c.1 0 .2 0 .3-.1.2-.3.9-1.9 1.1-2.4-.1-.4-1.6-4.7-1.7-5-.2-.4-.3-.6-.7-.6h-.4c-.1 0-.1 0-.1-.1v-.3c0-.1 0-.1.1-.1h2.6c.1 0 .1 0 .1.1v.3c0 .1 0 .1-.1.1h-.3c-.2 0-.2.1-.2.3 0 .3 1 3.4 1.2 3.7h.1c.1-.2 1.4-3.1 1.4-3.5s0-.5-.2-.5h-.2c-.1 0-.1 0-.1-.1v-.3c0-.1 0-.1.1-.1h2c.1 0 .1.1.1.1v.3c0 .1 0 .1-.1.1h-.2c-.2 0-.4.1-.5.3-.3.4-1.2 2.5-2.2 4.7-.7 1.6-1.2 2.9-1.5 3.3-.2.4-.4.9-1.2.9-.4 0-.6-.3-.6-.8zM135.2 63.6v.7c0 1.4.9 2.4 2 2.4.9 0 1.5-.5 1.7-1 0-.1.1-.1.1-.1l.2.1s.1.1 0 .2c-.3.6-1 1.5-2.2 1.5-.8 0-1.7-.2-2.2-1-.5-.7-.6-1.2-.6-2.2 0-.5.1-1.5.9-2.2.6-.6 1.3-.7 2-.7 1.6 0 2.1 1.5 2.1 2.1 0 .2-.2.2-.4.2h-3.6zm2.2-.4c.3 0 .4-.1.4-.2 0-.3-.2-1.2-1.1-1.2-.6 0-1.2.4-1.5 1.4h2.2zM141.5 63.6v.7c0 1.4.9 2.4 2 2.4.9 0 1.5-.5 1.7-1 0-.1.1-.1.1-.1l.2.1s.1.1 0 .2c-.3.6-1 1.5-2.2 1.5-.8 0-1.7-.2-2.2-1-.5-.7-.6-1.2-.6-2.2 0-.5.1-1.5.9-2.2.6-.6 1.3-.7 2-.7 1.6 0 2.1 1.5 2.1 2.1 0 .2-.2.2-.4.2h-3.6zm2.2-.4c.3 0 .4-.1.4-.2 0-.3-.2-1.2-1.1-1.2-.6 0-1.2.4-1.5 1.4h2.2zM151.9 61.2v-2.5c0-.8-.3-.8-.9-.8h-.4c-.1 0-.1 0-.1-.1v-.4c0-.1 0-.1.1-.1h3.7c1.1 0 2 .1 2.5.4.8.4 1.1 1.1 1.1 1.9 0 1.4-.6 1.7-1.7 2.3 1.4.4 2.3 1.3 2.3 2.8 0 .7-.4 1.7-1.1 2.1-.6.4-1.4.5-2.7.5H150.8c-.2 0-.2 0-.2-.1v-.4c0-.1 0-.1.1-.1h.7c.4 0 .5-.2.6-.6 0-.3.1-2.2.1-3.3v-1.6zm1.2.6h.7c.8 0 1.4-.1 1.8-.4.6-.4.8-1.1.8-1.7 0-.5-.2-1.1-.7-1.5-.5-.4-1.2-.5-1.9-.5h-.5c-.1 0-.2.1-.2.3V61.8zm0 1.3V65c0 1.3.3 1.9 1.5 1.9s2.3-.6 2.3-2.2c0-1.1-.6-1.9-1.4-2.2-.6-.2-1.2-.2-1.9-.2h-.4v.8zM161.1 63.6v.7c0 1.4.9 2.4 2 2.4.9 0 1.5-.5 1.7-1 0-.1.1-.1.1-.1l.2.1s.1.1 0 .2c-.3.6-1 1.5-2.2 1.5-.8 0-1.7-.2-2.2-1-.5-.7-.6-1.2-.6-2.2 0-.5.1-1.5.9-2.2.6-.6 1.3-.7 2-.7 1.6 0 2.1 1.5 2.1 2.1 0 .2-.2.2-.4.2h-3.6zm2.2-.4c.3 0 .4-.1.4-.2 0-.3-.2-1.2-1.1-1.2-.6 0-1.2.4-1.5 1.4h2.2zM172 66.6c0 .2.1.3.3.3h.4c.1 0 .2 0 .2.1v.2c0 .1 0 .2-.1.2h-2.6c-.1 0-.1 0-.1-.2V67c0-.1 0-.1.2-.1h.4c.2 0 .3-.1.3-.3V63.5c0-.6 0-1-.4-1.3-.3-.3-.7-.3-1-.3-.2 0-.7.1-1.1.5-.3.3-.3.7-.3 1v2.9c0 .4 0 .5.3.5h.4c.1 0 .1 0 .1.1v.2c0 .1 0 .1-.1.1h-2.4c-.1 0-.1 0-.1-.1V67c0-.1 0-.1.1-.1h.4c.2 0 .3 0 .3-.3v-3.3c0-.4-.2-.7-.6-.8l-.1-.1c-.1 0-.1-.1-.1-.1v-.1c0-.1.1-.1.1-.1l1.2-.7c.1-.1.2-.1.3-.1.1 0 .1.1.1.2l.1.9c.4-.5 1.2-1 1.9-1 .4 0 .9.1 1.2.3.4.3.8 1 .8 1.3v3.6zM175.1 63.6v.7c0 1.4.9 2.4 2 2.4.9 0 1.5-.5 1.7-1 0-.1.1-.1.1-.1l.2.1s.1.1 0 .2c-.3.6-1 1.5-2.2 1.5-.8 0-1.7-.2-2.2-1-.5-.7-.6-1.2-.6-2.2 0-.5.1-1.5.9-2.2.6-.6 1.3-.7 2-.7 1.6 0 2.1 1.5 2.1 2.1 0 .2-.2.2-.4.2h-3.6zm2.2-.4c.3 0 .4-.1.4-.2 0-.3-.2-1.2-1.1-1.2-.6 0-1.2.4-1.5 1.4h2.2zM181.2 62.2h-.9c-.1 0-.1-.1-.1-.1l.1-.4c0-.1.1-.1.2-.1h.8v-.2c0-1.4.4-2.2 1.1-2.9.8-.8 1.8-1.2 2.5-1.2.8 0 1.4.5 1.4 1s-.4.7-.7.7c-.3 0-.6-.2-.9-.5-.2-.3-.4-.4-.7-.4-.4 0-.8.2-1.1.5-.7.7-.7 1.9-.7 2.8v.3h2c.5 0 1.1-.1 1.5-.2.1 0 .2-.1.3-.1.1 0 .1.1.1.2v5.1c0 .3.1.4.3.4h.6c.1 0 .1 0 .1.1v.3c0 .1 0 .1-.1.1h-2.7c-.1 0-.1 0-.1-.1V67c0-.1 0-.1.1-.1h.6c.1 0 .2-.1.2-.3v-3.3c0-.8-.2-1.1-1.2-1.1h-1.7v4.3c0 .2 0 .4.3.4h.6c.1 0 .1 0 .1.1v.3c0 .1 0 .1-.1.1h-3c-.1 0-.1 0-.1-.1V67c0-.1 0-.1.1-.1h.7c.2 0 .3-.1.3-.5v-4.2zM190 65.6c0 1.1.5 1.2.7 1.2.3 0 .7-.1.9-.2h.2l.1.1v.2c-.1.1-.7.6-1.6.6-.7 0-1.4-.7-1.4-1.2V64v-1.8h-.9c-.1 0-.2-.1-.2-.2s.1-.2.3-.3c.3-.2 1.4-1.3 1.6-1.8 0-.1.1-.1.2-.1s.1.1.1.2l-.1 1.4h1.9c.1 0 .1.1.1.1l-.1.5c0 .1 0 .1-.1.1h-1.8v3.5zM193.3 67.1c-.1 0-.1-.1-.1-.2l-.2-1.3c0-.1 0-.1.1-.1h.2c.1 0 .1 0 .1.1l.4.7c.3.5.5.9 1.2.9.5 0 1.1-.3 1.1-1 0-.6-.3-1-1.4-1.3-.8-.2-1.7-.7-1.7-1.8 0-1 .9-1.7 2-1.7.7 0 1 .2 1.3.3.2.1.2.2.3.3l.2 1c0 .1 0 .1-.1.1l-.2.1c-.1 0-.1 0-.1-.1l-.5-.6c-.2-.3-.4-.5-1-.5-.5 0-1.1.3-1.1.9 0 .8.7 1 1.3 1.2 1 .3 1.7.7 1.7 1.8s-.9 1.9-2.1 1.9l-1.4-.7z"/></g><g fill="#BBB"><path d="M58.6 82.9l.9-2.4c.1-.4.1-.6-.2-.6h-.1c-.1 0-.1 0-.1-.1v-.2c0-.1 0-.1.1-.1h1.6c.1 0 .1 0 .1.1v.2c0 .1 0 .1-.1.1h-.3c-.1 0-.3.1-.3.2-.1.2-1.5 3.6-1.6 3.9 0 .1-.1.1-.2.1s-.1-.1-.2-.2l-1-3H57L55.7 84c-.1.1-.1.2-.2.2s-.1-.1-.2-.2l-1.4-3.8c-.1-.2-.2-.3-.4-.3h-.2c-.1 0-.1 0-.1-.1v-.2c0-.1 0-.1.1-.1h1.9c.1 0 .1 0 .1.1v.2c0 .1 0 .1-.1.1H55c-.1 0-.2.1-.1.3l.8 2.8 1.1-2.6c0-.2 0-.3-.1-.3 0-.1-.1-.1-.2-.1h-.2c-.1 0-.1 0-.1-.1v-.2c0-.1 0-.1.1-.1h1.8c.1 0 .1 0 .1.1v.2c0 .1 0 .1-.1.1h-.2c-.1 0-.2.1-.1.3l.8 2.6z"/><path d="M66.1 82.9l.9-2.4c.1-.4.1-.6-.2-.6h-.1c-.1 0-.1 0-.1-.1v-.2c0-.1 0-.1.1-.1h1.6c.1 0 .1 0 .1.1v.2c0 .1 0 .1-.1.1H68c-.1 0-.3.1-.3.2-.1.2-1.5 3.6-1.6 3.9 0 .1-.1.1-.2.1s-.1-.1-.2-.2l-1-3h-.1L63.3 84c-.1.1-.1.2-.2.2s-.1-.1-.2-.2l-1.4-3.8c-.1-.2-.2-.3-.4-.3h-.2c-.1 0-.1 0-.1-.1v-.2c0-.1 0-.1.1-.1h1.9c.1 0 .1 0 .1.1v.2c0 .1 0 .1-.1.1h-.1c-.1 0-.2.1-.1.3l.8 2.8 1.1-2.6c0-.2 0-.3-.1-.3-.1-.1-.2-.1-.4-.1h-.2c-.1 0-.1 0-.1-.1v-.2c0-.1 0-.1.1-.1h1.8c.1 0 .1 0 .1.1v.2c0 .1 0 .1-.1.1h-.2c-.1 0-.2.1-.1.3l.8 2.6z"/><path d="M73.7 82.9l.9-2.4c.1-.4.1-.6-.2-.6h-.1c-.1 0-.1 0-.1-.1v-.2c0-.1 0-.1.1-.1h1.6c.1 0 .1 0 .1.1v.2c0 .1 0 .1-.1.1h-.3c-.1 0-.3.1-.3.2-.1.2-1.5 3.6-1.6 3.9 0 .1-.1.1-.2.1s-.1-.1-.2-.2l-1-3h-.1L70.8 84c-.1.1-.1.2-.2.2s-.1-.1-.2-.2L69 80.2c-.1-.2-.2-.3-.4-.3h-.2c-.1 0-.1 0-.1-.1v-.2c0-.1 0-.1.1-.1h1.9c.1 0 .1 0 .1.1v.2c0 .1 0 .1-.1.1h-.1c-.1 0-.2.1-.1.3l.8 2.8 1.1-2.6c0-.2 0-.3-.1-.3-.1-.1-.2-.1-.3-.1h-.2c-.1 0-.1 0-.1-.1v-.2c0-.1 0-.1.1-.1h1.8c.1 0 .1 0 .1.1v.2c0 .1 0 .1-.1.1H73c-.1 0-.2.1-.1.3l.8 2.6zM75.9 83.5c0-.2.1-.6.7-.6.3 0 .6.2.6.6 0 .4-.3.6-.6.6-.3.1-.7-.1-.7-.6zM78.9 78.3c0-.7-.1-.9-.5-1h-.1c-.1 0-.1-.1-.1-.1v-.1s0-.1.1-.1c.3-.1.9-.4 1.1-.6.1-.1.2-.1.2-.1.1 0 .1.1.1.2V80c.3-.3 1-.5 1.5-.5.9 0 2 .8 2 2.3 0 1.3-1 2.4-2.2 2.4-.6 0-1-.1-1.3-.3l-.4.2h-.2s-.1 0 0-.1v-5.7zm.7 3.4c0 .9 0 1.2.2 1.6.1.3.6.5 1 .5.6 0 1.4-.4 1.4-1.8 0-1-.5-2-1.6-2-.4 0-.8.1-1 .4v1.3zM84.7 81.2c0-.5-.1-.7-.4-.8l-.2-.1c-.1 0-.1 0-.1-.1v-.1s0-.1.1-.1l1.1-.5h.1c.1 0 .1.1.1.1l.1.7c.3-.5.8-.9 1.3-.9.4 0 .5.2.5.5s-.3.5-.4.5c-.1 0-.2 0-.3-.1-.1-.1-.2-.1-.4-.1s-.4.1-.6.4c-.1.1-.1.3-.1.3v2.2c0 .3.1.4.3.4h.5c.1 0 .1 0 .1.1v.4c0 .1 0 .1-.1.1H84s-.1 0-.1-.1v-.2c0-.1 0-.1.1-.1h.4c.2 0 .2-.1.2-.2v-2.3zM88.8 80.9c0-.4-.1-.6-.6-.6-.1 0-.1 0-.1-.1v-.1s0-.1.1-.1c.3-.1.7-.3 1.2-.5.1 0 .1-.1.2-.1s.1.1.1.1v3.8c0 .2.1.3.2.3h.5c.1 0 .1 0 .1.1v.3c0 .1 0 .1-.1.1h-2.2c-.1 0-.1 0-.1-.1v-.2c0-.1 0-.1.1-.1h.5c.1 0 .2 0 .2-.2v-2.6zm-.5-3.2c0-.3.2-.6.7-.6.4 0 .6.3.6.5 0 .3-.2.6-.6.6-.4 0-.7-.2-.7-.5zM92 81.2v.5c0 1 .7 1.8 1.5 1.8.7 0 1.1-.4 1.3-.7l.1-.1.1.1s.1 0 0 .2c-.2.4-.7 1.2-1.7 1.2-.6 0-1.3-.2-1.7-.8-.4-.5-.5-.9-.5-1.7 0-.4.1-1.1.7-1.7.5-.5 1-.6 1.5-.6 1.2 0 1.6 1.2 1.6 1.6 0 .2-.1.2-.3.2H92zm1.7-.3c.2 0 .3-.1.3-.1 0-.2-.1-1-.8-1-.5 0-.9.3-1.1 1.1h1.6zM96.6 81.2c0-.5-.1-.7-.4-.8l-.2-.1c-.1 0-.1 0-.1-.1v-.1s0-.1.1-.1l1.1-.5h.1c.1 0 .1.1.1.1l.1.7c.3-.5.8-.9 1.3-.9.4 0 .5.2.5.5s-.3.5-.4.5c-.1 0-.2 0-.3-.1-.1-.1-.2-.1-.4-.1s-.4.1-.6.4c-.1.1-.1.3-.1.3v2.2c0 .3.1.4.3.4h.5c.1 0 .1 0 .1.1v.4c0 .1 0 .1-.1.1h-2.3s-.1 0-.1-.1v-.2c0-.1 0-.1.1-.1h.4c.2 0 .2-.1.2-.2v-2.3zM99.9 81c0-.1.1-.1 0 0l3.1-.1c.1 0 .1 0 .1.1v.4c0 .1 0 .1-.1.1h-3c-.1 0-.1 0-.1-.1V81zM104.7 78.3c0-.7-.1-.9-.5-1h-.1c-.1 0-.1-.1-.1-.1v-.1s0-.1.1-.1c.3-.1.9-.4 1.1-.6.1-.1.2-.1.2-.1.1 0 .1.1.1.2V80c.3-.3 1-.5 1.5-.5.9 0 2 .8 2 2.3 0 1.3-1 2.4-2.2 2.4-.6 0-1-.1-1.3-.3l-.4.2h-.2s-.1 0 0-.1v-5.7zm.8 3.4c0 .9 0 1.2.2 1.6.1.3.6.5 1 .5.6 0 1.4-.4 1.4-1.8 0-1-.5-2-1.6-2-.4 0-.8.1-1 .4v1.3zM110.6 81.2c0-.5-.1-.7-.4-.8l-.2-.1c-.1 0-.1 0-.1-.1v-.1s0-.1.1-.1l1.1-.5h.2c.1 0 .1.1.1.1l.1.7c.3-.5.8-.9 1.3-.9.4 0 .5.2.5.5s-.3.5-.4.5c-.1 0-.2 0-.3-.1-.1-.1-.2-.1-.4-.1s-.4.1-.6.4c-.1.1-.1.3-.1.3v2.2c0 .3.1.4.3.4h.5c.1 0 .1 0 .1.1v.4c0 .1 0 .1-.1.1H110s-.1 0-.1-.1v-.2c0-.1 0-.1.1-.1h.4c.2 0 .2-.1.2-.2v-2.3zM114.6 80.9c0-.4-.1-.6-.6-.6-.1 0-.1 0-.1-.1v-.1s0-.1.1-.1c.3-.1.7-.3 1.2-.5.1 0 .1-.1.2-.1s.1.1.1.1v3.8c0 .2.1.3.2.3h.5c.1 0 .1 0 .1.1v.3c0 .1 0 .1-.1.1H114c-.1 0-.1 0-.1-.1v-.2c0-.1 0-.1.1-.1h.5c.1 0 .2 0 .2-.2v-2.6zm-.5-3.2c0-.3.2-.6.7-.6.4 0 .6.3.6.5 0 .3-.2.6-.6.6-.3 0-.7-.2-.7-.5zM117.8 81.2v.5c0 1 .7 1.8 1.5 1.8.7 0 1.1-.4 1.3-.7l.1-.1.1.1s.1 0 0 .2c-.2.4-.7 1.2-1.7 1.2-.6 0-1.3-.2-1.7-.8-.4-.5-.5-.9-.5-1.7 0-.4.1-1.1.7-1.7.5-.5 1-.6 1.5-.6 1.2 0 1.6 1.2 1.6 1.6 0 .2-.1.2-.3.2h-2.6zm1.7-.3c.2 0 .3-.1.3-.1 0-.2-.1-1-.8-1-.5 0-.9.3-1.1 1.1h1.6zM122.4 81.2c0-.5-.1-.7-.4-.8l-.2-.1c-.1 0-.1 0-.1-.1v-.1s0-.1.1-.1l1.1-.5h.2c.1 0 .1.1.1.1l.1.7c.3-.5.8-.9 1.3-.9.4 0 .5.2.5.5s-.3.5-.4.5c-.1 0-.2 0-.3-.1-.1-.1-.2-.1-.4-.1s-.4.1-.6.4c-.1.1-.1.3-.1.3v2.2c0 .3.1.4.3.4h.5c.1 0 .1 0 .1.1v.4c0 .1 0 .1-.1.1h-2.3s-.1 0-.1-.1v-.2c0-.1 0-.1.1-.1h.4c.2 0 .2-.1.2-.2v-2.3zM125.3 83.5c0-.2.1-.6.7-.6.3 0 .6.2.6.6 0 .4-.3.6-.6.6-.3.1-.7-.1-.7-.6zM128.7 81.5c0 .6.3 1.2.5 1.6.4.5.8.5 1.2.5.5 0 .8-.1 1.2-.5h.1l.1.1s.1.1 0 .1c-.3.4-1 .8-1.7.8-.6 0-1.2-.1-1.7-.7-.4-.5-.5-1-.5-1.5 0-1.3.9-2.5 2.3-2.5 1.1 0 1.5.6 1.5.9 0 .2-.2.4-.4.4s-.4-.1-.6-.4c-.2-.4-.5-.5-.7-.5-.7 0-1.3.5-1.3 1.7zM133.1 83.4c-.5-.6-.6-1-.6-1.7 0-.5.3-1.2.9-1.7.6-.4 1.1-.5 1.4-.5.6 0 1.2.3 1.5.6.5.5.7 1 .7 1.7 0 1.2-1 2.4-2.4 2.4-.4 0-1.1-.2-1.5-.8zm3.1-1.7c0-1.2-.9-1.9-1.4-1.9-.3 0-.6.1-.8.3-.4.4-.6.9-.6 1.7 0 .6.1 1 .4 1.5.2.4.6.6 1.1.6.7-.1 1.3-1 1.3-2.2zM141.6 81.3c0-.8-.1-1-.3-1.2-.1-.1-.4-.2-.7-.2-.3 0-.7.1-1 .6-.1.2-.1.4-.1.7v2.1c0 .2.1.3.2.3h.4c.1 0 .1 0 .1.1v.3c0 .1 0 .1-.1.1h-2c-.1 0-.1 0-.1-.1v-.2c0-.1 0-.1.1-.1h.4c.1 0 .2-.1.2-.3V81c0-.2 0-.4-.3-.5l-.2-.1c-.1 0-.1-.1-.1-.1v-.1s0-.1.1-.1l.9-.5c.1 0 .2-.1.2-.1.1 0 .1.1.1.1v.6c.3-.4 1-.8 1.6-.8.6 0 1 .3 1.2.8h.1c.3-.4.9-.8 1.6-.8.4 0 .7.1 1 .3.2.3.5.5.5 1.3v2.4c0 .2.1.2.2.2h.3c.1 0 .1 0 .1.1v.3c0 .1 0 .1-.1.1H144c-.1 0-.1 0-.1-.1v-.2c0-.1 0-.1.1-.1h.3c.1 0 .2-.1.2-.2V81c0-.4-.1-.7-.3-.9-.2-.1-.5-.2-.8-.2-.3 0-.8.2-.9.6-.2.3-.1.6-.1 1.1v1.9c0 .1.1.2.2.2h.4c.1 0 .1 0 .1.1v.2c0 .1 0 .1-.1.1h-2c-.1 0-.1 0-.1-.1v-.2c0-.1 0-.1.1-.1h.3c.2 0 .2 0 .2-.2v-2.2z"/></g><path fill="#BBB" d="M0 0h198.9v4.9H0zM0 42.9h198.9v4.9H0zM0 79.1h48.9V84H0zM149.9 79.1h48.9V84h-48.9z"/></svg><svg id="logo-briarbriar-small" viewBox="-378.4 337.9 131.6 74.5" width="131.6" height="74.5" x="256" y="150"><style>.dst0{fill:#BBB}</style><path class="dst0" d="M-364.3 361.5c0-.7-.1-3.1-.1-3.4-.1-1.1-.4-1.2-1.2-1.2h-.6c-.1 0-.2-.1-.2-.1v-.5c0-.1.1-.1.2-.1.3 0 1.2.1 2.6.1.6 0 1.8-.1 2.4-.1 1.5 0 2.7.1 3.4.5 1.1.6 1.5 1.5 1.5 2.6 0 1.9-.9 2.4-2.3 3.2l.1.1c1.8.6 3.1 1.8 3.1 3.8 0 1-.6 2.3-1.5 2.9-.8.5-1.9.7-3.7.7-1.3 0-2.1-.1-2.9-.1-1 0-2.1.1-2.4.1-.2 0-.2-.1-.2-.1v-.5c0-.1.1-.1.2-.1h.9c.6 0 .7-.2.8-.9.1-.4.1-3 .1-4.5v-2.3h-.2zm1.7.7c.3.1.7.1 1 .1 1.1 0 2-.2 2.4-.5.8-.6 1.1-1.5 1.1-2.3 0-.7-.2-1.5-.9-2s-1.6-.7-2.6-.7h-.6c-.2.1-.2.2-.2.4 0 .4-.1 2.1-.1 3.7l-.1 1.3zm0 1.8v2.6c0 1.8.4 2.6 2 2.6s3.1-.8 3.1-3.1c0-1.5-.8-2.6-1.9-3-.8-.3-1.7-.3-2.6-.3h-.6v1.2zM-352.1 364.7c0-1-.2-1.2-.7-1.5l-.4-.2c-.1-.1-.2-.1-.2-.1v-.1c0-.1.1-.1.2-.2l1.9-1c.1-.1.2-.1.2-.1.1 0 .1.1.1.2l.1 1.3h.1c.5-.9 1.5-1.6 2.3-1.6.7 0 1 .4 1 .9s-.5.9-.8.9c-.2 0-.4-.1-.5-.2-.2-.1-.4-.2-.6-.2-.3 0-.8.2-1.2.8-.1.2-.2.5-.2.6v4c0 .6.1.8.5.8h.9c.1 0 .1.1.1.2v.4c0 .1 0 .2-.1.2s-1-.1-2-.1c-1.2 0-2 .1-2.1.1s-.1-.1-.1-.2v-.3c0-.1.1-.2.2-.2h.7c.3 0 .4-.1.4-.4v-4zM-344.9 364.2c0-.7-.1-1-1.1-1.2-.1 0-.2-.1-.2-.1v-.2c0-.1.1-.1.1-.1.6-.2 1.3-.5 2.1-.9.2-.1.2-.1.4-.1.1 0 .1.1.1.2-.1.3-.1 1.5-.1 3.1v3.7c.1.4.1.5.3.5h.9c.2 0 .2.1.2.2v.3c0 .1-.1.2-.2.2-.2 0-1-.1-1.8-.1-1.1 0-1.8.1-2.1.1-.1 0-.2-.1-.2-.2v-.4c0-.1.1-.2.2-.2h1.1c.2 0 .3-.1.3-.4v-4.4zm-.8-5.8c0-.5.4-1 1.2-1 .7 0 1 .5 1 .9 0 .5-.4 1-1.1 1-.5.1-1.1-.3-1.1-.9zM-339.1 364.7c-.1.2-.1.5-.1.9 0 1.9 1.2 3.3 2.7 3.3 1.2 0 2-.7 2.3-1.3.1-.1.1-.1.2-.1l.2.1c.1 0 .1.1 0 .3-.4.8-1.3 2.1-3.1 2.1-1.1 0-2.3-.3-3-1.3-.7-1-.9-1.7-.9-3.1 0-.7.2-2 1.2-3.1.8-.9 1.8-1 2.7-1 2.2 0 2.8 2.1 2.8 2.8 0 .2-.2.3-.5.3l-4.5.1zm3-.6c.4 0 .5-.1.5-.2 0-.4-.2-1.7-1.5-1.7-.9 0-1.6.5-2 2 0-.1 3-.1 3-.1zM-330.9 364.7c0-1-.2-1.2-.7-1.5l-.4-.2c-.1-.1-.2-.1-.2-.1v-.1c0-.1.1-.1.2-.2l1.9-1c.1-.1.2-.1.2-.1.1 0 .1.1.1.2l.1 1.3h.1c.5-.9 1.5-1.6 2.3-1.6.7 0 1 .4 1 .9s-.5.9-.8.9c-.2 0-.4-.1-.5-.2-.2-.1-.4-.2-.6-.2-.3 0-.8.2-1.2.8-.1.2-.2.5-.2.6v4c0 .6.1.8.5.8h.9c.1 0 .1.1.1.2v.4c0 .1 0 .2-.1.2s-1-.1-2-.1c-1.2 0-2 .1-2.1.1s-.1-.1-.1-.2v-.3c0-.1.1-.2.2-.2h.7c.3 0 .4-.1.4-.4v-2.3l.2-1.7zM-311.1 367c-.9 1.2-2.3 3.1-4.8 3.1-1.8 0-4-1.2-4-3.4 0-1.4.8-2.5 1.5-3.2.7-.6 1.5-1.2 2.2-1.6-1.3-.8-2-1.7-2-2.4 0-1.5 2-3.3 3.1-3.3 1.5 0 2.7 1.4 2.7 2.7-.1 1-1.3 2.2-2.1 2.6 1.3.7 3.1 2.3 4 3.7.6-.8 1.8-2.6 1.9-3.1.1-.3-.2-.6-.6-.6h-.3c-.1 0-.1-.1-.1-.1v-.4c0-.1 0-.1.1-.1.2 0 1.2.1 1.8.1.7 0 1.8-.1 2-.1.1 0 .1.1.1.1v.4c0 .1 0 .1-.1.1h-.3c-1 0-1.2.1-1.5.5-.1.2-2.1 3.1-2.6 3.7.3.3 1.2 1.3 1.5 1.6.5.5 1.3 1.5 2.6 1.5 1.2 0 2-1.3 2.1-1.5.1-.1.1-.1.2 0l.3.2c.1 0 .1.1 0 .2-.3.6-1.3 2.4-3.5 2.4s-3.4-2-4.2-3.1zm-.4-.4c-.9-1.2-2.4-3.3-4.2-4.3-1.4.8-2.6 2.2-2.6 3.7.1 1.6 1.7 2.9 3.2 2.9 1.8 0 3-1.8 3.6-2.3zm-5.4-7.5c0 .7 1 1.5 2 2.1.5-.4 1.4-.9 1.4-2.4 0-.7-.6-1.9-1.5-1.9-1 0-1.9 1.1-1.9 2.2zM-296.5 361.5c0-.7-.1-3.1-.1-3.4-.1-1.1-.4-1.2-1.2-1.2h-.6c-.1 0-.2-.1-.2-.1v-.5c0-.1.1-.1.2-.1.3 0 1.2.1 2.6.1.6 0 1.8-.1 2.4-.1 1.5 0 2.7.1 3.4.5 1.1.6 1.5 1.5 1.5 2.6 0 1.9-.9 2.4-2.3 3.2l.1.1c1.8.6 3.1 1.8 3.1 3.8 0 1-.6 2.3-1.5 2.9-.8.5-1.9.7-3.7.7-1.3 0-2.1-.1-2.9-.1-1 0-2.1.1-2.4.1-.2 0-.2-.1-.2-.1v-.5c0-.1.1-.1.2-.1h.9c.6 0 .7-.2.8-.9.1-.4.1-3 .1-4.5v-2.3h-.2zm1.6.7c.4.1.7.1 1 .1 1.1 0 2-.2 2.4-.5.8-.6 1.1-1.5 1.1-2.3 0-.7-.2-1.5-.9-2s-1.6-.7-2.6-.7h-.6c-.1.1-.2.2-.2.4 0 .4-.1 2.1-.1 3.7v1.4h-.1zm0 1.8v2.6c0 1.8.4 2.6 2 2.6s3.1-.8 3.1-3.1c0-1.5-.8-2.6-1.9-3-.8-.3-1.7-.3-2.6-.3h-.6v1.2zM-284.3 364.7c0-1-.2-1.2-.7-1.5l-.4-.2c-.1-.1-.2-.1-.2-.1v-.1c0-.1.1-.1.2-.2l1.9-1c.1-.1.2-.1.2-.1.1 0 .1.1.1.2l.1 1.3h.1c.5-.9 1.5-1.6 2.3-1.6.7 0 1 .4 1 .9s-.5.9-.8.9c-.2 0-.4-.1-.5-.2-.2-.1-.4-.2-.6-.2-.3 0-.8.2-1.1.8-.1.2-.2.5-.2.6v4c0 .6.1.8.5.8h.9c.1 0 .1.1.1.2v.4c0 .1 0 .2-.1.2s-1-.1-2-.1c-1.2 0-2 .1-2.1.1s-.1-.1-.1-.2v-.3c0-.1.1-.2.2-.2h.7c.3 0 .4-.1.4-.4v-2.3l.1-1.7zM-277.1 364.2c0-.7-.1-1-1.1-1.2-.1 0-.2-.1-.2-.1v-.2c0-.1.1-.1.1-.1.6-.2 1.3-.5 2.1-.9.1-.1.2-.1.4-.1.1 0 .1.1.1.2-.1.3-.1 1.5-.1 3.1v3.7c.1.4.1.5.3.5h.9c.2 0 .2.1.2.2v.3c0 .1-.1.2-.2.2-.2 0-1-.1-1.8-.1-1.1 0-1.8.1-2.1.1-.1 0-.2-.1-.2-.2v-.4c0-.1.1-.2.2-.2h.9c.2 0 .3-.1.3-.4v-4.5h.2zm-.9-5.8c0-.5.4-1 1.2-1 .7 0 1 .5 1 .9 0 .5-.4 1-1.1 1-.5.1-1.1-.3-1.1-.9zM-271.4 364.7c-.1.2-.1.5-.1.9 0 1.9 1.2 3.3 2.7 3.3 1.2 0 2-.7 2.3-1.3.1-.1.1-.1.2-.1l.2.1c.1 0 .1.1 0 .3-.4.8-1.3 2.1-3.1 2.1-1.1 0-2.3-.3-3-1.3-.7-1-.9-1.7-.9-3.1 0-.7.2-2 1.2-3.1.8-.9 1.8-1 2.7-1 2.2 0 2.8 2.1 2.8 2.8 0 .2-.2.3-.5.3l-4.5.1zm3.1-.6c.4 0 .5-.1.5-.2 0-.4-.2-1.7-1.5-1.7-.9 0-1.6.5-2 2 0-.1 3-.1 3-.1zM-263.2 364.7c0-1-.2-1.2-.7-1.5l-.4-.2c-.1-.1-.2-.1-.2-.1v-.1c0-.1.1-.1.2-.2l1.9-1c.1-.1.2-.1.2-.1.1 0 .1.1.1.2l.1 1.3h.1c.5-.9 1.5-1.6 2.3-1.6.7 0 1 .4 1 .9s-.5.9-.8.9c-.2 0-.4-.1-.5-.2-.2-.1-.4-.2-.6-.2-.3 0-.8.2-1.1.8-.1.2-.2.5-.2.6v4c0 .6.1.8.5.8h.9c.1 0 .1.1.1.2v.4c0 .1 0 .2-.1.2s-1-.1-2-.1c-1.2 0-2 .1-2.1.1-.1 0-.1-.1-.1-.2v-.3c0-.1.1-.2.2-.2h.7c.3 0 .4-.1.4-.4v-2.3l.1-1.7z"/><g><path class="dst0" d="M-371.5 387c0-.2 0-1.8-.1-1.9 0-.2-.1-.3-.4-.3h-.5c-.1 0-.1 0-.1-.1v-.2c0-.1 0-.1.1-.1h2.5c.1 0 .1 0 .1.1v.2c0 .1 0 .1-.1.1h-.4c-.2 0-.3.1-.3.2v4.9c0 .2.1.3.4.3h.4c.1 0 .1 0 .1.1v.2c0 .1 0 .1-.1.1h-2.5c-.1 0-.1 0-.1-.1v-.2c0-.1 0-.1.1-.1h.5c.2 0 .4 0 .4-.2 0-.1.1-2 .1-2.4l-.1-.6zM-365.6 390.1c0 .1.1.2.2.2h.2c.1 0 .1 0 .1.1v.1c0 .1 0 .1-.1.1h-1.6c-.1 0-.1 0-.1-.1v-.1c0-.1 0-.1.1-.1h.2c.1 0 .2-.1.2-.2v-1.9c0-.4 0-.6-.2-.8-.2-.2-.4-.2-.6-.2-.1 0-.4.1-.7.3-.2.2-.2.4-.2.6v1.8c0 .2 0 .3.2.3h.2c.1 0 .1 0 .1.1v.1c0 .1 0 .1-.1.1h-1.4c-.1 0-.1 0-.1-.1v-.1c0-.1 0-.1.1-.1h.2c.1 0 .2 0 .2-.2v-2c0-.2-.1-.4-.4-.5l-.1-.1c-.1 0-.1-.1-.1-.1v-.1c0-.1.1-.1.1-.1l.7-.4c.1-.1.1-.1.2-.1s.1.1.1.1l.1.5c.2-.3.7-.6 1.2-.6.2 0 .5.1.7.2.2.2.5.6.5.8v2.5zM-364.1 390.4c-.1 0-.1-.1-.1-.1l-.1-.8c0-.1 0-.1.1-.1h.1c.1 0 .1 0 .1.1l.2.4c.2.3.3.5.7.5.3 0 .7-.2.7-.6 0-.4-.2-.6-.9-.8-.5-.1-1-.4-1-1.1 0-.6.5-1 1.2-1 .4 0 .6.1.8.2l.2.2.1.6c0 .1 0 .1-.1.1l-.2-.1c-.1 0-.1 0-.1-.1l-.3-.4c-.1-.2-.2-.3-.6-.3-.3 0-.7.2-.7.5 0 .5.4.6.8.7.6.2 1 .4 1 1.1 0 .7-.5 1.2-1.3 1.2-.2 0-.5-.2-.6-.2zM-357.9 388.8v1c0 .2.1.3.2.3h.3c.1 0 .1 0 .1.1v.1c0 .1 0 .1-.1.1l-.9.3c-.1 0-.1.1-.2.1s-.1 0-.1-.1l-.1-.5c-.2.3-.7.6-1.2.6-.2 0-.5 0-.8-.4-.4-.4-.3-.7-.3-1.6v-1c0-.2-.1-.3-.3-.3-.1 0-.2 0-.2-.1v-.2c0-.1 0-.1.1-.1H-360.5c.1 0 .1.1.1.1s-.1.5-.1 1v.6c0 .4-.1.9.2 1.3.2.3.4.3.7.3.2 0 .5-.2.7-.4.1-.1.1-.2.1-.2v-2c0-.2-.2-.3-.4-.3-.1 0-.2 0-.2-.1v-.1c0-.1 0-.1.1-.1h1l.1.1c0 .1-.1.3-.1 1.2l.4.3zM-356.2 388.2c0-.4-.1-.5-.3-.7l-.2-.1c-.1 0-.1 0-.1-.1v-.1c0-.1 0-.1.1-.1l.9-.4c.1 0 .1-.1.1-.1l.1.1.1.6h.1c.2-.4.7-.7 1-.7.3 0 .4.2.4.4s-.2.4-.4.4c-.1 0-.2-.1-.2-.1-.1-.1-.2-.1-.3-.1-.1 0-.4.1-.5.4-.1.1-.1.2-.1.2v1.8c0 .2.1.4.2.4h.4c.1 0 .1 0 .1.1v.2c0 .1 0 .1-.1.1h-1.8c-.1 0-.1 0-.1-.1v-.2c0-.1 0-.1.1-.1h.3c.1 0 .2-.1.2-.2v-1.6zM-351 389.5c0 .5.1.7.2.7s.2-.1.3-.1l.1-.1.1.1s.1.1 0 .2-.2.4-.7.4c-.3 0-.5-.2-.6-.5-.2.2-.5.4-.9.5-.2.1-.3.1-.5.1s-.5-.2-.5-.7c0-.4.2-.7.9-1 .4-.2.9-.4 1-.5v-.5c0-.1 0-.4-.1-.5-.1-.1-.2-.2-.5-.2-.2 0-.4.1-.5.2-.1.1-.1.2-.1.4 0 .3-.1.5-.4.5-.1 0-.2-.1-.2-.2 0-.2.2-.6.6-.8.4-.2.7-.3 1-.3.4 0 .5.1.7.2.2.2.2.4.2.6v1.3l-.1.2zm-.6-.8c-.3.2-1.2.4-1.2 1.1 0 .3.2.5.4.5s.7-.3.7-.5l.1-1.1zM-346.1 390.1c0 .1.1.2.2.2h.2c.1 0 .1 0 .1.1v.1c0 .1 0 .1-.1.1h-1.6c-.1 0-.1 0-.1-.1v-.1c0-.1 0-.1.1-.1h.2c.1 0 .2-.1.2-.2v-1.9c0-.4 0-.6-.2-.8-.2-.2-.4-.2-.6-.2-.1 0-.4.1-.7.3-.2.2-.2.4-.2.6v1.8c0 .2 0 .3.2.3h.2c.1 0 .1 0 .1.1v.1c0 .1 0 .1-.1.1h-1.4c-.1 0-.1 0-.1-.1v-.1c0-.1 0-.1.1-.1h.2c.1 0 .2 0 .2-.2v-2c0-.2-.1-.4-.4-.5l-.1-.1c-.1 0-.1-.1-.1-.1v-.1c0-.1.1-.1.1-.1l.7-.4c.1-.1.1-.1.2-.1s.1.1.1.1l.1.5c.2-.3.7-.6 1.2-.6.2 0 .5.1.7.2.2.2.5.6.5.8v2.5zM-344.3 388.4c0 .5.2 1 .4 1.3.3.4.7.4.9.4.4 0 .7-.1.9-.4h.1l.1.1c.1.1.1.1 0 .1-.2.3-.8.6-1.4.6-.4 0-.9-.1-1.3-.6-.3-.4-.4-.8-.4-1.2 0-1 .7-2 1.8-2 .9 0 1.2.5 1.2.7 0 .2-.1.3-.3.3-.2 0-.4-.1-.5-.4-.2-.4-.4-.4-.5-.4-.5.2-1 .7-1 1.5zM-340.6 388.2v.4c0 .9.5 1.5 1.2 1.5.5 0 .9-.3 1-.6 0-.1.1-.1.1-.1l.1.1s.1.1 0 .1c-.2.4-.6.9-1.3.9-.5 0-1-.1-1.3-.6-.3-.4-.4-.7-.4-1.3 0-.3.1-.9.5-1.3s.8-.4 1.2-.4c1 0 1.3.9 1.3 1.3 0 .1-.1.1-.2.1 0-.1-2.2-.1-2.2-.1zm1.3-.2c.2 0 .2-.1.2-.1 0-.2-.1-.7-.7-.7-.4 0-.7.2-.9.9h1.4zM-332.5 389.5c0 .5.1.7.2.7s.2-.1.3-.1l.1-.1.1.1s.1.1 0 .2-.2.4-.7.4c-.3 0-.5-.2-.6-.5-.2.2-.5.4-.9.5-.2.1-.3.1-.5.1s-.5-.2-.5-.7c0-.4.2-.7.9-1 .4-.2.9-.4 1-.5v-.5c0-.1 0-.4-.1-.5-.1-.1-.2-.2-.5-.2-.2 0-.4.1-.5.2-.1.1-.1.2-.1.4 0 .3-.1.5-.4.5-.1 0-.2-.1-.2-.2 0-.2.2-.6.6-.8.4-.2.7-.3 1-.3.4 0 .5.1.7.2.2.2.2.4.2.6v1.3l-.1.2zm-.7-.8c-.3.2-1.2.4-1.2 1.1 0 .3.2.5.4.5s.7-.3.7-.5l.1-1.1zM-327.8 390.1c0 .1.1.2.2.2h.2c.1 0 .1 0 .1.1v.1c0 .1 0 .1-.1.1h-1.6c-.1 0-.1 0-.1-.1v-.1c0-.1 0-.1.1-.1h.2c.1 0 .2-.1.2-.2v-1.9c0-.4 0-.6-.2-.8-.2-.2-.4-.2-.6-.2-.1 0-.4.1-.7.3-.2.2-.2.4-.2.6v1.8c0 .2 0 .3.2.3h.2c.1 0 .1 0 .1.1v.1c0 .1 0 .1-.1.1h-1.4c-.1 0-.1 0-.1-.1v-.1c0-.1 0-.1.1-.1h.2c.1 0 .2 0 .2-.2v-2c0-.2-.1-.4-.4-.5l-.1-.1c-.1 0-.1-.1-.1-.1v-.1c0-.1.1-.1.1-.1l.7-.4c.1-.1.1-.1.2-.1s.1.1.1.1l.1.5c.2-.3.7-.6 1.2-.6.2 0 .5.1.7.2.2.2.5.6.5.8l.1 2.5zM-323.7 385.3c0-.3-.1-.4-.5-.5-.1 0-.1 0-.1-.1v-.1c0-.1 0-.1.1-.1.3-.1.8-.1.9-.2h.2c.1 0 .1.1.1.2 0 .4-.1 1.6-.1 2.7v1.9c0 .3 0 .7.1.8.1.1.2.1.4.1.1 0 .2 0 .2.1v.1c0 .1 0 .1-.1.1l-1 .3c-.1 0-.1 0-.1-.1l-.1-.4c-.2.2-.8.5-1.3.5-.3 0-.6 0-1-.4s-.5-.8-.5-1.4c0-.5.2-1 .6-1.5.3-.4.8-.5 1.3-.5.4 0 .7.1.9.1v-1.8zm0 2.7c0-.1 0-.3-.1-.4-.1-.2-.4-.5-.9-.5-.2 0-.5.1-.8.3-.3.4-.4.8-.4 1.2 0 1 .7 1.6 1.2 1.6s.9-.2.9-.5c.1-.1.1-.2.1-.3V388zM-317.9 387.3c.1 0 1-.1 1.1-.1.2-.1.3-.1.4-.4 0-.1.1-.2.1-.4 0-.1 0-.1.1-.1h.2c.1 0 .1.1.1.1v1c0 .3.1.7.1.9 0 .1 0 .1-.1.1h-.2c-.1 0-.1 0-.1-.1s-.1-.3-.1-.4c-.1-.2-.1-.3-.4-.3-.4-.1-1-.1-1.2-.1v2c0 .4.2.6.5.7.2.1.4.1.6.1h.7c.1 0 .5-.1.7-.3.1-.1.6-.7.7-.9 0-.1.1-.1.1-.1l.1.1c.1 0 .1.1 0 .1l-.4 1.3c0 .1-.1.1-.2.1H-319.6c-.1 0-.1 0-.1-.1v-.2c0-.1 0-.1.1-.1h.4c.4 0 .4-.1.4-.4V387v-1.9c-.1-.2-.1-.3-.4-.3h-.3c-.1 0-.1 0-.1-.1v-.2s0-.1.1-.1h4.4c.1 0 .1 0 .1.1.1.1.4 1.3.4 1.4v.1l-.1.1h-.1c0-.1-.7-.9-.9-1-.2-.1-.4-.2-.7-.2l-1.5-.1v2.5zM-310.6 388.3c0-.6-.1-.8-.2-.9-.1-.1-.4-.2-.5-.2-.2 0-.6.1-.8.5-.1.2-.1.3-.1.5v1.7c0 .1.1.2.2.2h.3c.1 0 .1 0 .1.1v.1c0 .1 0 .1-.1.1h-1.6c-.1 0-.1 0-.1-.1v-.1c0-.1 0-.1.1-.1h.3c.1 0 .1-.1.1-.2V388c0-.2-.1-.3-.2-.4l-.2-.1c-.1 0-.1-.1-.1-.1v-.1l.1-.1.7-.4c.1-.1.1-.1.2-.1s.1.1.1.1l.1.5c.2-.4.7-.7 1.3-.7.4 0 .8.2 1 .7h.1c.2-.3.7-.7 1.3-.7.3 0 .5.1.8.2.2.2.4.4.4 1v1.9c0 .1.1.2.2.2h.2c.1 0 .1 0 .1.1v.1c0 .1 0 .1-.1.1h-1.5c-.1 0-.1 0-.1-.1v-.1c0-.1 0-.1.1-.1h.2c.1 0 .2-.1.2-.2v-2c0-.3-.1-.5-.2-.7-.2-.1-.4-.2-.6-.2s-.6.2-.7.4c-.1.2-.1.5-.1.9v1.5c0 .1.1.2.2.2h.3c.1 0 .1 0 .1.1v.1c0 .1 0 .1-.1.1h-1.5c-.1 0-.1 0-.1-.1v-.1c0-.1 0-.1.1-.1h.2c.1 0 .2-.1.2-.1v-1.8h-.4zM-306 388.1c0-.2-.1-.3-.3-.5l-.2-.1c-.1 0-.1-.1-.1-.1v-.1s0-.1.1-.1l.8-.4c.1-.1.1-.1.2-.1s.1.1.1.2l.1.4c.2-.3.7-.5 1.2-.5.4 0 .7.2 1 .4.3.3.5.7.5 1.3 0 1.1-.8 2-1.8 2-.2 0-.6-.1-.9-.1v1.8c0 .2.1.3.2.3h.4c.1 0 .1.1.1.1v.1c0 .1 0 .1-.1.1h-1.8c-.1 0-.1 0-.1-.1v-.2c0-.1 0-.1.1-.1h.3c.1 0 .2-.1.2-.2v-4.1zm.6 1.5c0 .2 0 .4.2.4.2.2.5.2.9.2.5 0 1-.4 1-1.4 0-1.2-.5-1.6-1.1-1.6-.4 0-.7.2-.9.5v1.9zM-300.7 388v2c0 .1.1.2.2.2h.4c.1 0 .1 0 .1.1v.1c0 .1 0 .1-.1.1h-2c-.1 0-.1-.1-.1-.1v-.1c0-.1 0-.1.1-.1h.4c.1 0 .2-.1.2-.2v-2.8-1.6c0-.3-.2-.4-.4-.5l-.2-.1c-.1 0-.1 0-.1-.1v.1s0-.1.1-.1c.3-.1.7-.3 1-.5.1-.1.1-.1.2-.1s.1.1.1.2c0 .5-.1 2.3-.1 2.7l.2.8zM-299.1 390c-.4-.5-.5-.8-.5-1.4 0-.4.2-1 .7-1.4.4-.4.9-.4 1.2-.4.5 0 .9.2 1.2.5.4.4.6.9.6 1.4 0 .9-.9 1.9-1.9 1.9-.4 0-.9-.2-1.3-.6zm2.5-1.3c0-1-.7-1.5-1.2-1.5-.2 0-.4.1-.7.2-.3.4-.4.7-.4 1.3 0 .5.1.8.3 1.2.2.3.4.4.9.4.7.1 1.1-.7 1.1-1.6zM-295.5 392.4c0-.2.2-.3.4-.3s.3.1.4.1c.1 0 .1 0 .2-.1.1-.2.5-1.2.7-1.5-.1-.2-1-2.9-1-3.1-.1-.2-.2-.4-.4-.4h-.2c-.1 0-.1 0-.1-.1s0-.1.1-.1h1.6c.1 0 .1 0 .1.1v.2c0 .1 0 .1-.1.1h-.2c-.1 0-.1.1-.1.2 0 .2.6 2.1.7 2.3h.1c.1-.1.9-1.9.9-2.1s0-.3-.1-.3h-.1c-.1 0-.1 0-.1-.1v-.3c0-.1 0-.1.1-.1h1.2c.1 0 .1.1.1.1v.2c0 .1 0 .1-.1.1h-.1c-.1 0-.2.1-.3.2-.2.2-.7 1.5-1.3 2.9-.4 1-.7 1.8-.9 2-.1.2-.2.5-.7.5-.7 0-.8-.2-.8-.5zM-290.7 388.2v.4c0 .9.5 1.5 1.2 1.5.5 0 .9-.3 1-.6 0-.1.1-.1.1-.1l.1.1s.1.1 0 .1c-.2.4-.6.9-1.3.9-.5 0-1-.1-1.3-.6-.3-.4-.4-.7-.4-1.3 0-.3.1-.9.5-1.3s.8-.4 1.2-.4c1 0 1.3.9 1.3 1.3 0 .1-.1.1-.2.1 0-.1-2.2-.1-2.2-.1zm1.3-.2c.2 0 .2-.1.2-.1 0-.2-.1-.7-.7-.7-.4 0-.7.2-.9.9h1.4zM-286.9 388.2v.4c0 .9.5 1.5 1.2 1.5.5 0 .9-.3 1-.6 0-.1.1-.1.1-.1l.1.1s.1.1 0 .1c-.2.4-.6.9-1.3.9-.5 0-1-.1-1.3-.6-.3-.4-.4-.7-.4-1.3 0-.3.1-.9.5-1.3s.8-.4 1.2-.4c1 0 1.3.9 1.3 1.3 0 .1-.1.1-.2.1 0-.1-2.2-.1-2.2-.1zm1.4-.2c.2 0 .2-.1.2-.1 0-.2-.1-.7-.7-.7-.4 0-.7.2-.9.9h1.4zM-280.5 386.8v-1.5c0-.5-.2-.5-.5-.5h-.2c-.1 0-.1 0-.1-.1v-.2c0-.1 0-.1.1-.1h2.3c.7 0 1.2.1 1.5.2.5.2.7.7.7 1.2 0 .9-.4 1-1 1.4.9.2 1.4.8 1.4 1.7 0 .4-.2 1-.7 1.3-.4.2-.9.3-1.6.3H-281c-.1 0-.1 0-.1-.1v-.2c0-.1 0-.1.1-.1h.4c.2 0 .3-.1.4-.4 0-.2.1-1.3.1-2v-1h-.4zm.7.3h.4c.5 0 .9-.1 1.1-.2.4-.2.5-.7.5-1 0-.3-.1-.7-.4-.9s-.7-.3-1.2-.3h-.3c-.1 0-.1.1-.1.2v2.2zm0 .8v1.2c0 .8.2 1.2.9 1.2s1.4-.4 1.4-1.3c0-.7-.4-1.2-.9-1.3-.4-.1-.7-.1-1.2-.1h-.2v.3zM-274.9 388.2v.4c0 .9.5 1.5 1.2 1.5.5 0 .9-.3 1-.6 0-.1.1-.1.1-.1l.1.1s.1.1 0 .1c-.2.4-.6.9-1.3.9-.5 0-1-.1-1.3-.6-.3-.4-.4-.7-.4-1.3 0-.3.1-.9.5-1.3s.8-.4 1.2-.4c1 0 1.3.9 1.3 1.3 0 .1-.1.1-.2.1 0-.1-2.2-.1-2.2-.1zm1.3-.2c.2 0 .2-.1.2-.1 0-.2-.1-.7-.7-.7-.4 0-.7.2-.9.9h1.4zM-268.3 390.1c0 .1.1.2.2.2h.2c.1 0 .1 0 .1.1v.1c0 .1 0 .1-.1.1h-1.6c-.1 0-.1 0-.1-.1v-.1c0-.1 0-.1.1-.1h.2c.1 0 .2-.1.2-.2v-1.9c0-.4 0-.6-.2-.8-.2-.2-.4-.2-.6-.2-.1 0-.4.1-.7.3-.2.2-.2.4-.2.6v1.8c0 .2 0 .3.2.3h.2c.1 0 .1 0 .1.1v.1c0 .1 0 .1-.1.1h-1.4c-.1 0-.1 0-.1-.1v-.1c0-.1 0-.1.1-.1h.2c.1 0 .2 0 .2-.2v-2c0-.2-.1-.4-.4-.5l-.1-.1c-.1 0-.1-.1-.1-.1v-.1c0-.1.1-.1.1-.1l.7-.4c.1-.1.1-.1.2-.1s.1.1.1.1l.1.5c.2-.3.7-.6 1.2-.6.2 0 .5.1.7.2.2.2.5.6.5.8l.1 2.5zM-266.4 388.2v.4c0 .9.5 1.5 1.2 1.5.5 0 .9-.3 1-.6 0-.1.1-.1.1-.1l.1.1s.1.1 0 .1c-.2.4-.6.9-1.3.9-.5 0-1-.1-1.3-.6-.3-.4-.4-.7-.4-1.3 0-.3.1-.9.5-1.3s.8-.4 1.2-.4c1 0 1.3.9 1.3 1.3 0 .1-.1.1-.2.1 0-.1-2.2-.1-2.2-.1zm1.4-.2c.2 0 .2-.1.2-.1 0-.2-.1-.7-.7-.7-.4 0-.7.2-.9.9h1.4zM-262.7 387.4h-.5c-.1 0-.1-.1-.1-.1l.1-.2c0-.1.1-.1.1-.1h.5v-.1c0-.9.2-1.3.7-1.8.5-.5 1.1-.7 1.5-.7.5 0 .9.3.9.6s-.2.4-.4.4-.4-.1-.5-.3c-.1-.2-.2-.2-.4-.2s-.5.1-.7.3c-.4.4-.4 1.2-.4 1.7v.2h1.2c.3 0 .7-.1.9-.1.1 0 .1-.1.2-.1s.1.1.1.1V390.1c0 .2.1.2.2.2h.4c.1 0 .1 0 .1.1v.2c0 .1 0 .1-.1.1H-260.6c-.1 0-.1 0-.1-.1v-.3c0-.1 0-.1.1-.1h.4c.1 0 .1-.1.1-.2v-2c0-.5-.1-.7-.7-.7h-1V389.9c0 .1 0 .2.2.2h.4c.1 0 .1 0 .1.1v.2c0 .1 0 .1-.1.1h-1.9c-.1 0-.1 0-.1-.1v-.2c0-.1 0-.1.1-.1h.4c.1 0 .2-.1.2-.3v-1.6l-.2-.8zM-257.3 389.5c0 .7.3.7.4.7.2 0 .4-.1.5-.1h.1l.1.1v.1c-.1.1-.4.4-1 .4-.4 0-.9-.4-.9-.7v-1.4-1.1h-.5c-.1 0-.1-.1-.1-.1l.2-.2c.2-.1.9-.8 1-1.1 0-.1.1-.1.1-.1.1 0 .1.1.1.1l-.1.9h1.2c.1 0 .1.1.1.1l-.1.3c0 .1 0 .1-.1.1h-1.1v1.2l.1.8zM-255.3 390.4c-.1 0-.1-.1-.1-.1l-.1-.8c0-.1 0-.1.1-.1h.1c.1 0 .1 0 .1.1l.2.4c.2.3.3.5.7.5.3 0 .7-.2.7-.6 0-.4-.2-.6-.9-.8-.5-.1-1-.4-1-1.1 0-.6.5-1 1.2-1 .4 0 .6.1.8.2l.2.2.1.6c0 .1 0 .1-.1.1l-.1.1c-.1 0-.1 0-.1-.1l-.3-.4c-.1-.2-.2-.3-.6-.3-.3 0-.7.2-.7.5 0 .5.4.6.8.7.6.2 1 .4 1 1.1 0 .7-.5 1.2-1.3 1.2-.2-.2-.6-.4-.7-.4z"/></g><g><path class="dst0" d="M-337.5 400l.5-1.5c.1-.2.1-.4-.1-.4h-.1c-.1 0-.1 0-.1-.1s0-.1.1-.1h1c.1 0 .1 0 .1.1v.1c0 .1 0 .1-.1.1h-.2c-.1 0-.2.1-.2.1-.1.1-.9 2.2-1 2.4 0 .1-.1.1-.1.1l-.1-.1-.6-1.8h-.1l-.8 1.9-.1.1-.1-.1-.9-2.3c-.1-.1-.1-.2-.2-.2h-.1c-.1 0-.1 0-.1-.1v-.2c0-.1 0-.1.1-.1h1.1c.1 0 .1 0 .1.1v.1c0 .1 0 .1-.1.1h-.1c-.1 0-.1.1-.1.2l.5 1.7.7-1.6c0-.1 0-.2-.1-.2 0-.1-.1-.1-.1-.1h-.1c-.1 0-.1 0-.1-.1v-.1c0-.1 0-.1.1-.1h1.1c.1 0 .1 0 .1.1v.1c0 .1 0 .1-.1.1h-.1c-.1 0-.1.1-.1.2l.5 1.6z"/><path class="dst0" d="M-332.9 400l.5-1.5c.1-.2.1-.4-.1-.4h-.1c-.1 0-.1 0-.1-.1s0-.1.1-.1h1c.1 0 .1 0 .1.1v.1c0 .1 0 .1-.1.1h-.2c-.1 0-.2.1-.2.1-.1.1-.9 2.2-1 2.4 0 .1-.1.1-.1.1-.1 0-.1-.1-.1-.1l-.6-1.8h-.1l-.8 1.9-.1.1-.1-.1-.9-2.3c-.1-.1-.1-.2-.2-.2h-.1c-.1 0-.1 0-.1-.1v-.2c0-.1 0-.1.1-.1h1.1c.1 0 .1 0 .1.1v.1c0 .1 0 .1-.1.1h-.1c-.1 0-.1.1-.1.2l.5 1.7.7-1.6c0-.1 0-.2-.1-.2-.1-.1-.1-.1-.2-.1h-.1c-.1 0-.1 0-.1-.1v-.1c0-.1 0-.1.1-.1h1.1c.1 0 .1 0 .1.1v.1c0 .1 0 .1-.1.1h-.1c-.1 0-.1.1-.1.2l.6 1.6z"/><path class="dst0" d="M-328.3 400l.5-1.5c.1-.2.1-.4-.1-.4h-.1c-.1 0-.1 0-.1-.1s0-.1.1-.1h1c.1 0 .1 0 .1.1v.1c0 .1 0 .1-.1.1h-.2c-.1 0-.2.1-.2.1-.1.1-.9 2.2-1 2.4 0 .1-.1.1-.1.1-.1 0-.1-.1-.1-.1l-.6-1.8h-.1l-.9 1.9-.1.1c-.1 0-.1-.1-.1-.1l-.9-2.3c-.1-.1-.1-.2-.2-.2h-.1c-.1 0-.1 0-.1-.1v-.2c0-.1 0-.1.1-.1h1.1c.1 0 .1 0 .1.1v.1c0 .1 0 .1-.1.1h-.1c-.1 0-.1.1-.1.2l.5 1.7.7-1.6c0-.1 0-.2-.1-.2-.1-.1-.1-.1-.2-.1h-.1c-.1 0-.1 0-.1-.1v-.1c0-.1 0-.1.1-.1h1.1c.1 0 .1 0 .1.1v.1c0 .1 0 .1-.1.1h-.1c-.1 0-.1.1-.1.2l.7 1.6zM-326.9 400.4c0-.1.1-.4.4-.4.2 0 .4.1.4.4s-.2.4-.4.4-.4-.1-.4-.4zM-325.1 397.2c0-.4-.1-.5-.3-.6h-.1c-.1 0-.1-.1-.1-.1v-.1s0-.1.1-.1c.2-.1.5-.2.7-.4l.1-.1c.1 0 .1.1.1.1V398c.2-.2.6-.3.9-.3.5 0 1.2.5 1.2 1.4 0 .8-.6 1.5-1.3 1.5-.4 0-.6-.1-.8-.2l-.2.1h-.2s-.1 0 0-.1v-3.5h-.1zm.4 2.1c0 .5 0 .7.1 1 .1.2.4.3.6.3.4 0 .9-.2.9-1.1 0-.6-.3-1.2-1-1.2-.2 0-.5.1-.6.2v.8zM-321.6 399c0-.3-.1-.4-.2-.5l-.1-.1c-.1 0-.1 0-.1-.1v-.1s0-.1.1-.1l.7-.3h.1c.1 0 .1.1.1.1l.1.4c.2-.3.5-.5.8-.5.2 0 .3.1.3.3 0 .2-.2.3-.2.3s-.1 0-.2-.1-.1-.1-.2-.1-.2.1-.4.2c-.1.1-.1.2-.1.2v1.3c0 .2.1.2.2.2h.3c.1 0 .1 0 .1.1v.2c0 .1 0 .1-.1.1h-1.4s-.1 0-.1-.1v-.1c0-.1 0-.1.1-.1h.2c.1 0 .1-.1.1-.1v-.8l-.1-.3zM-319 398.8c0-.2-.1-.4-.4-.4-.1 0-.1 0-.1-.1v-.1s0-.1.1-.1c.2-.1.4-.2.7-.3.1 0 .1-.1.1-.1.1 0 .1.1.1.1v2.2c0 .1.1.2.1.2h.3c.1 0 .1 0 .1.1v.2c0 .1 0 .1-.1.1H-319.4c-.1 0-.1 0-.1-.1v-.1c0-.1 0-.1.1-.1h.3c.1 0 .1 0 .1-.1v-1.4zm-.4-1.9c0-.2.1-.4.4-.4.2 0 .4.2.4.3 0 .2-.1.4-.4.4-.2 0-.4-.2-.4-.3zM-317.1 399v.3c0 .6.4 1.1.9 1.1.4 0 .7-.2.8-.4l.1-.1.1.1s.1 0 0 .1c-.1.2-.4.7-1 .7-.4 0-.8-.1-1-.5-.2-.3-.3-.5-.3-1 0-.2.1-.7.4-1 .3-.3.6-.4.9-.4.7 0 1 .7 1 1 0 .1-.1.1-.2.1h-1.7zm1-.2c.1 0 .2-.1.2-.1 0-.1-.1-.6-.5-.6-.3 0-.5.2-.7.7h1zM-314.3 399c0-.3-.1-.4-.2-.5l-.1-.1c-.1 0-.1 0-.1-.1v-.1s0-.1.1-.1l.7-.3h.1c.1 0 .1.1.1.1l.1.4c.2-.3.5-.5.8-.5.2 0 .3.1.3.3 0 .2-.2.3-.2.3s-.1 0-.2-.1-.1-.1-.2-.1-.2.1-.4.2c-.1.1-.1.2-.1.2v1.3c0 .2.1.2.2.2h.3c.1 0 .1 0 .1.1v.2c0 .1 0 .1-.1.1h-1.4s-.1 0-.1-.1v-.1c0-.1 0-.1.1-.1h.2c.1 0 .1-.1.1-.1v-.8l-.1-.3zM-312.3 398.9c0-.1.1-.1 0 0l1.9-.1c.1 0 .1 0 .1.1v.2c0 .1 0 .1-.1.1h-1.8c-.1 0-.1 0-.1-.1v-.2zM-309.3 397.2c0-.4-.1-.5-.3-.6h-.1c-.1 0-.1-.1-.1-.1v-.1s0-.1.1-.1c.2-.1.5-.2.7-.4l.1-.1c.1 0 .1.1.1.1V398c.2-.2.6-.3.9-.3.5 0 1.2.5 1.2 1.4 0 .8-.6 1.5-1.3 1.5-.4 0-.6-.1-.8-.2l-.2.1h-.2s-.1 0 0-.1v-3.5h-.1zm.4 2.1c0 .5 0 .7.1 1 .1.2.4.3.6.3.4 0 .9-.2.9-1.1 0-.6-.3-1.2-1-1.2-.2 0-.5.1-.6.2v.8zM-305.7 399c0-.3-.1-.4-.2-.5l-.1-.1c-.1 0-.1 0-.1-.1v-.1s0-.1.1-.1l.7-.3h.1c.1 0 .1.1.1.1l.1.4c.2-.3.5-.5.8-.5.2 0 .3.1.3.3 0 .2-.2.3-.2.3s-.1 0-.2-.1-.1-.1-.2-.1-.2.1-.4.2c-.1.1-.1.2-.1.2v1.3c0 .2.1.2.2.2h.3c.1 0 .1 0 .1.1v.2c0 .1 0 .1-.1.1h-1.4s-.1 0-.1-.1v-.1c0-.1 0-.1.1-.1h.2c.1 0 .1-.1.1-.1V399zM-303.3 398.8c0-.2-.1-.4-.4-.4-.1 0-.1 0-.1-.1v-.1s0-.1.1-.1c.2-.1.4-.2.7-.3.1 0 .1-.1.1-.1l.1.1v2.2c0 .1.1.2.1.2h.3c.1 0 .1 0 .1.1v.2c0 .1 0 .1-.1.1H-303.7c-.1 0-.1 0-.1-.1v-.1c0-.1 0-.1.1-.1h.3c.1 0 .1 0 .1-.1v-1.4zm-.3-1.9c0-.2.1-.4.4-.4.2 0 .4.2.4.3 0 .2-.1.4-.4.4-.2 0-.4-.2-.4-.3zM-301.4 399v.3c0 .6.4 1.1.9 1.1.4 0 .7-.2.8-.4l.1-.1.1.1s.1 0 0 .1c-.1.2-.4.7-1 .7-.4 0-.8-.1-1-.5-.2-.3-.3-.5-.3-1 0-.2.1-.7.4-1 .3-.3.6-.4.9-.4.7 0 1 .7 1 1 0 .1-.1.1-.2.1h-1.7zm1.1-.2c.1 0 .2-.1.2-.1 0-.1-.1-.6-.5-.6-.3 0-.5.2-.7.7h1zM-298.5 399c0-.3-.1-.4-.2-.5l-.1-.1c-.1 0-.1 0-.1-.1v-.1s0-.1.1-.1l.7-.3h.1l.1.1.1.4c.2-.3.5-.5.8-.5.2 0 .3.1.3.3 0 .2-.2.3-.2.3-.1 0-.1 0-.2-.1s-.1-.1-.2-.1-.2.1-.4.2c-.1.1-.1.2-.1.2v1.3c0 .2.1.2.2.2h.3c.1 0 .1 0 .1.1v.2c0 .1 0 .1-.1.1h-1.4s-.1 0-.1-.1v-.1c0-.1 0-.1.1-.1h.2c.1 0 .1-.1.1-.1V399zM-296.8 400.4c0-.1.1-.4.4-.4.2 0 .4.1.4.4s-.2.4-.4.4c-.1 0-.4-.1-.4-.4zM-294.7 399.2c0 .4.2.7.3 1 .2.3.5.3.7.3.3 0 .5-.1.7-.3h.1l.1.1s.1.1 0 .1c-.2.2-.6.5-1 .5s-.7-.1-1-.4c-.2-.3-.3-.6-.3-.9 0-.8.5-1.5 1.4-1.5.7 0 .9.4.9.5 0 .1-.1.2-.2.2s-.2-.1-.4-.2c-.1-.2-.3-.3-.4-.3-.5-.2-.9.1-.9.9zM-292 400.3c-.3-.4-.4-.6-.4-1 0-.3.2-.7.5-1 .4-.2.7-.3.9-.3.4 0 .7.2.9.4.3.3.4.6.4 1 0 .7-.6 1.5-1.5 1.5-.1-.1-.6-.2-.8-.6zm1.9-1c0-.7-.5-1.2-.9-1.2-.2 0-.4.1-.5.2-.2.2-.4.5-.4 1 0 .4.1.6.2.9.1.2.4.4.7.4.5 0 .9-.6.9-1.3zM-286.8 399c0-.5-.1-.6-.2-.7-.1-.1-.2-.1-.4-.1s-.4.1-.6.4c-.1.1-.1.2-.1.4v1.3c0 .1.1.2.1.2h.2c.1 0 .1 0 .1.1v.2c0 .1 0 .1-.1.1h-1.2c-.1 0-.1 0-.1-.1v-.1c0-.1 0-.1.1-.1h.2c.1 0 .1-.1.1-.2v-1.5c0-.1 0-.2-.2-.3l-.1-.1c-.1 0-.1-.1-.1-.1v-.1s0-.1.1-.1l.5-.3c.1 0 .1-.1.1-.1.1 0 .1.1.1.1v.4c.2-.2.6-.5 1-.5s.6.2.7.5h.1c.2-.2.5-.5 1-.5.2 0 .4.1.6.2.1.2.3.3.3.8v1.5c0 .1.1.1.1.1h.2c.1 0 .1 0 .1.1v.2c0 .1 0 .1-.1.1h-1.1c-.1 0-.1 0-.1-.1v-.1c0-.1 0-.1.1-.1h.2c.1 0 .1-.1.1-.1v-1.5c0-.2-.1-.4-.2-.5-.1-.1-.3-.1-.5-.1s-.5.1-.5.4c-.1.2-.1.4-.1.7v1.2c0 .1.1.1.1.1h.2c.1 0 .1 0 .1.1v.1c0 .1 0 .1-.1.1h-1.2c-.1 0-.1 0-.1-.1v-.1c0-.1 0-.1.1-.1h.2c.1 0 .1 0 .1-.1l.2-1.6z"/></g><path class="dst0" d="M-373.2 349.4h121.4v3h-121.4zM-373.2 375.6h121.4v3h-121.4zM-373.2 397.7h29.8v3h-29.8zM-281.8 397.7h29.8v3h-29.8z"/></svg><svg viewBox="-5 -5 188.8 103.8" width="188.8" height="103.8" id="logo-dimeo" x="388" y="225"><g fill="#A6A6A6"><path d="M66.1 64.4H57V33h9.2c9 0 13.6 5.6 13.6 15.6 0 10.3-5 15.8-13.7 15.8zm7.6-15.7c0-6.7-2.6-9.9-7.7-9.9h-3.4v19.8h3.2c5.5 0 7.8-3.7 7.9-9.9zM85.2 64.4V33H91v31.4h-5.8zM117.7 64.4V47.2l-7.1 17.9h-.2l-7-17.6v16.7h-5.8V33h5.9l7 17.2 7-17.2h5.9v31.4h-5.7zM129.5 64.4V33h19.6v5.8h-13.9V44h11.3v5.8h-11.3v8.9h14.5v5.8h-20.2zM165.9 65.2c-6.4 0-12.9-5.8-12.9-16.6S159.3 32 165.9 32c6.6 0 12.9 5.7 12.9 16.6-.1 11.4-6.8 16.6-12.9 16.6zm6.8-16.4c0-7.2-3.1-10.7-6.8-10.7s-6.9 3.1-6.9 10.6c0 7.1 3.3 10.6 6.9 10.6 3.6 0 6.8-3.2 6.8-10.5z"/></g><g fill="#A6A6A6"><path d="M3.1 53.3v-28c-.5-.2-.9-.2-1.5.1v29.1l1.5-1.2z"/><path d="M3.4 52h-2v1.7L0 56.1l2.4 10.5 2.4-10.5-1.3-2.4z"/></g><path fill="#C8C8C8" d="M1.6 0v26.3c1.8-.5 3.8-.7 5.8-.7 12.3 0 22.2 10 22.2 22.2S19.6 70 7.4 70c-2 0-3.9-.3-5.8-.7v24.5C22.5 88.5 38 69.5 38 47 38 24.3 22.5 5.4 1.6 0z"/></svg><svg id="logo-dimeo-small" viewBox="-367.7 363.8 72 42.5" width="72" height="42.5" x="577" y="329"><style>.fst0{fill:#a6a6a6}.fst1{fill:#c8c8c8}</style><path class="fst0" d="M-340.4 391h-3.1v-10.5h3.1c3 0 4.6 1.9 4.6 5.2 0 3.4-1.7 5.3-4.6 5.3zm2.5-5.3c0-2.2-.9-3.3-2.6-3.3h-1.1v6.6h1.1c1.8 0 2.6-1.2 2.6-3.3zM-334 391v-10.5h1.9V391h-1.9zM-323.1 391v-5.8l-2.4 6h-.1l-2.3-5.9v5.6h-1.9v-10.5h2l2.3 5.8 2.3-5.8h2V391h-1.9zM-319.1 391v-10.5h6.6v1.9h-4.7v1.7h3.8v1.9h-3.8v3h4.9v1.9l-6.8.1zM-306.9 391.2c-2.1 0-4.3-1.9-4.3-5.6 0-3.6 2.1-5.6 4.3-5.6 2.2 0 4.3 1.9 4.3 5.6 0 3.9-2.3 5.6-4.3 5.6zm2.3-5.5c0-2.4-1-3.6-2.3-3.6s-2.3 1-2.3 3.6c0 2.4 1.1 3.6 2.3 3.6 1.2 0 2.3-1.1 2.3-3.6z"/><g><path class="fst0" d="M-361.6 387.2v-9.4c-.2-.1-.3-.1-.5 0v9.8l.5-.4z"/><path class="fst0" d="M-361.5 386.8h-.6v.6l-.5.8.8 3.5.8-3.5-.4-.8z"/></g><path class="fst1" d="M-362.1 369.4v8.8c.6-.2 1.3-.2 1.9-.2 4.1 0 7.4 3.4 7.4 7.4s-3.4 7.4-7.4 7.4c-.7 0-1.3-.1-1.9-.2v8.2c7-1.8 12.2-8.2 12.2-15.7.1-7.6-5.1-13.9-12.2-15.7z"/></svg><svg id="logo-lifecycle" data-name="Layer 1" viewBox="-5 -5 134.35 78.31" width="134.35" height="78.31" x="649" y="372"><defs><style>.gcls-1{fill:#ea2128}.gcls-2{fill:#071348}</style></defs><title>lifecycle</title><path class="gcls-1" d="M17.69 3.68l3.43 6.78 4.09-2.07 1.68 3.32-7.93 4-5.11-10.08zM37.24.28l-.73 11.29-4.29-.28L33 0zM54.94 7.77l-2 3.13-3.6-2.29-.52.82 3.2 2-1.91 3-3.2-2L45.26 15l-3.62-2.3 6.08-9.54zM65.52 23.36l-2.91 1.41-2-4.13-.87.42 1.71 3.55-2.59 1.25-1.71-3.56-.87.42 2 4.22-2.94 1.42-3.91-8.09 10.19-4.92zM69.1 39.83a8.6 8.6 0 0 1 0 3.43l-3.63.74a5.8 5.8 0 0 0 .13-2.68c-.27-1.33-1.1-2.42-2.76-2.08-1.43.29-1.79 1.58-1.53 2.85a4.92 4.92 0 0 0 1.2 2.59l-3.71.75a8 8 0 0 1-1.31-3.12c-.65-3.23.38-6.59 4.47-7.42s6.51 1.87 7.14 4.94zM66.57 58l2.57-2.88L71 46.75 74.57 50 73 54l3.78-2 3.62 3.23L72.32 58l-2.57 2.88zM89.43 56.44a8.6 8.6 0 0 1 3.26 1.06l-.44 3.7a5.8 5.8 0 0 0-2.5-1c-1.35-.16-2.64.28-2.84 2-.17 1.44.94 2.2 2.22 2.35a4.92 4.92 0 0 0 2.87-.33L91.51 68a8 8 0 0 1-3.37.26c-3.27-.4-6.14-2.43-5.64-6.57s3.82-5.62 6.93-5.25zM101.67 53.92l3.64 6.67 4-2.2 1.78 3.26-7.8 4.26-5.4-9.91zM113.18 39.6l2.93 1.4-1.94 4.16.83.38 1.72-3.54 2.61 1.22-1.67 3.57.88.41 2-4.25 3 1.38-3.8 8.14-10.25-4.79z"/><path class="gcls-2" d="M103.76 15.38l7.31-8.63 3.28 2.78-7.35 8.63zM53.94 61.19a8.6 8.6 0 0 1-3 1.65L48.55 60A5.8 5.8 0 0 0 51 58.83c1-.87 1.6-2.12.51-3.42-.93-1.11-2.25-.82-3.24 0a4.92 4.92 0 0 0-1.71 2.29l-2.43-2.9a8 8 0 0 1 2.11-2.64c2.53-2.12 6-2.81 8.65.38s1.45 6.64-.95 8.65zM35.89 56.67l.11 3.86 4.48 7.3-4.82.17L34 64.08l-1.38 4-4.85.17 4-7.6-.14-3.86zM11.72 61a8.6 8.6 0 0 1-2.33-2.51l2.19-3a5.79 5.79 0 0 0 1.72 2.07c1.1.8 2.44 1 3.44-.34.85-1.18.25-2.38-.8-3.14A4.92 4.92 0 0 0 13.29 53l2.22-3.06a8 8 0 0 1 3.07 1.41c2.67 1.94 4.18 5.11 1.73 8.49s-6.05 3.02-8.59 1.16zM0 42.5l7.35-1.91-1.15-4.44 3.6-.93 2.2 8.59-11 2.84zM3.66 16.2l3 1.31-1.89 4.19.89.39 1.59-3.61 2.63 1.16-1.59 3.61.89.39 1.89-4.29 3 1.32-3.65 8.23L.07 24.33zM112.26 26.91l7.22-2.37-1.48-4.36 3.57-1.18 2.78 8.45L113.6 31zM89.55 11l.52-3.68 4.22.6.14-1-3.76-.53.5-3.52 3.76.53.43-3 4.26.6L98 12.22zM75.23 17l-1.67-2.77 3.93-2.37L77 11l-3.38 2-1.48-2.46 3.38-2-.52-.82-4 2.42-1.68-2.8L77 2.71l5.84 9.69z"/></svg><svg id="logo-mojotech" viewBox="-386 342.6 269.7 85.4" width="269.7" height="85.4" x="784" y="451"><style>.hst0{fill:#BBB}.hst1{fill:#9f9f9f}</style><path class="hst0" d="M-315.7 347.6h-43.5l-21.8 37.7 21.8 37.7h43.5l21.8-37.7-21.8-37.7zm-3.3 53.3h-10.3v-13.3l1.9-3.1-10 6.4-10-6.4 1.9 3.1v13.3h-10.2v-31.2h6.2l12.2 8.8 12.2-8.8h6.1v31.2z"/><path class="hst1" d="M-279.6 376.7h6.6l.5 1.3c1-1.4 3-2.4 5.3-2.4 2.7 0 4.5.8 5.4 2.4 1.2-1.5 3.1-2.5 5.6-2.5 4.9 0 6.4 2.6 6.4 8.1V396h-7v-12.3c0-1-.7-1.6-1.7-1.6-.8 0-1.8.5-1.8 1.6v12.4h-8.8v-12.4c0-.9-.7-1.6-1.7-1.6-1.1 0-1.8.5-1.8 1.6v12.4h-7v-19.4zM-248.4 385.8c0-7.5 4.8-10.3 10.9-10.3 6.1 0 10.4 2.9 10.4 10.3 0 7.5-4.9 10.3-10.9 10.3-6.1.1-10.4-2.8-10.4-10.3zm13.3 0c0-2.6-.7-4-2.7-4-1.9 0-2.6 1.4-2.6 4 0 2.7.7 4 2.6 4 2 .1 2.7-1.3 2.7-4zM-216.5 385.7c0-7.4 4.8-10.3 10.9-10.3 6.1 0 10.4 2.9 10.4 10.3 0 7.5-4.9 10.3-10.9 10.3-6.2.1-10.4-2.8-10.4-10.3zm13.3 0c0-2.6-.7-4-2.7-4-1.9 0-2.6 1.4-2.6 4 0 2.7.7 4 2.6 4 1.9.1 2.7-1.3 2.7-4z"/><path class="hst1" d="M-228.6 401.6v-5.7c0 .4 1.3.6 2 .6.9 0 1.5-.4 1.5-1.4v-18.4h7v18.4c0 4.9-2.3 7.4-7.2 7.4-1.7 0-3.3-.5-3.3-.9zm2.8-30.2c0-2.1 1.7-3.4 4-3.4s4.1 1.3 4.1 3.4c0 2.1-1.7 3.4-4.1 3.4-2.3 0-4-1.3-4-3.4zM-193.4 389.1V382h-1.8v-3.4l6.5-7.1h4v5.3h3.5v5.3h-3.5v6.1c0 1.1.3 1.7 1.2 1.7 1.2 0 2.3-.4 2.3-1.1v6c0 .8-2.4 1.5-5.4 1.5-4.8-.1-6.8-3-6.8-7.2zM-180 385.8c0-7.3 4.9-10.3 10.2-10.3 5.2 0 9.7 1.8 9.7 9.5 0 .6-.2 2.3-.3 2.3h-11.3c.2 1.8 1.1 2.1 4.7 2.1 2.9 0 3.6-.1 5.3-.7v6c-1.8.8-3 1.4-7.1 1.4-7.6.1-11.2-3.3-11.2-10.3zm12.9-2v-.4c0-1.2-.8-2.2-2.5-2.2-1.6 0-2.4.9-2.5 2.6h5zM-159.4 385.8c0-7.2 4.7-10.3 10.4-10.3 3.2 0 4.8.8 6.6 1.5v6.6c-1.8-.9-3-1.3-4.8-1.3-2.6 0-3.8 1.1-3.8 3.6 0 2.4 1.4 3.5 3.9 3.5 1.8 0 2.9-.4 4.7-1.3v6.5c-1.8.8-3.4 1.7-6.5 1.7-6.1-.1-10.5-3.2-10.5-10.5zM-140.7 369.7h7v7.5c1.8-1 3-1.6 5.2-1.6 4.9 0 7.1 2.7 7.1 8.1v12.4h-8.8v-12.4c0-.7-.6-1.6-1.8-1.6-.9 0-1.8.6-1.8 1.6V396h-7v-26.3h.1z"/></svg><svg id="logo-mojotech-small" viewBox="-317 348 131.6 74.5" width="131.6" height="74.5" x="1054" y="537"><style>.ist0{fill:#BBB}.ist1{fill:#9f9f9f}</style><path class="ist0" d="M-280 368.4h-19.4l-9.7 16.9 9.7 16.9h19.4l9.7-16.9-9.7-16.9zm-1.5 23.9h-4.6v-5.9l.8-1.4-4.5 2.9-4.5-2.9.8 1.4v5.9h-4.6v-13.9h2.8l5.5 3.9 5.5-3.9h2.7v13.9z"/><path class="ist1" d="M-263.8 381.5h3l.2.6c.4-.6 1.3-1.1 2.4-1.1 1.2 0 2 .4 2.4 1.1.5-.7 1.4-1.1 2.5-1.1 2.2 0 2.9 1.2 2.9 3.6v5.5h-3.1v-5.5c0-.4-.3-.7-.8-.7-.4 0-.8.2-.8.7v5.5h-3.9v-5.5c0-.4-.3-.7-.8-.7s-.8.2-.8.7v5.5h-3.1c-.1 0-.1-8.6-.1-8.6zM-249.9 385.5c0-3.4 2.1-4.6 4.9-4.6 2.7 0 4.6 1.3 4.6 4.6 0 3.4-2.2 4.6-4.9 4.6-2.7.1-4.6-1.2-4.6-4.6zm5.9 0c0-1.2-.3-1.8-1.2-1.8-.8 0-1.2.6-1.2 1.8 0 1.2.3 1.8 1.2 1.8.9.1 1.2-.6 1.2-1.8zM-235.6 385.5c0-3.3 2.1-4.6 4.9-4.6 2.7 0 4.6 1.3 4.6 4.6 0 3.4-2.2 4.6-4.9 4.6-2.8 0-4.6-1.3-4.6-4.6zm5.9 0c0-1.2-.3-1.8-1.2-1.8-.8 0-1.2.6-1.2 1.8 0 1.2.3 1.8 1.2 1.8.9 0 1.2-.6 1.2-1.8z"/><path class="ist1" d="M-241 392.6V390c0 .2.6.3.9.3.4 0 .7-.2.7-.6v-8.2h3.1v8.2c0 2.2-1 3.3-3.2 3.3-.8 0-1.5-.2-1.5-.4zm1.2-13.5c0-.9.8-1.5 1.8-1.5s1.8.6 1.8 1.5-.8 1.5-1.8 1.5-1.8-.6-1.8-1.5zM-225.3 387v-3.2h-.8v-1.5l2.9-3.2h1.8v2.4h1.6v2.4h-1.6v2.7c0 .5.1.8.5.8.5 0 1-.2 1-.5v2.7c0 .4-1.1.7-2.4.7-2.1-.1-3-1.4-3-3.3zM-219.3 385.5c0-3.3 2.2-4.6 4.6-4.6 2.3 0 4.3.8 4.3 4.2 0 .3-.1 1-.1 1h-5.1c.1.8.5.9 2.1.9 1.3 0 1.6 0 2.4-.3v2.7c-.8.4-1.3.6-3.2.6-3.4.2-5-1.3-5-4.5zm5.8-.9v-.2c0-.5-.4-1-1.1-1-.7 0-1.1.4-1.1 1.2h2.2zM-210.1 385.5c0-3.2 2.1-4.6 4.6-4.6 1.4 0 2.1.4 3 .7v3c-.8-.4-1.3-.6-2.1-.6-1.2 0-1.7.5-1.7 1.6s.6 1.6 1.7 1.6c.8 0 1.3-.2 2.1-.6v2.9c-.8.4-1.5.8-2.9.8-2.7-.1-4.7-1.5-4.7-4.8zM-201.7 378.3h3.1v3.4c.8-.4 1.3-.7 2.3-.7 2.2 0 3.2 1.2 3.2 3.6v5.5h-3.9v-5.5c0-.3-.3-.7-.8-.7-.4 0-.8.3-.8.7v5.5h-3.1v-11.8z"/></svg><svg viewBox="-5 -5 100 100" width="100" height="100" id="logo-nmro" x="1186" y="612"><path fill="#B2B2B2" d="M0 0h90v90H0z"/><path fill="#FFF" d="M3.5 90c0-.2-.8-19.8 9.4-40.3 6-12.1 14.6-22.1 25.6-29.8C52.1 10.2 69.3 4.2 90 1.9v.5c-20.7 2.2-37.7 8.2-51.3 17.8-10.9 7.7-19.4 17.6-25.4 29.6C3.1 70.3 3.9 89.8 4 90h-.5zM37 90c0-.1-.2-12.4 6.3-25.1 3.8-7.4 9.3-13.6 16-18.2C67.6 41 77.5 37.6 90 36.6v.5c-12.3 1-22.2 4.3-30.4 10.1-6.6 4.6-11.9 10.6-15.7 18-6.4 12.6-6.3 24.7-6.3 24.8H37zM58.3 90h-.5c0-.1.4-8 4.5-15.7 2.4-4.6 5.8-8.2 9.7-10.7 4.9-3.2 10.7-4.8 17.9-4.7v.5c-7-.1-12.8 1.5-17.6 4.6-3.9 2.5-7.1 6.1-9.5 10.6-4.1 7.5-4.5 15.3-4.5 15.4zM72.1 90h-.5s.1-4.6 2.4-9.2c2.1-4.2 6.4-9.3 16-9.6v.5c-7.5.2-12.6 3.3-15.6 9.3-2.2 4.5-2.3 8.9-2.3 9z"/><g fill="#FFF"><path d="M14.7 24.4c0-1.6 0-2.5-.1-3.3 0-.7-.1-2.4-.2-2.7-.1-.4-.5-.7-.9-.7H13c-.1 0-.1-.1-.1-.2V17c0-.1 0-.1.2-.1s.8.1 2.1.1c1.1 0 1.5-.1 1.7-.1.2 0 .2 0 .2.1v.4c0 .1 0 .2-.1.2h-.5c-.3 0-.5.3-.5.9-.1 1.2-.4 5.2-.4 7.5v3c0 .3 0 .6-.3.6s-.5-.1-.7-.3c-.3-.3-1.2-1.2-2.2-2.5-1.3-1.5-2.7-3.2-3-3.6C9 23 6.5 20 6.1 19.4H6V23c0 1.5.2 3.7.2 4.3 0 1 .4 1.6 1.1 1.6h.4c.1 0 .1.1.1.2v.4c0 .1 0 .1-.1.1-.2 0-1.2-.1-2.1-.1-.6 0-1.8.1-2 .1-.1 0-.1 0-.1-.2V29c0-.1 0-.1.1-.1h.6c.4 0 .7-.6.8-1.8 0-.3.2-3.2.2-5.8v-1.6c0-1-.6-2-1.5-2.1h-.4c-.1 0-.1-.1-.1-.1V17c0-.1 0-.1.1-.1H7c.2 0 .4.1.5.2.1.1 3.6 4.4 4.1 5 .2.3 2.8 3.6 3 3.8h.1v-1.5zM18.3 28.5c-.7-.7-.9-1.7-.9-2.8 0-.8.4-2.1 1.5-2.9.9-.7 1.8-.9 2.6-.9 1.2 0 2.1.4 2.9 1.1.9.8 1.2 1.7 1.2 2.8 0 1-.4 2-1.1 2.8-.9.9-1.9 1.2-3.1 1.2-1.4 0-2.2-.3-3.1-1.3zm4.6-2.9c0-2.1-.7-3.1-1.5-3.1-.4 0-.7.1-1 .5-.4.6-.6 1.3-.6 2.8 0 1 .1 1.7.4 2.5.2.5.5.8 1.2.8 1-.1 1.5-1.5 1.5-3.5zM29.4 28.2c0 .6.2.7.6.7h.7c.1 0 .1.1.1.2v.4c0 .1 0 .2-.1.2s-.9-.1-2.5-.1c-1.4 0-2.1.1-2.2.1-.1 0-.1 0-.1-.2v-.3c0-.1 0-.2.2-.2h.5c.3 0 .4-.1.5-.4V25c0-.8-.2-1.1-.7-1.4l-.4-.2c-.1-.1-.1-.1-.1-.2V23c0-.1 0-.1.1-.1l2.5-1.1c.1 0 .2-.1.3-.1.1 0 .2.1.2.2l.2 1.4h.1c.6-1.2 1.3-1.7 2.1-1.7.5 0 .9.4.9 1 0 .5-.6 1-1.1 1-.2 0-.5-.1-.6-.2-.1-.1-.3-.1-.4-.1-.2 0-.4.1-.5.3-.2.5-.3.8-.3 1v3.6z"/><path d="M35.8 26.9c0 1.5.6 1.8 1 1.8s.6-.1.9-.2c.1 0 .1 0 .2.1l.1.3c.1.1 0 .2-.1.2-.3.2-1.1.7-2.5.7-1.2 0-2-.8-2-1.7v-4.9h-1c-.2 0-.3-.1-.3-.2 0-.2.1-.3.4-.4.6-.3 2.1-1.6 2.7-2.3.1-.1.2-.2.3-.2.2 0 .2.1.2.3l-.1 1.9h2.3c.1 0 .2.1.1.2v.5c0 .1-.1.1-.2.1h-2.1v3.8z"/><path d="M41.3 28.2c0 .5.1.7.3.7h.4c.1 0 .1 0 .1.1v.3c0 .1 0 .2-.1.2s-1-.1-2-.1c-1.2 0-1.9.1-2.1.1-.1 0-.1-.1-.1-.2v-.4c0-.1.1-.1.3-.1h.3c.3 0 .6-.1.6-.3V20c0-.9-.2-1.4-.8-1.6l-.3-.1c-.1-.1-.1-.1-.1-.2v-.2c0-.1.1-.1.3-.2 1-.3 1.6-.6 2.7-1.1.2-.1.4-.2.6-.2.2 0 .2.1.2.4 0 .3-.1 3.9-.1 5v1.1h.1c.4-.7 1.3-1.1 2.3-1.1.8 0 1.3.2 1.8.7.8.7.8 1.6.8 2.7v3.4c0 .2.4.3.6.3h.3c.1 0 .2 0 .2.1v.4c0 .1 0 .2-.1.2s-.7-.1-1.9-.1-1.9.1-2 .1c-.1 0-.2-.1-.2-.2v-.3c0-.1 0-.1.1-.1h.2c.2 0 .4-.1.4-.3 0-.2.1-1.2.1-1.7v-1.1c0-.9.1-2.1-.4-2.6-.2-.2-.5-.3-.8-.3-.4 0-.8.3-1 .6-.1.2-.3.4-.3.9v3.7z"/><path d="M50.1 27.2c.1.7.3 1.7.9 1.7h.7c.1 0 .1.1.1.1v.5c0 .1 0 .1-.2.1s-.7-.1-2-.1c-1.5 0-2.1.1-2.3.1-.1 0-.2 0-.2-.2V29c0-.1 0-.1.1-.1h.7c.6 0 .8-.8.9-1.4.2-1.3.3-5.5.3-5.8V19c0-.8-.2-1.3-1-1.3h-.6c-.1 0-.1-.1-.1-.1V17c0-.1 0-.1.1-.1.2 0 .7.1 2.8.1.8 0 1.4-.1 1.6-.1.2 0 .3 0 .4.3 1.1 3 2.4 6 3.4 8.6.2-.3 1.5-3.6 1.7-3.9.1-.2 1.8-4.4 1.9-4.8.1-.2.3-.2.8-.2 2.8 0 3.4-.1 3.6-.1.1 0 .1.1.1.2v.4c0 .1 0 .2-.1.2H63c-.4 0-.5.3-.5.7v5c0 .4.1 4.2.1 4.6 0 .7.2 1 .4 1h.9c.1 0 .1.1.1.1v.4c0 .1 0 .2-.2.2s-.5-.1-2.6-.1c-1.8 0-2.5.1-2.7.1-.1 0-.1-.1-.1-.2V29c0-.1 0-.1.1-.1h1c.3 0 .5-.1.5-.6 0-.2.1-3.4.1-4.7v-5.4H60c-.2.3-2.2 5.1-2.5 5.9-.4.8-2 4.8-2 4.9-.1.1-.2.4-.4.4-.1 0-.2-.1-.3-.3-.1-.1-2.4-5.6-2.5-6-.3-.8-2-4.8-2.1-5-.2.2-.2 4.7-.2 4.9 0 .2 0 2.6.1 4.2zM68.7 23.9c0-.4 0-.8-.3-1-.2-.2-.5-.2-.7-.2-.3 0-.6.1-.9.3-.3.2-.1.5-.1 1 0 .6-.4 1-1.2 1-.4 0-.8-.2-.8-.6s.1-.9.5-1.2c.7-.7 2-1.3 3.4-1.3 1.1 0 1.4.2 1.8.5.4.4.5.9.5 1.5v3.5c0 .9.1 1.2.4 1.2.2 0 .4-.2.5-.3.1-.1.1-.1.2-.1l.2.1c.1 0 .1.1.1.2-.2.4-.7 1.2-1.8 1.2-.7 0-1.3-.2-1.7-1.1h-.1c-.4.4-.8.7-1.5.9-.4.1-.8.2-1.3.2-.6 0-1.2-.7-1.2-1.6 0-.8.4-1.6 1.5-2.2 1.4-.7 1.8-.9 2.3-1.2v-.8zm0 1.6c-.9.5-1.6.8-1.6 2 0 .8.4 1.2.8 1.2.5 0 .8-.5.8-.6v-2.6z"/><path d="M76.6 29.6c-.1 0-1-.1-2.5-.1-1 0-1.7.1-1.9.1-.1 0-.1 0-.1-.2V29c0-.1.1-.1.2-.1h.7c.2 0 .3-.1.3-.4v-4.1c0-.5-.1-.9-.9-1.1-.2-.1-.2-.1-.2-.2v-.2c0-.1 0-.1.2-.1l2.6-.9c.2-.1.4-.1.5-.1.1 0 .2.1.2.2v6.4c0 .3.1.5.3.5h.6c.1 0 .2.1.2.2v.3c-.1.1-.1.2-.2.2zm-2.5-9.2c-.7 0-1.2-.5-1.2-1.2 0-.6.6-1.1 1.3-1.1.8 0 1.3.5 1.3 1 0 .7-.4 1.3-1.4 1.3zM80.2 22.8h.1c.2-.2.5-.5.9-.6.4-.2.8-.3 1.4-.3.7 0 1.4.1 1.8.5.7.7.8 1.1.8 2v1.9c0 .6 0 1.4-.1 2.1 0 .5.3.6.4.6h.5c.2 0 .2.1.2.2v.3c0 .1 0 .2-.1.2s-.7-.1-2.1-.1c-1.2 0-1.7.1-1.9.1-.1 0-.1-.1-.1-.2v-.3c0-.1.1-.2.2-.2h.2c.1 0 .3-.1.3-.4.1-.5.1-1 .1-1.8v-1.9c0-.7-.1-1.1-.4-1.5-.4-.4-.6-.4-.9-.4-.3 0-.5.1-.9.4-.2.2-.4.6-.4 1.4v3.6c0 .3.1.6.3.6h.2c.1 0 .2.1.2.2v.3c0 .1 0 .2-.1.2s-.6-.1-1.8-.1c-1.3 0-1.8.1-1.9.1-.1 0-.1-.1-.1-.2v-.4c0-.1 0-.2.2-.2h.3c.2 0 .5-.1.5-.4v-3.9c0-.5-.3-.8-.7-1l-.3-.1c-.1-.1-.1-.1-.1-.2v-.2c0-.1.1-.1.2-.2l2.3-1c.1-.1.3-.1.4-.1.1 0 .2.1.2.2l.2.8z"/></g><g fill="#FFF"><path d="M21.7 42.4v-3c0-.6-.2-.9-.7-.9h-.7c-.1 0-.1-.1-.1-.1V38c0-.1 0-.1.1-.1.2 0 .7.1 2.2.1 1 0 2.6-.1 3-.1 1.5 0 2.6.4 3.3 1.1.6.6.9 1.4.9 2 0 2.2-1 3.1-3.3 3.6.4.2.7.5.8.7.2.2 1.5 2 1.6 2.3.1.2 1.2 1.8 1.6 2 .4.3.8.3 1.3.3.1 0 .1.1.1.1v.4c0 .1 0 .2-.1.2s-.6-.1-1.4-.1c-.5 0-1.2 0-1.4.1-.2-.2-.6-.8-.7-1-.1-.2-1.1-1.9-1.2-2-.1-.1-.9-1.4-1.1-1.7-.5-.6-.9-1-1.9-1-.2 0-.3 0-.6.1v4.3c0 .4.2.7.4.7h1.1c.1 0 .1.1.1.1v.4c0 .1 0 .2-.2.2s-.6-.1-2.3-.1c-1.6 0-2 .1-2.2.1-.1 0-.1-.1-.1-.1V50c0-.1 0-.1.1-.1h.7c.4 0 .7-.1.7-.6V42.4zm1.6 1.7c.3.1.5.1.8.1 3.2 0 3.9-2.2 3.9-3 0-.8-.4-1.6-.9-2-.7-.6-1.5-.8-2.9-.8-.2 0-.4 0-.6.1-.1.1-.2.3-.2.6v5zM37.3 48.3c0 1 .2 1.3.5 1.3s.5-.1.6-.3c.1-.1.1-.1.2-.1l.2.1c.1.1.1.1 0 .3-.1.3-.5.9-1.4.9-.6 0-1.1-.5-1.3-1.2-.4.4-1 .8-1.8 1.1-.3.1-.7.1-1 .1-.4 0-1.1-.4-1.1-1.5 0-.8.4-1.5 1.8-2.1.8-.4 1.7-.8 2-1v-1.1c0-.3-.1-.8-.2-1s-.6-.4-1.1-.4c-.4 0-.9.1-1.2.4s-.1.5-.1.8c0 .6-.2 1-.9 1-.3 0-.4-.2-.4-.6 0-.6.5-1.2 1.2-1.7.7-.4 1.4-.6 2.2-.6.8 0 1.2.2 1.4.5.4.4.4.8.4 1.3V48.3zM36 46.6c-.6.5-2.4.8-2.4 2.3 0 .7.4 1 .9 1s1.5-.6 1.5-1.1v-2.2zM44.7 39.6c0-.7-.1-.9-1.1-1-.1 0-.1-.1-.1-.1v-.3c0-.1 0-.1.1-.1.7-.1 1.6-.3 2-.4.2 0 .3-.1.4-.1.1 0 .1.1.1.3-.1.9-.1 3.5-.1 5.8v3.9c0 .7 0 1.4.2 1.6.2.2.5.3.8.3.2 0 .3 0 .4.1v.1c0 .1 0 .2-.1.2l-2 .7c-.1 0-.2 0-.2-.1l-.2-.8c-.6.6-1.7 1-2.6 1-.6 0-1.3 0-2.1-.8-.9-.9-1.1-1.7-1.1-2.9 0-1.1.4-2.2 1.2-3 .7-.7 1.7-1.1 2.6-1.1.7 0 1.4.1 1.9.3v-3.6zm0 5.7c0-.2 0-.6-.2-.9-.2-.5-.8-1-1.9-1-.6 0-1.2.2-1.6.6-.7.7-.8 1.7-.8 2.4 0 2 1.4 3.5 2.4 3.5s1.8-.5 1.9-1c.1-.3.1-.4.1-.6v-3zM48.9 45.3c0-.6-.1-.9-1-1.1-.1 0-.2-.1-.2-.1v-.2c0-.1 0-.1.1-.1.6-.2 1.2-.5 1.9-.9.1-.1.2-.1.3-.1.1 0 .1.1.1.2v6.3c0 .3.1.5.3.5h.8c.1 0 .2.1.2.2v.3c0 .1 0 .2-.2.2-.1 0-1-.1-1.7-.1-1 0-1.7.1-1.9.1-.1 0-.1 0-.1-.1V50c0-.1.1-.1.2-.1h.9c.2 0 .3-.1.3-.4v-4.2zm-.8-5.4c0-.4.4-.9 1.1-.9.6 0 .9.5.9.9 0 .5-.3 1-1 1-.5-.1-1-.5-1-1zM57.3 48.3c0 1 .2 1.3.5 1.3s.5-.1.6-.3c.1-.1.1-.1.2-.1l.2.1c.1.1.1.1 0 .3-.1.3-.5.9-1.4.9-.6 0-1.1-.5-1.3-1.2-.4.4-1 .8-1.8 1.1-.3.1-.7.1-1 .1-.4 0-1.1-.4-1.1-1.5 0-.8.4-1.5 1.8-2.1.8-.4 1.7-.8 2-1v-1.1c0-.3-.1-.8-.2-1s-.6-.4-1.1-.4c-.4 0-.9.1-1.2.4-.2.2-.1.5-.1.8 0 .6-.2 1-.9 1-.3 0-.4-.2-.4-.6 0-.6.5-1.2 1.2-1.7.7-.4 1.4-.6 2.2-.6.8 0 1.2.2 1.4.5.4.4.4.8.4 1.3V48.3zM56 46.6c-.6.5-2.4.8-2.4 2.3 0 .7.4 1 .9 1s1.5-.6 1.5-1.1v-2.2zM61.4 48.2c0 1.3.6 1.6.9 1.6.4 0 .9-.1 1.2-.2.1-.1.2 0 .2 0l.1.2c.1.1 0 .1 0 .2-.2.2-.9.7-2 .7-.9 0-1.7-.8-1.7-1.5s.1-2.3.1-2.5v-.4V44h-1.1c-.2 0-.3-.1-.3-.2s.1-.2.3-.3c.4-.2 1.8-1.6 2-2.2.1-.1.1-.2.2-.2s.2.1.2.3l-.1 1.8h2.5c.1 0 .2.1.1.2l-.2.6c0 .1-.1.1-.2.1h-2.3c0 .8-.1 1.7-.1 2.5v1.6zM65.4 45.3c0-.6-.1-.9-1-1.1-.1 0-.2-.1-.2-.1v-.2c0-.1 0-.1.1-.1.6-.2 1.2-.5 1.9-.9.1-.1.2-.1.3-.1.1 0 .1.1.1.2v6.3c0 .3.1.5.3.5h.8c.1 0 .2.1.2.2v.3c0 .1 0 .2-.2.2-.1 0-1-.1-1.7-.1-1 0-1.7.1-1.9.1-.1 0-.1 0-.1-.1V50c0-.1.1-.1.2-.1h.9c.2 0 .3-.1.3-.4v-4.2zm-.8-5.4c0-.4.4-.9 1.1-.9.6 0 .9.5.9.9 0 .5-.3 1-1 1-.4-.1-1-.5-1-1zM69.4 49.4c-.8-1-1-1.6-1-2.9 0-.9.5-2 1.5-2.9.9-.7 1.8-.9 2.4-.9 1 0 2 .5 2.5 1 .8.8 1.2 1.7 1.2 2.9 0 1.9-1.7 3.9-3.9 3.9-.9.2-2-.2-2.7-1.1zm5.1-2.8c0-2-1.4-3.2-2.3-3.2-.5 0-.9.1-1.4.6-.7.7-.9 1.4-.9 2.8 0 1 .1 1.7.7 2.5.4.6.9.9 1.8.9 1.3-.1 2.1-1.7 2.1-3.6zM84 49.5c0 .3.2.4.4.4h.6c.2 0 .2.1.2.2v.3c0 .1 0 .2-.1.2s-.7-.1-1.7-.1c-.9 0-1.5.1-1.6.1-.1 0-.1-.1-.1-.2V50c0-.1.1-.2.2-.2h.5c.2 0 .3-.1.4-.4v-3.8c0-.7 0-1.2-.5-1.6-.4-.3-.9-.3-1.3-.3-.3 0-.9.1-1.4.7-.4.4-.4.9-.4 1.2v3.7c0 .5.1.6.4.6h.4c.1 0 .2.1.2.2v.3c0 .1 0 .2-.1.2s-.6-.1-1.5-.1-1.5.1-1.6.1c-.1 0-.1-.1-.1-.2V50c0-.1 0-.2.2-.2h.5c.2 0 .4-.1.4-.4v-4.2c0-.5-.3-.8-.7-1l-.1-.1c-.1-.1-.1-.1-.1-.2v.1c0-.1.1-.1.2-.2l1.5-.9c.1-.1.2-.1.3-.1.1 0 .1.1.1.2l.1 1.1c.5-.6 1.5-1.3 2.4-1.3.5 0 1.1.1 1.5.4.5.4 1 1.2 1 1.7v4.6z"/></g><g fill="#FFF"><path d="M21.2 70.5c-1.3-.8-2.6-2.7-2.6-5.3 0-1.1.3-2.8 1.7-4.4 1.6-1.9 3.3-2.3 4.8-2.3 1.1 0 2.6.2 4 1.4 1.3 1.1 2.4 2.9 2.4 5.3 0 1.3-.4 2.6-1.3 3.9-1.1 1.4-2.7 2.5-5.1 2.5-.9.1-2.5-.2-3.9-1.1zm8.5-5c0-3.9-2.8-6.2-4.7-6.2-.3 0-1.5-.2-2.8 1-1.2 1.1-1.8 2.9-1.8 4.4 0 4.7 3.3 6.3 4.8 6.3 3.9 0 4.5-4 4.5-5.5zM39.8 70.5c0 .3.2.4.4.4h.6c.2 0 .2.1.2.2v.3c0 .1 0 .2-.1.2s-.7-.1-1.7-.1c-.9 0-1.5.1-1.6.1-.1 0-.1-.1-.1-.2V71c0-.1.1-.2.2-.2h.5c.2 0 .3-.1.4-.4v-3.8c0-.7 0-1.2-.5-1.6-.4-.3-.9-.3-1.3-.3-.3 0-.9.1-1.4.7-.4.4-.4.9-.4 1.2v3.7c0 .5.1.6.4.6h.4c.1 0 .2.1.2.2v.3c0 .1 0 .2-.1.2s-.6-.1-1.5-.1-1.5.1-1.6.1c-.1 0-.1-.1-.1-.2V71c0-.1 0-.2.2-.2h.5c.2 0 .4-.1.4-.4v-4.2c0-.5-.3-.8-.7-1l-.1-.1c-.1-.1-.1-.1-.1-.2v.1c0-.1.1-.1.2-.2l1.5-.9c.1-.1.2-.1.3-.1.1 0 .1.1.1.2l.1 1.1c.5-.6 1.5-1.3 2.4-1.3.5 0 1.1.1 1.5.4.5.4 1 1.2 1 1.7v4.6zM42.7 67.1c0 1 .4 2 .9 2.7.6.8 1.3.9 1.9.9.9 0 1.3-.2 2-.8 0 0 .1-.1.1 0l.2.2c.1.1.1.1 0 .2-.5.6-1.7 1.3-2.9 1.3-.9 0-1.9-.2-2.8-1.2-.7-.9-.8-1.6-.8-2.4 0-2.1 1.5-4.2 3.8-4.2 1.8 0 2.4 1.1 2.4 1.4 0 .4-.3.6-.7.6-.4 0-.7-.2-1-.7-.4-.7-.8-.8-1.2-.8-.8.1-1.9 1-1.9 2.8zM49.2 70.4c-.8-1-1-1.6-1-2.9 0-.9.5-2 1.5-2.9.9-.7 1.8-.9 2.4-.9 1 0 2 .5 2.5 1 .8.8 1.2 1.7 1.2 2.9 0 1.9-1.7 3.9-3.9 3.9-.9.1-2-.2-2.7-1.1zm5.1-2.8c0-2-1.4-3.2-2.3-3.2-.5 0-.9.1-1.4.6-.7.7-.9 1.4-.9 2.8 0 1 .1 1.7.7 2.5.4.6.9.9 1.8.9 1.3-.1 2.1-1.7 2.1-3.6zM58.9 66.1v4.2c0 .3.1.6.5.6h.8c.2 0 .2.1.2.2v.3c0 .1 0 .2-.1.2s-.9-.1-2-.1-1.8.1-2 .1c-.1 0-.1-.1-.1-.2V71c0-.1 0-.2.2-.2h.9c.2 0 .4-.1.4-.4V64.7c0-1.3 0-2.9-.1-3.3 0-.6-.3-.9-.9-1.1l-.4-.1c-.1 0-.1-.1-.1-.1V60c0-.1.1-.1.2-.1.6-.3 1.4-.6 2.1-1 .2-.1.3-.1.4-.1.1 0 .2.1.1.3 0 1-.1 4.7-.1 5.6v1.4zM61.6 70.4c-.8-1-1-1.6-1-2.9 0-.9.5-2 1.5-2.9.9-.7 1.8-.9 2.4-.9 1 0 2 .5 2.5 1 .8.8 1.2 1.7 1.2 2.9 0 1.9-1.7 3.9-3.9 3.9-.9.1-2-.2-2.7-1.1zm5.1-2.8c0-2-1.4-3.2-2.3-3.2-.5 0-.9.1-1.4.6-.7.7-.9 1.4-.9 2.8 0 1 .1 1.7.7 2.5.4.6.9.9 1.8.9 1.3-.1 2.1-1.7 2.1-3.6zM69.5 75.7c-.6-.4-.9-.9-.9-1.4 0-1 1-1.8 1.9-2.1v-.1c-.7-.2-1.2-.7-1.2-1.2 0-.9 1-1.5 1.6-1.7-.7-.3-1.7-1.1-1.7-2.7 0-1.2 1-2.6 3-2.6 1.4 0 2.1.8 2.2 1 .5-.3 1.1-.7 1.7-.7.6 0 .9.4.8.7 0 .3-.3.7-.7.7-.3 0-.5-.1-.6-.3-.1-.1-.2-.2-.4-.2-.1 0-.3 0-.6.1.1.4.3.7.3 1.3 0 .7-.2 1.4-.7 1.9-.5.5-1.5.9-2.1.9-.4 0-.6 0-.9-.1-.4.1-.9.5-.9 1 0 .7.9.7 2.1.6 1.5-.1 2.3.1 3.1.6.8.6.9 1.3.9 1.7 0 .8-.3 1.5-1.2 2.2-.5.3-1.5.8-3 .8-.8.2-1.8.1-2.7-.4zm5.9-1.8c0-1-.8-1.8-2.6-1.7l-1.7.1c-.6.1-1.4.7-1.4 1.7 0 .4.3 1 .7 1.2.6.4 1.2.5 2.5.5.6 0 2.6-.5 2.5-1.8zm-1.7-7.6c0-.8-.2-1.2-.5-1.6-.2-.2-.6-.4-.9-.4-.4 0-.8.1-1.3.5-.6.6-.6 1.4-.6 2.1 0 .6.2 1.2.6 1.5.3.3.6.4 1.1.4 1.2.1 1.6-1.4 1.6-2.5z"/><path d="M77 75.4c0-.4.4-.7.8-.7.3 0 .7.2.8.2.1 0 .3 0 .4-.1.3-.3 1.2-2.3 1.4-3-.1-.4-2-6-2.1-6.4-.2-.4-.4-.7-.8-.7H77c-.1 0-.1-.1-.1-.2v-.4c0-.1 0-.1.1-.1.2 0 .6.1 1.6.1.9 0 1.5-.1 1.7-.1.1 0 .2.1.2.1v.4c0 .1 0 .1-.1.1H80c-.2 0-.3.1-.2.4.1.4 1.3 4.3 1.5 4.7h.1c.2-.3 1.7-4 1.8-4.4s0-.7-.3-.7h-.3c-.1 0-.1-.1-.1-.1v-.4c0-.1 0-.1.1-.1.2 0 .6.1 1.5.1.5 0 .9-.1 1.1-.1.1 0 .1.1.1.1v.3c0 .1 0 .2-.1.2h-.3c-.2 0-.4.1-.6.3-.4.5-1.6 3.2-2.8 6-.9 2-1.6 3.6-1.9 4.2-.2.5-.6 1.2-1.5 1.2-.8 0-1.1-.4-1.1-.9z"/></g></svg><svg id="logo-nmro-small" viewBox="-483.6 347.7 100 74.7" width="100" height="74.7" x="1286" y="712"><style>.kst0{fill:#b2b2b2}.kst1{fill:#FFF}</style><path class="kst0" d="M-466 352.7h64.8v64.8H-466z"/><path class="kst1" d="M-463.5 417.5c0-.1-.6-14.3 6.8-29 4.3-8.7 10.5-15.9 18.4-21.5 9.8-7 22.2-11.3 37.1-13v.4c-14.9 1.6-27.1 5.9-36.9 12.8-7.8 5.5-14 12.7-18.3 21.3-7.3 14.8-6.8 28.8-6.7 28.9h-.4zM-439.4 417.5c0-.1-.1-8.9 4.5-18.1 2.7-5.3 6.7-9.8 11.5-13.1 6-4.1 13.1-6.6 22.1-7.3v.4c-8.9.7-16 3.1-21.9 7.3-4.8 3.3-8.6 7.6-11.3 13-4.6 9.1-4.5 17.8-4.5 17.9h-.4zM-424 417.5h-.4c0-.1.3-5.8 3.2-11.3 1.7-3.3 4.2-5.9 7-7.7 3.5-2.3 7.7-3.5 12.9-3.4v.4c-5-.1-9.2 1.1-12.7 3.3-2.8 1.8-5.1 4.4-6.8 7.6-2.9 5.4-3.2 11-3.2 11.1zM-414.1 417.5h-.4s.1-3.3 1.7-6.6c1.5-3 4.6-6.7 11.5-6.9v.4c-5.4.1-9.1 2.4-11.2 6.7-1.5 3.1-1.6 6.3-1.6 6.4zM-455.4 370.2c0-1.2 0-1.8-.1-2.4 0-.5-.1-1.7-.1-1.9-.1-.3-.4-.5-.6-.5h-.4c-.1 0-.1-.1-.1-.1v-.4c0-.1 0-.1.1-.1s.6.1 1.5.1c.8 0 1.1-.1 1.2-.1.1 0 .1 0 .1.1v.3c0 .1 0 .1-.1.1h-.4c-.2 0-.4.2-.4.6-.1.9-.3 3.7-.3 5.4v2.2c0 .2 0 .4-.2.4s-.4-.1-.5-.2c-.2-.2-.9-.9-1.6-1.8-.9-1.1-1.9-2.3-2.2-2.6-.3-.1-2.1-2.3-2.4-2.7h-.1v2.6c0 1.1.1 2.7.1 3.1 0 .7.3 1.2.8 1.2h.3c.1 0 .1.1.1.1v.3c0 .1 0 .1-.1.1s-.9-.1-1.5-.1c-.4 0-1.3.1-1.4.1-.1 0-.1 0-.1-.1v-.3c0-.1 0-.1.1-.1h.4c.3 0 .5-.4.6-1.3 0-.2.1-2.3.1-4.2v-1.2c0-.7-.4-1.4-1.1-1.5h-.3c-.1 0-.1-.1-.1-.1v-.4c0-.1 0-.1.1-.1h2.6c.1 0 .3.1.4.1.1.1 2.6 3.2 3 3.6.1.2 2 2.6 2.2 2.7h.1c.3.2.3-.9.3-.9zM-452.8 373.2c-.5-.5-.6-1.2-.6-2 0-.6.3-1.5 1.1-2.1.6-.5 1.3-.6 1.9-.6.9 0 1.5.3 2.1.8.6.6.9 1.2.9 2 0 .7-.3 1.4-.8 2-.6.6-1.4.9-2.2.9-1.2-.1-1.8-.3-2.4-1zm3.3-2.1c0-1.5-.5-2.2-1.1-2.2-.3 0-.5.1-.7.4-.3.4-.4.9-.4 2 0 .7.1 1.2.3 1.8.1.4.4.6.9.6.6-.2 1-1.2 1-2.6z"/><path class="kst1" d="M-444.8 373c0 .4.1.5.4.5h.5c.1 0 .1.1.1.1v.3c0 .1 0 .1-.1.1s-.6-.1-1.8-.1c-1 0-1.5.1-1.6.1-.1 0-.1 0-.1-.1v-.2c0-.1 0-.1.1-.1h.4c.2 0 .3-.1.4-.3V370.7c0-.6-.1-.8-.5-1l-.3-.1-.1-.1v-.1c0-.1 0-.1.1-.1l1.8-.8c.1 0 .1-.1.2-.1s.1.1.1.1l.1 1h.1c.4-.9.9-1.2 1.5-1.2.4 0 .6.3.6.7 0 .4-.4.7-.8.7-.1 0-.4-.1-.4-.1s-.2-.1-.3-.1c-.1 0-.3.1-.4.2-.1.4-.2.6-.2.7.2 0 .2 2.6.2 2.6zM-440.2 372c0 1.1.4 1.3.7 1.3s.4-.1.6-.1c.1 0 .1 0 .1.1l.1.2c.1.1 0 .1-.1.1-.2.1-.8.5-1.8.5-.9 0-1.4-.6-1.4-1.2V369.3h-.7c-.1 0-.2-.1-.2-.1 0-.1.1-.2.3-.3.4-.2 1.5-1.2 1.9-1.7.1-.1.1-.1.2-.1s.1.1.1.2l-.1 1.4h1.7c.1 0 .1.1.1.1v.4c0 .1-.1.1-.1.1h-1.5v1.7l.1 1z"/><path class="kst1" d="M-436.3 373c0 .4.1.5.2.5h.3c.1 0 .1 0 .1.1v.2c0 .1 0 .1-.1.1s-.7-.1-1.4-.1c-.9 0-1.4.1-1.5.1-.1 0-.1-.1-.1-.1v-.3c0-.1.1-.1.2-.1h.2c.2 0 .4-.1.4-.2v-6.1c0-.6-.1-1-.6-1.2l-.2-.1-.1-.1v-.1c0-.1.1-.1.2-.1.7-.2 1.2-.4 1.9-.8.1-.1.3-.1.4-.1s.1.1.1.3c0 .2-.1 2.8-.1 3.6v.8h.1c.3-.5.9-.8 1.7-.8.6 0 .9.1 1.3.5.6.5.6 1.2.6 1.9v2.5c0 .1.3.2.4.2h.2c.1 0 .1 0 .1.1v.3c0 .1 0 .1-.1.1s-.5-.1-1.4-.1c-.9 0-1.4.1-1.4.1l-.1-.1v-.2c0-.1 0-.1.1-.1h.1c.1 0 .3-.1.3-.2s.1-.9.1-1.2v-.8c0-.6.1-1.5-.3-1.9-.1-.1-.4-.2-.6-.2-.3 0-.6.2-.7.4-.1.1-.2.3-.2.6v2.7h-.1zM-429.9 372.3c.1.5.2 1.2.6 1.2h.5c.1 0 .1.1.1.1v.4c0 .1 0 .1-.1.1s-.5-.1-1.4-.1c-1.1 0-1.5.1-1.7.1-.1 0-.1 0-.1-.1v-.3c0-.1 0-.1.1-.1h.5c.4 0 .6-.6.6-1 .1-.9.2-4 .2-4.2v-1.9c0-.6-.1-.9-.7-.9h-.4c-.1 0-.1-.1-.1-.1v-.4c0-.1 0-.1.1-.1s.5.1 2 .1c.6 0 1-.1 1.2-.1.1 0 .2 0 .3.2.8 2.2 1.7 4.3 2.4 6.2.1-.2 1.1-2.6 1.2-2.8.1-.1 1.3-3.2 1.4-3.5.1-.1.2-.1.6-.1 2 0 2.4-.1 2.6-.1.1 0 .1.1.1.1v.3c0 .1 0 .1-.1.1h-.5c-.3 0-.4.2-.4.5v3.6c0 .3.1 3 .1 3.3 0 .5.1.7.3.7h.6c.1 0 .1.1.1.1v.3c0 .1 0 .1-.1.1s-.4-.1-1.9-.1c-1.3 0-1.8.1-1.9.1-.1 0-.1-.1-.1-.1v-.3c0-.1 0-.1.1-.1h.7c.2 0 .4-.1.4-.4 0-.1.1-2.4.1-3.4v-3.9h-.1c-.1.2-1.6 3.7-1.8 4.2-.3.6-1.4 3.5-1.4 3.5-.1.1-.1.3-.3.3-.1 0-.1-.1-.2-.2s-1.7-4-1.8-4.3c-.2-.6-1.4-3.5-1.5-3.6-.1.1-.1 3.4-.1 3.5-.3.2-.3 1.9-.2 3.1zM-416.5 369.9c0-.3 0-.6-.2-.7-.1-.1-.4-.1-.5-.1-.2 0-.4.1-.6.2-.2.1-.1.4-.1.7 0 .4-.3.7-.9.7-.3 0-.6-.1-.6-.4 0-.3.1-.6.4-.9.5-.5 1.4-.9 2.4-.9.8 0 1 .1 1.3.4.3.3.4.6.4 1.1v2.5c0 .6.1.9.3.9.1 0 .3-.1.4-.2l.1-.1.1.1c.1 0 .1.1.1.1-.1.3-.5.9-1.3.9-.5 0-.9-.1-1.2-.8h-.1c-.3.3-.6.5-1.1.6-.3.1-.6.1-.9.1-.4 0-.9-.5-.9-1.2 0-.6.3-1.2 1.1-1.6 1-.5 1.3-.6 1.7-.9v-.6h.1zm0 1.1c-.6.4-1.2.6-1.2 1.4 0 .6.3.9.6.9.4 0 .6-.4.6-.4V371z"/><path class="kst1" d="M-410.9 374c-.1 0-.7-.1-1.8-.1-.7 0-1.2.1-1.4.1-.1 0-.1 0-.1-.1v-.3c0-.1.1-.1.1-.1h.5c.1 0 .2-.1.2-.3v-3c0-.4-.1-.6-.6-.8l-.1-.1v-.1c0-.1 0-.1.1-.1l1.9-.6c.1-.1.3-.1.4-.1.1 0 .1.1.1.1v4.7c0 .2.1.4.2.4h.4c.1 0 .1.1.1.1v.2c.1 0 .1.1 0 .1zm-1.8-6.6c-.5 0-.9-.4-.9-.9 0-.4.4-.8.9-.8.6 0 .9.4.9.7.1.5-.1 1-.9 1z"/><path class="kst1" d="M-408.3 369.1c.2-.1.4-.4.7-.4.3-.1.6-.2 1-.2.5 0 1 .1 1.3.4.5.5.6.8.6 1.4v1.4c0 .4 0 1-.1 1.5 0 .4.2.4.3.4h.4c.1 0 .1.1.1.1v.2c0 .1 0 .1-.1.1s-.5-.1-1.5-.1c-.9 0-1.2.1-1.4.1-.1 0-.1-.1-.1-.1v-.2c0-.1.1-.1.1-.1h.1c.1 0 .2-.1.2-.3.1-.4.1-.7.1-1.3v-1.4c0-.5-.1-.8-.3-1.1-.3-.3-.4-.3-.6-.3s-.4.1-.6.3c-.1.1-.3.4-.3 1v2.6c0 .2.1.4.2.4h.1c.1 0 .1.1.1.1v.2c0 .1 0 .1-.1.1s-.4-.1-1.3-.1-1.3.1-1.4.1-.1-.1-.1-.1v-.3c0-.1 0-.1.1-.1h.2c.1 0 .4-.1.4-.3v-2.8c0-.4-.2-.6-.5-.7l-.2-.1-.1-.1v-.1c0-.1.1-.1.1-.1l1.7-.7c.1-.1.2-.1.3-.1s.1.1.1.1l.5.6z"/><g><path class="kst1" d="M-450.4 383.2V381c0-.4-.1-.6-.5-.6h-.5c-.1 0-.1-.1-.1-.1v-.3c0-.1 0-.1.1-.1s.5.1 1.6.1c.7 0 1.9-.1 2.2-.1 1.1 0 1.9.3 2.4.8.4.4.6 1 .6 1.4 0 1.6-.7 2.2-2.4 2.6.3.1.5.4.6.5.1.1 1.1 1.4 1.2 1.7.1.1.9 1.3 1.2 1.4.3.2.6.2.9.2.1 0 .1.1.1.1v.3c0 .1 0 .1-.1.1s-.4-.1-1-.1c-.4 0-.9 0-1 .1-.1-.1-.4-.6-.5-.7-.1-.1-.8-1.4-.9-1.4-.1-.1-.6-1-.8-1.2-.4-.4-.6-.7-1.4-.7-.1 0-.2 0-.4.1V388.2c0 .3.1.5.3.5h.8c.1 0 .1.1.1.1v.3c0 .1 0 .1-.1.1s-.4-.1-1.7-.1c-1.2 0-1.4.1-1.6.1-.1 0-.1-.1-.1-.1v-.4c0-.1 0-.1.1-.1h.5c.3 0 .5-.1.5-.4v-5zm1.2 1.2c.2.1.4.1.6.1 2.3 0 2.8-1.6 2.8-2.2s-.3-1.2-.6-1.4c-.5-.4-1.1-.6-2.1-.6-.1 0-.3 0-.4.1-.1.1-.1.2-.1.4l-.2 3.6zM-439.2 387.4c0 .7.1.9.4.9s.4-.1.4-.2l.1-.1.1.1c.1.1.1.1 0 .2-.1.2-.4.6-1 .6-.4 0-.8-.4-.9-.9-.3.3-.7.6-1.3.8-.2.1-.5.1-.7.1-.3 0-.8-.3-.8-1.1 0-.6.3-1.1 1.3-1.5l1.4-.7v-.8c0-.2-.1-.6-.1-.7-.1-.1-.4-.3-.8-.3-.3 0-.6.1-.9.3s-.1.4-.1.6c0 .4-.1.7-.6.7-.2 0-.3-.1-.3-.4 0-.4.4-.9.9-1.2.5-.3 1-.4 1.6-.4s.9.1 1 .4c.3.3.3.6.3.9v2.7zm-.9-1.2c-.4.4-1.7.6-1.7 1.7 0 .5.3.7.6.7s1.1-.4 1.1-.8v-1.6zM-433.8 381.2c0-.5-.1-.6-.8-.7-.1 0-.1-.1-.1-.1v-.2c0-.1 0-.1.1-.1.5-.1 1.2-.2 1.4-.3.1 0 .2-.1.3-.1.1 0 .1.1.1.2-.1.6-.1 2.5-.1 4.2v2.8c0 .5 0 1 .1 1.2.1.1.4.2.6.2.1 0 .2 0 .3.1v.1c0 .1 0 .1-.1.1l-1.4.5c-.1 0-.1 0-.1-.1l-.1-.6c-.4.4-1.2.7-1.9.7-.4 0-.9 0-1.5-.6s-.8-1.2-.8-2.1c0-.8.3-1.6.9-2.2.5-.5 1.2-.8 1.9-.8.5 0 1 .1 1.4.2l-.2-2.4zm0 4.1c0-.1 0-.4-.1-.6-.1-.4-.6-.7-1.4-.7-.4 0-.9.1-1.2.4-.5.5-.6 1.2-.6 1.7 0 1.4 1 2.5 1.7 2.5s1.3-.4 1.4-.7c.1-.2.1-.3.1-.4l.1-2.2zM-430.8 385.3c0-.4-.1-.6-.7-.8-.1 0-.1-.1-.1-.1v-.1c0-.1 0-.1.1-.1.4-.1.9-.4 1.4-.6.1-.1.1-.1.2-.1s.1.1.1.1v4.6c0 .2.1.4.2.4h.6c.1 0 .1.1.1.1v.2c0 .1 0 .1-.1.1s-.7-.1-1.2-.1c-.7 0-1.2.1-1.4.1-.1 0-.1 0-.1-.1v-.3c0-.1.1-.1.1-.1h.6c.1 0 .2-.1.2-.3V387v-1.7zm-.6-3.9c0-.3.3-.6.8-.6.4 0 .6.4.6.6 0 .4-.2.7-.7.7-.3-.1-.7-.3-.7-.7zM-424.8 387.4c0 .7.1.9.4.9.2 0 .4-.1.4-.2l.1-.1.1.1c.1.1.1.1 0 .2-.1.2-.4.6-1 .6-.4 0-.8-.4-.9-.9-.3.3-.7.6-1.3.8-.2.1-.5.1-.7.1-.3 0-.8-.3-.8-1.1 0-.6.3-1.1 1.3-1.5l1.4-.7v-.8c0-.2-.1-.6-.1-.7-.1-.1-.4-.3-.8-.3-.3 0-.6.1-.9.3-.1.1-.1.4-.1.6 0 .4-.1.7-.6.7-.2 0-.3-.1-.3-.4 0-.4.4-.9.9-1.2.5-.3 1-.4 1.6-.4s.9.1 1 .4c.3.3.3.6.3.9v2.7zm-.9-1.2c-.4.4-1.7.6-1.7 1.7 0 .5.3.7.6.7.4 0 1.1-.4 1.1-.8v-1.6zM-421.8 387.4c0 .9.4 1.2.6 1.2.3 0 .6-.1.9-.1.1-.1.1 0 .1 0l.1.1c.1.1 0 .1 0 .1-.1.1-.6.5-1.4.5-.6 0-1.2-.6-1.2-1.1s.1-1.7.1-1.8v-.3-1.7h-.8c-.1 0-.2-.1-.2-.1l.2-.2c.3-.1 1.3-1.2 1.4-1.6l.1-.1s.1.1.1.2l-.1 1.3h1.8c.1 0 .1.1.1.1l-.1.4c0 .1-.1.1-.1.1h-1.7c0 .6-.1 1.2-.1 1.8v1.2h.2zM-418.9 385.3c0-.4-.1-.6-.7-.8-.1 0-.1-.1-.1-.1v-.1c0-.1 0-.1.1-.1.4-.1.9-.4 1.4-.6.1-.1.1-.1.2-.1s.1.1.1.1v4.6c0 .2.1.4.2.4h.6c.1 0 .1.1.1.1v.2c0 .1 0 .1-.1.1s-.7-.1-1.2-.1c-.7 0-1.2.1-1.4.1-.1 0-.1 0-.1-.1v-.3c0-.1.1-.1.1-.1h.6c.1 0 .2-.1.2-.3v-2.9zm-.6-3.9c0-.3.3-.6.8-.6.4 0 .6.4.6.6 0 .4-.2.7-.7.7-.3-.1-.7-.3-.7-.7zM-416 388.2c-.6-.7-.7-1.2-.7-2.1 0-.6.4-1.4 1.1-2.1.6-.5 1.3-.6 1.7-.6.7 0 1.4.4 1.8.7.6.6.9 1.2.9 2.1 0 1.4-1.2 2.8-2.8 2.8-.7.2-1.5-.1-2-.8zm3.6-2c0-1.4-1-2.3-1.7-2.3-.4 0-.6.1-1 .4-.5.5-.6 1-.6 2 0 .7.1 1.2.5 1.8.3.4.6.6 1.3.6 1 0 1.5-1.1 1.5-2.5zM-405.5 388.3c0 .2.1.3.3.3h.4c.1 0 .1.1.1.1v.2c0 .1 0 .1-.1.1s-.5-.1-1.2-.1c-.6 0-1.1.1-1.2.1-.1 0-.1-.1-.1-.1v-.3c0-.1.1-.1.1-.1h.4c.1 0 .2-.1.3-.3v-2.8c0-.5 0-.9-.4-1.2-.3-.2-.6-.2-.9-.2-.2 0-.6.1-1 .5-.3.3-.3.6-.3.9v2.7c0 .4.1.4.3.4h.3c.1 0 .1.1.1.1v.2c0 .1 0 .1-.1.1s-.4-.1-1.1-.1c-.6 0-1.1.1-1.2.1-.1 0-.1-.1-.1-.1v-.3c0-.1 0-.1.1-.1h.4c.1 0 .3-.1.3-.3v-3c0-.4-.2-.6-.5-.7l-.1-.1-.1-.1v.1c0-.1.1-.1.1-.1l1.1-.6c.1-.1.1-.1.2-.1s.1.1.1.1l.1.8c.4-.4 1.1-.9 1.7-.9.4 0 .8.1 1.1.3.4.3.7.9.7 1.2v3.3h.2z"/></g><g><path class="kst1" d="M-450.7 403.4c-.9-.6-1.9-1.9-1.9-3.8 0-.8.2-2 1.2-3.2 1.2-1.4 2.4-1.7 3.5-1.7.8 0 1.9.1 2.9 1 .9.8 1.7 2.1 1.7 3.8 0 .9-.3 1.9-.9 2.8-.8 1-1.9 1.8-3.7 1.8-.7.2-1.8 0-2.8-.7zm6.1-3.6c0-2.8-2-4.5-3.4-4.5-.2 0-1.1-.1-2 .7-.9.8-1.3 2.1-1.3 3.2 0 3.4 2.4 4.5 3.5 4.5 2.7.1 3.2-2.8 3.2-3.9zM-437.4 403.4c0 .2.1.3.3.3h.4c.1 0 .1.1.1.1v.2c0 .1 0 .1-.1.1s-.5-.1-1.2-.1c-.6 0-1.1.1-1.2.1-.1 0-.1-.1-.1-.1v-.3c0-.1.1-.1.1-.1h.4c.1 0 .2-.1.3-.3v-2.8c0-.5 0-.9-.4-1.2-.3-.2-.6-.2-.9-.2-.2 0-.6.1-1 .5-.3.3-.3.6-.3.9v2.7c0 .4.1.4.3.4h.3c.1 0 .1.1.1.1v.2c0 .1 0 .1-.1.1s-.4-.1-1.1-.1c-.6 0-1.1.1-1.2.1s-.1-.1-.1-.1v-.3c0-.1 0-.1.1-.1h.4c.1 0 .3-.1.3-.3v-3c0-.4-.2-.6-.5-.7l-.1-.1-.1-.1v.1c0-.1.1-.1.1-.1l1.1-.6c.1-.1.1-.1.2-.1s.1.1.1.1l.1.8c.4-.4 1.1-.9 1.7-.9.4 0 .8.1 1.1.3.4.3.7.9.7 1.2v3.3h.2zM-435.3 401c0 .7.3 1.4.6 1.9.4.6.9.6 1.4.6.6 0 .9-.1 1.4-.6 0 0 .1-.1.1 0l.1.1c.1.1.1.1 0 .1-.4.4-1.2.9-2.1.9-.6 0-1.4-.1-2-.9-.5-.6-.6-1.2-.6-1.7 0-1.5 1.1-3 2.7-3 1.3 0 1.7.8 1.7 1 0 .3-.2.4-.5.4s-.5-.1-.7-.5c-.3-.5-.6-.6-.9-.6-.4.3-1.2 1-1.2 2.3zM-430.6 403.4c-.6-.7-.7-1.2-.7-2.1 0-.6.4-1.4 1.1-2.1.6-.5 1.3-.6 1.7-.6.7 0 1.4.4 1.8.7.6.6.9 1.2.9 2.1 0 1.4-1.2 2.8-2.8 2.8-.7 0-1.5-.2-2-.8zm3.7-2.1c0-1.4-1-2.3-1.7-2.3-.4 0-.6.1-1 .4-.5.5-.6 1-.6 2 0 .7.1 1.2.5 1.8.3.4.6.6 1.3.6.9.1 1.5-1.1 1.5-2.5zM-423.6 400.3v3c0 .2.1.4.4.4h.6c.1 0 .1.1.1.1v.2c0 .1 0 .1-.1.1s-.6-.1-1.4-.1-1.3.1-1.4.1c-.1 0-.1-.1-.1-.1v-.3c0-.1 0-.1.1-.1h.6c.1 0 .3-.1.3-.3v-4.1c0-.9 0-2.1-.1-2.4 0-.4-.2-.6-.6-.8l-.3-.1c-.1 0-.1-.1-.1-.1v-.1c0-.1.1-.1.1-.1.4-.2 1-.4 1.5-.7.1-.1.2-.1.3-.1.1 0 .1.1.1.2 0 .7-.1 3.4-.1 4 .1.2.1 1.3.1 1.3zM-421.7 403.4c-.6-.7-.7-1.2-.7-2.1 0-.6.4-1.4 1.1-2.1.6-.5 1.3-.6 1.7-.6.7 0 1.4.4 1.8.7.6.6.9 1.2.9 2.1 0 1.4-1.2 2.8-2.8 2.8-.7 0-1.5-.2-2-.8zm3.7-2.1c0-1.4-1-2.3-1.7-2.3-.4 0-.6.1-1 .4-.5.5-.6 1-.6 2 0 .7.1 1.2.5 1.8.3.4.6.6 1.3.6.9.1 1.5-1.1 1.5-2.5zM-416 407.2c-.4-.3-.6-.6-.6-1 0-.7.7-1.3 1.4-1.5v-.1c-.5-.1-.9-.5-.9-.9 0-.6.7-1.1 1.2-1.2-.5-.2-1.2-.8-1.2-1.9 0-.9.7-1.9 2.2-1.9 1 0 1.5.6 1.6.7.4-.2.8-.5 1.2-.5s.6.3.6.5-.2.5-.5.5c-.2 0-.4-.1-.4-.2-.1-.1-.1-.1-.3-.1-.1 0-.2 0-.4.1.1.3.2.5.2.9 0 .5-.1 1-.5 1.4-.4.4-1.1.6-1.5.6-.3 0-.4 0-.6-.1-.3.1-.6.4-.6.7 0 .5.6.5 1.5.4 1.1-.1 1.7.1 2.2.4.6.4.6.9.6 1.2 0 .6-.2 1.1-.9 1.6-.4.2-1.1.6-2.2.6-.7.2-1.4.1-2.1-.2zm4.3-1.3c0-.7-.6-1.3-1.9-1.2l-1.2.1c-.4.1-1 .5-1 1.2 0 .3.2.7.5.9.4.3.9.4 1.8.4.4-.1 1.8-.5 1.8-1.4zm-1.2-5.5c0-.6-.1-.9-.4-1.2-.1-.1-.4-.3-.6-.3-.3 0-.6.1-.9.4-.4.4-.4 1-.4 1.5 0 .4.1.9.4 1.1.2.2.4.3.8.3.8.1 1.1-1 1.1-1.8z"/><path class="kst1" d="M-410.6 406.9c0-.3.3-.5.6-.5.2 0 .5.1.6.1s.2 0 .3-.1c.2-.2.9-1.7 1-2.2-.1-.3-1.4-4.3-1.5-4.6-.1-.3-.3-.5-.6-.5h-.4c-.1 0-.1-.1-.1-.1v-.3c0-.1 0-.1.1-.1s.4.1 1.2.1c.6 0 1.1-.1 1.2-.1.1 0 .1.1.1.1v.3c0 .1 0 .1-.1.1h-.3c-.1 0-.2.1-.1.3.1.3.9 3.1 1.1 3.4h.1c.1-.2 1.2-2.9 1.3-3.2.1-.3 0-.5-.2-.5h-.2c-.1 0-.1-.1-.1-.1v-.3c0-.1 0-.1.1-.1s.4.1 1.1.1c.4 0 .6-.1.8-.1.1 0 .1.1.1.1v.2c0 .1 0 .1-.1.1h-.2c-.1 0-.3.1-.4.2-.3.4-1.2 2.3-2 4.3-.6 1.4-1.2 2.6-1.4 3-.1.4-.4.9-1.1.9-.7.2-.9-.1-.9-.5z"/></g></svg><svg id="logo-rrrhody" data-name="Layer 1" viewBox="-5 -5 105.51 104.98" width="105.51" height="104.98" x="1386" y="787"><defs><style>.lcls-1{fill:#fff}.lcls-2{fill:#ea2128}</style></defs><title>rrrhody</title><path class="lcls-1" d="M25.19 20.56l-6.38-10.8 5-3c2.3-1.36 5.11-1.85 6.85 1.09a3.86 3.86 0 0 1 .05 4.32l5 2.12-3.92 2.32-4.09-1.84-.83.49 1.89 3.19zm.1-8l1.37-.81a1.19 1.19 0 1 0-1.2-2l-1.37.81zM40.5.83l2.45 12.31-4.06.81-2.45-12.31zM54.22.77c4.45.64 6.07 3.5 5.55 7.14s-2.88 5.92-7.33 5.28l-5.36-.77L48.86 0zm-.6 3.43L52.47 4l-.8 5.54 1.15.17c1.45.21 2.45-.41 2.74-2.43s-.49-2.87-1.94-3.08zM76.38 9.6l-1.68 2.8-4.6-2.76-.75 1.25 4 2.42-1.57 2.61-4-2.42-.78 1.28 4.69 2.81L70 20.42l-8.24-4.94 6.48-10.76zM76.07 26.59l11.09-5.87 2.72 5.15c1.25 2.36 1.61 5.19-1.42 6.79a3.86 3.86 0 0 1-4.32-.15l-2.36 4.9-2.13-4 2.07-4-.45-.86-3.27 1.7zm8 .47l.75 1.41a1.19 1.19 0 1 0 2.09-1.11L86.12 26zM95.5 45.7c.2 4.51-2.66 6.92-6.26 7.08s-6.65-2-6.85-6.5 2.66-6.92 6.26-7.08 6.65 1.99 6.85 6.5zm-3.74.16c-.07-1.61-1.2-2.5-2.92-2.42s-2.77 1.05-2.7 2.67 1.2 2.5 2.92 2.42 2.77-1.05 2.7-2.66zM89.14 71.89l-7.05-3c-3.56-1.52-3.63-4.65-2.46-7.39s3.48-4.85 7-3.33l7.05 3L92.09 65l-6.87-3a1.69 1.69 0 0 0-1.33 3.12l6.87 2.94zM75.4 70l8.33 9.39-2.61 2.32L74 80.16a18 18 0 0 1 1.51 1.54L78 84.5l-3.1 2.75-8.33-9.39 2.61-2.32 7.08 1.58a17.57 17.57 0 0 1-1.48-1.51L72.3 72.8zM61.49 93.33c-4.32 1.27-7-.65-8-4.18s.15-6.59 4.47-7.86l5.19-1.53 3.55 12zM60.61 90l1.12-.33-1.58-5.36-1.15.29c-1.38.4-2 1.4-1.45 3.35s1.65 2.43 3.06 2.05zM43.21 82.94L39.67 95l-5.59-1.65c-2.56-.75-4.84-2.47-3.87-5.76a3.86 3.86 0 0 1 3.12-3l-1.86-5.11 4.37 1.29 1.43 4.29.93.27 1-3.56zm-5.9 5.37l-1.53-.45a1.19 1.19 0 1 0-.67 2.27l1.53.45zM12 79.63l8.3-9.41 3.09 2.73-3 3.35L23 78.55l3-3.35 3 2.74-8.3 9.41-3.11-2.74 3-3.35L18 79l-3 3.35zM3.64 66.25c-1.74-4.17.11-7.41 3.43-8.8S14 57 15.75 61.19s-.11 7.41-3.44 8.81-6.93.42-8.67-3.75zM7.1 64.8c.62 1.49 2 1.93 3.58 1.26s2.24-1.95 1.61-3.43-2-1.93-3.58-1.26-2.24 1.95-1.61 3.43zM.3 45.53c.25-4.49 3-6.35 6.62-6.15s6.15 2.35 5.9 6.84l-.3 5.41L0 50.94zm3.47.3L3.7 47l5.59.3.06-1.16c.08-1.47-.62-2.4-2.66-2.52s-2.84.74-2.92 2.21zM15.57 34l-3.83-1.91-9.52.57L4.3 28.5l5.21.2-3.29-4 2.09-4.19 5.25 8 3.83 1.91z"/><circle class="lcls-2" cx="55.3" cy="32.25" r="2.48"/><path class="lcls-2" d="M60.95 42.22c-.6 0-1.89-1.49-3.69-1 2.51 1.3 5.8 3.68 6.18 6.17a5.93 5.93 0 1 1-11.29 3v.63a8.82 8.82 0 1 0 8.8-8.8z"/><path class="lcls-2" d="M47.74 40.2a14.64 14.64 0 0 1 2 4.12L53 45.83c-.1 1.28-3.35 4.11-3.94 4.49l-.2 1.56c3.29-1.33 8.36-4.94 9.14-7-2-2.14-6.52-4.14-10.26-4.68z"/><path class="lcls-2" d="M65.54 45.56a7.18 7.18 0 0 0-.86-2.56c-4.18-1.91-11-5.34-13.28-10.59-3.27.06-10.85 4-13.13 6.72 2.26 1.26 7.91 6.4 6.68 12.57a6.17 6.17 0 0 1-5.89 5.3 5.91 5.91 0 0 1-4.17-1.71 4.16 4.16 0 0 1-1.4-2.17 5.91 5.91 0 0 1-.36-1.92v-.04-.06A5.88 5.88 0 0 1 39 45.17a5.92 5.92 0 0 1 4.72 2.35A8.82 8.82 0 0 0 26.85 51c0 4.87 4.55 8.82 9.42 8.82 12 0 15.52-13.45 9.44-20.55C51.24 38 64.92 43.07 64 50.63c3.25-3.13 3.07-3.09 1.54-5.07z"/></svg><svg viewBox="-5 -5 102 102" width="102" height="102" id="play-button" x="1492" y="892"><circle opacity=".2" fill="#FFF" fill-opacity=".9" cx="46" cy="46" r="46"/><circle fill="#C52127" fill-opacity=".9" cx="46" cy="46" r="33"/><path fill="#FFF" d="M37 34v25l22-12.9L37 34z"/></svg><svg viewBox="-5 -5 25.8 22.9" width="25.8" height="22.9" id="twitter" x="1594" y="994"><path fill="#FFF" d="M15.8 1.5c-.4.7-1 1.2-1.6 1.7v.4c0 .9-.1 1.7-.4 2.6s-.6 1.7-1.2 2.5-1.1 1.5-1.9 2.1c-.7.6-1.6 1.1-2.6 1.5-1 .4-2.1.5-3.2.5-1.8 0-3.5-.5-5-1.5h.8c1.5 0 2.8-.5 4-1.4-.7 0-1.3-.2-1.9-.6-.4-.3-.8-.8-1-1.5.2 0 .4.1.6.1.3 0 .6 0 .9-.1-.8-.2-1.4-.6-1.9-1.2s-.8-1.3-.8-2c.5.3.9.4 1.5.4-.4-.4-.8-.7-1-1.2-.3-.5-.4-1-.4-1.5 0-.6.1-1.1.4-1.6.8 1 1.8 1.8 3 2.4 1.2.6 2.4.9 3.7 1-.1-.4-.1-.6-.1-.9 0-.9.3-1.7.9-2.3S10.1 0 11 0c.9 0 1.7.3 2.4 1 .7-.1 1.4-.4 2.1-.8-.4.8-.8 1.4-1.5 1.8.6 0 1.2-.2 1.8-.5z"/></svg></svg>