<?xml version="1.0" encoding="utf-8"?>
<!-- Generator: Adobe Illustrator 19.1.0, SVG Export Plug-In . SVG Version: 6.00 Build 0)  -->
<!DOCTYPE svg PUBLIC "-//W3C//DTD SVG 1.1//EN" "http://www.w3.org/Graphics/SVG/1.1/DTD/svg11.dtd">
<svg version="1.1" id="Layer_1" xmlns="http://www.w3.org/2000/svg" xmlns:xlink="http://www.w3.org/1999/xlink" x="0px" y="0px"
	 viewBox="-373.4 342.9 121.6 64.5" style="enable-background:new -373.4 342.9 121.6 64.5;" xml:space="preserve">
<style type="text/css">
	.st0{fill:#BBBBBB;}
</style>
<g>
	<g>
		<path class="st0" d="M-364.3,361.5c0-0.7-0.1-3.1-0.1-3.4c-0.1-1.1-0.4-1.2-1.2-1.2h-0.6c-0.1,0-0.2-0.1-0.2-0.1v-0.5
			c0-0.1,0.1-0.1,0.2-0.1c0.3,0,1.2,0.1,2.6,0.1c0.6,0,1.8-0.1,2.4-0.1c1.5,0,2.7,0.1,3.4,0.5c1.1,0.6,1.5,1.5,1.5,2.6
			c0,1.9-0.9,2.4-2.3,3.2l0.1,0.1c1.8,0.6,3.1,1.8,3.1,3.8c0,1-0.6,2.3-1.5,2.9c-0.8,0.5-1.9,0.7-3.7,0.7c-1.3,0-2.1-0.1-2.9-0.1
			c-1,0-2.1,0.1-2.4,0.1c-0.2,0-0.2-0.1-0.2-0.1v-0.5c0-0.1,0.1-0.1,0.2-0.1h0.9c0.6,0,0.7-0.2,0.8-0.9c0.1-0.4,0.1-3,0.1-4.5v-2.3
			H-364.3z M-362.6,362.2c0.3,0.1,0.7,0.1,1,0.1c1.1,0,2-0.2,2.4-0.5c0.8-0.6,1.1-1.5,1.1-2.3c0-0.7-0.2-1.5-0.9-2
			c-0.7-0.5-1.6-0.7-2.6-0.7c-0.2,0-0.5,0-0.6,0c-0.2,0.1-0.2,0.2-0.2,0.4c0,0.4-0.1,2.1-0.1,3.7L-362.6,362.2L-362.6,362.2z
			 M-362.6,364v2.6c0,1.8,0.4,2.6,2,2.6c1.6,0,3.1-0.8,3.1-3.1c0-1.5-0.8-2.6-1.9-3c-0.8-0.3-1.7-0.3-2.6-0.3h-0.6V364z"/>
		<path class="st0" d="M-352.1,364.7c0-1-0.2-1.2-0.7-1.5l-0.4-0.2c-0.1-0.1-0.2-0.1-0.2-0.1v-0.1c0-0.1,0.1-0.1,0.2-0.2l1.9-1
			c0.1-0.1,0.2-0.1,0.2-0.1c0.1,0,0.1,0.1,0.1,0.2l0.1,1.3h0.1c0.5-0.9,1.5-1.6,2.3-1.6c0.7,0,1,0.4,1,0.9c0,0.5-0.5,0.9-0.8,0.9
			c-0.2,0-0.4-0.1-0.5-0.2c-0.2-0.1-0.4-0.2-0.6-0.2c-0.3,0-0.8,0.2-1.2,0.8c-0.1,0.2-0.2,0.5-0.2,0.6v4c0,0.6,0.1,0.8,0.5,0.8h0.9
			c0.1,0,0.1,0.1,0.1,0.2v0.4c0,0.1,0,0.2-0.1,0.2c-0.1,0-1-0.1-2-0.1c-1.2,0-2,0.1-2.1,0.1s-0.1-0.1-0.1-0.2v-0.3
			c0-0.1,0.1-0.2,0.2-0.2h0.7c0.3,0,0.4-0.1,0.4-0.4c0-0.6,0-1.3,0-2.3V364.7z"/>
		<path class="st0" d="M-344.9,364.2c0-0.7-0.1-1-1.1-1.2c-0.1,0-0.2-0.1-0.2-0.1v-0.2c0-0.1,0.1-0.1,0.1-0.1
			c0.6-0.2,1.3-0.5,2.1-0.9c0.2-0.1,0.2-0.1,0.4-0.1c0.1,0,0.1,0.1,0.1,0.2c-0.1,0.3-0.1,1.5-0.1,3.1v2.1c0,0.7,0,1.5,0,1.6
			c0.1,0.4,0.1,0.5,0.3,0.5h0.9c0.2,0,0.2,0.1,0.2,0.2v0.3c0,0.1-0.1,0.2-0.2,0.2c-0.2,0-1-0.1-1.8-0.1c-1.1,0-1.8,0.1-2.1,0.1
			c-0.1,0-0.2-0.1-0.2-0.2v-0.4c0-0.1,0.1-0.2,0.2-0.2h1.1c0.2,0,0.3-0.1,0.3-0.4c0-0.5,0-1.2,0-1.8V364.2z M-345.7,358.4
			c0-0.5,0.4-1,1.2-1c0.7,0,1,0.5,1,0.9c0,0.5-0.4,1-1.1,1C-345.1,359.4-345.7,359-345.7,358.4z"/>
		<path class="st0" d="M-339.1,364.7c-0.1,0.2-0.1,0.5-0.1,0.9c0,1.9,1.2,3.3,2.7,3.3c1.2,0,2-0.7,2.3-1.3c0.1-0.1,0.1-0.1,0.2-0.1
			l0.2,0.1c0.1,0,0.1,0.1,0,0.3c-0.4,0.8-1.3,2.1-3.1,2.1c-1.1,0-2.3-0.3-3-1.3c-0.7-1-0.9-1.7-0.9-3.1c0-0.7,0.2-2,1.2-3.1
			c0.8-0.9,1.8-1,2.7-1c2.2,0,2.8,2.1,2.8,2.8c0,0.2-0.2,0.3-0.5,0.3L-339.1,364.7L-339.1,364.7z M-336.1,364.1
			c0.4,0,0.5-0.1,0.5-0.2c0-0.4-0.2-1.7-1.5-1.7c-0.9,0-1.6,0.5-2,2C-339.1,364.1-336.1,364.1-336.1,364.1z"/>
		<path class="st0" d="M-330.9,364.7c0-1-0.2-1.2-0.7-1.5l-0.4-0.2c-0.1-0.1-0.2-0.1-0.2-0.1v-0.1c0-0.1,0.1-0.1,0.2-0.2l1.9-1
			c0.1-0.1,0.2-0.1,0.2-0.1c0.1,0,0.1,0.1,0.1,0.2l0.1,1.3h0.1c0.5-0.9,1.5-1.6,2.3-1.6c0.7,0,1,0.4,1,0.9c0,0.5-0.5,0.9-0.8,0.9
			c-0.2,0-0.4-0.1-0.5-0.2c-0.2-0.1-0.4-0.2-0.6-0.2c-0.3,0-0.8,0.2-1.2,0.8c-0.1,0.2-0.2,0.5-0.2,0.6v4c0,0.6,0.1,0.8,0.5,0.8h0.9
			c0.1,0,0.1,0.1,0.1,0.2v0.4c0,0.1,0,0.2-0.1,0.2c-0.1,0-1-0.1-2-0.1c-1.2,0-2,0.1-2.1,0.1s-0.1-0.1-0.1-0.2v-0.3
			c0-0.1,0.1-0.2,0.2-0.2h0.7c0.3,0,0.4-0.1,0.4-0.4c0-0.6,0-1.3,0-2.3L-330.9,364.7L-330.9,364.7z"/>
		<path class="st0" d="M-311.1,367c-0.9,1.2-2.3,3.1-4.8,3.1c-1.8,0-4-1.2-4-3.4c0-1.4,0.8-2.5,1.5-3.2c0.7-0.6,1.5-1.2,2.2-1.6
			c-1.3-0.8-2-1.7-2-2.4c0-1.5,2-3.3,3.1-3.3c1.5,0,2.7,1.4,2.7,2.7c-0.1,1-1.3,2.2-2.1,2.6c1.3,0.7,3.1,2.3,4,3.7
			c0.6-0.8,1.8-2.6,1.9-3.1c0.1-0.3-0.2-0.6-0.6-0.6h-0.3c-0.1,0-0.1-0.1-0.1-0.1V361c0-0.1,0-0.1,0.1-0.1c0.2,0,1.2,0.1,1.8,0.1
			c0.7,0,1.8-0.1,2-0.1c0.1,0,0.1,0.1,0.1,0.1v0.4c0,0.1,0,0.1-0.1,0.1h-0.3c-1,0-1.2,0.1-1.5,0.5c-0.1,0.2-2.1,3.1-2.6,3.7
			c0.3,0.3,1.2,1.3,1.5,1.6c0.5,0.5,1.3,1.5,2.6,1.5c1.2,0,2-1.3,2.1-1.5c0.1-0.1,0.1-0.1,0.2,0l0.3,0.2c0.1,0,0.1,0.1,0,0.2
			c-0.3,0.6-1.3,2.4-3.5,2.4C-309.1,370.1-310.3,368.1-311.1,367z M-311.5,366.6c-0.9-1.2-2.4-3.3-4.2-4.3c-1.4,0.8-2.6,2.2-2.6,3.7
			c0.1,1.6,1.7,2.9,3.2,2.9C-313.3,368.9-312.1,367.1-311.5,366.6z M-316.9,359.1c0,0.7,1,1.5,2,2.1c0.5-0.4,1.4-0.9,1.4-2.4
			c0-0.7-0.6-1.9-1.5-1.9C-316,356.9-316.9,358-316.9,359.1z"/>
		<path class="st0" d="M-296.5,361.5c0-0.7-0.1-3.1-0.1-3.4c-0.1-1.1-0.4-1.2-1.2-1.2h-0.6c-0.1,0-0.2-0.1-0.2-0.1v-0.5
			c0-0.1,0.1-0.1,0.2-0.1c0.3,0,1.2,0.1,2.6,0.1c0.6,0,1.8-0.1,2.4-0.1c1.5,0,2.7,0.1,3.4,0.5c1.1,0.6,1.5,1.5,1.5,2.6
			c0,1.9-0.9,2.4-2.3,3.2l0.1,0.1c1.8,0.6,3.1,1.8,3.1,3.8c0,1-0.6,2.3-1.5,2.9c-0.8,0.5-1.9,0.7-3.7,0.7c-1.3,0-2.1-0.1-2.9-0.1
			c-1,0-2.1,0.1-2.4,0.1c-0.2,0-0.2-0.1-0.2-0.1v-0.5c0-0.1,0.1-0.1,0.2-0.1h0.9c0.6,0,0.7-0.2,0.8-0.9c0.1-0.4,0.1-3,0.1-4.5v-2.3
			H-296.5z M-294.9,362.2c0.4,0.1,0.7,0.1,1,0.1c1.1,0,2-0.2,2.4-0.5c0.8-0.6,1.1-1.5,1.1-2.3c0-0.7-0.2-1.5-0.9-2
			c-0.7-0.5-1.6-0.7-2.6-0.7c-0.2,0-0.5,0-0.6,0c-0.1,0.1-0.2,0.2-0.2,0.4c0,0.4-0.1,2.1-0.1,3.7v1.4H-294.9z M-294.9,364v2.6
			c0,1.8,0.4,2.6,2,2.6c1.6,0,3.1-0.8,3.1-3.1c0-1.5-0.8-2.6-1.9-3c-0.8-0.3-1.7-0.3-2.6-0.3h-0.6V364z"/>
		<path class="st0" d="M-284.3,364.7c0-1-0.2-1.2-0.7-1.5l-0.4-0.2c-0.1-0.1-0.2-0.1-0.2-0.1v-0.1c0-0.1,0.1-0.1,0.2-0.2l1.9-1
			c0.1-0.1,0.2-0.1,0.2-0.1c0.1,0,0.1,0.1,0.1,0.2l0.1,1.3h0.1c0.5-0.9,1.5-1.6,2.3-1.6c0.7,0,1,0.4,1,0.9c0,0.5-0.5,0.9-0.8,0.9
			c-0.2,0-0.4-0.1-0.5-0.2c-0.2-0.1-0.4-0.2-0.6-0.2c-0.3,0-0.8,0.2-1.1,0.8c-0.1,0.2-0.2,0.5-0.2,0.6v4c0,0.6,0.1,0.8,0.5,0.8h0.9
			c0.1,0,0.1,0.1,0.1,0.2v0.4c0,0.1,0,0.2-0.1,0.2c-0.1,0-1-0.1-2-0.1c-1.2,0-2,0.1-2.1,0.1s-0.1-0.1-0.1-0.2v-0.3
			c0-0.1,0.1-0.2,0.2-0.2h0.7c0.3,0,0.4-0.1,0.4-0.4c0-0.6,0-1.3,0-2.3L-284.3,364.7L-284.3,364.7z"/>
		<path class="st0" d="M-277.1,364.2c0-0.7-0.1-1-1.1-1.2c-0.1,0-0.2-0.1-0.2-0.1v-0.2c0-0.1,0.1-0.1,0.1-0.1
			c0.6-0.2,1.3-0.5,2.1-0.9c0.1-0.1,0.2-0.1,0.4-0.1c0.1,0,0.1,0.1,0.1,0.2c-0.1,0.3-0.1,1.5-0.1,3.1v2.1c0,0.7,0,1.5,0,1.6
			c0.1,0.4,0.1,0.5,0.3,0.5h0.9c0.2,0,0.2,0.1,0.2,0.2v0.3c0,0.1-0.1,0.2-0.2,0.2c-0.2,0-1-0.1-1.8-0.1c-1.1,0-1.8,0.1-2.1,0.1
			c-0.1,0-0.2-0.1-0.2-0.2v-0.4c0-0.1,0.1-0.2,0.2-0.2h0.9c0.2,0,0.3-0.1,0.3-0.4c0-0.5,0-1.2,0-1.8v-2.7H-277.1z M-278,358.4
			c0-0.5,0.4-1,1.2-1c0.7,0,1,0.5,1,0.9c0,0.5-0.4,1-1.1,1C-277.4,359.4-278,359-278,358.4z"/>
		<path class="st0" d="M-271.4,364.7c-0.1,0.2-0.1,0.5-0.1,0.9c0,1.9,1.2,3.3,2.7,3.3c1.2,0,2-0.7,2.3-1.3c0.1-0.1,0.1-0.1,0.2-0.1
			l0.2,0.1c0.1,0,0.1,0.1,0,0.3c-0.4,0.8-1.3,2.1-3.1,2.1c-1.1,0-2.3-0.3-3-1.3c-0.7-1-0.9-1.7-0.9-3.1c0-0.7,0.2-2,1.2-3.1
			c0.8-0.9,1.8-1,2.7-1c2.2,0,2.8,2.1,2.8,2.8c0,0.2-0.2,0.3-0.5,0.3L-271.4,364.7L-271.4,364.7z M-268.3,364.1
			c0.4,0,0.5-0.1,0.5-0.2c0-0.4-0.2-1.7-1.5-1.7c-0.9,0-1.6,0.5-2,2C-271.3,364.1-268.3,364.1-268.3,364.1z"/>
		<path class="st0" d="M-263.2,364.7c0-1-0.2-1.2-0.7-1.5l-0.4-0.2c-0.1-0.1-0.2-0.1-0.2-0.1v-0.1c0-0.1,0.1-0.1,0.2-0.2l1.9-1
			c0.1-0.1,0.2-0.1,0.2-0.1c0.1,0,0.1,0.1,0.1,0.2l0.1,1.3h0.1c0.5-0.9,1.5-1.6,2.3-1.6c0.7,0,1,0.4,1,0.9c0,0.5-0.5,0.9-0.8,0.9
			c-0.2,0-0.4-0.1-0.5-0.2c-0.2-0.1-0.4-0.2-0.6-0.2c-0.3,0-0.8,0.2-1.1,0.8c-0.1,0.2-0.2,0.5-0.2,0.6v4c0,0.6,0.1,0.8,0.5,0.8h0.9
			c0.1,0,0.1,0.1,0.1,0.2v0.4c0,0.1,0,0.2-0.1,0.2c-0.1,0-1-0.1-2-0.1c-1.2,0-2,0.1-2.1,0.1c-0.1,0-0.1-0.1-0.1-0.2v-0.3
			c0-0.1,0.1-0.2,0.2-0.2h0.7c0.3,0,0.4-0.1,0.4-0.4c0-0.6,0-1.3,0-2.3L-263.2,364.7L-263.2,364.7z"/>
	</g>
	<g>
		<path class="st0" d="M-371.5,387c0-0.2,0-1.8-0.1-1.9c0-0.2-0.1-0.3-0.4-0.3h-0.5c-0.1,0-0.1,0-0.1-0.1v-0.2c0-0.1,0-0.1,0.1-0.1
			c0.1,0,0.5,0,1.3,0c0.7,0,1,0,1.2,0c0.1,0,0.1,0,0.1,0.1v0.2c0,0.1,0,0.1-0.1,0.1h-0.4c-0.2,0-0.3,0.1-0.3,0.2c0,0.1,0,2,0,2.1
			v0.7c0,0.1,0,2.1,0,2.1c0,0.2,0.1,0.3,0.4,0.3h0.4c0.1,0,0.1,0,0.1,0.1v0.2c0,0.1,0,0.1-0.1,0.1c-0.1,0-0.4,0-1.2,0
			c-0.8,0-1.2,0-1.3,0c-0.1,0-0.1,0-0.1-0.1v-0.2c0-0.1,0-0.1,0.1-0.1h0.5c0.2,0,0.4,0,0.4-0.2c0-0.1,0.1-2,0.1-2.4L-371.5,387
			L-371.5,387z"/>
		<path class="st0" d="M-365.6,390.1c0,0.1,0.1,0.2,0.2,0.2h0.2c0.1,0,0.1,0,0.1,0.1v0.1c0,0.1,0,0.1-0.1,0.1c-0.1,0-0.3,0-0.8,0
			c-0.4,0-0.7,0-0.8,0s-0.1,0-0.1-0.1v-0.1c0-0.1,0-0.1,0.1-0.1h0.2c0.1,0,0.2-0.1,0.2-0.2c0-0.2,0-0.5,0-0.7v-1.2
			c0-0.4,0-0.6-0.2-0.8c-0.2-0.2-0.4-0.2-0.6-0.2c-0.1,0-0.4,0.1-0.7,0.3c-0.2,0.2-0.2,0.4-0.2,0.6v1.8c0,0.2,0,0.3,0.2,0.3h0.2
			c0.1,0,0.1,0,0.1,0.1v0.1c0,0.1,0,0.1-0.1,0.1s-0.3,0-0.7,0c-0.4,0-0.7,0-0.7,0c-0.1,0-0.1,0-0.1-0.1v-0.1c0-0.1,0-0.1,0.1-0.1
			h0.2c0.1,0,0.2,0,0.2-0.2v-2c0-0.2-0.1-0.4-0.4-0.5l-0.1-0.1c-0.1,0-0.1-0.1-0.1-0.1v-0.1c0-0.1,0.1-0.1,0.1-0.1l0.7-0.4
			c0.1-0.1,0.1-0.1,0.2-0.1s0.1,0.1,0.1,0.1l0.1,0.5l0,0c0.2-0.3,0.7-0.6,1.2-0.6c0.2,0,0.5,0.1,0.7,0.2c0.2,0.2,0.5,0.6,0.5,0.8
			V390.1z"/>
		<path class="st0" d="M-364.1,390.4c-0.1,0-0.1-0.1-0.1-0.1l-0.1-0.8c0-0.1,0-0.1,0.1-0.1h0.1c0.1,0,0.1,0,0.1,0.1l0.2,0.4
			c0.2,0.3,0.3,0.5,0.7,0.5c0.3,0,0.7-0.2,0.7-0.6c0-0.4-0.2-0.6-0.9-0.8c-0.5-0.1-1-0.4-1-1.1c0-0.6,0.5-1,1.2-1
			c0.4,0,0.6,0.1,0.8,0.2c0.1,0.1,0.1,0.1,0.2,0.2l0.1,0.6c0,0.1,0,0.1-0.1,0.1l-0.2-0.1c-0.1,0-0.1,0-0.1-0.1l-0.3-0.4
			c-0.1-0.2-0.2-0.3-0.6-0.3c-0.3,0-0.7,0.2-0.7,0.5c0,0.5,0.4,0.6,0.8,0.7c0.6,0.2,1,0.4,1,1.1c0,0.7-0.5,1.2-1.3,1.2
			C-363.7,390.6-364,390.4-364.1,390.4z"/>
		<path class="st0" d="M-357.9,388.8c0,0.4,0,0.9,0,1c0,0.2,0.1,0.3,0.2,0.3c0.1,0,0.2,0,0.3,0c0.1,0,0.1,0,0.1,0.1v0.1
			c0,0.1,0,0.1-0.1,0.1l-0.9,0.3c-0.1,0-0.1,0.1-0.2,0.1c-0.1,0-0.1,0-0.1-0.1l-0.1-0.5l0,0c-0.2,0.3-0.7,0.6-1.2,0.6
			c-0.2,0-0.5,0-0.8-0.4c-0.4-0.4-0.3-0.7-0.3-1.6v-1c0-0.2-0.1-0.3-0.3-0.3c-0.1,0-0.2,0-0.2-0.1v-0.2c0-0.1,0-0.1,0.1-0.1h0.7
			c0.1,0,0.1,0,0.1,0s0.1,0,0.1,0c0.1,0,0.1,0.1,0.1,0.1s-0.1,0.5-0.1,1v0.6c0,0.4-0.1,0.9,0.2,1.3c0.2,0.3,0.4,0.3,0.7,0.3
			c0.2,0,0.5-0.2,0.7-0.4c0.1-0.1,0.1-0.2,0.1-0.2v-2c0-0.2-0.2-0.3-0.4-0.3c-0.1,0-0.2,0-0.2-0.1v-0.1c0-0.1,0-0.1,0.1-0.1h0.8
			c0.1,0,0.1,0,0.1,0c0.1,0,0.1,0,0.1,0s0.1,0.1,0.1,0.1c0,0.1-0.1,0.3-0.1,1.2L-357.9,388.8L-357.9,388.8z"/>
		<path class="st0" d="M-356.2,388.2c0-0.4-0.1-0.5-0.3-0.7l-0.2-0.1c-0.1,0-0.1,0-0.1-0.1v-0.1c0-0.1,0-0.1,0.1-0.1l0.9-0.4
			c0.1,0,0.1-0.1,0.1-0.1s0.1,0.1,0.1,0.1l0.1,0.6h0.1c0.2-0.4,0.7-0.7,1-0.7c0.3,0,0.4,0.2,0.4,0.4c0,0.2-0.2,0.4-0.4,0.4
			c-0.1,0-0.2-0.1-0.2-0.1c-0.1-0.1-0.2-0.1-0.3-0.1c-0.1,0-0.4,0.1-0.5,0.4c-0.1,0.1-0.1,0.2-0.1,0.2v1.8c0,0.2,0.1,0.4,0.2,0.4
			h0.4c0.1,0,0.1,0,0.1,0.1v0.2c0,0.1,0,0.1-0.1,0.1c-0.1,0-0.4,0-0.9,0c-0.5,0-0.9,0-0.9,0c-0.1,0-0.1,0-0.1-0.1v-0.2
			c0-0.1,0-0.1,0.1-0.1h0.3c0.1,0,0.2-0.1,0.2-0.2c0-0.3,0-0.6,0-1L-356.2,388.2L-356.2,388.2z"/>
		<path class="st0" d="M-351,389.5c0,0.5,0.1,0.7,0.2,0.7c0.1,0,0.2-0.1,0.3-0.1c0.1-0.1,0.1-0.1,0.1-0.1l0.1,0.1c0,0,0.1,0.1,0,0.2
			c-0.1,0.1-0.2,0.4-0.7,0.4c-0.3,0-0.5-0.2-0.6-0.5l0,0c-0.2,0.2-0.5,0.4-0.9,0.5c-0.2,0.1-0.3,0.1-0.5,0.1c-0.2,0-0.5-0.2-0.5-0.7
			c0-0.4,0.2-0.7,0.9-1c0.4-0.2,0.9-0.4,1-0.5v-0.5c0-0.1,0-0.4-0.1-0.5c-0.1-0.1-0.2-0.2-0.5-0.2c-0.2,0-0.4,0.1-0.5,0.2
			c-0.1,0.1-0.1,0.2-0.1,0.4c0,0.3-0.1,0.5-0.4,0.5c-0.1,0-0.2-0.1-0.2-0.2c0-0.2,0.2-0.6,0.6-0.8c0.4-0.2,0.7-0.3,1-0.3
			c0.4,0,0.5,0.1,0.7,0.2c0.2,0.2,0.2,0.4,0.2,0.6v1.3L-351,389.5L-351,389.5z M-351.6,388.7c-0.3,0.2-1.2,0.4-1.2,1.1
			c0,0.3,0.2,0.5,0.4,0.5c0.2,0,0.7-0.3,0.7-0.5L-351.6,388.7L-351.6,388.7z"/>
		<path class="st0" d="M-346.1,390.1c0,0.1,0.1,0.2,0.2,0.2h0.2c0.1,0,0.1,0,0.1,0.1v0.1c0,0.1,0,0.1-0.1,0.1s-0.3,0-0.8,0
			c-0.4,0-0.7,0-0.8,0c-0.1,0-0.1,0-0.1-0.1v-0.1c0-0.1,0-0.1,0.1-0.1h0.2c0.1,0,0.2-0.1,0.2-0.2c0-0.2,0-0.5,0-0.7v-1.2
			c0-0.4,0-0.6-0.2-0.8c-0.2-0.2-0.4-0.2-0.6-0.2c-0.1,0-0.4,0.1-0.7,0.3c-0.2,0.2-0.2,0.4-0.2,0.6v1.8c0,0.2,0,0.3,0.2,0.3h0.2
			c0.1,0,0.1,0,0.1,0.1v0.1c0,0.1,0,0.1-0.1,0.1s-0.3,0-0.7,0c-0.4,0-0.7,0-0.7,0c-0.1,0-0.1,0-0.1-0.1v-0.1c0-0.1,0-0.1,0.1-0.1
			h0.2c0.1,0,0.2,0,0.2-0.2v-2c0-0.2-0.1-0.4-0.4-0.5l-0.1-0.1c-0.1,0-0.1-0.1-0.1-0.1v-0.1c0-0.1,0.1-0.1,0.1-0.1l0.7-0.4
			c0.1-0.1,0.1-0.1,0.2-0.1s0.1,0.1,0.1,0.1l0.1,0.5l0,0c0.2-0.3,0.7-0.6,1.2-0.6c0.2,0,0.5,0.1,0.7,0.2c0.2,0.2,0.5,0.6,0.5,0.8
			V390.1z"/>
		<path class="st0" d="M-344.3,388.4c0,0.5,0.2,1,0.4,1.3c0.3,0.4,0.7,0.4,0.9,0.4c0.4,0,0.7-0.1,0.9-0.4h0.1l0.1,0.1
			c0.1,0.1,0.1,0.1,0,0.1c-0.2,0.3-0.8,0.6-1.4,0.6c-0.4,0-0.9-0.1-1.3-0.6c-0.3-0.4-0.4-0.8-0.4-1.2c0-1,0.7-2,1.8-2
			c0.9,0,1.2,0.5,1.2,0.7c0,0.2-0.1,0.3-0.3,0.3c-0.2,0-0.4-0.1-0.5-0.4c-0.2-0.4-0.4-0.4-0.5-0.4
			C-343.8,387.1-344.3,387.6-344.3,388.4z"/>
		<path class="st0" d="M-340.6,388.2c0,0.1,0,0.2,0,0.4c0,0.9,0.5,1.5,1.2,1.5c0.5,0,0.9-0.3,1-0.6c0-0.1,0.1-0.1,0.1-0.1l0.1,0.1
			c0,0,0.1,0.1,0,0.1c-0.2,0.4-0.6,0.9-1.3,0.9c-0.5,0-1-0.1-1.3-0.6c-0.3-0.4-0.4-0.7-0.4-1.3c0-0.3,0.1-0.9,0.5-1.3
			c0.4-0.4,0.8-0.4,1.2-0.4c1,0,1.3,0.9,1.3,1.3c0,0.1-0.1,0.1-0.2,0.1C-338.4,388.2-340.6,388.2-340.6,388.2z M-339.3,388
			c0.2,0,0.2-0.1,0.2-0.1c0-0.2-0.1-0.7-0.7-0.7c-0.4,0-0.7,0.2-0.9,0.9H-339.3z"/>
		<path class="st0" d="M-332.5,389.5c0,0.5,0.1,0.7,0.2,0.7c0.1,0,0.2-0.1,0.3-0.1c0.1-0.1,0.1-0.1,0.1-0.1l0.1,0.1
			c0,0,0.1,0.1,0,0.2c-0.1,0.1-0.2,0.4-0.7,0.4c-0.3,0-0.5-0.2-0.6-0.5l0,0c-0.2,0.2-0.5,0.4-0.9,0.5c-0.2,0.1-0.3,0.1-0.5,0.1
			s-0.5-0.2-0.5-0.7c0-0.4,0.2-0.7,0.9-1c0.4-0.2,0.9-0.4,1-0.5v-0.5c0-0.1,0-0.4-0.1-0.5c-0.1-0.1-0.2-0.2-0.5-0.2
			c-0.2,0-0.4,0.1-0.5,0.2c-0.1,0.1-0.1,0.2-0.1,0.4c0,0.3-0.1,0.5-0.4,0.5c-0.1,0-0.2-0.1-0.2-0.2c0-0.2,0.2-0.6,0.6-0.8
			c0.4-0.2,0.7-0.3,1-0.3c0.4,0,0.5,0.1,0.7,0.2c0.2,0.2,0.2,0.4,0.2,0.6v1.3L-332.5,389.5L-332.5,389.5z M-333.2,388.7
			c-0.3,0.2-1.2,0.4-1.2,1.1c0,0.3,0.2,0.5,0.4,0.5s0.7-0.3,0.7-0.5L-333.2,388.7L-333.2,388.7z"/>
		<path class="st0" d="M-327.8,390.1c0,0.1,0.1,0.2,0.2,0.2h0.2c0.1,0,0.1,0,0.1,0.1v0.1c0,0.1,0,0.1-0.1,0.1c-0.1,0-0.3,0-0.8,0
			c-0.4,0-0.7,0-0.8,0s-0.1,0-0.1-0.1v-0.1c0-0.1,0-0.1,0.1-0.1h0.2c0.1,0,0.2-0.1,0.2-0.2c0-0.2,0-0.5,0-0.7v-1.2
			c0-0.4,0-0.6-0.2-0.8c-0.2-0.2-0.4-0.2-0.6-0.2c-0.1,0-0.4,0.1-0.7,0.3c-0.2,0.2-0.2,0.4-0.2,0.6v1.8c0,0.2,0,0.3,0.2,0.3h0.2
			c0.1,0,0.1,0,0.1,0.1v0.1c0,0.1,0,0.1-0.1,0.1c-0.1,0-0.3,0-0.7,0c-0.4,0-0.7,0-0.7,0c-0.1,0-0.1,0-0.1-0.1v-0.1
			c0-0.1,0-0.1,0.1-0.1h0.2c0.1,0,0.2,0,0.2-0.2v-2c0-0.2-0.1-0.4-0.4-0.5l-0.1-0.1c-0.1,0-0.1-0.1-0.1-0.1v-0.1
			c0-0.1,0.1-0.1,0.1-0.1l0.7-0.4c0.1-0.1,0.1-0.1,0.2-0.1s0.1,0.1,0.1,0.1l0.1,0.5l0,0c0.2-0.3,0.7-0.6,1.2-0.6
			c0.2,0,0.5,0.1,0.7,0.2c0.2,0.2,0.5,0.6,0.5,0.8L-327.8,390.1L-327.8,390.1z"/>
		<path class="st0" d="M-323.7,385.3c0-0.3-0.1-0.4-0.5-0.5c-0.1,0-0.1,0-0.1-0.1v-0.1c0-0.1,0-0.1,0.1-0.1c0.3-0.1,0.8-0.1,0.9-0.2
			c0.1,0,0.1,0,0.2,0s0.1,0.1,0.1,0.2c0,0.4-0.1,1.6-0.1,2.7v1.9c0,0.3,0,0.7,0.1,0.8c0.1,0.1,0.2,0.1,0.4,0.1c0.1,0,0.2,0,0.2,0.1
			v0.1c0,0.1,0,0.1-0.1,0.1l-1,0.3c-0.1,0-0.1,0-0.1-0.1l-0.1-0.4c-0.2,0.2-0.8,0.5-1.3,0.5c-0.3,0-0.6,0-1-0.4
			c-0.4-0.4-0.5-0.8-0.5-1.4c0-0.5,0.2-1,0.6-1.5c0.3-0.4,0.8-0.5,1.3-0.5c0.4,0,0.7,0.1,0.9,0.1v-1.8H-323.7z M-323.7,388
			c0-0.1,0-0.3-0.1-0.4c-0.1-0.2-0.4-0.5-0.9-0.5c-0.2,0-0.5,0.1-0.8,0.3c-0.3,0.4-0.4,0.8-0.4,1.2c0,1,0.7,1.6,1.2,1.6
			c0.5,0,0.9-0.2,0.9-0.5c0.1-0.1,0.1-0.2,0.1-0.3V388z"/>
		<path class="st0" d="M-317.9,387.3c0.1,0,1-0.1,1.1-0.1c0.2-0.1,0.3-0.1,0.4-0.4c0-0.1,0.1-0.2,0.1-0.4c0-0.1,0-0.1,0.1-0.1h0.2
			c0.1,0,0.1,0.1,0.1,0.1c0,0.1,0,0.9,0,1c0,0.3,0.1,0.7,0.1,0.9c0,0.1,0,0.1-0.1,0.1h-0.2c-0.1,0-0.1,0-0.1-0.1
			c0-0.1-0.1-0.3-0.1-0.4c-0.1-0.2-0.1-0.3-0.4-0.3c-0.4-0.1-1-0.1-1.2-0.1v0.5c0,0.5,0,1.3,0,1.5c0,0.4,0.2,0.6,0.5,0.7
			c0.2,0.1,0.4,0.1,0.6,0.1c0.1,0,0.5,0,0.7,0c0.1,0,0.5-0.1,0.7-0.3c0.1-0.1,0.6-0.7,0.7-0.9c0-0.1,0.1-0.1,0.1-0.1l0.1,0.1
			c0.1,0,0.1,0.1,0,0.1l-0.4,1.3c0,0.1-0.1,0.1-0.2,0.1c-0.1,0-0.2,0-0.7,0c-0.5,0-1.3,0-2.7,0c-0.3,0-0.5,0-0.7,0
			c-0.2,0-0.3,0-0.4,0c-0.1,0-0.1,0-0.1-0.1v-0.2c0-0.1,0-0.1,0.1-0.1h0.4c0.4,0,0.4-0.1,0.4-0.4v-2V387c0-0.7,0-1.8,0-1.9
			c-0.1-0.2-0.1-0.3-0.4-0.3h-0.3c-0.1,0-0.1,0-0.1-0.1v-0.2c0,0,0-0.1,0.1-0.1c0.2,0,0.5,0,1,0h0.4c0.9,0,1.7,0,2.6,0
			c0.1,0,0.3,0,0.4,0s0.1,0,0.1,0.1c0.1,0.1,0.4,1.3,0.4,1.4c0,0.1,0,0.1,0,0.1l-0.1,0.1h-0.1c0-0.1-0.7-0.9-0.9-1
			c-0.2-0.1-0.4-0.2-0.7-0.2l-1.5-0.1V387.3L-317.9,387.3z"/>
		<path class="st0" d="M-310.6,388.3c0-0.6-0.1-0.8-0.2-0.9c-0.1-0.1-0.4-0.2-0.5-0.2c-0.2,0-0.6,0.1-0.8,0.5
			c-0.1,0.2-0.1,0.3-0.1,0.5v1.7c0,0.1,0.1,0.2,0.2,0.2h0.3c0.1,0,0.1,0,0.1,0.1v0.1c0,0.1,0,0.1-0.1,0.1s-0.3,0-0.8,0
			c-0.4,0-0.7,0-0.8,0c-0.1,0-0.1,0-0.1-0.1v-0.1c0-0.1,0-0.1,0.1-0.1h0.3c0.1,0,0.1-0.1,0.1-0.2c0-0.1,0-0.3,0-0.4v-1.5
			c0-0.2-0.1-0.3-0.2-0.4l-0.2-0.1c-0.1,0-0.1-0.1-0.1-0.1v-0.1l0.1-0.1l0.7-0.4c0.1-0.1,0.1-0.1,0.2-0.1c0.1,0,0.1,0.1,0.1,0.1
			l0.1,0.5l0,0c0.2-0.4,0.7-0.7,1.3-0.7c0.4,0,0.8,0.2,1,0.7h0.1c0.2-0.3,0.7-0.7,1.3-0.7c0.3,0,0.5,0.1,0.8,0.2
			c0.2,0.2,0.4,0.4,0.4,1v1.9c0,0.1,0.1,0.2,0.2,0.2h0.2c0.1,0,0.1,0,0.1,0.1v0.1c0,0.1,0,0.1-0.1,0.1c-0.1,0-0.3,0-0.7,0
			c-0.4,0-0.7,0-0.8,0s-0.1,0-0.1-0.1v-0.1c0-0.1,0-0.1,0.1-0.1h0.2c0.1,0,0.2-0.1,0.2-0.2c0-0.2,0-0.5,0-0.7v-1.3
			c0-0.3-0.1-0.5-0.2-0.7c-0.2-0.1-0.4-0.2-0.6-0.2s-0.6,0.2-0.7,0.4c-0.1,0.2-0.1,0.5-0.1,0.9v1.5c0,0.1,0.1,0.2,0.2,0.2h0.3
			c0.1,0,0.1,0,0.1,0.1v0.1c0,0.1,0,0.1-0.1,0.1c-0.1,0-0.3,0-0.7,0c-0.5,0-0.7,0-0.8,0s-0.1,0-0.1-0.1v-0.1c0-0.1,0-0.1,0.1-0.1
			h0.2c0.1,0,0.2-0.1,0.2-0.1v-1.8H-310.6z"/>
		<path class="st0" d="M-306,388.1c0-0.2-0.1-0.3-0.3-0.5l-0.2-0.1c-0.1,0-0.1-0.1-0.1-0.1v-0.1c0,0,0-0.1,0.1-0.1l0.8-0.4
			c0.1-0.1,0.1-0.1,0.2-0.1s0.1,0.1,0.1,0.2l0.1,0.4l0,0c0.2-0.3,0.7-0.5,1.2-0.5c0.4,0,0.7,0.2,1,0.4c0.3,0.3,0.5,0.7,0.5,1.3
			c0,1.1-0.8,2-1.8,2c-0.2,0-0.6-0.1-0.9-0.1v1.8c0,0.2,0.1,0.3,0.2,0.3h0.4c0.1,0,0.1,0.1,0.1,0.1v0.1c0,0.1,0,0.1-0.1,0.1
			s-0.3,0-0.9,0c-0.5,0-0.8,0-0.9,0s-0.1,0-0.1-0.1v-0.2c0-0.1,0-0.1,0.1-0.1h0.3c0.1,0,0.2-0.1,0.2-0.2c0-0.2,0-0.7,0-1.5V388.1z
			 M-305.4,389.6c0,0.2,0,0.4,0.2,0.4c0.2,0.2,0.5,0.2,0.9,0.2c0.5,0,1-0.4,1-1.4c0-1.2-0.5-1.6-1.1-1.6c-0.4,0-0.7,0.2-0.9,0.5
			V389.6z"/>
		<path class="st0" d="M-300.7,388c0,0.4,0,1.7,0,2c0,0.1,0.1,0.2,0.2,0.2h0.4c0.1,0,0.1,0,0.1,0.1v0.1c0,0.1,0,0.1-0.1,0.1
			c-0.1,0-0.4,0-1,0s-0.9,0-1,0c-0.1,0-0.1-0.1-0.1-0.1v-0.1c0-0.1,0-0.1,0.1-0.1h0.4c0.1,0,0.2-0.1,0.2-0.2c0-0.2,0-1.7,0-2.3v-0.5
			c0-0.6,0-1.4,0-1.6c0-0.3-0.2-0.4-0.4-0.5l-0.2-0.1c-0.1,0-0.1,0-0.1-0.1V385c0,0,0-0.1,0.1-0.1c0.3-0.1,0.7-0.3,1-0.5
			c0.1-0.1,0.1-0.1,0.2-0.1s0.1,0.1,0.1,0.2c0,0.5-0.1,2.3-0.1,2.7L-300.7,388L-300.7,388z"/>
		<path class="st0" d="M-299.1,390c-0.4-0.5-0.5-0.8-0.5-1.4c0-0.4,0.2-1,0.7-1.4c0.4-0.4,0.9-0.4,1.2-0.4c0.5,0,0.9,0.2,1.2,0.5
			c0.4,0.4,0.6,0.9,0.6,1.4c0,0.9-0.9,1.9-1.9,1.9C-298.2,390.6-298.7,390.4-299.1,390z M-296.6,388.7c0-1-0.7-1.5-1.2-1.5
			c-0.2,0-0.4,0.1-0.7,0.2c-0.3,0.4-0.4,0.7-0.4,1.3c0,0.5,0.1,0.8,0.3,1.2c0.2,0.3,0.4,0.4,0.9,0.4
			C-297,390.4-296.6,389.6-296.6,388.7z"/>
		<path class="st0" d="M-295.5,392.4c0-0.2,0.2-0.3,0.4-0.3c0.2,0,0.3,0.1,0.4,0.1c0.1,0,0.1,0,0.2-0.1c0.1-0.2,0.5-1.2,0.7-1.5
			c-0.1-0.2-1-2.9-1-3.1c-0.1-0.2-0.2-0.4-0.4-0.4h-0.2c-0.1,0-0.1,0-0.1-0.1V387c0-0.1,0-0.1,0.1-0.1c0.1,0,0.3,0,0.8,0
			c0.4,0,0.7,0,0.8,0s0.1,0,0.1,0.1v0.2c0,0.1,0,0.1-0.1,0.1h-0.2c-0.1,0-0.1,0.1-0.1,0.2c0,0.2,0.6,2.1,0.7,2.3h0.1
			c0.1-0.1,0.9-1.9,0.9-2.1s0-0.3-0.1-0.3h-0.1c-0.1,0-0.1,0-0.1-0.1V387c0-0.1,0-0.1,0.1-0.1c0.1,0,0.3,0,0.7,0c0.2,0,0.4,0,0.5,0
			c0.1,0,0.1,0.1,0.1,0.1v0.2c0,0.1,0,0.1-0.1,0.1h-0.1c-0.1,0-0.2,0.1-0.3,0.2c-0.2,0.2-0.7,1.5-1.3,2.9c-0.4,1-0.7,1.8-0.9,2
			c-0.1,0.2-0.2,0.5-0.7,0.5C-295.4,392.9-295.5,392.7-295.5,392.4z"/>
		<path class="st0" d="M-290.7,388.2c0,0.1,0,0.2,0,0.4c0,0.9,0.5,1.5,1.2,1.5c0.5,0,0.9-0.3,1-0.6c0-0.1,0.1-0.1,0.1-0.1l0.1,0.1
			c0,0,0.1,0.1,0,0.1c-0.2,0.4-0.6,0.9-1.3,0.9c-0.5,0-1-0.1-1.3-0.6c-0.3-0.4-0.4-0.7-0.4-1.3c0-0.3,0.1-0.9,0.5-1.3
			c0.4-0.4,0.8-0.4,1.2-0.4c1,0,1.3,0.9,1.3,1.3c0,0.1-0.1,0.1-0.2,0.1C-288.5,388.2-290.7,388.2-290.7,388.2z M-289.4,388
			c0.2,0,0.2-0.1,0.2-0.1c0-0.2-0.1-0.7-0.7-0.7c-0.4,0-0.7,0.2-0.9,0.9H-289.4z"/>
		<path class="st0" d="M-286.9,388.2c0,0.1,0,0.2,0,0.4c0,0.9,0.5,1.5,1.2,1.5c0.5,0,0.9-0.3,1-0.6c0-0.1,0.1-0.1,0.1-0.1l0.1,0.1
			c0,0,0.1,0.1,0,0.1c-0.2,0.4-0.6,0.9-1.3,0.9c-0.5,0-1-0.1-1.3-0.6c-0.3-0.4-0.4-0.7-0.4-1.3c0-0.3,0.1-0.9,0.5-1.3
			c0.4-0.4,0.8-0.4,1.2-0.4c1,0,1.3,0.9,1.3,1.3c0,0.1-0.1,0.1-0.2,0.1C-284.7,388.2-286.9,388.2-286.9,388.2z M-285.5,388
			c0.2,0,0.2-0.1,0.2-0.1c0-0.2-0.1-0.7-0.7-0.7c-0.4,0-0.7,0.2-0.9,0.9H-285.5z"/>
		<path class="st0" d="M-280.5,386.8c0-0.3,0-1.3,0-1.5c0-0.5-0.2-0.5-0.5-0.5h-0.2c-0.1,0-0.1,0-0.1-0.1v-0.2c0-0.1,0-0.1,0.1-0.1
			c0.1,0,0.5,0,1.2,0c0.2,0,0.8,0,1.1,0c0.7,0,1.2,0.1,1.5,0.2c0.5,0.2,0.7,0.7,0.7,1.2c0,0.9-0.4,1-1,1.4l0,0
			c0.9,0.2,1.4,0.8,1.4,1.7c0,0.4-0.2,1-0.7,1.3c-0.4,0.2-0.9,0.3-1.6,0.3c-0.6,0-0.9,0-1.3,0c-0.4,0-0.9,0-1.1,0
			c-0.1,0-0.1,0-0.1-0.1v-0.2c0-0.1,0-0.1,0.1-0.1h0.4c0.2,0,0.3-0.1,0.4-0.4c0-0.2,0.1-1.3,0.1-2v-1H-280.5z M-279.8,387.1
			c0.2,0,0.3,0,0.4,0c0.5,0,0.9-0.1,1.1-0.2c0.4-0.2,0.5-0.7,0.5-1c0-0.3-0.1-0.7-0.4-0.9s-0.7-0.3-1.2-0.3c-0.1,0-0.2,0-0.3,0
			s-0.1,0.1-0.1,0.2c0,0.2,0,0.9,0,1.6V387.1L-279.8,387.1z M-279.8,387.9v1.2c0,0.8,0.2,1.2,0.9,1.2c0.7,0,1.4-0.4,1.4-1.3
			c0-0.7-0.4-1.2-0.9-1.3c-0.4-0.1-0.7-0.1-1.2-0.1h-0.2L-279.8,387.9L-279.8,387.9z"/>
		<path class="st0" d="M-274.9,388.2c0,0.1,0,0.2,0,0.4c0,0.9,0.5,1.5,1.2,1.5c0.5,0,0.9-0.3,1-0.6c0-0.1,0.1-0.1,0.1-0.1l0.1,0.1
			c0,0,0.1,0.1,0,0.1c-0.2,0.4-0.6,0.9-1.3,0.9c-0.5,0-1-0.1-1.3-0.6c-0.3-0.4-0.4-0.7-0.4-1.3c0-0.3,0.1-0.9,0.5-1.3
			c0.4-0.4,0.8-0.4,1.2-0.4c1,0,1.3,0.9,1.3,1.3c0,0.1-0.1,0.1-0.2,0.1C-272.7,388.2-274.9,388.2-274.9,388.2z M-273.6,388
			c0.2,0,0.2-0.1,0.2-0.1c0-0.2-0.1-0.7-0.7-0.7c-0.4,0-0.7,0.2-0.9,0.9H-273.6z"/>
		<path class="st0" d="M-268.3,390.1c0,0.1,0.1,0.2,0.2,0.2h0.2c0.1,0,0.1,0,0.1,0.1v0.1c0,0.1,0,0.1-0.1,0.1s-0.3,0-0.8,0
			c-0.4,0-0.7,0-0.8,0c-0.1,0-0.1,0-0.1-0.1v-0.1c0-0.1,0-0.1,0.1-0.1h0.2c0.1,0,0.2-0.1,0.2-0.2c0-0.2,0-0.5,0-0.7v-1.2
			c0-0.4,0-0.6-0.2-0.8c-0.2-0.2-0.4-0.2-0.6-0.2c-0.1,0-0.4,0.1-0.7,0.3c-0.2,0.2-0.2,0.4-0.2,0.6v1.8c0,0.2,0,0.3,0.2,0.3h0.2
			c0.1,0,0.1,0,0.1,0.1v0.1c0,0.1,0,0.1-0.1,0.1s-0.3,0-0.7,0c-0.4,0-0.7,0-0.7,0c-0.1,0-0.1,0-0.1-0.1v-0.1c0-0.1,0-0.1,0.1-0.1
			h0.2c0.1,0,0.2,0,0.2-0.2v-2c0-0.2-0.1-0.4-0.4-0.5l-0.1-0.1c-0.1,0-0.1-0.1-0.1-0.1v-0.1c0-0.1,0.1-0.1,0.1-0.1l0.7-0.4
			c0.1-0.1,0.1-0.1,0.2-0.1c0.1,0,0.1,0.1,0.1,0.1l0.1,0.5l0,0c0.2-0.3,0.7-0.6,1.2-0.6c0.2,0,0.5,0.1,0.7,0.2
			c0.2,0.2,0.5,0.6,0.5,0.8L-268.3,390.1L-268.3,390.1z"/>
		<path class="st0" d="M-266.4,388.2c0,0.1,0,0.2,0,0.4c0,0.9,0.5,1.5,1.2,1.5c0.5,0,0.9-0.3,1-0.6c0-0.1,0.1-0.1,0.1-0.1l0.1,0.1
			c0,0,0.1,0.1,0,0.1c-0.2,0.4-0.6,0.9-1.3,0.9c-0.5,0-1-0.1-1.3-0.6c-0.3-0.4-0.4-0.7-0.4-1.3c0-0.3,0.1-0.9,0.5-1.3
			c0.4-0.4,0.8-0.4,1.2-0.4c1,0,1.3,0.9,1.3,1.3c0,0.1-0.1,0.1-0.2,0.1C-264.2,388.2-266.4,388.2-266.4,388.2z M-265,388
			c0.2,0,0.2-0.1,0.2-0.1c0-0.2-0.1-0.7-0.7-0.7c-0.4,0-0.7,0.2-0.9,0.9H-265z"/>
		<path class="st0" d="M-262.7,387.4h-0.5c-0.1,0-0.1-0.1-0.1-0.1l0.1-0.2c0-0.1,0.1-0.1,0.1-0.1h0.5v-0.1c0-0.9,0.2-1.3,0.7-1.8
			c0.5-0.5,1.1-0.7,1.5-0.7c0.5,0,0.9,0.3,0.9,0.6s-0.2,0.4-0.4,0.4c-0.2,0-0.4-0.1-0.5-0.3c-0.1-0.2-0.2-0.2-0.4-0.2
			c-0.2,0-0.5,0.1-0.7,0.3c-0.4,0.4-0.4,1.2-0.4,1.7v0.2h1.2c0.3,0,0.7-0.1,0.9-0.1c0.1,0,0.1-0.1,0.2-0.1s0.1,0.1,0.1,0.1
			c0,0.1,0,0.7,0,1.5v0.9c0,0.3,0,0.7,0,0.7c0,0.2,0.1,0.2,0.2,0.2h0.4c0.1,0,0.1,0,0.1,0.1v0.2c0,0.1,0,0.1-0.1,0.1s-0.3,0-0.8,0
			c-0.5,0-0.7,0-0.9,0c-0.1,0-0.1,0-0.1-0.1v-0.3c0-0.1,0-0.1,0.1-0.1h0.4c0.1,0,0.1-0.1,0.1-0.2v-0.7v-1.3c0-0.5-0.1-0.7-0.7-0.7
			h-1v0.7c0,1,0,1.8,0,1.9c0,0.1,0,0.2,0.2,0.2h0.4c0.1,0,0.1,0,0.1,0.1v0.2c0,0.1,0,0.1-0.1,0.1s-0.3,0-0.9,0s-0.9,0-1,0
			s-0.1,0-0.1-0.1v-0.2c0-0.1,0-0.1,0.1-0.1h0.4c0.1,0,0.2-0.1,0.2-0.3v-1.6L-262.7,387.4L-262.7,387.4z"/>
		<path class="st0" d="M-257.3,389.5c0,0.7,0.3,0.7,0.4,0.7c0.2,0,0.4-0.1,0.5-0.1c0.1,0,0.1,0,0.1,0l0.1,0.1c0,0.1,0,0.1,0,0.1
			c-0.1,0.1-0.4,0.4-1,0.4c-0.4,0-0.9-0.4-0.9-0.7c0-0.4,0-1.1,0-1.2v-0.2c0-0.2,0-0.7,0-1.1h-0.5c-0.1,0-0.1-0.1-0.1-0.1
			s0.1-0.1,0.2-0.2c0.2-0.1,0.9-0.8,1-1.1c0-0.1,0.1-0.1,0.1-0.1c0.1,0,0.1,0.1,0.1,0.1l-0.1,0.9h1.2c0.1,0,0.1,0.1,0.1,0.1
			l-0.1,0.3c0,0.1,0,0.1-0.1,0.1h-1.1c0,0.4,0,0.8,0,1.2L-257.3,389.5L-257.3,389.5z"/>
		<path class="st0" d="M-255.3,390.4c-0.1,0-0.1-0.1-0.1-0.1l-0.1-0.8c0-0.1,0-0.1,0.1-0.1h0.1c0.1,0,0.1,0,0.1,0.1l0.2,0.4
			c0.2,0.3,0.3,0.5,0.7,0.5c0.3,0,0.7-0.2,0.7-0.6c0-0.4-0.2-0.6-0.9-0.8c-0.5-0.1-1-0.4-1-1.1c0-0.6,0.5-1,1.2-1
			c0.4,0,0.6,0.1,0.8,0.2c0.1,0.1,0.1,0.1,0.2,0.2l0.1,0.6c0,0.1,0,0.1-0.1,0.1l-0.1,0.1c-0.1,0-0.1,0-0.1-0.1l-0.3-0.4
			c-0.1-0.2-0.2-0.3-0.6-0.3c-0.3,0-0.7,0.2-0.7,0.5c0,0.5,0.4,0.6,0.8,0.7c0.6,0.2,1,0.4,1,1.1c0,0.7-0.5,1.2-1.3,1.2
			C-254.8,390.6-255.2,390.4-255.3,390.4z"/>
	</g>
	<g>
		<path class="st0" d="M-337.5,400L-337.5,400l0.5-1.5c0.1-0.2,0.1-0.4-0.1-0.4h-0.1c-0.1,0-0.1,0-0.1-0.1V398c0-0.1,0-0.1,0.1-0.1
			c0.1,0,0.2,0,0.5,0c0.3,0,0.4,0,0.5,0s0.1,0,0.1,0.1v0.1c0,0.1,0,0.1-0.1,0.1h-0.2c-0.1,0-0.2,0.1-0.2,0.1c-0.1,0.1-0.9,2.2-1,2.4
			c0,0.1-0.1,0.1-0.1,0.1s-0.1-0.1-0.1-0.1l-0.6-1.8h-0.1l-0.8,1.9c-0.1,0.1-0.1,0.1-0.1,0.1s-0.1-0.1-0.1-0.1l-0.9-2.3
			c-0.1-0.1-0.1-0.2-0.2-0.2h-0.1c-0.1,0-0.1,0-0.1-0.1V398c0-0.1,0-0.1,0.1-0.1c0.1,0,0.2,0,0.6,0c0.3,0,0.4,0,0.5,0
			c0.1,0,0.1,0,0.1,0.1v0.1c0,0.1,0,0.1-0.1,0.1h-0.1c-0.1,0-0.1,0.1-0.1,0.2l0.5,1.7l0,0l0.7-1.6c0-0.1,0-0.2-0.1-0.2
			c0-0.1-0.1-0.1-0.1-0.1h-0.1c-0.1,0-0.1,0-0.1-0.1v-0.1c0-0.1,0-0.1,0.1-0.1c0.1,0,0.2,0,0.6,0c0.3,0,0.4,0,0.5,0
			c0.1,0,0.1,0,0.1,0.1v0.1c0,0.1,0,0.1-0.1,0.1h-0.1c-0.1,0-0.1,0.1-0.1,0.2L-337.5,400z"/>
		<path class="st0" d="M-332.9,400L-332.9,400l0.5-1.5c0.1-0.2,0.1-0.4-0.1-0.4h-0.1c-0.1,0-0.1,0-0.1-0.1V398c0-0.1,0-0.1,0.1-0.1
			c0.1,0,0.2,0,0.5,0c0.3,0,0.4,0,0.5,0s0.1,0,0.1,0.1v0.1c0,0.1,0,0.1-0.1,0.1h-0.2c-0.1,0-0.2,0.1-0.2,0.1c-0.1,0.1-0.9,2.2-1,2.4
			c0,0.1-0.1,0.1-0.1,0.1c-0.1,0-0.1-0.1-0.1-0.1l-0.6-1.8h-0.1l-0.8,1.9c-0.1,0.1-0.1,0.1-0.1,0.1s-0.1-0.1-0.1-0.1l-0.9-2.3
			c-0.1-0.1-0.1-0.2-0.2-0.2h-0.1c-0.1,0-0.1,0-0.1-0.1V398c0-0.1,0-0.1,0.1-0.1c0.1,0,0.2,0,0.6,0c0.3,0,0.4,0,0.5,0
			c0.1,0,0.1,0,0.1,0.1v0.1c0,0.1,0,0.1-0.1,0.1h-0.1c-0.1,0-0.1,0.1-0.1,0.2l0.5,1.7l0,0l0.7-1.6c0-0.1,0-0.2-0.1-0.2
			c-0.1-0.1-0.1-0.1-0.2-0.1h-0.1c-0.1,0-0.1,0-0.1-0.1v-0.1c0-0.1,0-0.1,0.1-0.1c0.1,0,0.2,0,0.6,0c0.3,0,0.4,0,0.5,0
			s0.1,0,0.1,0.1v0.1c0,0.1,0,0.1-0.1,0.1h-0.1c-0.1,0-0.1,0.1-0.1,0.2L-332.9,400z"/>
		<path class="st0" d="M-328.3,400L-328.3,400l0.5-1.5c0.1-0.2,0.1-0.4-0.1-0.4h-0.1c-0.1,0-0.1,0-0.1-0.1V398c0-0.1,0-0.1,0.1-0.1
			c0.1,0,0.2,0,0.5,0c0.3,0,0.4,0,0.5,0s0.1,0,0.1,0.1v0.1c0,0.1,0,0.1-0.1,0.1h-0.2c-0.1,0-0.2,0.1-0.2,0.1c-0.1,0.1-0.9,2.2-1,2.4
			c0,0.1-0.1,0.1-0.1,0.1c-0.1,0-0.1-0.1-0.1-0.1l-0.6-1.8h-0.1l-0.9,1.9c-0.1,0.1-0.1,0.1-0.1,0.1c-0.1,0-0.1-0.1-0.1-0.1l-0.9-2.3
			c-0.1-0.1-0.1-0.2-0.2-0.2h-0.1c-0.1,0-0.1,0-0.1-0.1V398c0-0.1,0-0.1,0.1-0.1s0.2,0,0.6,0c0.3,0,0.4,0,0.5,0c0.1,0,0.1,0,0.1,0.1
			v0.1c0,0.1,0,0.1-0.1,0.1h-0.1c-0.1,0-0.1,0.1-0.1,0.2l0.5,1.7l0,0l0.7-1.6c0-0.1,0-0.2-0.1-0.2c-0.1-0.1-0.1-0.1-0.2-0.1h-0.1
			c-0.1,0-0.1,0-0.1-0.1v-0.1c0-0.1,0-0.1,0.1-0.1c0.1,0,0.2,0,0.6,0c0.3,0,0.4,0,0.5,0s0.1,0,0.1,0.1v0.1c0,0.1,0,0.1-0.1,0.1h-0.1
			c-0.1,0-0.1,0.1-0.1,0.2L-328.3,400z"/>
		<path class="st0" d="M-326.9,400.4c0-0.1,0.1-0.4,0.4-0.4c0.2,0,0.4,0.1,0.4,0.4s-0.2,0.4-0.4,0.4
			C-326.7,400.8-326.9,400.7-326.9,400.4z"/>
		<path class="st0" d="M-325.1,397.2c0-0.4-0.1-0.5-0.3-0.6h-0.1c-0.1,0-0.1-0.1-0.1-0.1v-0.1c0,0,0-0.1,0.1-0.1
			c0.2-0.1,0.5-0.2,0.7-0.4c0.1-0.1,0.1-0.1,0.1-0.1c0.1,0,0.1,0.1,0.1,0.1s0,0.8,0,1.4v0.7c0.2-0.2,0.6-0.3,0.9-0.3
			c0.5,0,1.2,0.5,1.2,1.4c0,0.8-0.6,1.5-1.3,1.5c-0.4,0-0.6-0.1-0.8-0.2l-0.2,0.1h-0.1h-0.1c0,0-0.1,0,0-0.1c0-0.1,0-0.6,0-1.1v-2.4
			H-325.1z M-324.7,399.3c0,0.5,0,0.7,0.1,1c0.1,0.2,0.4,0.3,0.6,0.3c0.4,0,0.9-0.2,0.9-1.1c0-0.6-0.3-1.2-1-1.2
			c-0.2,0-0.5,0.1-0.6,0.2V399.3z"/>
		<path class="st0" d="M-321.6,399c0-0.3-0.1-0.4-0.2-0.5l-0.1-0.1c-0.1,0-0.1,0-0.1-0.1v-0.1c0,0,0-0.1,0.1-0.1l0.7-0.3
			c0.1,0,0.1,0,0.1,0c0.1,0,0.1,0.1,0.1,0.1l0.1,0.4l0,0c0.2-0.3,0.5-0.5,0.8-0.5c0.2,0,0.3,0.1,0.3,0.3c0,0.2-0.2,0.3-0.2,0.3
			s-0.1,0-0.2-0.1c-0.1-0.1-0.1-0.1-0.2-0.1c-0.1,0-0.2,0.1-0.4,0.2c-0.1,0.1-0.1,0.2-0.1,0.2v1.3c0,0.2,0.1,0.2,0.2,0.2h0.3
			c0.1,0,0.1,0,0.1,0.1v0.2c0,0.1,0,0.1-0.1,0.1s-0.4,0-0.7,0c-0.4,0-0.7,0-0.7,0c0,0-0.1,0-0.1-0.1v-0.1c0-0.1,0-0.1,0.1-0.1h0.2
			c0.1,0,0.1-0.1,0.1-0.1c0-0.2,0-0.4,0-0.8L-321.6,399L-321.6,399z"/>
		<path class="st0" d="M-319,398.8c0-0.2-0.1-0.4-0.4-0.4c-0.1,0-0.1,0-0.1-0.1v-0.1c0,0,0-0.1,0.1-0.1c0.2-0.1,0.4-0.2,0.7-0.3
			c0.1,0,0.1-0.1,0.1-0.1c0.1,0,0.1,0.1,0.1,0.1c0,0.1,0,0.5,0,1v0.7c0,0.2,0,0.5,0,0.5c0,0.1,0.1,0.2,0.1,0.2h0.3
			c0.1,0,0.1,0,0.1,0.1v0.2c0,0.1,0,0.1-0.1,0.1c-0.1,0-0.4,0-0.6,0c-0.4,0-0.6,0-0.7,0c-0.1,0-0.1,0-0.1-0.1v-0.1
			c0-0.1,0-0.1,0.1-0.1h0.3c0.1,0,0.1,0,0.1-0.1c0-0.2,0-0.4,0-0.6L-319,398.8L-319,398.8z M-319.4,396.9c0-0.2,0.1-0.4,0.4-0.4
			c0.2,0,0.4,0.2,0.4,0.3c0,0.2-0.1,0.4-0.4,0.4C-319.2,397.2-319.4,397-319.4,396.9z"/>
		<path class="st0" d="M-317.1,399c0,0.1,0,0.2,0,0.3c0,0.6,0.4,1.1,0.9,1.1c0.4,0,0.7-0.2,0.8-0.4l0.1-0.1l0.1,0.1c0,0,0.1,0,0,0.1
			c-0.1,0.2-0.4,0.7-1,0.7c-0.4,0-0.8-0.1-1-0.5c-0.2-0.3-0.3-0.5-0.3-1c0-0.2,0.1-0.7,0.4-1c0.3-0.3,0.6-0.4,0.9-0.4
			c0.7,0,1,0.7,1,1c0,0.1-0.1,0.1-0.2,0.1H-317.1z M-316.1,398.8c0.1,0,0.2-0.1,0.2-0.1c0-0.1-0.1-0.6-0.5-0.6
			c-0.3,0-0.5,0.2-0.7,0.7H-316.1z"/>
		<path class="st0" d="M-314.3,399c0-0.3-0.1-0.4-0.2-0.5l-0.1-0.1c-0.1,0-0.1,0-0.1-0.1v-0.1c0,0,0-0.1,0.1-0.1l0.7-0.3
			c0.1,0,0.1,0,0.1,0c0.1,0,0.1,0.1,0.1,0.1l0.1,0.4l0,0c0.2-0.3,0.5-0.5,0.8-0.5c0.2,0,0.3,0.1,0.3,0.3c0,0.2-0.2,0.3-0.2,0.3
			s-0.1,0-0.2-0.1c-0.1-0.1-0.1-0.1-0.2-0.1c-0.1,0-0.2,0.1-0.4,0.2c-0.1,0.1-0.1,0.2-0.1,0.2v1.3c0,0.2,0.1,0.2,0.2,0.2h0.3
			c0.1,0,0.1,0,0.1,0.1v0.2c0,0.1,0,0.1-0.1,0.1s-0.4,0-0.7,0c-0.4,0-0.7,0-0.7,0c0,0-0.1,0-0.1-0.1v-0.1c0-0.1,0-0.1,0.1-0.1h0.2
			c0.1,0,0.1-0.1,0.1-0.1c0-0.2,0-0.4,0-0.8L-314.3,399L-314.3,399z"/>
		<path class="st0" d="M-312.3,398.9C-312.3,398.8-312.2,398.8-312.3,398.9l1.9-0.1c0.1,0,0.1,0,0.1,0.1v0.2c0,0.1,0,0.1-0.1,0.1
			h-1.8c-0.1,0-0.1,0-0.1-0.1V398.9z"/>
		<path class="st0" d="M-309.3,397.2c0-0.4-0.1-0.5-0.3-0.6h-0.1c-0.1,0-0.1-0.1-0.1-0.1v-0.1c0,0,0-0.1,0.1-0.1
			c0.2-0.1,0.5-0.2,0.7-0.4c0.1-0.1,0.1-0.1,0.1-0.1c0.1,0,0.1,0.1,0.1,0.1s0,0.8,0,1.4v0.7c0.2-0.2,0.6-0.3,0.9-0.3
			c0.5,0,1.2,0.5,1.2,1.4c0,0.8-0.6,1.5-1.3,1.5c-0.4,0-0.6-0.1-0.8-0.2l-0.2,0.1h-0.1h-0.1c0,0-0.1,0,0-0.1c0-0.1,0-0.6,0-1.1v-2.4
			H-309.3z M-308.9,399.3c0,0.5,0,0.7,0.1,1c0.1,0.2,0.4,0.3,0.6,0.3c0.4,0,0.9-0.2,0.9-1.1c0-0.6-0.3-1.2-1-1.2
			c-0.2,0-0.5,0.1-0.6,0.2V399.3z"/>
		<path class="st0" d="M-305.7,399c0-0.3-0.1-0.4-0.2-0.5l-0.1-0.1c-0.1,0-0.1,0-0.1-0.1v-0.1c0,0,0-0.1,0.1-0.1l0.7-0.3
			c0.1,0,0.1,0,0.1,0c0.1,0,0.1,0.1,0.1,0.1l0.1,0.4l0,0c0.2-0.3,0.5-0.5,0.8-0.5c0.2,0,0.3,0.1,0.3,0.3c0,0.2-0.2,0.3-0.2,0.3
			s-0.1,0-0.2-0.1c-0.1-0.1-0.1-0.1-0.2-0.1c-0.1,0-0.2,0.1-0.4,0.2c-0.1,0.1-0.1,0.2-0.1,0.2v1.3c0,0.2,0.1,0.2,0.2,0.2h0.3
			c0.1,0,0.1,0,0.1,0.1v0.2c0,0.1,0,0.1-0.1,0.1c-0.1,0-0.4,0-0.7,0c-0.4,0-0.7,0-0.7,0c0,0-0.1,0-0.1-0.1v-0.1c0-0.1,0-0.1,0.1-0.1
			h0.2c0.1,0,0.1-0.1,0.1-0.1c0-0.2,0-0.4,0-0.8V399z"/>
		<path class="st0" d="M-303.3,398.8c0-0.2-0.1-0.4-0.4-0.4c-0.1,0-0.1,0-0.1-0.1v-0.1c0,0,0-0.1,0.1-0.1c0.2-0.1,0.4-0.2,0.7-0.3
			c0.1,0,0.1-0.1,0.1-0.1s0.1,0.1,0.1,0.1c0,0.1,0,0.5,0,1v0.7c0,0.2,0,0.5,0,0.5c0,0.1,0.1,0.2,0.1,0.2h0.3c0.1,0,0.1,0,0.1,0.1
			v0.2c0,0.1,0,0.1-0.1,0.1s-0.4,0-0.6,0c-0.4,0-0.6,0-0.7,0c-0.1,0-0.1,0-0.1-0.1v-0.1c0-0.1,0-0.1,0.1-0.1h0.3
			c0.1,0,0.1,0,0.1-0.1c0-0.2,0-0.4,0-0.6L-303.3,398.8L-303.3,398.8z M-303.6,396.9c0-0.2,0.1-0.4,0.4-0.4c0.2,0,0.4,0.2,0.4,0.3
			c0,0.2-0.1,0.4-0.4,0.4C-303.4,397.2-303.6,397-303.6,396.9z"/>
		<path class="st0" d="M-301.4,399c0,0.1,0,0.2,0,0.3c0,0.6,0.4,1.1,0.9,1.1c0.4,0,0.7-0.2,0.8-0.4l0.1-0.1l0.1,0.1c0,0,0.1,0,0,0.1
			c-0.1,0.2-0.4,0.7-1,0.7c-0.4,0-0.8-0.1-1-0.5c-0.2-0.3-0.3-0.5-0.3-1c0-0.2,0.1-0.7,0.4-1c0.3-0.3,0.6-0.4,0.9-0.4
			c0.7,0,1,0.7,1,1c0,0.1-0.1,0.1-0.2,0.1H-301.4z M-300.3,398.8c0.1,0,0.2-0.1,0.2-0.1c0-0.1-0.1-0.6-0.5-0.6
			c-0.3,0-0.5,0.2-0.7,0.7H-300.3z"/>
		<path class="st0" d="M-298.5,399c0-0.3-0.1-0.4-0.2-0.5l-0.1-0.1c-0.1,0-0.1,0-0.1-0.1v-0.1c0,0,0-0.1,0.1-0.1l0.7-0.3
			c0.1,0,0.1,0,0.1,0s0.1,0.1,0.1,0.1l0.1,0.4l0,0c0.2-0.3,0.5-0.5,0.8-0.5c0.2,0,0.3,0.1,0.3,0.3c0,0.2-0.2,0.3-0.2,0.3
			c-0.1,0-0.1,0-0.2-0.1c-0.1-0.1-0.1-0.1-0.2-0.1s-0.2,0.1-0.4,0.2c-0.1,0.1-0.1,0.2-0.1,0.2v1.3c0,0.2,0.1,0.2,0.2,0.2h0.3
			c0.1,0,0.1,0,0.1,0.1v0.2c0,0.1,0,0.1-0.1,0.1s-0.4,0-0.7,0c-0.4,0-0.7,0-0.7,0c0,0-0.1,0-0.1-0.1v-0.1c0-0.1,0-0.1,0.1-0.1h0.2
			c0.1,0,0.1-0.1,0.1-0.1c0-0.2,0-0.4,0-0.8V399z"/>
		<path class="st0" d="M-296.8,400.4c0-0.1,0.1-0.4,0.4-0.4c0.2,0,0.4,0.1,0.4,0.4s-0.2,0.4-0.4,0.4
			C-296.5,400.8-296.8,400.7-296.8,400.4z"/>
		<path class="st0" d="M-294.7,399.2c0,0.4,0.2,0.7,0.3,1c0.2,0.3,0.5,0.3,0.7,0.3c0.3,0,0.5-0.1,0.7-0.3h0.1l0.1,0.1
			c0,0,0.1,0.1,0,0.1c-0.2,0.2-0.6,0.5-1,0.5c-0.4,0-0.7-0.1-1-0.4c-0.2-0.3-0.3-0.6-0.3-0.9c0-0.8,0.5-1.5,1.4-1.5
			c0.7,0,0.9,0.4,0.9,0.5c0,0.1-0.1,0.2-0.2,0.2s-0.2-0.1-0.4-0.2c-0.1-0.2-0.3-0.3-0.4-0.3C-294.3,398.1-294.7,398.4-294.7,399.2z"
			/>
		<path class="st0" d="M-292,400.3c-0.3-0.4-0.4-0.6-0.4-1c0-0.3,0.2-0.7,0.5-1c0.4-0.2,0.7-0.3,0.9-0.3c0.4,0,0.7,0.2,0.9,0.4
			c0.3,0.3,0.4,0.6,0.4,1c0,0.7-0.6,1.5-1.5,1.5C-291.3,400.8-291.8,400.7-292,400.3z M-290.1,399.3c0-0.7-0.5-1.2-0.9-1.2
			c-0.2,0-0.4,0.1-0.5,0.2c-0.2,0.2-0.4,0.5-0.4,1c0,0.4,0.1,0.6,0.2,0.9c0.1,0.2,0.4,0.4,0.7,0.4
			C-290.5,400.6-290.1,400-290.1,399.3z"/>
		<path class="st0" d="M-286.8,399c0-0.5-0.1-0.6-0.2-0.7c-0.1-0.1-0.2-0.1-0.4-0.1c-0.2,0-0.4,0.1-0.6,0.4
			c-0.1,0.1-0.1,0.2-0.1,0.4v1.3c0,0.1,0.1,0.2,0.1,0.2h0.2c0.1,0,0.1,0,0.1,0.1v0.2c0,0.1,0,0.1-0.1,0.1s-0.2,0-0.6,0s-0.5,0-0.6,0
			s-0.1,0-0.1-0.1v-0.1c0-0.1,0-0.1,0.1-0.1h0.2c0.1,0,0.1-0.1,0.1-0.2c0-0.1,0-0.2,0-0.4v-1.1c0-0.1,0-0.2-0.2-0.3l-0.1-0.1
			c-0.1,0-0.1-0.1-0.1-0.1v-0.1c0,0,0-0.1,0.1-0.1l0.5-0.3c0.1,0,0.1-0.1,0.1-0.1c0.1,0,0.1,0.1,0.1,0.1v0.4l0,0
			c0.2-0.2,0.6-0.5,1-0.5s0.6,0.2,0.7,0.5h0.1c0.2-0.2,0.5-0.5,1-0.5c0.2,0,0.4,0.1,0.6,0.2c0.1,0.2,0.3,0.3,0.3,0.8v1.5
			c0,0.1,0.1,0.1,0.1,0.1h0.2c0.1,0,0.1,0,0.1,0.1v0.2c0,0.1,0,0.1-0.1,0.1s-0.2,0-0.5,0s-0.5,0-0.6,0s-0.1,0-0.1-0.1v-0.1
			c0-0.1,0-0.1,0.1-0.1h0.2c0.1,0,0.1-0.1,0.1-0.1c0-0.1,0-0.4,0-0.5v-1c0-0.2-0.1-0.4-0.2-0.5c-0.1-0.1-0.3-0.1-0.5-0.1
			s-0.5,0.1-0.5,0.4c-0.1,0.2-0.1,0.4-0.1,0.7v1.2c0,0.1,0.1,0.1,0.1,0.1h0.2c0.1,0,0.1,0,0.1,0.1v0.1c0,0.1,0,0.1-0.1,0.1
			s-0.2,0-0.6,0s-0.5,0-0.6,0s-0.1,0-0.1-0.1v-0.1c0-0.1,0-0.1,0.1-0.1h0.2c0.1,0,0.1,0,0.1-0.1L-286.8,399L-286.8,399z"/>
	</g>
	<rect x="-373.2" y="349.4" class="st0" width="121.4" height="3"/>
	<rect x="-373.2" y="375.6" class="st0" width="121.4" height="3"/>
	<rect x="-373.2" y="397.7" class="st0" width="29.8" height="3"/>
	<rect x="-281.8" y="397.7" class="st0" width="29.8" height="3"/>
</g>
</svg>
