<svg id="Layer_1" data-name="Layer 1" xmlns="http://www.w3.org/2000/svg" viewBox="0 0 95.51 94.98"><defs><style>.cls-1{fill:#fff;}.cls-2{fill:#ea2128;}</style></defs><title>rrrhody</title><path class="cls-1" d="M25.19,20.56L18.81,9.76l5-3c2.3-1.36,5.11-1.85,6.85,1.09a3.86,3.86,0,0,1,.05,4.32l5,2.12-3.92,2.32L27.7,14.77l-0.83.49,1.89,3.19Zm0.1-8,1.37-.81a1.19,1.19,0,1,0-1.2-2l-1.37.81Z"/><path class="cls-1" d="M40.5,0.83l2.45,12.31-4.06.81L36.44,1.64Z"/><path class="cls-1" d="M54.22,0.77c4.45,0.64,6.07,3.5,5.55,7.14s-2.88,5.92-7.33,5.28l-5.36-.77L48.86,0ZM53.62,4.2L52.47,4l-0.8,5.54,1.15,0.17c1.45,0.21,2.45-.41,2.74-2.43S55.07,4.41,53.62,4.2Z"/><path class="cls-1" d="M76.38,9.6l-1.68,2.8-4.6-2.76-0.75,1.25,4,2.42-1.57,2.61-4-2.42L67,14.78l4.69,2.81L70,20.42l-8.24-4.94L68.24,4.72Z"/><path class="cls-1" d="M76.07,26.59l11.09-5.87,2.72,5.15c1.25,2.36,1.61,5.19-1.42,6.79a3.86,3.86,0,0,1-4.32-.15l-2.36,4.9-2.13-4,2.07-4-0.45-.86L78,30.25Zm8,0.47,0.75,1.41a1.19,1.19,0,1,0,2.09-1.11L86.12,26Z"/><path class="cls-1" d="M95.5,45.7c0.2,4.51-2.66,6.92-6.26,7.08s-6.65-2-6.85-6.5,2.66-6.92,6.26-7.08S95.3,41.19,95.5,45.7Zm-3.74.16c-0.07-1.61-1.2-2.5-2.92-2.42s-2.77,1.05-2.7,2.67,1.2,2.5,2.92,2.42S91.83,47.48,91.76,45.87Z"/><path class="cls-1" d="M89.14,71.89l-7.05-3c-3.56-1.52-3.63-4.65-2.46-7.39s3.48-4.85,7-3.33l7.05,3L92.09,65,85.22,62a1.69,1.69,0,0,0-1.33,3.12l6.87,2.94Z"/><path class="cls-1" d="M75.4,70l8.33,9.39-2.61,2.32L74,80.16a18,18,0,0,1,1.51,1.54L78,84.5l-3.1,2.75-8.33-9.39,2.61-2.32,7.08,1.58a17.57,17.57,0,0,1-1.48-1.51L72.3,72.8Z"/><path class="cls-1" d="M61.49,93.33c-4.32,1.27-7-.65-8-4.18s0.15-6.59,4.47-7.86l5.19-1.53,3.55,12ZM60.61,90l1.12-.33-1.58-5.36L59,84.6C57.62,85,57,86,57.55,87.95S59.2,90.38,60.61,90Z"/><path class="cls-1" d="M43.21,82.94L39.67,95l-5.59-1.65c-2.56-.75-4.84-2.47-3.87-5.76a3.86,3.86,0,0,1,3.12-3l-1.86-5.11,4.37,1.29,1.43,4.29,0.93,0.27,1-3.56Zm-5.9,5.37-1.53-.45a1.19,1.19,0,1,0-.67,2.27l1.53,0.45Z"/><path class="cls-1" d="M12,79.63l8.3-9.41,3.09,2.73-3,3.35L23,78.55l3-3.35L29,77.94l-8.3,9.41-3.11-2.74,3-3.35L18,79l-3,3.35Z"/><path class="cls-1" d="M3.64,66.25c-1.74-4.17.11-7.41,3.43-8.8S14,57,15.75,61.19,15.64,68.6,12.31,70,5.38,70.42,3.64,66.25ZM7.1,64.8c0.62,1.49,2,1.93,3.58,1.26s2.24-1.95,1.61-3.43-2-1.93-3.58-1.26S6.47,63.32,7.1,64.8Z"/><path class="cls-1" d="M0.3,45.53c0.25-4.49,3-6.35,6.62-6.15s6.15,2.35,5.9,6.84l-0.3,5.41L0,50.94Zm3.47,0.3L3.7,47,9.29,47.3l0.06-1.16c0.08-1.47-.62-2.4-2.66-2.52S3.85,44.36,3.77,45.83Z"/><path class="cls-1" d="M15.57,34l-3.83-1.91-9.52.57L4.3,28.5l5.21,0.2-3.29-4,2.09-4.19,5.25,8,3.83,1.91Z"/><circle class="cls-2" cx="55.3" cy="32.25" r="2.48"/><path class="cls-2" d="M60.95,42.22c-0.6,0-1.89-1.49-3.69-1,2.51,1.3,5.8,3.68,6.18,6.17a5.93,5.93,0,1,1-11.29,3q0,0.31,0,.63A8.82,8.82,0,1,0,60.95,42.22Z"/><path class="cls-2" d="M47.74,40.2a14.64,14.64,0,0,1,2,4.12L53,45.83c-0.1,1.28-3.35,4.11-3.94,4.49l-0.2,1.56c3.29-1.33,8.36-4.94,9.14-7C56,42.74,51.48,40.74,47.74,40.2Z"/><path class="cls-2" d="M65.54,45.56A7.18,7.18,0,0,0,64.68,43c-4.18-1.91-11-5.34-13.28-10.59-3.27.06-10.85,4-13.13,6.72,2.26,1.26,7.91,6.4,6.68,12.57A6.17,6.17,0,0,1,39.06,57a5.91,5.91,0,0,1-4.17-1.71,4.16,4.16,0,0,1-1.4-2.17,5.91,5.91,0,0,1-.36-1.92V51.16s0,0,0-.06v0A5.88,5.88,0,0,1,39,45.17h0a5.92,5.92,0,0,1,4.72,2.35A8.82,8.82,0,0,0,26.85,51c0,4.87,4.55,8.82,9.42,8.82,12,0,15.52-13.45,9.44-20.55C51.24,38,64.92,43.07,64,50.63,67.25,47.5,67.07,47.54,65.54,45.56Z"/></svg>