<?xml version="1.0" encoding="utf-8"?>
<!-- Generator: Adobe Illustrator 19.1.0, SVG Export Plug-In . SVG Version: 6.00 Build 0)  -->
<!DOCTYPE svg PUBLIC "-//W3C//DTD SVG 1.1//EN" "http://www.w3.org/Graphics/SVG/1.1/DTD/svg11.dtd">
<svg version="1.1" id="Layer_1" xmlns="http://www.w3.org/2000/svg" xmlns:xlink="http://www.w3.org/1999/xlink" x="0px" y="0px"
	 viewBox="-381 347.6 259.7 75.4" style="enable-background:new -381 347.6 259.7 75.4;" xml:space="preserve">
<style type="text/css">
	.st0{fill:#BBBBBB;}
	.st1{fill:#9F9F9F;}
</style>
<g>
	<g>
		<path class="st0" d="M-315.7,347.6h-43.5l-21.8,37.7l21.8,37.7h43.5l21.8-37.7L-315.7,347.6z M-319,400.9h-10.3v-13.3l1.9-3.1
			l-10,6.4l-10-6.4l1.9,3.1v13.3h-10.2v-31.2h6.2l12.2,8.8l12.2-8.8h6.1V400.9z"/>
	</g>
</g>
<g>
	<path class="st1" d="M-279.6,376.7h6.6l0.5,1.3c1-1.4,3-2.4,5.3-2.4c2.7,0,4.5,0.8,5.4,2.4c1.2-1.5,3.1-2.5,5.6-2.5
		c4.9,0,6.4,2.6,6.4,8.1V396h-7v-12.3c0-1-0.7-1.6-1.7-1.6c-0.8,0-1.8,0.5-1.8,1.6v12.4h-8.8v-12.4c0-0.9-0.7-1.6-1.7-1.6
		c-1.1,0-1.8,0.5-1.8,1.6v12.4h-7C-279.6,396.1-279.6,376.7-279.6,376.7z"/>
	<path class="st1" d="M-248.4,385.8c0-7.5,4.8-10.3,10.9-10.3c6.1,0,10.4,2.9,10.4,10.3c0,7.5-4.9,10.3-10.9,10.3
		C-244.1,396.2-248.4,393.3-248.4,385.8z M-235.1,385.8c0-2.6-0.7-4-2.7-4c-1.9,0-2.6,1.4-2.6,4c0,2.7,0.7,4,2.6,4
		C-235.8,389.9-235.1,388.5-235.1,385.8z"/>
	<path class="st1" d="M-216.5,385.7c0-7.4,4.8-10.3,10.9-10.3c6.1,0,10.4,2.9,10.4,10.3c0,7.5-4.9,10.3-10.9,10.3
		C-212.3,396.1-216.5,393.2-216.5,385.7z M-203.2,385.7c0-2.6-0.7-4-2.7-4c-1.9,0-2.6,1.4-2.6,4c0,2.7,0.7,4,2.6,4
		C-204,389.8-203.2,388.4-203.2,385.7z"/>
	<path class="st1" d="M-228.6,401.6v-5.7c0,0.4,1.3,0.6,2,0.6c0.9,0,1.5-0.4,1.5-1.4v-18.4h7v18.4c0,4.9-2.3,7.4-7.2,7.4
		C-227,402.5-228.6,402-228.6,401.6z M-225.8,371.4c0-2.1,1.7-3.4,4-3.4s4.1,1.3,4.1,3.4c0,2.1-1.7,3.4-4.1,3.4
		C-224.1,374.8-225.8,373.5-225.8,371.4z"/>
	<path class="st1" d="M-193.4,389.1V382h-1.8v-3.4l6.5-7.1h4v5.3h3.5v5.3h-3.5v6.1c0,1.1,0.3,1.7,1.2,1.7c1.2,0,2.3-0.4,2.3-1.1v6
		c0,0.8-2.4,1.5-5.4,1.5C-191.4,396.2-193.4,393.3-193.4,389.1z"/>
	<path class="st1" d="M-180,385.8c0-7.3,4.9-10.3,10.2-10.3c5.2,0,9.7,1.8,9.7,9.5c0,0.6-0.2,2.3-0.3,2.3c-2.6,0-11.3,0-11.3,0
		c0.2,1.8,1.1,2.1,4.7,2.1c2.9,0,3.6-0.1,5.3-0.7v6c-1.8,0.8-3,1.4-7.1,1.4C-176.4,396.2-180,392.8-180,385.8z M-167.1,383.8v-0.4
		c0-1.2-0.8-2.2-2.5-2.2c-1.6,0-2.4,0.9-2.5,2.6C-172.1,383.8-167.1,383.8-167.1,383.8z"/>
	<path class="st1" d="M-159.4,385.8c0-7.2,4.7-10.3,10.4-10.3c3.2,0,4.8,0.8,6.6,1.5v6.6c-1.8-0.9-3-1.3-4.8-1.3
		c-2.6,0-3.8,1.1-3.8,3.6c0,2.4,1.4,3.5,3.9,3.5c1.8,0,2.9-0.4,4.7-1.3v6.5c-1.8,0.8-3.4,1.7-6.5,1.7
		C-155,396.2-159.4,393.1-159.4,385.8z"/>
	<path class="st1" d="M-140.7,369.7h7v7.5c1.8-1,3-1.6,5.2-1.6c4.9,0,7.1,2.7,7.1,8.1v12.4h-8.8v-12.4c0-0.7-0.6-1.6-1.8-1.6
		c-0.9,0-1.8,0.6-1.8,1.6V396h-7v-26.3H-140.7z"/>
</g>
</svg>
