<?xml version="1.0" encoding="utf-8"?>
<!-- Generator: Adobe Illustrator 19.2.1, SVG Export Plug-In . SVG Version: 6.00 Build 0)  -->
<svg version="1.1" id="Layer_1" xmlns="http://www.w3.org/2000/svg" xmlns:xlink="http://www.w3.org/1999/xlink" x="0px" y="0px"
	 viewBox="0 0 15.8 12.9" enable-background="new 0 0 15.8 12.9" xml:space="preserve">
<g>
	<path fill="#FFFFFF" d="M15.8,1.5c-0.4,0.7-1,1.2-1.6,1.7c0,0.1,0,0.2,0,0.4c0,0.9-0.1,1.7-0.4,2.6s-0.6,1.7-1.2,2.5
		s-1.1,1.5-1.9,2.1c-0.7,0.6-1.6,1.1-2.6,1.5c-1,0.4-2.1,0.5-3.2,0.5c-1.8,0-3.5-0.5-5-1.5c0.2,0,0.5,0,0.8,0c1.5,0,2.8-0.5,4-1.4
		c-0.7,0-1.3-0.2-1.9-0.6C2.4,9,2,8.5,1.8,7.8c0.2,0,0.4,0.1,0.6,0.1c0.3,0,0.6,0,0.9-0.1C2.5,7.6,1.9,7.2,1.4,6.6
		C0.9,6,0.6,5.3,0.6,4.6v0c0.5,0.3,0.9,0.4,1.5,0.4C1.7,4.6,1.3,4.3,1.1,3.8c-0.3-0.5-0.4-1-0.4-1.5c0-0.6,0.1-1.1,0.4-1.6
		c0.8,1,1.8,1.8,3,2.4c1.2,0.6,2.4,0.9,3.7,1C7.7,3.7,7.7,3.5,7.7,3.2c0-0.9,0.3-1.7,0.9-2.3S10.1,0,11,0c0.9,0,1.7,0.3,2.4,1
		c0.7-0.1,1.4-0.4,2.1-0.8C15.1,1,14.7,1.6,14,2C14.6,2,15.2,1.8,15.8,1.5z"/>
</g>
</svg>
