<?xml version="1.0" encoding="utf-8"?>
<!-- Generator: Adobe Illustrator 19.2.1, SVG Export Plug-In . SVG Version: 6.00 Build 0)  -->
<svg version="1.1" id="Layer_1" xmlns="http://www.w3.org/2000/svg" xmlns:xlink="http://www.w3.org/1999/xlink" x="0px" y="0px"
	 viewBox="0 0 15.4 15.4" enable-background="new 0 0 15.4 15.4" xml:space="preserve">
<g>
	<path fill="#FFFFFF" d="M15.4,2v11.5c0,0.5-0.2,1-0.6,1.4c-0.4,0.4-0.9,0.6-1.4,0.6H2c-0.5,0-1-0.2-1.4-0.6C0.2,14.5,0,14,0,13.5V2
		c0-0.5,0.2-1,0.6-1.4C1,0.2,1.4,0,2,0h11.5c0.5,0,1,0.2,1.4,0.6C15.2,1,15.4,1.4,15.4,2z M13.7,13V6.5h-1.4
		c0.1,0.4,0.2,0.9,0.2,1.3c0,0.8-0.2,1.6-0.6,2.3c-0.4,0.7-1,1.3-1.7,1.7c-0.7,0.4-1.5,0.6-2.4,0.6c-1.3,0-2.4-0.5-3.4-1.4
		s-1.4-2-1.4-3.3C2.9,7.4,3,7,3.1,6.5H1.7V13c0,0.2,0.1,0.3,0.2,0.4s0.3,0.2,0.4,0.2h10.7c0.2,0,0.3-0.1,0.4-0.2S13.7,13.2,13.7,13z
		 M9.9,9.8c0.6-0.6,0.9-1.3,0.9-2.1c0-0.8-0.3-1.5-0.9-2.1S8.6,4.7,7.7,4.7C6.9,4.7,6.1,5,5.5,5.6S4.6,6.9,4.6,7.7
		c0,0.8,0.3,1.5,0.9,2.1c0.6,0.6,1.3,0.9,2.2,0.9C8.6,10.7,9.3,10.4,9.9,9.8z M13.7,4.1V2.4c0-0.2-0.1-0.4-0.2-0.5
		c-0.1-0.1-0.3-0.2-0.5-0.2h-1.7c-0.2,0-0.4,0.1-0.5,0.2c-0.1,0.1-0.2,0.3-0.2,0.5v1.7c0,0.2,0.1,0.4,0.2,0.5
		c0.1,0.1,0.3,0.2,0.5,0.2H13c0.2,0,0.4-0.1,0.5-0.2C13.6,4.4,13.7,4.3,13.7,4.1z"/>
</g>
</svg>
