<?xml version="1.0" encoding="utf-8"?>
<!-- Generator: Adobe Illustrator 19.2.1, SVG Export Plug-In . SVG Version: 6.00 Build 0)  -->
<svg version="1.1" id="Layer_1" xmlns="http://www.w3.org/2000/svg" xmlns:xlink="http://www.w3.org/1999/xlink" x="0px" y="0px"
	 viewBox="0 0 90 90" enable-background="new 0 0 90 90" xml:space="preserve">
<rect fill="#B2B2B2" width="90" height="90"/>
<path fill="#FFFFFF" d="M3.5,90c0-0.2-0.8-19.8,9.4-40.3c6-12.1,14.6-22.1,25.6-29.8C52.1,10.2,69.3,4.2,90,1.9v0.5
	c-20.7,2.2-37.7,8.2-51.3,17.8c-10.9,7.7-19.4,17.6-25.4,29.6C3.1,70.3,3.9,89.8,4,90L3.5,90z"/>
<path fill="#FFFFFF" d="M37,90c0-0.1-0.2-12.4,6.3-25.1c3.8-7.4,9.3-13.6,16-18.2C67.6,41,77.5,37.6,90,36.6v0.5
	c-12.3,1-22.2,4.3-30.4,10.1c-6.6,4.6-11.9,10.6-15.7,18c-6.4,12.6-6.3,24.7-6.3,24.8L37,90z"/>
<path fill="#FFFFFF" d="M58.3,90h-0.5c0-0.1,0.4-8,4.5-15.7c2.4-4.6,5.8-8.2,9.7-10.7c4.9-3.2,10.7-4.8,17.9-4.7v0.5
	c-7-0.1-12.8,1.5-17.6,4.6c-3.9,2.5-7.1,6.1-9.5,10.6C58.7,82.1,58.3,89.9,58.3,90z"/>
<path fill="#FFFFFF" d="M72.1,90l-0.5,0c0,0,0.1-4.6,2.4-9.2c2.1-4.2,6.4-9.3,16-9.6v0.5c-7.5,0.2-12.6,3.3-15.6,9.3
	C72.2,85.5,72.1,89.9,72.1,90z"/>
<g>
	<path fill="#FFFFFF" d="M14.7,24.4c0-1.6,0-2.5-0.1-3.3c0-0.7-0.1-2.4-0.2-2.7c-0.1-0.4-0.5-0.7-0.9-0.7H13c-0.1,0-0.1-0.1-0.1-0.2
		V17c0-0.1,0-0.1,0.2-0.1c0.2,0,0.8,0.1,2.1,0.1c1.1,0,1.5-0.1,1.7-0.1c0.2,0,0.2,0,0.2,0.1v0.4c0,0.1,0,0.2-0.1,0.2h-0.5
		c-0.3,0-0.5,0.3-0.5,0.9c-0.1,1.2-0.4,5.2-0.4,7.5v3c0,0.3,0,0.6-0.3,0.6c-0.3,0-0.5-0.1-0.7-0.3c-0.3-0.3-1.2-1.2-2.2-2.5
		c-1.3-1.5-2.7-3.2-3-3.6C9,23,6.5,20,6.1,19.4H6V23c0,1.5,0.2,3.7,0.2,4.3c0,1,0.4,1.6,1.1,1.6h0.4c0.1,0,0.1,0.1,0.1,0.2v0.4
		c0,0.1,0,0.1-0.1,0.1c-0.2,0-1.2-0.1-2.1-0.1c-0.6,0-1.8,0.1-2,0.1c-0.1,0-0.1,0-0.1-0.2V29c0-0.1,0-0.1,0.1-0.1h0.6
		c0.4,0,0.7-0.6,0.8-1.8c0-0.3,0.2-3.2,0.2-5.8v-1.6c0-1-0.6-2-1.5-2.1l-0.4,0c-0.1,0-0.1-0.1-0.1-0.1V17c0-0.1,0-0.1,0.1-0.1
		s0.2,0,0.6,0c0.4,0,0.9,0,1.8,0c0.6,0,1.1,0,1.3,0c0.2,0,0.4,0.1,0.5,0.2c0.1,0.1,3.6,4.4,4.1,5c0.2,0.3,2.8,3.6,3,3.8h0.1V24.4z"
		/>
	<path fill="#FFFFFF" d="M18.3,28.5c-0.7-0.7-0.9-1.7-0.9-2.8c0-0.8,0.4-2.1,1.5-2.9c0.9-0.7,1.8-0.9,2.6-0.9c1.2,0,2.1,0.4,2.9,1.1
		c0.9,0.8,1.2,1.7,1.2,2.8c0,1-0.4,2-1.1,2.8c-0.9,0.9-1.9,1.2-3.1,1.2C20,29.8,19.2,29.5,18.3,28.5z M22.9,25.6
		c0-2.1-0.7-3.1-1.5-3.1c-0.4,0-0.7,0.1-1,0.5c-0.4,0.6-0.6,1.3-0.6,2.8c0,1,0.1,1.7,0.4,2.5c0.2,0.5,0.5,0.8,1.2,0.8
		C22.4,29,22.9,27.6,22.9,25.6z"/>
	<path fill="#FFFFFF" d="M29.4,28.2c0,0.6,0.2,0.7,0.6,0.7h0.7c0.1,0,0.1,0.1,0.1,0.2v0.4c0,0.1,0,0.2-0.1,0.2
		c-0.1,0-0.9-0.1-2.5-0.1c-1.4,0-2.1,0.1-2.2,0.1c-0.1,0-0.1,0-0.1-0.2v-0.3c0-0.1,0-0.2,0.2-0.2h0.5c0.3,0,0.4-0.1,0.5-0.4
		c0-0.5,0-1.1,0-2V25c0-0.8-0.2-1.1-0.7-1.4L26,23.4c-0.1-0.1-0.1-0.1-0.1-0.2v-0.2c0-0.1,0-0.1,0.1-0.1l2.5-1.1
		c0.1,0,0.2-0.1,0.3-0.1c0.1,0,0.2,0.1,0.2,0.2l0.2,1.4h0.1c0.6-1.2,1.3-1.7,2.1-1.7c0.5,0,0.9,0.4,0.9,1c0,0.5-0.6,1-1.1,1
		c-0.2,0-0.5-0.1-0.6-0.2c-0.1-0.1-0.3-0.1-0.4-0.1c-0.2,0-0.4,0.1-0.5,0.3c-0.2,0.5-0.3,0.8-0.3,1V28.2z"/>
	<path fill="#FFFFFF" d="M35.8,26.9c0,1.5,0.6,1.8,1,1.8c0.4,0,0.6-0.1,0.9-0.2c0.1,0,0.1,0,0.2,0.1l0.1,0.3c0.1,0.1,0,0.2-0.1,0.2
		c-0.3,0.2-1.1,0.7-2.5,0.7c-1.2,0-2-0.8-2-1.7c0-0.6,0-2,0-2.6l0-2.3h-1c-0.2,0-0.3-0.1-0.3-0.2c0-0.2,0.1-0.3,0.4-0.4
		c0.6-0.3,2.1-1.6,2.7-2.3c0.1-0.1,0.2-0.2,0.3-0.2c0.2,0,0.2,0.1,0.2,0.3l-0.1,1.9h2.3c0.1,0,0.2,0.1,0.1,0.2L38,23
		c0,0.1-0.1,0.1-0.2,0.1h-2.1c0,0.7,0,1.6,0,2.4V26.9z"/>
	<path fill="#FFFFFF" d="M41.3,28.2c0,0.5,0.1,0.7,0.3,0.7h0.4c0.1,0,0.1,0,0.1,0.1v0.3c0,0.1,0,0.2-0.1,0.2c-0.1,0-1-0.1-2-0.1
		c-1.2,0-1.9,0.1-2.1,0.1c-0.1,0-0.1-0.1-0.1-0.2v-0.4c0-0.1,0.1-0.1,0.3-0.1h0.3c0.3,0,0.6-0.1,0.6-0.3C39,28.3,39,28,39,27.4
		l0-7.4c0-0.9-0.2-1.4-0.8-1.6l-0.3-0.1c-0.1-0.1-0.1-0.1-0.1-0.2v-0.2c0-0.1,0.1-0.1,0.3-0.2c1-0.3,1.6-0.6,2.7-1.1
		c0.2-0.1,0.4-0.2,0.6-0.2c0.2,0,0.2,0.1,0.2,0.4c0,0.3-0.1,3.9-0.1,5v1.1h0.1c0.4-0.7,1.3-1.1,2.3-1.1c0.8,0,1.3,0.2,1.8,0.7
		c0.8,0.7,0.8,1.6,0.8,2.7v1.1c0,0.9,0,2,0,2.3c0,0.2,0.4,0.3,0.6,0.3h0.3c0.1,0,0.2,0,0.2,0.1v0.4c0,0.1,0,0.2-0.1,0.2
		c-0.1,0-0.7-0.1-1.9-0.1c-1.2,0-1.9,0.1-2,0.1c-0.1,0-0.2-0.1-0.2-0.2v-0.3c0-0.1,0-0.1,0.1-0.1h0.2c0.2,0,0.4-0.1,0.4-0.3
		c0-0.2,0.1-1.2,0.1-1.7v-1.1c0-0.9,0.1-2.1-0.4-2.6c-0.2-0.2-0.5-0.3-0.8-0.3c-0.4,0-0.8,0.3-1,0.6c-0.1,0.2-0.3,0.4-0.3,0.9V28.2z
		"/>
	<path fill="#FFFFFF" d="M50.1,27.2c0.1,0.7,0.3,1.7,0.9,1.7h0.7c0.1,0,0.1,0.1,0.1,0.1v0.5c0,0.1,0,0.1-0.2,0.1
		c-0.2,0-0.7-0.1-2-0.1c-1.5,0-2.1,0.1-2.3,0.1c-0.1,0-0.2,0-0.2-0.2V29c0-0.1,0-0.1,0.1-0.1h0.7c0.6,0,0.8-0.8,0.9-1.4
		c0.2-1.3,0.3-5.5,0.3-5.8l0-2.7c0-0.8-0.2-1.3-1-1.3h-0.6c-0.1,0-0.1-0.1-0.1-0.1V17c0-0.1,0-0.1,0.1-0.1c0.2,0,0.7,0.1,2.8,0.1
		c0.8,0,1.4-0.1,1.6-0.1c0.2,0,0.3,0,0.4,0.3c1.1,3,2.4,6,3.4,8.6c0.2-0.3,1.5-3.6,1.7-3.9c0.1-0.2,1.8-4.4,1.9-4.8
		c0.1-0.2,0.3-0.2,0.8-0.2c2.8,0,3.4-0.1,3.6-0.1c0.1,0,0.1,0.1,0.1,0.2v0.4c0,0.1,0,0.2-0.1,0.2H63c-0.4,0-0.5,0.3-0.5,0.7
		c0,0.3,0,4.6,0,5c0,0.4,0.1,4.2,0.1,4.6c0,0.7,0.2,1,0.4,1h0.9c0.1,0,0.1,0.1,0.1,0.1v0.4c0,0.1,0,0.2-0.2,0.2
		c-0.2,0-0.5-0.1-2.6-0.1c-1.8,0-2.5,0.1-2.7,0.1c-0.1,0-0.1-0.1-0.1-0.2V29c0-0.1,0-0.1,0.1-0.1h1c0.3,0,0.5-0.1,0.5-0.6
		c0-0.2,0.1-3.4,0.1-4.7v-5.4H60c-0.2,0.3-2.2,5.1-2.5,5.9c-0.4,0.8-2,4.8-2,4.9c-0.1,0.1-0.2,0.4-0.4,0.4c-0.1,0-0.2-0.1-0.3-0.3
		c-0.1-0.1-2.4-5.6-2.5-6c-0.3-0.8-2-4.8-2.1-5C50,18.3,50,22.8,50,23C50,23.2,50,25.6,50.1,27.2z"/>
	<path fill="#FFFFFF" d="M68.7,23.9c0-0.4,0-0.8-0.3-1c-0.2-0.2-0.5-0.2-0.7-0.2c-0.3,0-0.6,0.1-0.9,0.3c-0.3,0.2-0.1,0.5-0.1,1
		c0,0.6-0.4,1-1.2,1c-0.4,0-0.8-0.2-0.8-0.6s0.1-0.9,0.5-1.2c0.7-0.7,2-1.3,3.4-1.3c1.1,0,1.4,0.2,1.8,0.5c0.4,0.4,0.5,0.9,0.5,1.5
		l0,3.5c0,0.9,0.1,1.2,0.4,1.2c0.2,0,0.4-0.2,0.5-0.3c0.1-0.1,0.1-0.1,0.2-0.1l0.2,0.1c0.1,0,0.1,0.1,0.1,0.2
		c-0.2,0.4-0.7,1.2-1.8,1.2c-0.7,0-1.3-0.2-1.7-1.1h-0.1c-0.4,0.4-0.8,0.7-1.5,0.9c-0.4,0.1-0.8,0.2-1.3,0.2c-0.6,0-1.2-0.7-1.2-1.6
		c0-0.8,0.4-1.6,1.5-2.2c1.4-0.7,1.8-0.9,2.3-1.2V23.9z M68.7,25.5c-0.9,0.5-1.6,0.8-1.6,2c0,0.8,0.4,1.2,0.8,1.2
		c0.5,0,0.8-0.5,0.8-0.6V25.5z"/>
	<path fill="#FFFFFF" d="M76.6,29.6c-0.1,0-1-0.1-2.5-0.1c-1,0-1.7,0.1-1.9,0.1c-0.1,0-0.1,0-0.1-0.2v-0.4c0-0.1,0.1-0.1,0.2-0.1
		h0.7c0.2,0,0.3-0.1,0.3-0.4c0-0.5,0-1.1,0-1.6l0-2.5c0-0.5-0.1-0.9-0.9-1.1c-0.2-0.1-0.2-0.1-0.2-0.2v-0.2c0-0.1,0-0.1,0.2-0.1
		l2.6-0.9c0.2-0.1,0.4-0.1,0.5-0.1c0.1,0,0.2,0.1,0.2,0.2c0,0.3,0,1.4,0,3v1.9c0,0.7,0,1.3,0,1.5c0,0.3,0.1,0.5,0.3,0.5h0.6
		c0.1,0,0.2,0.1,0.2,0.2v0.3C76.7,29.5,76.7,29.6,76.6,29.6z M74.1,20.4c-0.7,0-1.2-0.5-1.2-1.2c0-0.6,0.6-1.1,1.3-1.1
		c0.8,0,1.3,0.5,1.3,1C75.5,19.8,75.1,20.4,74.1,20.4z"/>
	<path fill="#FFFFFF" d="M80.2,22.8h0.1c0.2-0.2,0.5-0.5,0.9-0.6c0.4-0.2,0.8-0.3,1.4-0.3c0.7,0,1.4,0.1,1.8,0.5
		c0.7,0.7,0.8,1.1,0.8,2v1.9c0,0.6,0,1.4-0.1,2.1c0,0.5,0.3,0.6,0.4,0.6H86c0.2,0,0.2,0.1,0.2,0.2v0.3c0,0.1,0,0.2-0.1,0.2
		c-0.1,0-0.7-0.1-2.1-0.1c-1.2,0-1.7,0.1-1.9,0.1c-0.1,0-0.1-0.1-0.1-0.2v-0.3c0-0.1,0.1-0.2,0.2-0.2h0.2c0.1,0,0.3-0.1,0.3-0.4
		c0.1-0.5,0.1-1,0.1-1.8v-1.9c0-0.7-0.1-1.1-0.4-1.5C82,23,81.8,23,81.5,23c-0.3,0-0.5,0.1-0.9,0.4c-0.2,0.2-0.4,0.6-0.4,1.4l0,3.6
		c0,0.3,0.1,0.6,0.3,0.6h0.2c0.1,0,0.2,0.1,0.2,0.2v0.3c0,0.1,0,0.2-0.1,0.2c-0.1,0-0.6-0.1-1.8-0.1c-1.3,0-1.8,0.1-1.9,0.1
		c-0.1,0-0.1-0.1-0.1-0.2v-0.4c0-0.1,0-0.2,0.2-0.2h0.3c0.2,0,0.5-0.1,0.5-0.4v-3.9c0-0.5-0.3-0.8-0.7-1L77,23.5
		c-0.1-0.1-0.1-0.1-0.1-0.2v-0.2c0-0.1,0.1-0.1,0.2-0.2l2.3-1c0.1-0.1,0.3-0.1,0.4-0.1c0.1,0,0.2,0.1,0.2,0.2L80.2,22.8z"/>
</g>
<g>
	<path fill="#FFFFFF" d="M21.7,42.4c0-1.3,0-2.5,0-3c0-0.6-0.2-0.9-0.7-0.9h-0.7c-0.1,0-0.1-0.1-0.1-0.1V38c0-0.1,0-0.1,0.1-0.1
		c0.2,0,0.7,0.1,2.2,0.1c1,0,2.6-0.1,3-0.1c1.5,0,2.6,0.4,3.3,1.1c0.6,0.6,0.9,1.4,0.9,2c0,2.2-1,3.1-3.3,3.6v0
		c0.4,0.2,0.7,0.5,0.8,0.7c0.2,0.2,1.5,2,1.6,2.3c0.1,0.2,1.2,1.8,1.6,2c0.4,0.3,0.8,0.3,1.3,0.3c0.1,0,0.1,0.1,0.1,0.1v0.4
		c0,0.1,0,0.2-0.1,0.2c-0.1,0-0.6-0.1-1.4-0.1c-0.5,0-1.2,0-1.4,0.1c-0.2-0.2-0.6-0.8-0.7-1c-0.1-0.2-1.1-1.9-1.2-2
		c-0.1-0.1-0.9-1.4-1.1-1.7c-0.5-0.6-0.9-1-1.9-1c-0.2,0-0.3,0-0.6,0.1v1c0,1,0,3,0,3.3c0,0.4,0.2,0.7,0.4,0.7h1.1
		c0.1,0,0.1,0.1,0.1,0.1v0.4c0,0.1,0,0.2-0.2,0.2c-0.2,0-0.6-0.1-2.3-0.1c-1.6,0-2,0.1-2.2,0.1c-0.1,0-0.1-0.1-0.1-0.1V50
		c0-0.1,0-0.1,0.1-0.1H21c0.4,0,0.7-0.1,0.7-0.6c0-1.8,0-3.4,0-5.1V42.4z M23.3,44.1c0.3,0.1,0.5,0.1,0.8,0.1c3.2,0,3.9-2.2,3.9-3
		c0-0.8-0.4-1.6-0.9-2c-0.7-0.6-1.5-0.8-2.9-0.8c-0.2,0-0.4,0-0.6,0.1c-0.1,0.1-0.2,0.3-0.2,0.6V44.1z"/>
	<path fill="#FFFFFF" d="M37.3,48.3c0,1,0.2,1.3,0.5,1.3c0.3,0,0.5-0.1,0.6-0.3c0.1-0.1,0.1-0.1,0.2-0.1l0.2,0.1
		c0.1,0.1,0.1,0.1,0,0.3c-0.1,0.3-0.5,0.9-1.4,0.9c-0.6,0-1.1-0.5-1.3-1.2h0c-0.4,0.4-1,0.8-1.8,1.1c-0.3,0.1-0.7,0.1-1,0.1
		c-0.4,0-1.1-0.4-1.1-1.5c0-0.8,0.4-1.5,1.8-2.1c0.8-0.4,1.7-0.8,2-1v-1.1c0-0.3-0.1-0.8-0.2-1s-0.6-0.4-1.1-0.4
		c-0.4,0-0.9,0.1-1.2,0.4s-0.1,0.5-0.1,0.8c0,0.6-0.2,1-0.9,1c-0.3,0-0.4-0.2-0.4-0.6c0-0.6,0.5-1.2,1.2-1.7
		c0.7-0.4,1.4-0.6,2.2-0.6c0.8,0,1.2,0.2,1.4,0.5c0.4,0.4,0.4,0.8,0.4,1.3v2.7V48.3z M36,46.6c-0.6,0.5-2.4,0.8-2.4,2.3
		c0,0.7,0.4,1,0.9,1c0.5,0,1.5-0.6,1.5-1.1V46.6z"/>
	<path fill="#FFFFFF" d="M44.7,39.6c0-0.7-0.1-0.9-1.1-1c-0.1,0-0.1-0.1-0.1-0.1v-0.3c0-0.1,0-0.1,0.1-0.1c0.7-0.1,1.6-0.3,2-0.4
		c0.2,0,0.3-0.1,0.4-0.1c0.1,0,0.1,0.1,0.1,0.3C46,38.8,46,41.4,46,43.7v3.9c0,0.7,0,1.4,0.2,1.6c0.2,0.2,0.5,0.3,0.8,0.3
		c0.2,0,0.3,0,0.4,0.1l0,0.1c0,0.1,0,0.2-0.1,0.2l-2,0.7c-0.1,0-0.2,0-0.2-0.1l-0.2-0.8c-0.6,0.6-1.7,1-2.6,1c-0.6,0-1.3,0-2.1-0.8
		c-0.9-0.9-1.1-1.7-1.1-2.9c0-1.1,0.4-2.2,1.2-3c0.7-0.7,1.7-1.1,2.6-1.1c0.7,0,1.4,0.1,1.9,0.3V39.6z M44.7,45.3
		c0-0.2,0-0.6-0.2-0.9c-0.2-0.5-0.8-1-1.9-1c-0.6,0-1.2,0.2-1.6,0.6c-0.7,0.7-0.8,1.7-0.8,2.4c0,2,1.4,3.5,2.4,3.5
		c1,0,1.8-0.5,1.9-1c0.1-0.3,0.1-0.4,0.1-0.6V45.3z"/>
	<path fill="#FFFFFF" d="M48.9,45.3c0-0.6-0.1-0.9-1-1.1c-0.1,0-0.2-0.1-0.2-0.1v-0.2c0-0.1,0-0.1,0.1-0.1c0.6-0.2,1.2-0.5,1.9-0.9
		c0.1-0.1,0.2-0.1,0.3-0.1c0.1,0,0.1,0.1,0.1,0.2c0,0.3,0,1.4,0,2.9v1.9c0,0.7,0,1.3,0,1.5c0,0.3,0.1,0.5,0.3,0.5h0.8
		c0.1,0,0.2,0.1,0.2,0.2v0.3c0,0.1,0,0.2-0.2,0.2c-0.1,0-1-0.1-1.7-0.1c-1,0-1.7,0.1-1.9,0.1c-0.1,0-0.1,0-0.1-0.1V50
		c0-0.1,0.1-0.1,0.2-0.1h0.9c0.2,0,0.3-0.1,0.3-0.4c0-0.5,0-1.1,0-1.6V45.3z M48.1,39.9c0-0.4,0.4-0.9,1.1-0.9
		c0.6,0,0.9,0.5,0.9,0.9c0,0.5-0.3,1-1,1C48.6,40.8,48.1,40.4,48.1,39.9z"/>
	<path fill="#FFFFFF" d="M57.3,48.3c0,1,0.2,1.3,0.5,1.3c0.3,0,0.5-0.1,0.6-0.3c0.1-0.1,0.1-0.1,0.2-0.1l0.2,0.1
		c0.1,0.1,0.1,0.1,0,0.3c-0.1,0.3-0.5,0.9-1.4,0.9c-0.6,0-1.1-0.5-1.3-1.2h0c-0.4,0.4-1,0.8-1.8,1.1c-0.3,0.1-0.7,0.1-1,0.1
		c-0.4,0-1.1-0.4-1.1-1.5c0-0.8,0.4-1.5,1.8-2.1c0.8-0.4,1.7-0.8,2-1v-1.1c0-0.3-0.1-0.8-0.2-1s-0.6-0.4-1.1-0.4
		c-0.4,0-0.9,0.1-1.2,0.4c-0.2,0.2-0.1,0.5-0.1,0.8c0,0.6-0.2,1-0.9,1c-0.3,0-0.4-0.2-0.4-0.6c0-0.6,0.5-1.2,1.2-1.7
		c0.7-0.4,1.4-0.6,2.2-0.6c0.8,0,1.2,0.2,1.4,0.5c0.4,0.4,0.4,0.8,0.4,1.3v2.7V48.3z M56,46.6c-0.6,0.5-2.4,0.8-2.4,2.3
		c0,0.7,0.4,1,0.9,1c0.5,0,1.5-0.6,1.5-1.1V46.6z"/>
	<path fill="#FFFFFF" d="M61.4,48.2c0,1.3,0.6,1.6,0.9,1.6c0.4,0,0.9-0.1,1.2-0.2c0.1-0.1,0.2,0,0.2,0l0.1,0.2c0.1,0.1,0,0.1,0,0.2
		c-0.2,0.2-0.9,0.7-2,0.7c-0.9,0-1.7-0.8-1.7-1.5c0-0.7,0.1-2.3,0.1-2.5v-0.4c0-0.3,0-1.5,0-2.3h-1.1c-0.2,0-0.3-0.1-0.3-0.2
		s0.1-0.2,0.3-0.3c0.4-0.2,1.8-1.6,2-2.2c0.1-0.1,0.1-0.2,0.2-0.2c0.1,0,0.2,0.1,0.2,0.3l-0.1,1.8h2.5c0.1,0,0.2,0.1,0.1,0.2
		l-0.2,0.6c0,0.1-0.1,0.1-0.2,0.1h-2.3c0,0.8-0.1,1.7-0.1,2.5V48.2z"/>
	<path fill="#FFFFFF" d="M65.4,45.3c0-0.6-0.1-0.9-1-1.1c-0.1,0-0.2-0.1-0.2-0.1v-0.2c0-0.1,0-0.1,0.1-0.1c0.6-0.2,1.2-0.5,1.9-0.9
		c0.1-0.1,0.2-0.1,0.3-0.1c0.1,0,0.1,0.1,0.1,0.2c0,0.3,0,1.4,0,2.9v1.9c0,0.7,0,1.3,0,1.5c0,0.3,0.1,0.5,0.3,0.5h0.8
		c0.1,0,0.2,0.1,0.2,0.2v0.3c0,0.1,0,0.2-0.2,0.2c-0.1,0-1-0.1-1.7-0.1c-1,0-1.7,0.1-1.9,0.1c-0.1,0-0.1,0-0.1-0.1V50
		c0-0.1,0.1-0.1,0.2-0.1h0.9c0.2,0,0.3-0.1,0.3-0.4c0-0.5,0-1.1,0-1.6V45.3z M64.6,39.9c0-0.4,0.4-0.9,1.1-0.9
		c0.6,0,0.9,0.5,0.9,0.9c0,0.5-0.3,1-1,1C65.2,40.8,64.6,40.4,64.6,39.9z"/>
	<path fill="#FFFFFF" d="M69.4,49.4c-0.8-1-1-1.6-1-2.9c0-0.9,0.5-2,1.5-2.9c0.9-0.7,1.8-0.9,2.4-0.9c1,0,2,0.5,2.5,1
		c0.8,0.8,1.2,1.7,1.2,2.9c0,1.9-1.7,3.9-3.9,3.9C71.2,50.7,70.1,50.3,69.4,49.4z M74.5,46.6c0-2-1.4-3.2-2.3-3.2
		c-0.5,0-0.9,0.1-1.4,0.6c-0.7,0.7-0.9,1.4-0.9,2.8c0,1,0.1,1.7,0.7,2.5c0.4,0.6,0.9,0.9,1.8,0.9C73.7,50.1,74.5,48.5,74.5,46.6z"/>
	<path fill="#FFFFFF" d="M84,49.5c0,0.3,0.2,0.4,0.4,0.4H85c0.2,0,0.2,0.1,0.2,0.2v0.3c0,0.1,0,0.2-0.1,0.2c-0.1,0-0.7-0.1-1.7-0.1
		c-0.9,0-1.5,0.1-1.6,0.1c-0.1,0-0.1-0.1-0.1-0.2V50c0-0.1,0.1-0.2,0.2-0.2h0.5c0.2,0,0.3-0.1,0.4-0.4c0-0.5,0-1,0-1.5v-2.3
		c0-0.7,0-1.2-0.5-1.6c-0.4-0.3-0.9-0.3-1.3-0.3c-0.3,0-0.9,0.1-1.4,0.7c-0.4,0.4-0.4,0.9-0.4,1.2v3.7c0,0.5,0.1,0.6,0.4,0.6H80
		c0.1,0,0.2,0.1,0.2,0.2v0.3c0,0.1,0,0.2-0.1,0.2c-0.1,0-0.6-0.1-1.5-0.1c-0.9,0-1.5,0.1-1.6,0.1c-0.1,0-0.1-0.1-0.1-0.2V50
		c0-0.1,0-0.2,0.2-0.2h0.5c0.2,0,0.4-0.1,0.4-0.4v-4.2c0-0.5-0.3-0.8-0.7-1l-0.1-0.1c-0.1-0.1-0.1-0.1-0.1-0.2V44
		c0-0.1,0.1-0.1,0.2-0.2l1.5-0.9c0.1-0.1,0.2-0.1,0.3-0.1c0.1,0,0.1,0.1,0.1,0.2l0.1,1.1h0c0.5-0.6,1.5-1.3,2.4-1.3
		c0.5,0,1.1,0.1,1.5,0.4c0.5,0.4,1,1.2,1,1.7V49.5z"/>
</g>
<g>
	<path fill="#FFFFFF" d="M21.2,70.5c-1.3-0.8-2.6-2.7-2.6-5.3c0-1.1,0.3-2.8,1.7-4.4c1.6-1.9,3.3-2.3,4.8-2.3c1.1,0,2.6,0.2,4,1.4
		c1.3,1.1,2.4,2.9,2.4,5.3c0,1.3-0.4,2.6-1.3,3.9c-1.1,1.4-2.7,2.5-5.1,2.5C24.2,71.7,22.6,71.4,21.2,70.5z M29.7,65.5
		c0-3.9-2.8-6.2-4.7-6.2c-0.3,0-1.5-0.2-2.8,1c-1.2,1.1-1.8,2.9-1.8,4.4c0,4.7,3.3,6.3,4.8,6.3C29.1,71,29.7,67,29.7,65.5z"/>
	<path fill="#FFFFFF" d="M39.8,70.5c0,0.3,0.2,0.4,0.4,0.4h0.6c0.2,0,0.2,0.1,0.2,0.2v0.3c0,0.1,0,0.2-0.1,0.2
		c-0.1,0-0.7-0.1-1.7-0.1c-0.9,0-1.5,0.1-1.6,0.1c-0.1,0-0.1-0.1-0.1-0.2V71c0-0.1,0.1-0.2,0.2-0.2h0.5c0.2,0,0.3-0.1,0.4-0.4
		c0-0.5,0-1,0-1.5v-2.3c0-0.7,0-1.2-0.5-1.6c-0.4-0.3-0.9-0.3-1.3-0.3c-0.3,0-0.9,0.1-1.4,0.7c-0.4,0.4-0.4,0.9-0.4,1.2v3.7
		c0,0.5,0.1,0.6,0.4,0.6h0.4c0.1,0,0.2,0.1,0.2,0.2v0.3c0,0.1,0,0.2-0.1,0.2c-0.1,0-0.6-0.1-1.5-0.1c-0.9,0-1.5,0.1-1.6,0.1
		c-0.1,0-0.1-0.1-0.1-0.2V71c0-0.1,0-0.2,0.2-0.2h0.5c0.2,0,0.4-0.1,0.4-0.4v-4.2c0-0.5-0.3-0.8-0.7-1l-0.1-0.1
		c-0.1-0.1-0.1-0.1-0.1-0.2V65c0-0.1,0.1-0.1,0.2-0.2l1.5-0.9c0.1-0.1,0.2-0.1,0.3-0.1c0.1,0,0.1,0.1,0.1,0.2l0.1,1.1h0
		c0.5-0.6,1.5-1.3,2.4-1.3c0.5,0,1.1,0.1,1.5,0.4c0.5,0.4,1,1.2,1,1.7V70.5z"/>
	<path fill="#FFFFFF" d="M42.7,67.1c0,1,0.4,2,0.9,2.7c0.6,0.8,1.3,0.9,1.9,0.9c0.9,0,1.3-0.2,2-0.8c0,0,0.1-0.1,0.1,0l0.2,0.2
		c0.1,0.1,0.1,0.1,0,0.2c-0.5,0.6-1.7,1.3-2.9,1.3c-0.9,0-1.9-0.2-2.8-1.2c-0.7-0.9-0.8-1.6-0.8-2.4c0-2.1,1.5-4.2,3.8-4.2
		c1.8,0,2.4,1.1,2.4,1.4c0,0.4-0.3,0.6-0.7,0.6c-0.4,0-0.7-0.2-1-0.7c-0.4-0.7-0.8-0.8-1.2-0.8C43.8,64.4,42.7,65.3,42.7,67.1z"/>
	<path fill="#FFFFFF" d="M49.2,70.4c-0.8-1-1-1.6-1-2.9c0-0.9,0.5-2,1.5-2.9c0.9-0.7,1.8-0.9,2.4-0.9c1,0,2,0.5,2.5,1
		c0.8,0.8,1.2,1.7,1.2,2.9c0,1.9-1.7,3.9-3.9,3.9C51,71.6,49.9,71.3,49.2,70.4z M54.3,67.6c0-2-1.4-3.2-2.3-3.2
		c-0.5,0-0.9,0.1-1.4,0.6c-0.7,0.7-0.9,1.4-0.9,2.8c0,1,0.1,1.7,0.7,2.5c0.4,0.6,0.9,0.9,1.8,0.9C53.5,71.1,54.3,69.5,54.3,67.6z"/>
	<path fill="#FFFFFF" d="M58.9,66.1c0,0.9,0,3.6,0,4.2c0,0.3,0.1,0.6,0.5,0.6h0.8c0.2,0,0.2,0.1,0.2,0.2v0.3c0,0.1,0,0.2-0.1,0.2
		c-0.1,0-0.9-0.1-2-0.1c-1.1,0-1.8,0.1-2,0.1c-0.1,0-0.1-0.1-0.1-0.2V71c0-0.1,0-0.2,0.2-0.2h0.9c0.2,0,0.4-0.1,0.4-0.4
		c0-0.6,0-3.6,0-4.6v-1.1c0-1.3,0-2.9-0.1-3.3c0-0.6-0.3-0.9-0.9-1.1l-0.4-0.1c-0.1,0-0.1-0.1-0.1-0.1v-0.1c0-0.1,0.1-0.1,0.2-0.1
		c0.6-0.3,1.4-0.6,2.1-1c0.2-0.1,0.3-0.1,0.4-0.1c0.1,0,0.2,0.1,0.1,0.3c0,1-0.1,4.7-0.1,5.6V66.1z"/>
	<path fill="#FFFFFF" d="M61.6,70.4c-0.8-1-1-1.6-1-2.9c0-0.9,0.5-2,1.5-2.9c0.9-0.7,1.8-0.9,2.4-0.9c1,0,2,0.5,2.5,1
		c0.8,0.8,1.2,1.7,1.2,2.9c0,1.9-1.7,3.9-3.9,3.9C63.4,71.6,62.3,71.3,61.6,70.4z M66.7,67.6c0-2-1.4-3.2-2.3-3.2
		c-0.5,0-0.9,0.1-1.4,0.6c-0.7,0.7-0.9,1.4-0.9,2.8c0,1,0.1,1.7,0.7,2.5c0.4,0.6,0.9,0.9,1.8,0.9C65.9,71.1,66.7,69.5,66.7,67.6z"/>
	<path fill="#FFFFFF" d="M69.5,75.7c-0.6-0.4-0.9-0.9-0.9-1.4c0-1,1-1.8,1.9-2.1v-0.1c-0.7-0.2-1.2-0.7-1.2-1.2c0-0.9,1-1.5,1.6-1.7
		v0c-0.7-0.3-1.7-1.1-1.7-2.7c0-1.2,1-2.6,3-2.6c1.4,0,2.1,0.8,2.2,1c0.5-0.3,1.1-0.7,1.7-0.7c0.6,0,0.9,0.4,0.8,0.7
		c0,0.3-0.3,0.7-0.7,0.7c-0.3,0-0.5-0.1-0.6-0.3c-0.1-0.1-0.2-0.2-0.4-0.2c-0.1,0-0.3,0-0.6,0.1c0.1,0.4,0.3,0.7,0.3,1.3
		c0,0.7-0.2,1.4-0.7,1.9c-0.5,0.5-1.5,0.9-2.1,0.9c-0.4,0-0.6,0-0.9-0.1c-0.4,0.1-0.9,0.5-0.9,1c0,0.7,0.9,0.7,2.1,0.6
		c1.5-0.1,2.3,0.1,3.1,0.6c0.8,0.6,0.9,1.3,0.9,1.7c0,0.8-0.3,1.5-1.2,2.2c-0.5,0.3-1.5,0.8-3,0.8C71.4,76.3,70.4,76.2,69.5,75.7z
		 M75.4,73.9c0-1-0.8-1.8-2.6-1.7l-1.7,0.1c-0.6,0.1-1.4,0.7-1.4,1.7c0,0.4,0.3,1,0.7,1.2c0.6,0.4,1.2,0.5,2.5,0.5
		C73.5,75.7,75.5,75.2,75.4,73.9z M73.7,66.3c0-0.8-0.2-1.2-0.5-1.6c-0.2-0.2-0.6-0.4-0.9-0.4c-0.4,0-0.8,0.1-1.3,0.5
		c-0.6,0.6-0.6,1.4-0.6,2.1c0,0.6,0.2,1.2,0.6,1.5c0.3,0.3,0.6,0.4,1.1,0.4C73.3,68.9,73.7,67.4,73.7,66.3z"/>
	<path fill="#FFFFFF" d="M77,75.4c0-0.4,0.4-0.7,0.8-0.7c0.3,0,0.7,0.2,0.8,0.2c0.1,0,0.3,0,0.4-0.1c0.3-0.3,1.2-2.3,1.4-3
		c-0.1-0.4-2-6-2.1-6.4c-0.2-0.4-0.4-0.7-0.8-0.7H77c-0.1,0-0.1-0.1-0.1-0.2v-0.4c0-0.1,0-0.1,0.1-0.1c0.2,0,0.6,0.1,1.6,0.1
		c0.9,0,1.5-0.1,1.7-0.1c0.1,0,0.2,0.1,0.2,0.1v0.4c0,0.1,0,0.1-0.1,0.1H80c-0.2,0-0.3,0.1-0.2,0.4c0.1,0.4,1.3,4.3,1.5,4.7h0.1
		c0.2-0.3,1.7-4,1.8-4.4s0-0.7-0.3-0.7h-0.3c-0.1,0-0.1-0.1-0.1-0.1v-0.4c0-0.1,0-0.1,0.1-0.1c0.2,0,0.6,0.1,1.5,0.1
		c0.5,0,0.9-0.1,1.1-0.1c0.1,0,0.1,0.1,0.1,0.1v0.3c0,0.1,0,0.2-0.1,0.2h-0.3c-0.2,0-0.4,0.1-0.6,0.3c-0.4,0.5-1.6,3.2-2.8,6
		c-0.9,2-1.6,3.6-1.9,4.2c-0.2,0.5-0.6,1.2-1.5,1.2C77.3,76.3,77,75.9,77,75.4z"/>
</g>
</svg>
