<svg id="Layer_1" data-name="Layer 1" xmlns="http://www.w3.org/2000/svg" viewBox="0 0 124.35 68.31"><defs><style>.cls-1{fill:#ea2128;}.cls-2{fill:#071348;}</style></defs><title>lifecycle</title><path class="cls-1" d="M17.69,3.68l3.43,6.78,4.09-2.07,1.68,3.32-7.93,4L13.85,5.63Z"/><path class="cls-1" d="M37.24,0.28L36.51,11.57l-4.29-.28L33,0Z"/><path class="cls-1" d="M54.94,7.77l-2,3.13-3.6-2.29-0.52.82,3.2,2-1.91,3-3.2-2L45.26,15,41.64,12.7l6.08-9.54Z"/><path class="cls-1" d="M65.52,23.36l-2.91,1.41-2-4.13-0.87.42,1.71,3.55-2.59,1.25L57.15,22.3l-0.87.42,2,4.22-2.94,1.42-3.91-8.09,10.19-4.92Z"/><path class="cls-1" d="M69.1,39.83a8.6,8.6,0,0,1,0,3.43L65.47,44a5.8,5.8,0,0,0,.13-2.68c-0.27-1.33-1.1-2.42-2.76-2.08-1.43.29-1.79,1.58-1.53,2.85a4.92,4.92,0,0,0,1.2,2.59l-3.71.75a8,8,0,0,1-1.31-3.12c-0.65-3.23.38-6.59,4.47-7.42S68.47,36.76,69.1,39.83Z"/><path class="cls-1" d="M66.57,58l2.57-2.88L71,46.75,74.57,50,73,54l3.78-2,3.62,3.23L72.32,58l-2.57,2.88Z"/><path class="cls-1" d="M89.43,56.44a8.6,8.6,0,0,1,3.26,1.06L92.25,61.2a5.8,5.8,0,0,0-2.5-1c-1.35-.16-2.64.28-2.84,2-0.17,1.44.94,2.2,2.22,2.35A4.92,4.92,0,0,0,92,64.22L91.51,68a8,8,0,0,1-3.37.26c-3.27-.4-6.14-2.43-5.64-6.57S86.32,56.07,89.43,56.44Z"/><path class="cls-1" d="M101.67,53.92l3.64,6.67,4-2.2,1.78,3.26-7.8,4.26L97.89,56Z"/><path class="cls-1" d="M113.18,39.6L116.11,41l-1.94,4.16L115,45.54,116.72,42l2.61,1.22-1.67,3.57,0.88,0.41,2-4.25,3,1.38-3.8,8.14-10.25-4.79Z"/><path class="cls-2" d="M103.76,15.38l7.31-8.63,3.28,2.78L107,18.16Z"/><path class="cls-2" d="M53.94,61.19a8.6,8.6,0,0,1-3,1.65L48.55,60A5.8,5.8,0,0,0,51,58.83c1-.87,1.6-2.12.51-3.42-0.93-1.11-2.25-.82-3.24,0a4.92,4.92,0,0,0-1.71,2.29l-2.43-2.9a8,8,0,0,1,2.11-2.64c2.53-2.12,6-2.81,8.65.38S56.34,59.18,53.94,61.19Z"/><path class="cls-2" d="M35.89,56.67L36,60.53l4.48,7.3L35.66,68,34,64.08l-1.38,4-4.85.17,4-7.6-0.14-3.86Z"/><path class="cls-2" d="M11.72,61a8.6,8.6,0,0,1-2.33-2.51l2.19-3a5.79,5.79,0,0,0,1.72,2.07c1.1,0.8,2.44,1,3.44-.34,0.85-1.18.25-2.38-.8-3.14A4.92,4.92,0,0,0,13.29,53l2.22-3.06a8,8,0,0,1,3.07,1.41c2.67,1.94,4.18,5.11,1.73,8.49S14.26,62.86,11.72,61Z"/><path class="cls-2" d="M0,42.5l7.35-1.91L6.2,36.15l3.6-.93L12,43.81l-11,2.84Z"/><path class="cls-2" d="M3.66,16.2l3,1.31L4.77,21.7l0.89,0.39,1.59-3.61,2.63,1.16L8.29,23.25l0.89,0.39,1.89-4.29,3,1.32L10.42,28.9,0.07,24.33Z"/><path class="cls-2" d="M112.26,26.91l7.22-2.37L118,20.18,121.57,19l2.78,8.45L113.6,31Z"/><path class="cls-2" d="M89.55,11l0.52-3.68,4.22,0.6,0.14-1-3.76-.53,0.5-3.52,3.76,0.53,0.43-3L99.62,1,98,12.22Z"/><path class="cls-2" d="M75.23,17l-1.67-2.77,3.93-2.37L77,11l-3.38,2-1.48-2.46,3.38-2L75,7.72l-4,2.42-1.68-2.8L77,2.71l5.84,9.69Z"/></svg>