<?xml version="1.0" encoding="utf-8"?>
<!-- Generator: Adobe Illustrator 19.2.1, SVG Export Plug-In . SVG Version: 6.00 Build 0)  -->
<svg version="1.1" id="Layer_1" xmlns="http://www.w3.org/2000/svg" xmlns:xlink="http://www.w3.org/1999/xlink" x="0px" y="0px"
	 viewBox="0 0 178.8 93.8" enable-background="new 0 0 178.8 93.8" xml:space="preserve">
<g>
	<path fill="#A6A6A6" d="M66.1,64.4H57V33h9.2c9,0,13.6,5.6,13.6,15.6C79.8,58.9,74.8,64.4,66.1,64.4z M73.7,48.7
		c0-6.7-2.6-9.9-7.7-9.9h-3.4v19.8h3.2C71.3,58.6,73.6,54.9,73.7,48.7L73.7,48.7z"/>
	<path fill="#A6A6A6" d="M85.2,64.4V33h5.8v31.4C90.9,64.4,85.2,64.4,85.2,64.4z"/>
	<path fill="#A6A6A6" d="M117.7,64.4V47.2l-7.1,17.9h-0.2l-7-17.6v16.7h-5.8V33h5.9l7,17.2l7-17.2h5.9v31.4
		C123.4,64.4,117.7,64.4,117.7,64.4z"/>
	<path fill="#A6A6A6" d="M129.5,64.4V33h19.6v5.8h-13.9V44h11.3v5.8h-11.3v8.9h14.5v5.8H129.5z"/>
	<path fill="#A6A6A6" d="M165.9,65.2c-6.4,0-12.9-5.8-12.9-16.6S159.3,32,165.9,32c6.6,0,12.9,5.7,12.9,16.6
		C178.7,60,172,65.2,165.9,65.2z M172.7,48.8c0-7.2-3.1-10.7-6.8-10.7s-6.9,3.1-6.9,10.6c0,7.1,3.3,10.6,6.9,10.6
		C169.5,59.3,172.7,56.1,172.7,48.8L172.7,48.8z"/>
</g>
<g>
	<path fill="#A6A6A6" d="M3.1,53.3v-28c-0.5-0.2-0.9-0.2-1.5,0.1v29.1L3.1,53.3z"/>
	<polygon fill="#A6A6A6" points="3.4,52 1.4,52 1.4,53.7 0,56.1 2.4,66.6 4.8,56.1 3.5,53.7 	"/>
</g>
<path fill="#C8C8C8" d="M1.6,0v26.3c1.8-0.5,3.8-0.7,5.8-0.7c12.3,0,22.2,10,22.2,22.2s-10,22.2-22.2,22.2c-2,0-3.9-0.3-5.8-0.7
	v24.5C22.5,88.5,38,69.5,38,47C38,24.3,22.5,5.4,1.6,0z"/>
</svg>
