<?xml version="1.0" encoding="utf-8"?>
<!-- Generator: Adobe Illustrator 19.1.0, SVG Export Plug-In . SVG Version: 6.00 Build 0)  -->
<!DOCTYPE svg PUBLIC "-//W3C//DTD SVG 1.1//EN" "http://www.w3.org/Graphics/SVG/1.1/DTD/svg11.dtd">
<svg version="1.1" id="Layer_1" xmlns="http://www.w3.org/2000/svg" xmlns:xlink="http://www.w3.org/1999/xlink" x="0px" y="0px"
	 viewBox="-478.6 352.7 90 64.7" style="enable-background:new -478.6 352.7 90 64.7;" xml:space="preserve">
<style type="text/css">
	.st0{fill:#B2B2B2;}
	.st1{fill:#FFFFFF;}
</style>
<rect x="-466" y="352.7" class="st0" width="64.8" height="64.8"/>
<path class="st1" d="M-463.5,417.5c0-0.1-0.6-14.3,6.8-29c4.3-8.7,10.5-15.9,18.4-21.5c9.8-7,22.2-11.3,37.1-13v0.4
	c-14.9,1.6-27.1,5.9-36.9,12.8c-7.8,5.5-14,12.7-18.3,21.3c-7.3,14.8-6.8,28.8-6.7,28.9H-463.5z"/>
<path class="st1" d="M-439.4,417.5c0-0.1-0.1-8.9,4.5-18.1c2.7-5.3,6.7-9.8,11.5-13.1c6-4.1,13.1-6.6,22.1-7.3v0.4
	c-8.9,0.7-16,3.1-21.9,7.3c-4.8,3.3-8.6,7.6-11.3,13c-4.6,9.1-4.5,17.8-4.5,17.9H-439.4z"/>
<path class="st1" d="M-424,417.5h-0.4c0-0.1,0.3-5.8,3.2-11.3c1.7-3.3,4.2-5.9,7-7.7c3.5-2.3,7.7-3.5,12.9-3.4v0.4
	c-5-0.1-9.2,1.1-12.7,3.3c-2.8,1.8-5.1,4.4-6.8,7.6C-423.7,411.8-424,417.4-424,417.5z"/>
<path class="st1" d="M-414.1,417.5h-0.4c0,0,0.1-3.3,1.7-6.6c1.5-3,4.6-6.7,11.5-6.9v0.4c-5.4,0.1-9.1,2.4-11.2,6.7
	C-414,414.2-414.1,417.4-414.1,417.5z"/>
<g>
	<path class="st1" d="M-455.4,370.2c0-1.2,0-1.8-0.1-2.4c0-0.5-0.1-1.7-0.1-1.9c-0.1-0.3-0.4-0.5-0.6-0.5h-0.4
		c-0.1,0-0.1-0.1-0.1-0.1v-0.4c0-0.1,0-0.1,0.1-0.1c0.1,0,0.6,0.1,1.5,0.1c0.8,0,1.1-0.1,1.2-0.1c0.1,0,0.1,0,0.1,0.1v0.3
		c0,0.1,0,0.1-0.1,0.1h-0.4c-0.2,0-0.4,0.2-0.4,0.6c-0.1,0.9-0.3,3.7-0.3,5.4v2.2c0,0.2,0,0.4-0.2,0.4s-0.4-0.1-0.5-0.2
		c-0.2-0.2-0.9-0.9-1.6-1.8c-0.9-1.1-1.9-2.3-2.2-2.6c-0.3-0.1-2.1-2.3-2.4-2.7h-0.1v2.6c0,1.1,0.1,2.7,0.1,3.1
		c0,0.7,0.3,1.2,0.8,1.2h0.3c0.1,0,0.1,0.1,0.1,0.1v0.3c0,0.1,0,0.1-0.1,0.1c-0.1,0-0.9-0.1-1.5-0.1c-0.4,0-1.3,0.1-1.4,0.1
		c-0.1,0-0.1,0-0.1-0.1v-0.3c0-0.1,0-0.1,0.1-0.1h0.4c0.3,0,0.5-0.4,0.6-1.3c0-0.2,0.1-2.3,0.1-4.2v-1.2c0-0.7-0.4-1.4-1.1-1.5h-0.3
		c-0.1,0-0.1-0.1-0.1-0.1v-0.4c0-0.1,0-0.1,0.1-0.1c0.1,0,0.1,0,0.4,0c0.3,0,0.6,0,1.3,0c0.4,0,0.8,0,0.9,0s0.3,0.1,0.4,0.1
		c0.1,0.1,2.6,3.2,3,3.6c0.1,0.2,2,2.6,2.2,2.7h0.1C-455.4,371.3-455.4,370.2-455.4,370.2z"/>
	<path class="st1" d="M-452.8,373.2c-0.5-0.5-0.6-1.2-0.6-2c0-0.6,0.3-1.5,1.1-2.1c0.6-0.5,1.3-0.6,1.9-0.6c0.9,0,1.5,0.3,2.1,0.8
		c0.6,0.6,0.9,1.2,0.9,2c0,0.7-0.3,1.4-0.8,2c-0.6,0.6-1.4,0.9-2.2,0.9C-451.6,374.1-452.2,373.9-452.8,373.2z M-449.5,371.1
		c0-1.5-0.5-2.2-1.1-2.2c-0.3,0-0.5,0.1-0.7,0.4c-0.3,0.4-0.4,0.9-0.4,2c0,0.7,0.1,1.2,0.3,1.8c0.1,0.4,0.4,0.6,0.9,0.6
		C-449.9,373.5-449.5,372.5-449.5,371.1z"/>
	<path class="st1" d="M-444.8,373c0,0.4,0.1,0.5,0.4,0.5h0.5c0.1,0,0.1,0.1,0.1,0.1v0.3c0,0.1,0,0.1-0.1,0.1c-0.1,0-0.6-0.1-1.8-0.1
		c-1,0-1.5,0.1-1.6,0.1c-0.1,0-0.1,0-0.1-0.1v-0.2c0-0.1,0-0.1,0.1-0.1h0.4c0.2,0,0.3-0.1,0.4-0.3c0-0.4,0-0.8,0-1.4v-1.2
		c0-0.6-0.1-0.8-0.5-1l-0.3-0.1c-0.1-0.1-0.1-0.1-0.1-0.1v-0.1c0-0.1,0-0.1,0.1-0.1l1.8-0.8c0.1,0,0.1-0.1,0.2-0.1
		c0.1,0,0.1,0.1,0.1,0.1l0.1,1h0.1c0.4-0.9,0.9-1.2,1.5-1.2c0.4,0,0.6,0.3,0.6,0.7c0,0.4-0.4,0.7-0.8,0.7c-0.1,0-0.4-0.1-0.4-0.1
		s-0.2-0.1-0.3-0.1c-0.1,0-0.3,0.1-0.4,0.2c-0.1,0.4-0.2,0.6-0.2,0.7C-444.8,370.4-444.8,373-444.8,373z"/>
	<path class="st1" d="M-440.2,372c0,1.1,0.4,1.3,0.7,1.3s0.4-0.1,0.6-0.1c0.1,0,0.1,0,0.1,0.1l0.1,0.2c0.1,0.1,0,0.1-0.1,0.1
		c-0.2,0.1-0.8,0.5-1.8,0.5c-0.9,0-1.4-0.6-1.4-1.2c0-0.4,0-1.4,0-1.9v-1.7h-0.7c-0.1,0-0.2-0.1-0.2-0.1c0-0.1,0.1-0.2,0.3-0.3
		c0.4-0.2,1.5-1.2,1.9-1.7c0.1-0.1,0.1-0.1,0.2-0.1c0.1,0,0.1,0.1,0.1,0.2l-0.1,1.4h1.7c0.1,0,0.1,0.1,0.1,0.1v0.4
		c0,0.1-0.1,0.1-0.1,0.1h-1.5c0,0.5,0,1.2,0,1.7L-440.2,372L-440.2,372z"/>
	<path class="st1" d="M-436.3,373c0,0.4,0.1,0.5,0.2,0.5h0.3c0.1,0,0.1,0,0.1,0.1v0.2c0,0.1,0,0.1-0.1,0.1c-0.1,0-0.7-0.1-1.4-0.1
		c-0.9,0-1.4,0.1-1.5,0.1c-0.1,0-0.1-0.1-0.1-0.1v-0.3c0-0.1,0.1-0.1,0.2-0.1h0.2c0.2,0,0.4-0.1,0.4-0.2c0-0.1,0-0.4,0-0.8v-5.3
		c0-0.6-0.1-1-0.6-1.2l-0.2-0.1c-0.1-0.1-0.1-0.1-0.1-0.1v-0.1c0-0.1,0.1-0.1,0.2-0.1c0.7-0.2,1.2-0.4,1.9-0.8
		c0.1-0.1,0.3-0.1,0.4-0.1s0.1,0.1,0.1,0.3c0,0.2-0.1,2.8-0.1,3.6v0.8h0.1c0.3-0.5,0.9-0.8,1.7-0.8c0.6,0,0.9,0.1,1.3,0.5
		c0.6,0.5,0.6,1.2,0.6,1.9v0.8c0,0.6,0,1.4,0,1.7c0,0.1,0.3,0.2,0.4,0.2h0.2c0.1,0,0.1,0,0.1,0.1v0.3c0,0.1,0,0.1-0.1,0.1
		s-0.5-0.1-1.4-0.1c-0.9,0-1.4,0.1-1.4,0.1s-0.1-0.1-0.1-0.1v-0.2c0-0.1,0-0.1,0.1-0.1h0.1c0.1,0,0.3-0.1,0.3-0.2
		c0-0.1,0.1-0.9,0.1-1.2v-0.8c0-0.6,0.1-1.5-0.3-1.9c-0.1-0.1-0.4-0.2-0.6-0.2c-0.3,0-0.6,0.2-0.7,0.4c-0.1,0.1-0.2,0.3-0.2,0.6v2.7
		H-436.3z"/>
	<path class="st1" d="M-429.9,372.3c0.1,0.5,0.2,1.2,0.6,1.2h0.5c0.1,0,0.1,0.1,0.1,0.1v0.4c0,0.1,0,0.1-0.1,0.1
		c-0.1,0-0.5-0.1-1.4-0.1c-1.1,0-1.5,0.1-1.7,0.1c-0.1,0-0.1,0-0.1-0.1v-0.3c0-0.1,0-0.1,0.1-0.1h0.5c0.4,0,0.6-0.6,0.6-1
		c0.1-0.9,0.2-4,0.2-4.2v-1.9c0-0.6-0.1-0.9-0.7-0.9h-0.4c-0.1,0-0.1-0.1-0.1-0.1v-0.4c0-0.1,0-0.1,0.1-0.1c0.1,0,0.5,0.1,2,0.1
		c0.6,0,1-0.1,1.2-0.1c0.1,0,0.2,0,0.3,0.2c0.8,2.2,1.7,4.3,2.4,6.2c0.1-0.2,1.1-2.6,1.2-2.8c0.1-0.1,1.3-3.2,1.4-3.5
		c0.1-0.1,0.2-0.1,0.6-0.1c2,0,2.4-0.1,2.6-0.1c0.1,0,0.1,0.1,0.1,0.1v0.3c0,0.1,0,0.1-0.1,0.1h-0.5c-0.3,0-0.4,0.2-0.4,0.5
		c0,0.2,0,3.3,0,3.6c0,0.3,0.1,3,0.1,3.3c0,0.5,0.1,0.7,0.3,0.7h0.6c0.1,0,0.1,0.1,0.1,0.1v0.3c0,0.1,0,0.1-0.1,0.1
		s-0.4-0.1-1.9-0.1c-1.3,0-1.8,0.1-1.9,0.1c-0.1,0-0.1-0.1-0.1-0.1v-0.3c0-0.1,0-0.1,0.1-0.1h0.7c0.2,0,0.4-0.1,0.4-0.4
		c0-0.1,0.1-2.4,0.1-3.4v-3.9h-0.1c-0.1,0.2-1.6,3.7-1.8,4.2c-0.3,0.6-1.4,3.5-1.4,3.5c-0.1,0.1-0.1,0.3-0.3,0.3
		c-0.1,0-0.1-0.1-0.2-0.2c-0.1-0.1-1.7-4-1.8-4.3c-0.2-0.6-1.4-3.5-1.5-3.6c-0.1,0.1-0.1,3.4-0.1,3.5
		C-430,369.4-430,371.1-429.9,372.3z"/>
	<path class="st1" d="M-416.5,369.9c0-0.3,0-0.6-0.2-0.7c-0.1-0.1-0.4-0.1-0.5-0.1c-0.2,0-0.4,0.1-0.6,0.2c-0.2,0.1-0.1,0.4-0.1,0.7
		c0,0.4-0.3,0.7-0.9,0.7c-0.3,0-0.6-0.1-0.6-0.4c0-0.3,0.1-0.6,0.4-0.9c0.5-0.5,1.4-0.9,2.4-0.9c0.8,0,1,0.1,1.3,0.4
		c0.3,0.3,0.4,0.6,0.4,1.1v2.5c0,0.6,0.1,0.9,0.3,0.9c0.1,0,0.3-0.1,0.4-0.2c0.1-0.1,0.1-0.1,0.1-0.1l0.1,0.1c0.1,0,0.1,0.1,0.1,0.1
		c-0.1,0.3-0.5,0.9-1.3,0.9c-0.5,0-0.9-0.1-1.2-0.8h-0.1c-0.3,0.3-0.6,0.5-1.1,0.6c-0.3,0.1-0.6,0.1-0.9,0.1c-0.4,0-0.9-0.5-0.9-1.2
		c0-0.6,0.3-1.2,1.1-1.6c1-0.5,1.3-0.6,1.7-0.9v-0.6H-416.5z M-416.5,371c-0.6,0.4-1.2,0.6-1.2,1.4c0,0.6,0.3,0.9,0.6,0.9
		c0.4,0,0.6-0.4,0.6-0.4C-416.5,372.9-416.5,371-416.5,371z"/>
	<path class="st1" d="M-410.9,374c-0.1,0-0.7-0.1-1.8-0.1c-0.7,0-1.2,0.1-1.4,0.1c-0.1,0-0.1,0-0.1-0.1v-0.3c0-0.1,0.1-0.1,0.1-0.1
		h0.5c0.1,0,0.2-0.1,0.2-0.3c0-0.4,0-0.8,0-1.2v-1.8c0-0.4-0.1-0.6-0.6-0.8c-0.1-0.1-0.1-0.1-0.1-0.1v-0.1c0-0.1,0-0.1,0.1-0.1
		l1.9-0.6c0.1-0.1,0.3-0.1,0.4-0.1c0.1,0,0.1,0.1,0.1,0.1c0,0.2,0,1,0,2.2v1.4c0,0.5,0,0.9,0,1.1c0,0.2,0.1,0.4,0.2,0.4h0.4
		c0.1,0,0.1,0.1,0.1,0.1v0.2C-410.8,373.9-410.8,374-410.9,374z M-412.7,367.4c-0.5,0-0.9-0.4-0.9-0.9c0-0.4,0.4-0.8,0.9-0.8
		c0.6,0,0.9,0.4,0.9,0.7C-411.7,366.9-411.9,367.4-412.7,367.4z"/>
	<path class="st1" d="M-408.3,369.1L-408.3,369.1c0.2-0.1,0.4-0.4,0.7-0.4c0.3-0.1,0.6-0.2,1-0.2c0.5,0,1,0.1,1.3,0.4
		c0.5,0.5,0.6,0.8,0.6,1.4v1.4c0,0.4,0,1-0.1,1.5c0,0.4,0.2,0.4,0.3,0.4h0.4c0.1,0,0.1,0.1,0.1,0.1v0.2c0,0.1,0,0.1-0.1,0.1
		c-0.1,0-0.5-0.1-1.5-0.1c-0.9,0-1.2,0.1-1.4,0.1c-0.1,0-0.1-0.1-0.1-0.1v-0.2c0-0.1,0.1-0.1,0.1-0.1h0.1c0.1,0,0.2-0.1,0.2-0.3
		c0.1-0.4,0.1-0.7,0.1-1.3v-1.4c0-0.5-0.1-0.8-0.3-1.1c-0.3-0.3-0.4-0.3-0.6-0.3s-0.4,0.1-0.6,0.3c-0.1,0.1-0.3,0.4-0.3,1v2.6
		c0,0.2,0.1,0.4,0.2,0.4h0.1c0.1,0,0.1,0.1,0.1,0.1v0.2c0,0.1,0,0.1-0.1,0.1s-0.4-0.1-1.3-0.1c-0.9,0-1.3,0.1-1.4,0.1
		s-0.1-0.1-0.1-0.1v-0.3c0-0.1,0-0.1,0.1-0.1h0.2c0.1,0,0.4-0.1,0.4-0.3v-2.8c0-0.4-0.2-0.6-0.5-0.7l-0.2-0.1
		c-0.1-0.1-0.1-0.1-0.1-0.1v-0.1c0-0.1,0.1-0.1,0.1-0.1l1.7-0.7c0.1-0.1,0.2-0.1,0.3-0.1s0.1,0.1,0.1,0.1L-408.3,369.1z"/>
</g>
<g>
	<path class="st1" d="M-450.4,383.2c0-0.9,0-1.8,0-2.2c0-0.4-0.1-0.6-0.5-0.6h-0.5c-0.1,0-0.1-0.1-0.1-0.1V380c0-0.1,0-0.1,0.1-0.1
		c0.1,0,0.5,0.1,1.6,0.1c0.7,0,1.9-0.1,2.2-0.1c1.1,0,1.9,0.3,2.4,0.8c0.4,0.4,0.6,1,0.6,1.4c0,1.6-0.7,2.2-2.4,2.6l0,0
		c0.3,0.1,0.5,0.4,0.6,0.5c0.1,0.1,1.1,1.4,1.2,1.7c0.1,0.1,0.9,1.3,1.2,1.4c0.3,0.2,0.6,0.2,0.9,0.2c0.1,0,0.1,0.1,0.1,0.1v0.3
		c0,0.1,0,0.1-0.1,0.1c-0.1,0-0.4-0.1-1-0.1c-0.4,0-0.9,0-1,0.1c-0.1-0.1-0.4-0.6-0.5-0.7c-0.1-0.1-0.8-1.4-0.9-1.4
		c-0.1-0.1-0.6-1-0.8-1.2c-0.4-0.4-0.6-0.7-1.4-0.7c-0.1,0-0.2,0-0.4,0.1v0.7c0,0.7,0,2.2,0,2.4c0,0.3,0.1,0.5,0.3,0.5h0.8
		c0.1,0,0.1,0.1,0.1,0.1v0.3c0,0.1,0,0.1-0.1,0.1c-0.1,0-0.4-0.1-1.7-0.1c-1.2,0-1.4,0.1-1.6,0.1c-0.1,0-0.1-0.1-0.1-0.1v-0.4
		c0-0.1,0-0.1,0.1-0.1h0.5c0.3,0,0.5-0.1,0.5-0.4c0-1.3,0-2.4,0-3.7V383.2z M-449.2,384.4c0.2,0.1,0.4,0.1,0.6,0.1
		c2.3,0,2.8-1.6,2.8-2.2s-0.3-1.2-0.6-1.4c-0.5-0.4-1.1-0.6-2.1-0.6c-0.1,0-0.3,0-0.4,0.1c-0.1,0.1-0.1,0.2-0.1,0.4L-449.2,384.4
		L-449.2,384.4z"/>
	<path class="st1" d="M-439.2,387.4c0,0.7,0.1,0.9,0.4,0.9s0.4-0.1,0.4-0.2c0.1-0.1,0.1-0.1,0.1-0.1l0.1,0.1c0.1,0.1,0.1,0.1,0,0.2
		c-0.1,0.2-0.4,0.6-1,0.6c-0.4,0-0.8-0.4-0.9-0.9l0,0c-0.3,0.3-0.7,0.6-1.3,0.8c-0.2,0.1-0.5,0.1-0.7,0.1c-0.3,0-0.8-0.3-0.8-1.1
		c0-0.6,0.3-1.1,1.3-1.5c0.6-0.3,1.2-0.6,1.4-0.7v-0.8c0-0.2-0.1-0.6-0.1-0.7c-0.1-0.1-0.4-0.3-0.8-0.3c-0.3,0-0.6,0.1-0.9,0.3
		s-0.1,0.4-0.1,0.6c0,0.4-0.1,0.7-0.6,0.7c-0.2,0-0.3-0.1-0.3-0.4c0-0.4,0.4-0.9,0.9-1.2c0.5-0.3,1-0.4,1.6-0.4s0.9,0.1,1,0.4
		c0.3,0.3,0.3,0.6,0.3,0.9v1.9C-439.2,386.7-439.2,387.4-439.2,387.4z M-440.1,386.2c-0.4,0.4-1.7,0.6-1.7,1.7
		c0,0.5,0.3,0.7,0.6,0.7s1.1-0.4,1.1-0.8V386.2z"/>
	<path class="st1" d="M-433.8,381.2c0-0.5-0.1-0.6-0.8-0.7c-0.1,0-0.1-0.1-0.1-0.1v-0.2c0-0.1,0-0.1,0.1-0.1
		c0.5-0.1,1.2-0.2,1.4-0.3c0.1,0,0.2-0.1,0.3-0.1c0.1,0,0.1,0.1,0.1,0.2c-0.1,0.6-0.1,2.5-0.1,4.2v2.8c0,0.5,0,1,0.1,1.2
		c0.1,0.1,0.4,0.2,0.6,0.2c0.1,0,0.2,0,0.3,0.1v0.1c0,0.1,0,0.1-0.1,0.1l-1.4,0.5c-0.1,0-0.1,0-0.1-0.1l-0.1-0.6
		c-0.4,0.4-1.2,0.7-1.9,0.7c-0.4,0-0.9,0-1.5-0.6c-0.6-0.6-0.8-1.2-0.8-2.1c0-0.8,0.3-1.6,0.9-2.2c0.5-0.5,1.2-0.8,1.9-0.8
		c0.5,0,1,0.1,1.4,0.2L-433.8,381.2L-433.8,381.2z M-433.8,385.3c0-0.1,0-0.4-0.1-0.6c-0.1-0.4-0.6-0.7-1.4-0.7
		c-0.4,0-0.9,0.1-1.2,0.4c-0.5,0.5-0.6,1.2-0.6,1.7c0,1.4,1,2.5,1.7,2.5c0.7,0,1.3-0.4,1.4-0.7c0.1-0.2,0.1-0.3,0.1-0.4
		L-433.8,385.3L-433.8,385.3z"/>
	<path class="st1" d="M-430.8,385.3c0-0.4-0.1-0.6-0.7-0.8c-0.1,0-0.1-0.1-0.1-0.1v-0.1c0-0.1,0-0.1,0.1-0.1
		c0.4-0.1,0.9-0.4,1.4-0.6c0.1-0.1,0.1-0.1,0.2-0.1s0.1,0.1,0.1,0.1c0,0.2,0,1,0,2.1v1.4c0,0.5,0,0.9,0,1.1c0,0.2,0.1,0.4,0.2,0.4
		h0.6c0.1,0,0.1,0.1,0.1,0.1v0.2c0,0.1,0,0.1-0.1,0.1c-0.1,0-0.7-0.1-1.2-0.1c-0.7,0-1.2,0.1-1.4,0.1c-0.1,0-0.1,0-0.1-0.1v-0.3
		c0-0.1,0.1-0.1,0.1-0.1h0.6c0.1,0,0.2-0.1,0.2-0.3c0-0.4,0-0.8,0-1.2C-430.8,387.2-430.8,385.3-430.8,385.3z M-431.4,381.4
		c0-0.3,0.3-0.6,0.8-0.6c0.4,0,0.6,0.4,0.6,0.6c0,0.4-0.2,0.7-0.7,0.7C-431,382-431.4,381.8-431.4,381.4z"/>
	<path class="st1" d="M-424.8,387.4c0,0.7,0.1,0.9,0.4,0.9c0.2,0,0.4-0.1,0.4-0.2c0.1-0.1,0.1-0.1,0.1-0.1l0.1,0.1
		c0.1,0.1,0.1,0.1,0,0.2c-0.1,0.2-0.4,0.6-1,0.6c-0.4,0-0.8-0.4-0.9-0.9l0,0c-0.3,0.3-0.7,0.6-1.3,0.8c-0.2,0.1-0.5,0.1-0.7,0.1
		c-0.3,0-0.8-0.3-0.8-1.1c0-0.6,0.3-1.1,1.3-1.5c0.6-0.3,1.2-0.6,1.4-0.7v-0.8c0-0.2-0.1-0.6-0.1-0.7c-0.1-0.1-0.4-0.3-0.8-0.3
		c-0.3,0-0.6,0.1-0.9,0.3c-0.1,0.1-0.1,0.4-0.1,0.6c0,0.4-0.1,0.7-0.6,0.7c-0.2,0-0.3-0.1-0.3-0.4c0-0.4,0.4-0.9,0.9-1.2
		c0.5-0.3,1-0.4,1.6-0.4s0.9,0.1,1,0.4c0.3,0.3,0.3,0.6,0.3,0.9v1.9C-424.8,386.7-424.8,387.4-424.8,387.4z M-425.7,386.2
		c-0.4,0.4-1.7,0.6-1.7,1.7c0,0.5,0.3,0.7,0.6,0.7c0.4,0,1.1-0.4,1.1-0.8V386.2z"/>
	<path class="st1" d="M-421.8,387.4c0,0.9,0.4,1.2,0.6,1.2c0.3,0,0.6-0.1,0.9-0.1c0.1-0.1,0.1,0,0.1,0l0.1,0.1c0.1,0.1,0,0.1,0,0.1
		c-0.1,0.1-0.6,0.5-1.4,0.5c-0.6,0-1.2-0.6-1.2-1.1s0.1-1.7,0.1-1.8V386c0-0.2,0-1.1,0-1.7h-0.8c-0.1,0-0.2-0.1-0.2-0.1
		s0.1-0.1,0.2-0.2c0.3-0.1,1.3-1.2,1.4-1.6c0.1-0.1,0.1-0.1,0.1-0.1s0.1,0.1,0.1,0.2l-0.1,1.3h1.8c0.1,0,0.1,0.1,0.1,0.1l-0.1,0.4
		c0,0.1-0.1,0.1-0.1,0.1h-1.7c0,0.6-0.1,1.2-0.1,1.8v1.2H-421.8z"/>
	<path class="st1" d="M-418.9,385.3c0-0.4-0.1-0.6-0.7-0.8c-0.1,0-0.1-0.1-0.1-0.1v-0.1c0-0.1,0-0.1,0.1-0.1
		c0.4-0.1,0.9-0.4,1.4-0.6c0.1-0.1,0.1-0.1,0.2-0.1c0.1,0,0.1,0.1,0.1,0.1c0,0.2,0,1,0,2.1v1.4c0,0.5,0,0.9,0,1.1
		c0,0.2,0.1,0.4,0.2,0.4h0.6c0.1,0,0.1,0.1,0.1,0.1v0.2c0,0.1,0,0.1-0.1,0.1c-0.1,0-0.7-0.1-1.2-0.1c-0.7,0-1.2,0.1-1.4,0.1
		c-0.1,0-0.1,0-0.1-0.1v-0.3c0-0.1,0.1-0.1,0.1-0.1h0.6c0.1,0,0.2-0.1,0.2-0.3c0-0.4,0-0.8,0-1.2V385.3L-418.9,385.3z M-419.5,381.4
		c0-0.3,0.3-0.6,0.8-0.6c0.4,0,0.6,0.4,0.6,0.6c0,0.4-0.2,0.7-0.7,0.7C-419.1,382-419.5,381.8-419.5,381.4z"/>
	<path class="st1" d="M-416,388.2c-0.6-0.7-0.7-1.2-0.7-2.1c0-0.6,0.4-1.4,1.1-2.1c0.6-0.5,1.3-0.6,1.7-0.6c0.7,0,1.4,0.4,1.8,0.7
		c0.6,0.6,0.9,1.2,0.9,2.1c0,1.4-1.2,2.8-2.8,2.8C-414.7,389.2-415.5,388.9-416,388.2z M-412.4,386.2c0-1.4-1-2.3-1.7-2.3
		c-0.4,0-0.6,0.1-1,0.4c-0.5,0.5-0.6,1-0.6,2c0,0.7,0.1,1.2,0.5,1.8c0.3,0.4,0.6,0.6,1.3,0.6C-412.9,388.7-412.4,387.6-412.4,386.2z
		"/>
	<path class="st1" d="M-405.5,388.3c0,0.2,0.1,0.3,0.3,0.3h0.4c0.1,0,0.1,0.1,0.1,0.1v0.2c0,0.1,0,0.1-0.1,0.1s-0.5-0.1-1.2-0.1
		c-0.6,0-1.1,0.1-1.2,0.1c-0.1,0-0.1-0.1-0.1-0.1v-0.3c0-0.1,0.1-0.1,0.1-0.1h0.4c0.1,0,0.2-0.1,0.3-0.3c0-0.4,0-0.7,0-1.1v-1.7
		c0-0.5,0-0.9-0.4-1.2c-0.3-0.2-0.6-0.2-0.9-0.2c-0.2,0-0.6,0.1-1,0.5c-0.3,0.3-0.3,0.6-0.3,0.9v2.7c0,0.4,0.1,0.4,0.3,0.4h0.3
		c0.1,0,0.1,0.1,0.1,0.1v0.2c0,0.1,0,0.1-0.1,0.1s-0.4-0.1-1.1-0.1c-0.6,0-1.1,0.1-1.2,0.1c-0.1,0-0.1-0.1-0.1-0.1v-0.3
		c0-0.1,0-0.1,0.1-0.1h0.4c0.1,0,0.3-0.1,0.3-0.3v-3c0-0.4-0.2-0.6-0.5-0.7l-0.1-0.1c-0.1-0.1-0.1-0.1-0.1-0.1v0.1
		c0-0.1,0.1-0.1,0.1-0.1l1.1-0.6c0.1-0.1,0.1-0.1,0.2-0.1s0.1,0.1,0.1,0.1l0.1,0.8l0,0c0.4-0.4,1.1-0.9,1.7-0.9
		c0.4,0,0.8,0.1,1.1,0.3c0.4,0.3,0.7,0.9,0.7,1.2v3.3H-405.5z"/>
</g>
<g>
	<path class="st1" d="M-450.7,403.4c-0.9-0.6-1.9-1.9-1.9-3.8c0-0.8,0.2-2,1.2-3.2c1.2-1.4,2.4-1.7,3.5-1.7c0.8,0,1.9,0.1,2.9,1
		c0.9,0.8,1.7,2.1,1.7,3.8c0,0.9-0.3,1.9-0.9,2.8c-0.8,1-1.9,1.8-3.7,1.8C-448.6,404.3-449.7,404.1-450.7,403.4z M-444.6,399.8
		c0-2.8-2-4.5-3.4-4.5c-0.2,0-1.1-0.1-2,0.7c-0.9,0.8-1.3,2.1-1.3,3.2c0,3.4,2.4,4.5,3.5,4.5C-445.1,403.8-444.6,400.9-444.6,399.8z
		"/>
	<path class="st1" d="M-437.4,403.4c0,0.2,0.1,0.3,0.3,0.3h0.4c0.1,0,0.1,0.1,0.1,0.1v0.2c0,0.1,0,0.1-0.1,0.1
		c-0.1,0-0.5-0.1-1.2-0.1c-0.6,0-1.1,0.1-1.2,0.1c-0.1,0-0.1-0.1-0.1-0.1v-0.3c0-0.1,0.1-0.1,0.1-0.1h0.4c0.1,0,0.2-0.1,0.3-0.3
		c0-0.4,0-0.7,0-1.1v-1.7c0-0.5,0-0.9-0.4-1.2c-0.3-0.2-0.6-0.2-0.9-0.2c-0.2,0-0.6,0.1-1,0.5c-0.3,0.3-0.3,0.6-0.3,0.9v2.7
		c0,0.4,0.1,0.4,0.3,0.4h0.3c0.1,0,0.1,0.1,0.1,0.1v0.2c0,0.1,0,0.1-0.1,0.1c-0.1,0-0.4-0.1-1.1-0.1c-0.6,0-1.1,0.1-1.2,0.1
		s-0.1-0.1-0.1-0.1v-0.3c0-0.1,0-0.1,0.1-0.1h0.4c0.1,0,0.3-0.1,0.3-0.3v-3c0-0.4-0.2-0.6-0.5-0.7l-0.1-0.1
		c-0.1-0.1-0.1-0.1-0.1-0.1v0.1c0-0.1,0.1-0.1,0.1-0.1l1.1-0.6c0.1-0.1,0.1-0.1,0.2-0.1c0.1,0,0.1,0.1,0.1,0.1l0.1,0.8l0,0
		c0.4-0.4,1.1-0.9,1.7-0.9c0.4,0,0.8,0.1,1.1,0.3c0.4,0.3,0.7,0.9,0.7,1.2v3.3H-437.4z"/>
	<path class="st1" d="M-435.3,401c0,0.7,0.3,1.4,0.6,1.9c0.4,0.6,0.9,0.6,1.4,0.6c0.6,0,0.9-0.1,1.4-0.6c0,0,0.1-0.1,0.1,0l0.1,0.1
		c0.1,0.1,0.1,0.1,0,0.1c-0.4,0.4-1.2,0.9-2.1,0.9c-0.6,0-1.4-0.1-2-0.9c-0.5-0.6-0.6-1.2-0.6-1.7c0-1.5,1.1-3,2.7-3
		c1.3,0,1.7,0.8,1.7,1c0,0.3-0.2,0.4-0.5,0.4s-0.5-0.1-0.7-0.5c-0.3-0.5-0.6-0.6-0.9-0.6C-434.5,399-435.3,399.7-435.3,401z"/>
	<path class="st1" d="M-430.6,403.4c-0.6-0.7-0.7-1.2-0.7-2.1c0-0.6,0.4-1.4,1.1-2.1c0.6-0.5,1.3-0.6,1.7-0.6c0.7,0,1.4,0.4,1.8,0.7
		c0.6,0.6,0.9,1.2,0.9,2.1c0,1.4-1.2,2.8-2.8,2.8C-429.3,404.2-430.1,404-430.6,403.4z M-426.9,401.3c0-1.4-1-2.3-1.7-2.3
		c-0.4,0-0.6,0.1-1,0.4c-0.5,0.5-0.6,1-0.6,2c0,0.7,0.1,1.2,0.5,1.8c0.3,0.4,0.6,0.6,1.3,0.6C-427.5,403.9-426.9,402.7-426.9,401.3z
		"/>
	<path class="st1" d="M-423.6,400.3c0,0.6,0,2.6,0,3c0,0.2,0.1,0.4,0.4,0.4h0.6c0.1,0,0.1,0.1,0.1,0.1v0.2c0,0.1,0,0.1-0.1,0.1
		c-0.1,0-0.6-0.1-1.4-0.1s-1.3,0.1-1.4,0.1c-0.1,0-0.1-0.1-0.1-0.1v-0.3c0-0.1,0-0.1,0.1-0.1h0.6c0.1,0,0.3-0.1,0.3-0.3
		c0-0.4,0-2.6,0-3.3v-0.8c0-0.9,0-2.1-0.1-2.4c0-0.4-0.2-0.6-0.6-0.8l-0.3-0.1c-0.1,0-0.1-0.1-0.1-0.1v-0.1c0-0.1,0.1-0.1,0.1-0.1
		c0.4-0.2,1-0.4,1.5-0.7c0.1-0.1,0.2-0.1,0.3-0.1c0.1,0,0.1,0.1,0.1,0.2c0,0.7-0.1,3.4-0.1,4C-423.6,399.2-423.6,400.3-423.6,400.3z
		"/>
	<path class="st1" d="M-421.7,403.4c-0.6-0.7-0.7-1.2-0.7-2.1c0-0.6,0.4-1.4,1.1-2.1c0.6-0.5,1.3-0.6,1.7-0.6c0.7,0,1.4,0.4,1.8,0.7
		c0.6,0.6,0.9,1.2,0.9,2.1c0,1.4-1.2,2.8-2.8,2.8C-420.4,404.2-421.2,404-421.7,403.4z M-418,401.3c0-1.4-1-2.3-1.7-2.3
		c-0.4,0-0.6,0.1-1,0.4c-0.5,0.5-0.6,1-0.6,2c0,0.7,0.1,1.2,0.5,1.8c0.3,0.4,0.6,0.6,1.3,0.6C-418.6,403.9-418,402.7-418,401.3z"/>
	<path class="st1" d="M-416,407.2c-0.4-0.3-0.6-0.6-0.6-1c0-0.7,0.7-1.3,1.4-1.5v-0.1c-0.5-0.1-0.9-0.5-0.9-0.9
		c0-0.6,0.7-1.1,1.2-1.2l0,0c-0.5-0.2-1.2-0.8-1.2-1.9c0-0.9,0.7-1.9,2.2-1.9c1,0,1.5,0.6,1.6,0.7c0.4-0.2,0.8-0.5,1.2-0.5
		s0.6,0.3,0.6,0.5c0,0.2-0.2,0.5-0.5,0.5c-0.2,0-0.4-0.1-0.4-0.2c-0.1-0.1-0.1-0.1-0.3-0.1c-0.1,0-0.2,0-0.4,0.1
		c0.1,0.3,0.2,0.5,0.2,0.9c0,0.5-0.1,1-0.5,1.4c-0.4,0.4-1.1,0.6-1.5,0.6c-0.3,0-0.4,0-0.6-0.1c-0.3,0.1-0.6,0.4-0.6,0.7
		c0,0.5,0.6,0.5,1.5,0.4c1.1-0.1,1.7,0.1,2.2,0.4c0.6,0.4,0.6,0.9,0.6,1.2c0,0.6-0.2,1.1-0.9,1.6c-0.4,0.2-1.1,0.6-2.2,0.6
		C-414.6,407.6-415.3,407.5-416,407.2z M-411.7,405.9c0-0.7-0.6-1.3-1.9-1.2l-1.2,0.1c-0.4,0.1-1,0.5-1,1.2c0,0.3,0.2,0.7,0.5,0.9
		c0.4,0.3,0.9,0.4,1.8,0.4C-413.1,407.2-411.7,406.8-411.7,405.9z M-412.9,400.4c0-0.6-0.1-0.9-0.4-1.2c-0.1-0.1-0.4-0.3-0.6-0.3
		c-0.3,0-0.6,0.1-0.9,0.4c-0.4,0.4-0.4,1-0.4,1.5c0,0.4,0.1,0.9,0.4,1.1c0.2,0.2,0.4,0.3,0.8,0.3
		C-413.2,402.3-412.9,401.2-412.9,400.4z"/>
	<path class="st1" d="M-410.6,406.9c0-0.3,0.3-0.5,0.6-0.5c0.2,0,0.5,0.1,0.6,0.1s0.2,0,0.3-0.1c0.2-0.2,0.9-1.7,1-2.2
		c-0.1-0.3-1.4-4.3-1.5-4.6c-0.1-0.3-0.3-0.5-0.6-0.5h-0.4c-0.1,0-0.1-0.1-0.1-0.1v-0.3c0-0.1,0-0.1,0.1-0.1c0.1,0,0.4,0.1,1.2,0.1
		c0.6,0,1.1-0.1,1.2-0.1c0.1,0,0.1,0.1,0.1,0.1v0.3c0,0.1,0,0.1-0.1,0.1h-0.3c-0.1,0-0.2,0.1-0.1,0.3c0.1,0.3,0.9,3.1,1.1,3.4h0.1
		c0.1-0.2,1.2-2.9,1.3-3.2c0.1-0.3,0-0.5-0.2-0.5h-0.2c-0.1,0-0.1-0.1-0.1-0.1v-0.3c0-0.1,0-0.1,0.1-0.1c0.1,0,0.4,0.1,1.1,0.1
		c0.4,0,0.6-0.1,0.8-0.1c0.1,0,0.1,0.1,0.1,0.1v0.2c0,0.1,0,0.1-0.1,0.1h-0.2c-0.1,0-0.3,0.1-0.4,0.2c-0.3,0.4-1.2,2.3-2,4.3
		c-0.6,1.4-1.2,2.6-1.4,3c-0.1,0.4-0.4,0.9-1.1,0.9C-410.4,407.6-410.6,407.3-410.6,406.9z"/>
</g>
</svg>
