<?xml version="1.0" encoding="utf-8"?>
<!-- Generator: Adobe Illustrator 19.2.1, SVG Export Plug-In . SVG Version: 6.00 Build 0)  -->
<svg version="1.1" id="Layer_1" xmlns="http://www.w3.org/2000/svg" xmlns:xlink="http://www.w3.org/1999/xlink" x="0px" y="0px"
	 viewBox="0 0 95 95" enable-background="new 0 0 95 95" xml:space="preserve">
<g>
	<path fill="#EC1C24" d="M61.1,43.9c-4.8,0-8.7,3.7-9,8.4c0.9-2.7,3.5-4.7,6.5-4.7c3.8,0,6.8,3.1,6.8,6.9c0,3.8-3.1,6.9-6.8,6.9
		c-0.4,0-0.8,0-1.2-0.1c1.1,0.5,2.4,0.8,3.7,0.8c5,0,9-4.1,9-9.1C70.1,47.9,66.1,43.9,61.1,43.9z"/>
	<path fill="#EC1C24" d="M35.8,58.9c-3.9,0-7.1-3.2-7.1-7.1c0-3.9,3.2-7.1,7.1-7.1c1,0,2,0.2,2.8,0.6c-1.4-0.9-3-1.4-4.7-1.4
		c-5,0-9,4.1-9,9.1c0,5,4,9.1,9,9.1c5,0,9-4.1,9-9.1c0-0.2,0-0.4,0-0.6C42.6,56,39.5,58.9,35.8,58.9z"/>
	<ellipse fill="#EC1C24" cx="55.5" cy="31.5" rx="2.8" ry="2.8"/>
	<path fill="#EC1C24" d="M33.9,36.3c9.2,9.2,10.3,14.5,11.5,21.9l0,0c1.4-6.9,0.6-13.8,0.1-15.2C42.8,40.6,34.8,36.8,33.9,36.3z"/>
	<path fill="#EC1C24" d="M33.9,35.9c5.3,1.5,14.6,6.6,16.7,8.6c-0.3,1-1.9,4-3.3,6.4l0,0c4.1-2.1,8.5-6.7,9.3-8.8
		C51.1,38.8,38.5,36.5,33.9,35.9z"/>
	<path fill="#EC1C24" d="M50.1,32.7c-2,0.2-11.1,1.2-16.2,2.8c8.6,0.2,22.9,3.5,31.5,6.6C62.2,39.7,54.2,34.9,50.1,32.7z"/>
	<g>
		<path fill="#FFFFFF" d="M19.4,26l-8.7-9l4.2-4c1.9-1.9,4.5-3,6.9-0.5c1.3,1.4,1.5,2.9,1,4.2l5.3,0.9l-3.3,3.2l-4.4-0.9l-0.7,0.7
			l2.6,2.7L19.4,26z M17.7,18.2l1.1-1.1c0.6-0.6,0.6-1.2,0.1-1.7c-0.5-0.5-1.1-0.5-1.7,0l-1.1,1.1L17.7,18.2z"/>
		<path fill="#FFFFFF" d="M29.7,3.3l5.2,11.4l-3.7,1.7L26,5L29.7,3.3z"/>
		<path fill="#FFFFFF" d="M42.9,0c4.5-0.4,6.7,2,7,5.7c0.3,3.7-1.4,6.4-5.9,6.8L38.7,13L37.6,0.5L42.9,0z M43.1,3.5L42,3.6l0.5,5.6
			l1.2-0.1c1.5-0.1,2.3-1,2.1-3C45.6,4.1,44.6,3.4,43.1,3.5z"/>
		<path fill="#FFFFFF" d="M66.4,3.5l-1,3.1L60.3,5l-0.4,1.4l4.5,1.4l-0.9,2.9L59,9.3l-0.4,1.4l5.2,1.6l-1,3.1l-9.1-2.9l3.8-12
			L66.4,3.5z"/>
		<path fill="#FFFFFF" d="M70,20.1l9.4-8.3l3.8,4.4c1.7,2,2.7,4.7,0.2,6.9c-1.5,1.3-2.9,1.4-4.2,0.9L78,29.3l-3-3.4l1.1-4.4
			l-0.6-0.7l-2.8,2.4L70,20.1z M77.8,18.7l1,1.2c0.5,0.6,1.2,0.6,1.7,0.2c0.5-0.5,0.6-1.1,0-1.7l-1-1.2L77.8,18.7z"/>
		<path fill="#FFFFFF" d="M93.2,34.2c1.2,4.3-1,7.3-4.4,8.3c-3.4,1-6.9-0.4-8.1-4.7c-1.2-4.3,1-7.3,4.4-8.3
			C88.5,28.5,91.9,29.8,93.2,34.2z M89.6,35.2c-0.4-1.6-1.7-2.1-3.4-1.7c-1.6,0.5-2.4,1.7-2,3.2c0.4,1.6,1.7,2.1,3.4,1.7
			C89.2,38,90,36.8,89.6,35.2z"/>
		<path fill="#FFFFFF" d="M93,61.1l-7.5-1.3c-3.8-0.7-4.6-3.7-4.1-6.6c0.5-2.9,2.2-5.5,6-4.9l7.5,1.3l-0.7,4.1L87,52.5
			c-1.1-0.2-1.7,0.3-1.9,1.4c-0.2,1.1,0.2,1.8,1.3,2l7.3,1.3L93,61.1z"/>
		<path fill="#FFFFFF" d="M79.3,62.5l10.2,7.2l-2,2.9l-7.2,0.1c0.7,0.4,1.3,0.8,1.8,1.1l3,2.1l-2.4,3.4l-10.2-7.2l2-2.9l7.2-0.1
			c-0.7-0.4-1.2-0.7-1.8-1.1L77,65.9L79.3,62.5z"/>
		<path fill="#FFFFFF" d="M71.2,88.3c-3.9,2.2-6.9,1-8.7-2.2c-1.8-3.2-1.4-6.4,2.5-8.7l4.7-2.7l6.2,10.9L71.2,88.3z M69.6,85.3
			l1-0.6l-2.8-4.8l-1,0.6c-1.3,0.7-1.7,1.8-0.7,3.6C67.2,85.8,68.3,86,69.6,85.3z"/>
		<path fill="#FFFFFF" d="M51.2,82.5L50.5,95l-5.8-0.3c-2.7-0.1-5.2-1.3-5.1-4.7c0.1-1.9,1.1-3.1,2.3-3.6l-3-4.5l4.5,0.2l2.4,3.8
			l1,0.1l0.2-3.7L51.2,82.5z M46.7,89.1L45.1,89c-0.8,0-1.3,0.4-1.3,1.1c0,0.7,0.4,1.2,1.2,1.2l1.6,0.1L46.7,89.1z"/>
		<path fill="#FFFFFF" d="M20.2,86.5l5.9-11.1l3.6,1.9l-2.1,3.9l3,1.6l2.1-3.9l3.6,1.9L30.4,92L26.8,90l2.1-3.9l-3-1.6l-2.1,3.9
			L20.2,86.5z"/>
		<path fill="#FFFFFF" d="M9.1,75.4c-2.6-3.6-1.6-7.2,1.3-9.3c2.9-2.1,6.6-2,9.2,1.6c2.6,3.6,1.6,7.2-1.3,9.3S11.7,79,9.1,75.4z
			 M12.1,73.2c0.9,1.3,2.4,1.4,3.7,0.4c1.4-1,1.7-2.4,0.8-3.7c-0.9-1.3-2.4-1.4-3.7-0.4C11.5,70.5,11.2,71.9,12.1,73.2z"/>
		<path fill="#FFFFFF" d="M1.1,56c-0.8-4.4,1.4-6.9,5-7.5c3.6-0.7,6.5,0.9,7.3,5.3l1,5.3L2.1,61.3L1.1,56z M4.5,55.5l0.2,1.1l5.5-1
			L10,54.5c-0.3-1.4-1.2-2.2-3.2-1.8C4.8,53,4.3,54.1,4.5,55.5z"/>
		<path fill="#FFFFFF" d="M13.2,41.3l-4.1-1L0,43.1l1.1-4.6l5.1-1L2,34.3l1.1-4.6l6.9,6.5l4.1,1L13.2,41.3z"/>
	</g>
</g>
</svg>
