<?xml version="1.0" encoding="utf-8"?>
<!-- Generator: Adobe Illustrator 19.1.0, SVG Export Plug-In . SVG Version: 6.00 Build 0)  -->
<!DOCTYPE svg PUBLIC "-//W3C//DTD SVG 1.1//EN" "http://www.w3.org/Graphics/SVG/1.1/DTD/svg11.dtd">
<svg version="1.1" id="Layer_1" xmlns="http://www.w3.org/2000/svg" xmlns:xlink="http://www.w3.org/1999/xlink" x="0px" y="0px"
	 viewBox="-362.7 368.8 62 32.5" style="enable-background:new -362.7 368.8 62 32.5;" xml:space="preserve">
<style type="text/css">
	.st0{fill:#A6A6A6;}
	.st1{fill:#C8C8C8;}
</style>
<g>
	<g>
		<path class="st0" d="M-340.4,391h-3.1v-10.5h3.1c3,0,4.6,1.9,4.6,5.2C-335.8,389.1-337.5,391-340.4,391z M-337.9,385.7
			c0-2.2-0.9-3.3-2.6-3.3h-1.1v6.6h1.1C-338.7,389-337.9,387.8-337.9,385.7L-337.9,385.7z"/>
		<path class="st0" d="M-334,391v-10.5h1.9V391C-332.1,391-334,391-334,391z"/>
		<path class="st0" d="M-323.1,391v-5.8l-2.4,6h-0.1l-2.3-5.9v5.6h-1.9v-10.5h2l2.3,5.8l2.3-5.8h2V391H-323.1z"/>
		<path class="st0" d="M-319.1,391v-10.5h6.6v1.9h-4.7v1.7h3.8v1.9h-3.8v3h4.9v1.9L-319.1,391L-319.1,391z"/>
		<path class="st0" d="M-306.9,391.2c-2.1,0-4.3-1.9-4.3-5.6c0-3.6,2.1-5.6,4.3-5.6c2.2,0,4.3,1.9,4.3,5.6
			C-302.6,389.5-304.9,391.2-306.9,391.2z M-304.6,385.7c0-2.4-1-3.6-2.3-3.6s-2.3,1-2.3,3.6c0,2.4,1.1,3.6,2.3,3.6
			C-305.7,389.3-304.6,388.2-304.6,385.7L-304.6,385.7z"/>
	</g>
	<g>
		<path class="st0" d="M-361.6,387.2v-9.4c-0.2-0.1-0.3-0.1-0.5,0v9.8L-361.6,387.2z"/>
		<polygon class="st0" points="-361.5,386.8 -362.1,386.8 -362.1,387.4 -362.6,388.2 -361.8,391.7 -361,388.2 -361.4,387.4 		"/>
	</g>
	<path class="st1" d="M-362.1,369.4v8.8c0.6-0.2,1.3-0.2,1.9-0.2c4.1,0,7.4,3.4,7.4,7.4s-3.4,7.4-7.4,7.4c-0.7,0-1.3-0.1-1.9-0.2
		v8.2c7-1.8,12.2-8.2,12.2-15.7C-349.8,377.5-355,371.2-362.1,369.4z"/>
</g>
</svg>
