<?xml version="1.0" encoding="utf-8"?>
<!-- Generator: Adobe Illustrator 19.2.1, SVG Export Plug-In . SVG Version: 6.00 Build 0)  -->
<svg version="1.1" id="Layer_1" xmlns="http://www.w3.org/2000/svg" xmlns:xlink="http://www.w3.org/1999/xlink" x="0px" y="0px"
	 viewBox="0 0 92.7 50.9" enable-background="new 0 0 92.7 50.9" xml:space="preserve">
<g>
	<g>
		<path fill="#BE1E2D" d="M13.2,2.7l2.6,5.1l3.1-1.5L20,8.7l-5.9,3l-3.8-7.5L13.2,2.7z"/>
		<path fill="#BE1E2D" d="M27.8,0.2l-0.5,8.4L24,8.4L24.6,0L27.8,0.2z"/>
		<path fill="#BE1E2D" d="M41,5.8l-1.5,2.3l-2.7-1.7L36.4,7l2.4,1.5l-1.4,2.2L35,9.3l-1.2,1.9L31,9.5l4.5-7.1L41,5.8z"/>
		<path fill="#BE1E2D" d="M48.8,17.4l-2.2,1l-1.5-3.1l-0.7,0.3l1.3,2.6l-1.9,0.9l-1.3-2.6L42,16.9l1.5,3.1l-2.2,1.1l-2.9-6l7.6-3.7
			L48.8,17.4z"/>
		<path fill="#231F20" d="M40.2,45.6c-0.7,0.6-1.5,1-2.2,1.2l-1.8-2.1c0.5-0.1,1.2-0.4,1.8-0.9c0.8-0.6,1.2-1.6,0.4-2.5
			c-0.7-0.8-1.7-0.6-2.4,0c-0.7,0.6-1.2,1.2-1.3,1.7l-1.8-2.2c0.4-0.7,0.9-1.4,1.6-2c1.9-1.6,4.5-2.1,6.4,0.3
			C43,41.6,42,44.1,40.2,45.6z"/>
		<path fill="#231F20" d="M26.8,42.2l0.1,2.9l3.3,5.4l-3.6,0.1l-1.2-2.9l-1,3l-3.6,0.1l3-5.7l-0.1-2.9L26.8,42.2z"/>
		<path fill="#231F20" d="M8.7,45.5C8,45,7.4,44.3,7,43.6l1.6-2.2c0.2,0.4,0.7,1.1,1.3,1.5c0.8,0.6,1.8,0.8,2.6-0.3
			c0.6-0.9,0.2-1.8-0.6-2.3c-0.7-0.5-1.5-0.8-2-0.8l1.7-2.3c0.8,0.2,1.6,0.5,2.3,1.1c2,1.4,3.1,3.8,1.3,6.3
			C13.3,47.2,10.6,46.9,8.7,45.5z"/>
		<path fill="#231F20" d="M0,31.7l5.5-1.4l-0.9-3.3l2.7-0.7L9,32.7l-8.2,2.1L0,31.7z"/>
		<path fill="#231F20" d="M2.7,12.1l2.2,1l-1.4,3.1l0.7,0.3l1.2-2.7l2,0.9l-1.2,2.7l0.7,0.3l1.4-3.2l2.2,1l-2.7,6.1l-7.7-3.4
			L2.7,12.1z"/>
	</g>
</g>
<g>
	<g>
		<path fill="#BE1E2D" d="M51.5,29.7c0.2,0.9,0.2,1.8,0,2.6l-2.7,0.5c0.2-0.5,0.2-1.3,0.1-2c-0.2-1-0.8-1.8-2.1-1.6
			c-1.1,0.2-1.3,1.2-1.1,2.1c0.2,0.9,0.5,1.6,0.9,1.9l-2.8,0.6c-0.5-0.7-0.8-1.4-1-2.3c-0.5-2.4,0.3-4.9,3.3-5.5
			C49.3,25.4,51,27.4,51.5,29.7z"/>
		<path fill="#BE1E2D" d="M49.6,43.2l1.9-2.1l1.4-6.2l2.7,2.4l-1.1,3l2.8-1.5l2.7,2.4l-6.1,2L52,45.4L49.6,43.2z"/>
		<path fill="#BE1E2D" d="M66.7,42.1c0.9,0.1,1.7,0.4,2.4,0.8l-0.3,2.8c-0.4-0.3-1.1-0.6-1.9-0.7c-1-0.1-2,0.2-2.1,1.5
			c-0.1,1.1,0.7,1.6,1.7,1.8c0.9,0.1,1.7,0,2.1-0.2l-0.3,2.8c-0.8,0.2-1.6,0.3-2.5,0.2c-2.4-0.3-4.6-1.8-4.2-4.9
			C61.9,42.8,64.3,41.8,66.7,42.1z"/>
		<path fill="#BE1E2D" d="M75.8,40.2l2.7,5l3-1.6l1.3,2.4L77,49.1l-4-7.4L75.8,40.2z"/>
		<path fill="#BE1E2D" d="M84.4,29.5l2.2,1l-1.4,3.1l0.7,0.3l1.2-2.7l1.9,0.9l-1.2,2.7l0.7,0.3l1.5-3.2l2.2,1l-2.8,6.1l-7.6-3.6
			L84.4,29.5z"/>
		<path fill="#231F20" d="M83.7,20.1l5.4-1.8L88,15l2.6-0.9l2.1,6.3l-8,2.6L83.7,20.1z"/>
		<path fill="#231F20" d="M77.3,11.5L82.8,5l2.4,2.1l-5.5,6.4L77.3,11.5z"/>
		<path fill="#231F20" d="M66.8,8.2l0.4-2.7l3.1,0.4l0.1-0.7l-2.8-0.4L68,2.2l2.8,0.4l0.3-2.3l3.2,0.4l-1.2,8.3L66.8,8.2z"/>
		<path fill="#231F20" d="M56.1,12.7l-1.2-2.1l2.9-1.8l-0.4-0.6l-2.5,1.5l-1.1-1.8l2.5-1.5l-0.4-0.6l-3,1.8l-1.3-2.1L57.4,2l4.4,7.2
			L56.1,12.7z"/>
	</g>
</g>
</svg>
