<?xml version="1.0" encoding="utf-8"?>
<!-- Generator: Adobe Illustrator 19.2.1, SVG Export Plug-In . SVG Version: 6.00 Build 0)  -->
<svg version="1.1" id="Layer_1" xmlns="http://www.w3.org/2000/svg" xmlns:xlink="http://www.w3.org/1999/xlink" x="0px" y="0px"
	 viewBox="0 0 259.7 75.4" enable-background="new 0 0 259.7 75.4" xml:space="preserve">
<g>
	<g>
		<path fill="#BBBBBB" d="M65.3,0H21.8L0,37.7l21.8,37.7l43.5,0l21.8-37.7L65.3,0z M62,53.3H51.7l0-13.3l1.9-3.1l-10,6.4l-10-6.4
			l1.9,3.1l0,13.3H25.3V22.1h6.2l12.2,8.8l12.2-8.8H62V53.3z"/>
	</g>
</g>
<g>
	<path fill="#9F9F9F" d="M101.4,29.1h6.6l0.5,1.3c1-1.4,3-2.4,5.3-2.4c2.7,0,4.5,0.8,5.4,2.4c1.2-1.5,3.1-2.5,5.6-2.5
		c4.9,0,6.4,2.6,6.4,8.1v12.4h-7V36.1c0-1-0.7-1.6-1.7-1.6c-0.8,0-1.8,0.5-1.8,1.6v12.4h-8.8V36.1c0-0.9-0.7-1.6-1.7-1.6
		c-1.1,0-1.8,0.5-1.8,1.6v12.4h-7V29.1z"/>
	<path fill="#9F9F9F" d="M132.6,38.2c0-7.5,4.8-10.3,10.9-10.3c6.1,0,10.4,2.9,10.4,10.3c0,7.5-4.9,10.3-10.9,10.3
		C136.9,48.6,132.6,45.7,132.6,38.2z M145.9,38.2c0-2.6-0.7-4-2.7-4c-1.9,0-2.6,1.4-2.6,4c0,2.7,0.7,4,2.6,4
		C145.2,42.3,145.9,40.9,145.9,38.2z"/>
	<path fill="#9F9F9F" d="M164.5,38.1c0-7.4,4.8-10.3,10.9-10.3c6.1,0,10.4,2.9,10.4,10.3c0,7.5-4.9,10.3-10.9,10.3
		C168.7,48.5,164.5,45.6,164.5,38.1z M177.8,38.1c0-2.6-0.7-4-2.7-4c-1.9,0-2.6,1.4-2.6,4c0,2.7,0.7,4,2.6,4
		C177,42.2,177.8,40.8,177.8,38.1z"/>
	<path fill="#9F9F9F" d="M152.4,54v-5.7c0,0.4,1.3,0.6,2,0.6c0.9,0,1.5-0.4,1.5-1.4V29.1h7v18.4c0,4.9-2.3,7.4-7.2,7.4
		C154,54.9,152.4,54.4,152.4,54z M155.2,23.8c0-2.1,1.7-3.4,4-3.4c2.3,0,4.1,1.3,4.1,3.4c0,2.1-1.7,3.4-4.1,3.4
		C156.9,27.2,155.2,25.9,155.2,23.8z"/>
	<path fill="#9F9F9F" d="M187.6,41.5v-7.1h-1.8V31l6.5-7.1h4v5.3h3.5v5.3h-3.5v6.1c0,1.1,0.3,1.7,1.2,1.7c1.2,0,2.3-0.4,2.3-1.1v6
		c0,0.8-2.4,1.5-5.4,1.5C189.6,48.6,187.6,45.7,187.6,41.5z"/>
	<path fill="#9F9F9F" d="M201,38.2c0-7.3,4.9-10.3,10.2-10.3c5.2,0,9.7,1.8,9.7,9.5c0,0.6-0.2,2.3-0.3,2.3c-2.6,0-11.3,0-11.3,0
		c0.2,1.8,1.1,2.1,4.7,2.1c2.9,0,3.6-0.1,5.3-0.7v6c-1.8,0.8-3,1.4-7.1,1.4C204.6,48.6,201,45.2,201,38.2z M213.9,36.2v-0.4
		c0-1.2-0.8-2.2-2.5-2.2c-1.6,0-2.4,0.9-2.5,2.6H213.9z"/>
	<path fill="#9F9F9F" d="M221.6,38.2c0-7.2,4.7-10.3,10.4-10.3c3.2,0,4.8,0.8,6.6,1.5V36c-1.8-0.9-3-1.3-4.8-1.3
		c-2.6,0-3.8,1.1-3.8,3.6c0,2.4,1.4,3.5,3.9,3.5c1.8,0,2.9-0.4,4.7-1.3v6.5c-1.8,0.8-3.4,1.7-6.5,1.7
		C226,48.6,221.6,45.5,221.6,38.2z"/>
	<path fill="#9F9F9F" d="M240.3,22.1h7v7.5c1.8-1,3-1.6,5.2-1.6c4.9,0,7.1,2.7,7.1,8.1v12.4h-8.8V36.1c0-0.7-0.6-1.6-1.8-1.6
		c-0.9,0-1.8,0.6-1.8,1.6v12.3h-7V22.1z"/>
</g>
</svg>
