<?xml version="1.0" encoding="utf-8"?>
<!-- Generator: Adobe Illustrator 19.2.1, SVG Export Plug-In . SVG Version: 6.00 Build 0)  -->
<svg version="1.1" id="Layer_1" xmlns="http://www.w3.org/2000/svg" xmlns:xlink="http://www.w3.org/1999/xlink" x="0px" y="0px"
	 viewBox="0 0 198.9 84.2" enable-background="new 0 0 198.9 84.2" xml:space="preserve">
<g>
	<path fill="#BBBBBB" d="M14.7,19.7c0-1.2-0.1-5-0.1-5.6c-0.1-1.8-0.6-1.9-2-1.9h-1c-0.2,0-0.3-0.1-0.3-0.2v-0.8
		c0-0.2,0.1-0.2,0.3-0.2c0.5,0,1.9,0.1,4.2,0.1c1,0,2.9-0.1,4-0.1c2.4,0,4.5,0.2,5.6,0.8c1.8,1,2.4,2.4,2.4,4.3
		c0,3.1-1.4,3.9-3.8,5.2l0.1,0.1c3,1,5.1,2.9,5.1,6.2c0,1.6-1,3.8-2.4,4.7c-1.3,0.8-3.1,1.1-6,1.1c-2.2,0-3.4-0.1-4.7-0.1
		c-1.6,0-3.4,0.1-4,0.1c-0.4,0-0.4-0.1-0.4-0.2v-0.8c0-0.2,0.1-0.2,0.3-0.2h1.5c1,0,1.1-0.4,1.3-1.4c0.1-0.7,0.2-4.9,0.2-7.4V19.7z
		 M17.5,20.9C18,21,18.6,21,19.1,21c1.8,0,3.2-0.3,4-0.8c1.3-1,1.8-2.4,1.8-3.8c0-1.2-0.4-2.4-1.5-3.3c-1.1-0.8-2.7-1.1-4.3-1.1
		c-0.4,0-0.8,0-1,0c-0.3,0.1-0.4,0.3-0.4,0.6c0,0.6-0.1,3.4-0.1,6V20.9z M17.5,23.9v4.3c0,2.9,0.7,4.2,3.3,4.2c2.6,0,5-1.3,5-5
		c0-2.5-1.3-4.2-3.1-4.9C21.4,22,19.9,22,18.5,22h-1V23.9z"/>
	<path fill="#BBBBBB" d="M34.7,25c0-1.6-0.3-1.9-1.1-2.4L33,22.3c-0.2-0.1-0.3-0.1-0.3-0.2v-0.2c0-0.1,0.1-0.2,0.3-0.3l3.1-1.6
		c0.2-0.1,0.3-0.1,0.4-0.1c0.2,0,0.2,0.2,0.2,0.4l0.2,2.2h0.1c0.9-1.4,2.4-2.7,3.8-2.7c1.1,0,1.6,0.7,1.6,1.4c0,0.9-0.8,1.5-1.3,1.5
		c-0.3,0-0.7-0.1-0.9-0.3c-0.3-0.2-0.6-0.3-1-0.3c-0.5,0-1.3,0.3-1.9,1.3c-0.2,0.3-0.3,0.9-0.3,1V31c0,1,0.2,1.3,0.9,1.3h1.5
		c0.2,0,0.2,0.1,0.2,0.3v0.6c0,0.2,0,0.3-0.2,0.3c-0.2,0-1.6-0.1-3.3-0.1c-1.9,0-3.3,0.1-3.4,0.1c-0.1,0-0.2-0.1-0.2-0.3v-0.5
		c0-0.2,0.1-0.3,0.3-0.3H34c0.5,0,0.7-0.2,0.7-0.6c0-1,0-2.1,0-3.8V25z"/>
	<path fill="#BBBBBB" d="M46.5,24.2c0-1.1-0.2-1.6-1.8-1.9c-0.2,0-0.3-0.1-0.3-0.2v-0.3c0-0.1,0.1-0.2,0.2-0.2
		c1-0.4,2.2-0.9,3.4-1.5c0.3-0.1,0.4-0.2,0.6-0.2c0.2,0,0.2,0.2,0.2,0.4c-0.1,0.5-0.1,2.5-0.1,5.1v3.4c0,1.2,0,2.4,0,2.7
		c0.1,0.6,0.2,0.8,0.5,0.8h1.4c0.3,0,0.3,0.1,0.3,0.3v0.5c0,0.2-0.1,0.3-0.3,0.3c-0.3,0-1.7-0.1-3-0.1c-1.8,0-3,0.1-3.4,0.1
		c-0.2,0-0.3-0.1-0.3-0.3v-0.6c0-0.2,0.1-0.3,0.3-0.3H46c0.3,0,0.5-0.1,0.5-0.6c0-0.9,0-1.9,0-2.9V24.2z M45.1,14.7
		c0-0.8,0.7-1.6,1.9-1.6c1.1,0,1.6,0.8,1.6,1.5c0,0.8-0.6,1.7-1.8,1.7C46.1,16.3,45.1,15.7,45.1,14.7z"/>
	<path fill="#BBBBBB" d="M55.9,25c-0.1,0.3-0.1,0.8-0.1,1.5c0,3.1,1.9,5.4,4.5,5.4c1.9,0,3.3-1.1,3.8-2.1c0.1-0.1,0.2-0.2,0.3-0.2
		l0.4,0.2c0.1,0,0.2,0.1,0,0.5c-0.6,1.3-2.2,3.4-5,3.4c-1.8,0-3.8-0.5-4.9-2.2c-1.1-1.6-1.4-2.8-1.4-5c0-1.2,0.3-3.3,2-5
		c1.3-1.4,2.9-1.7,4.5-1.7c3.6,0,4.6,3.4,4.6,4.6c0,0.4-0.4,0.5-0.9,0.5H55.9z M60.9,24.1c0.6,0,0.8-0.2,0.8-0.4
		c0-0.7-0.4-2.8-2.4-2.8c-1.4,0-2.7,0.9-3.3,3.2H60.9z"/>
	<path fill="#BBBBBB" d="M69.4,25c0-1.6-0.3-1.9-1.1-2.4l-0.6-0.3c-0.2-0.1-0.3-0.1-0.3-0.2v-0.2c0-0.1,0.1-0.2,0.3-0.3l3.1-1.6
		c0.2-0.1,0.3-0.1,0.4-0.1c0.2,0,0.2,0.2,0.2,0.4l0.2,2.2h0.1c0.9-1.4,2.4-2.7,3.8-2.7c1.1,0,1.6,0.7,1.6,1.4c0,0.9-0.8,1.5-1.3,1.5
		c-0.3,0-0.7-0.1-0.9-0.3c-0.3-0.2-0.6-0.3-1-0.3c-0.5,0-1.3,0.3-1.9,1.3c-0.2,0.3-0.3,0.9-0.3,1V31c0,1,0.2,1.3,0.9,1.3H74
		c0.2,0,0.2,0.1,0.2,0.3v0.6c0,0.2,0,0.3-0.2,0.3c-0.2,0-1.6-0.1-3.3-0.1c-1.9,0-3.3,0.1-3.4,0.1c-0.1,0-0.2-0.1-0.2-0.3v-0.5
		c0-0.2,0.1-0.3,0.3-0.3h1.2c0.5,0,0.7-0.2,0.7-0.6c0-1,0-2.1,0-3.8V25z"/>
	<path fill="#BBBBBB" d="M101.8,28.8c-1.5,1.9-3.8,5-7.8,5c-3,0-6.6-1.9-6.6-5.5c0-2.3,1.3-4.1,2.5-5.3c1.1-1,2.4-1.9,3.6-2.6
		c-2.2-1.3-3.3-2.8-3.3-3.9c0-2.5,3.2-5.4,5.1-5.4c2.4,0,4.5,2.3,4.4,4.4c-0.1,1.6-2.1,3.6-3.4,4.3c2.2,1.2,5,3.8,6.6,6.1
		c1-1.3,3-4.2,3.1-5.1c0.1-0.5-0.3-1-1-1h-0.5c-0.2,0-0.2-0.1-0.2-0.2V19c0-0.1,0-0.2,0.2-0.2c0.3,0,2,0.1,3,0.1
		c1.2,0,3-0.1,3.2-0.1c0.2,0,0.2,0.1,0.2,0.2v0.7c0,0.1,0,0.2-0.2,0.2h-0.5c-1.6,0-1.9,0.1-2.4,0.9c-0.2,0.3-3.5,5.1-4.3,6
		c0.5,0.5,1.9,2.2,2.4,2.6c0.8,0.8,2.2,2.4,4.2,2.4c1.9,0,3.3-2.2,3.4-2.4c0.1-0.1,0.1-0.1,0.3,0l0.5,0.3c0.1,0,0.1,0.1,0,0.3
		c-0.5,1-2.2,4-5.8,4C105.1,33.8,103.1,30.6,101.8,28.8z M101.1,28.1c-1.4-2-4-5.4-6.9-7c-2.3,1.3-4.3,3.6-4.2,6.1
		c0.1,2.6,2.8,4.7,5.2,4.7C98.2,31.9,100.2,29,101.1,28.1z M92.4,15.9c0,1.2,1.7,2.5,3.2,3.4c0.8-0.6,2.3-1.5,2.3-4
		c0-1.1-1-3.1-2.5-3.1C93.8,12.3,92.4,14.1,92.4,15.9z"/>
	<path fill="#BBBBBB" d="M125.7,19.7c0-1.2-0.1-5-0.1-5.6c-0.1-1.8-0.6-1.9-2-1.9h-1c-0.2,0-0.3-0.1-0.3-0.2v-0.8
		c0-0.2,0.1-0.2,0.3-0.2c0.5,0,1.9,0.1,4.2,0.1c1,0,2.9-0.1,4-0.1c2.4,0,4.5,0.2,5.5,0.8c1.8,1,2.4,2.4,2.4,4.3
		c0,3.1-1.4,3.9-3.8,5.2l0.1,0.1c3,1,5.1,2.9,5.1,6.2c0,1.6-1,3.8-2.4,4.7c-1.3,0.8-3.1,1.1-6,1.1c-2.2,0-3.4-0.1-4.7-0.1
		c-1.6,0-3.4,0.1-4,0.1c-0.4,0-0.4-0.1-0.4-0.2v-0.8c0-0.2,0.1-0.2,0.3-0.2h1.5c1,0,1.1-0.4,1.3-1.4c0.1-0.7,0.2-4.9,0.2-7.4V19.7z
		 M128.4,20.9c0.6,0.1,1.1,0.1,1.7,0.1c1.8,0,3.2-0.3,4-0.8c1.3-1,1.8-2.4,1.8-3.8c0-1.2-0.4-2.4-1.5-3.3c-1.1-0.8-2.7-1.1-4.3-1.1
		c-0.4,0-0.8,0-1,0c-0.2,0.1-0.4,0.3-0.4,0.6c0,0.6-0.1,3.4-0.1,6V20.9z M128.4,23.9v4.3c0,2.9,0.7,4.2,3.3,4.2c2.6,0,5-1.3,5-5
		c0-2.5-1.3-4.2-3.1-4.9c-1.3-0.5-2.8-0.5-4.2-0.5h-1V23.9z"/>
	<path fill="#BBBBBB" d="M145.7,25c0-1.6-0.3-1.9-1.1-2.4l-0.6-0.3c-0.2-0.1-0.3-0.1-0.3-0.2v-0.2c0-0.1,0.1-0.2,0.3-0.3l3.1-1.6
		c0.2-0.1,0.3-0.1,0.4-0.1c0.2,0,0.2,0.2,0.2,0.4l0.2,2.2h0.1c0.9-1.4,2.4-2.7,3.8-2.7c1.1,0,1.6,0.7,1.6,1.4c0,0.9-0.8,1.5-1.3,1.5
		c-0.3,0-0.7-0.1-0.9-0.3c-0.3-0.2-0.6-0.3-1-0.3c-0.5,0-1.3,0.3-1.8,1.3c-0.2,0.3-0.3,0.9-0.3,1V31c0,1,0.2,1.3,0.9,1.3h1.5
		c0.2,0,0.2,0.1,0.2,0.3v0.6c0,0.2,0,0.3-0.2,0.3c-0.2,0-1.6-0.1-3.3-0.1c-1.9,0-3.3,0.1-3.4,0.1c-0.1,0-0.2-0.1-0.2-0.3v-0.5
		c0-0.2,0.1-0.3,0.3-0.3h1.2c0.5,0,0.7-0.2,0.7-0.6c0-1,0-2.1,0-3.8V25z"/>
	<path fill="#BBBBBB" d="M157.5,24.2c0-1.1-0.2-1.6-1.8-1.9c-0.2,0-0.3-0.1-0.3-0.2v-0.3c0-0.1,0.1-0.2,0.2-0.2
		c1-0.4,2.2-0.9,3.4-1.5c0.2-0.1,0.4-0.2,0.6-0.2c0.2,0,0.2,0.2,0.2,0.4c-0.1,0.5-0.1,2.5-0.1,5.1v3.4c0,1.2,0,2.4,0,2.7
		c0.1,0.6,0.2,0.8,0.5,0.8h1.4c0.3,0,0.3,0.1,0.3,0.3v0.5c0,0.2-0.1,0.3-0.3,0.3c-0.3,0-1.7-0.1-3-0.1c-1.8,0-3,0.1-3.4,0.1
		c-0.2,0-0.3-0.1-0.3-0.3v-0.6c0-0.2,0.1-0.3,0.3-0.3h1.5c0.3,0,0.5-0.1,0.5-0.6c0-0.9,0-1.9,0-2.9V24.2z M156.1,14.7
		c0-0.8,0.7-1.6,1.9-1.6c1.1,0,1.6,0.8,1.6,1.5c0,0.8-0.6,1.7-1.8,1.7C157.1,16.3,156.1,15.7,156.1,14.7z"/>
	<path fill="#BBBBBB" d="M166.9,25c-0.1,0.3-0.1,0.8-0.1,1.5c0,3.1,1.9,5.4,4.5,5.4c1.9,0,3.3-1.1,3.8-2.1c0.1-0.1,0.2-0.2,0.3-0.2
		l0.4,0.2c0.1,0,0.2,0.1,0,0.5c-0.6,1.3-2.2,3.4-5,3.4c-1.8,0-3.8-0.5-4.9-2.2c-1.1-1.6-1.4-2.8-1.4-5c0-1.2,0.3-3.3,2-5
		c1.3-1.4,2.9-1.7,4.5-1.7c3.6,0,4.6,3.4,4.6,4.6c0,0.4-0.4,0.5-0.9,0.5H166.9z M171.9,24.1c0.6,0,0.8-0.2,0.8-0.4
		c0-0.7-0.4-2.8-2.4-2.8c-1.4,0-2.7,0.9-3.3,3.2H171.9z"/>
	<path fill="#BBBBBB" d="M180.3,25c0-1.6-0.3-1.9-1.1-2.4l-0.6-0.3c-0.2-0.1-0.3-0.1-0.3-0.2v-0.2c0-0.1,0.1-0.2,0.3-0.3l3.1-1.6
		c0.2-0.1,0.3-0.1,0.4-0.1c0.2,0,0.2,0.2,0.2,0.4l0.2,2.2h0.1c0.9-1.4,2.4-2.7,3.8-2.7c1.1,0,1.6,0.7,1.6,1.4c0,0.9-0.8,1.5-1.3,1.5
		c-0.3,0-0.7-0.1-0.9-0.3c-0.3-0.2-0.6-0.3-1-0.3c-0.5,0-1.3,0.3-1.8,1.3c-0.2,0.3-0.3,0.9-0.3,1V31c0,1,0.2,1.3,0.9,1.3h1.5
		c0.2,0,0.2,0.1,0.2,0.3v0.6c0,0.2,0,0.3-0.2,0.3c-0.2,0-1.6-0.1-3.3-0.1c-1.9,0-3.3,0.1-3.4,0.1c-0.1,0-0.2-0.1-0.2-0.3v-0.5
		c0-0.2,0.1-0.3,0.3-0.3h1.2c0.5,0,0.7-0.2,0.7-0.6c0-1,0-2.1,0-3.8V25z"/>
</g>
<g>
	<path fill="#BBBBBB" d="M2.8,61.5c0-0.3,0-2.9-0.1-3.1c0-0.3-0.2-0.5-0.7-0.5H1.2c-0.1,0-0.1,0-0.1-0.1v-0.4c0-0.1,0-0.1,0.1-0.1
		c0.2,0,0.9,0,2.2,0c1.2,0,1.7,0,1.9,0c0.1,0,0.1,0,0.1,0.1v0.4c0,0.1,0,0.1-0.1,0.1H4.6c-0.3,0-0.5,0.1-0.5,0.4c0,0.1,0,3.2,0,3.4
		v1.1c0,0.1,0,3.4,0,3.5c0,0.4,0.2,0.5,0.7,0.5h0.6c0.1,0,0.1,0,0.1,0.1v0.4c0,0.1,0,0.1-0.1,0.1c-0.2,0-0.7,0-1.9,0
		c-1.3,0-1.9,0-2.1,0c-0.1,0-0.1,0-0.1-0.1v-0.4c0-0.1,0-0.1,0.1-0.1h0.8c0.3,0,0.6,0,0.6-0.4c0-0.2,0.1-3.2,0.1-4V61.5z"/>
	<path fill="#BBBBBB" d="M12.6,66.6c0,0.2,0.1,0.3,0.3,0.3h0.4c0.1,0,0.2,0,0.2,0.1v0.2c0,0.1,0,0.2-0.1,0.2c-0.1,0-0.5,0-1.3,0
		c-0.7,0-1.2,0-1.3,0c-0.1,0-0.1,0-0.1-0.2V67c0-0.1,0-0.1,0.2-0.1h0.4c0.2,0,0.3-0.1,0.3-0.3c0-0.4,0-0.8,0-1.2v-1.9
		c0-0.6,0-1-0.4-1.3c-0.3-0.3-0.7-0.3-1-0.3c-0.2,0-0.7,0.1-1.1,0.5c-0.3,0.3-0.3,0.7-0.3,1v2.9c0,0.4,0,0.5,0.3,0.5h0.4
		c0.1,0,0.1,0,0.1,0.1v0.2c0,0.1,0,0.1-0.1,0.1c-0.1,0-0.5,0-1.2,0c-0.7,0-1.2,0-1.2,0c-0.1,0-0.1,0-0.1-0.1V67c0-0.1,0-0.1,0.1-0.1
		h0.4c0.2,0,0.3,0,0.3-0.3v-3.3c0-0.4-0.2-0.7-0.6-0.8L7,62.4c-0.1,0-0.1-0.1-0.1-0.1v-0.1c0-0.1,0.1-0.1,0.1-0.1l1.2-0.7
		c0.1-0.1,0.2-0.1,0.3-0.1c0.1,0,0.1,0.1,0.1,0.2l0.1,0.9h0c0.4-0.5,1.2-1,1.9-1c0.4,0,0.9,0.1,1.2,0.3c0.4,0.3,0.8,1,0.8,1.3V66.6z
		"/>
	<path fill="#BBBBBB" d="M15,67.1c-0.1,0-0.1-0.1-0.1-0.2l-0.2-1.3c0-0.1,0-0.1,0.1-0.1l0.2,0c0.1,0,0.1,0,0.1,0.1l0.4,0.7
		c0.3,0.5,0.5,0.9,1.2,0.9c0.5,0,1.1-0.3,1.1-1c0-0.6-0.3-1-1.4-1.3c-0.8-0.2-1.7-0.7-1.7-1.8c0-1,0.9-1.7,2-1.7
		c0.7,0,1,0.2,1.3,0.3c0.2,0.1,0.2,0.2,0.3,0.3l0.2,1c0,0.1,0,0.1-0.1,0.1L18.1,63c-0.1,0-0.1,0-0.1-0.1l-0.5-0.6
		c-0.2-0.3-0.4-0.5-1-0.5c-0.5,0-1.1,0.3-1.1,0.9c0,0.8,0.7,1,1.3,1.2c1,0.3,1.7,0.7,1.7,1.8c0,1.1-0.9,1.9-2.1,1.9
		C15.7,67.5,15.1,67.2,15,67.1z"/>
	<path fill="#BBBBBB" d="M25.2,64.5c0,0.7,0,1.4,0,1.7c0,0.4,0.2,0.5,0.4,0.5c0.1,0,0.3,0,0.5,0c0.1,0,0.2,0,0.2,0.1l0,0.2
		c0,0.1,0,0.1-0.1,0.1l-1.5,0.5c-0.1,0-0.2,0.1-0.3,0.1c-0.1,0-0.1,0-0.1-0.2l-0.1-0.8h0c-0.4,0.5-1.2,1-1.9,1c-0.4,0-0.9,0-1.3-0.6
		c-0.6-0.7-0.5-1.2-0.5-2.7v-1.6c0-0.4-0.2-0.5-0.5-0.5c-0.2,0-0.3,0-0.3-0.1v-0.3c0-0.1,0-0.1,0.2-0.1h1.2c0.1,0,0.1,0,0.2,0
		c0.1,0,0.1,0,0.2,0c0.1,0,0.2,0.1,0.2,0.2c0,0.1-0.1,0.8-0.1,1.6v1c0,0.6-0.1,1.5,0.3,2.1c0.4,0.5,0.7,0.5,1.1,0.5s0.9-0.4,1.2-0.7
		c0.1-0.1,0.1-0.3,0.1-0.4v-3.3c0-0.4-0.3-0.5-0.6-0.5c-0.2,0-0.3,0-0.3-0.1v-0.2c0-0.1,0-0.1,0.2-0.1h1.3c0.1,0,0.2,0,0.2,0
		c0.1,0,0.1,0,0.2,0c0.1,0,0.1,0.1,0.1,0.1c0,0.1-0.1,0.5-0.1,1.9V64.5z"/>
	<path fill="#BBBBBB" d="M28,63.6c0-0.7-0.1-0.9-0.5-1.1l-0.3-0.1c-0.1,0-0.1,0-0.1-0.1v-0.1c0-0.1,0-0.1,0.1-0.1l1.4-0.7
		c0.1,0,0.1-0.1,0.2-0.1c0.1,0,0.1,0.1,0.1,0.2l0.1,1h0.1c0.4-0.6,1.1-1.2,1.7-1.2c0.5,0,0.7,0.3,0.7,0.6c0,0.4-0.3,0.7-0.6,0.7
		c-0.2,0-0.3-0.1-0.4-0.1c-0.1-0.1-0.3-0.1-0.5-0.1c-0.2,0-0.6,0.1-0.8,0.6c-0.1,0.2-0.1,0.4-0.1,0.4v2.9c0,0.4,0.1,0.6,0.4,0.6h0.7
		c0.1,0,0.1,0,0.1,0.1v0.3c0,0.1,0,0.1-0.1,0.1c-0.1,0-0.7,0-1.5,0c-0.9,0-1.5,0-1.5,0c-0.1,0-0.1,0-0.1-0.1V67c0-0.1,0-0.1,0.2-0.1
		h0.5c0.2,0,0.3-0.1,0.3-0.3c0-0.5,0-1,0-1.7V63.6z"/>
	<path fill="#BBBBBB" d="M36.5,65.7c0,0.8,0.2,1.1,0.4,1.1c0.2,0,0.4-0.1,0.5-0.2c0.1-0.1,0.1-0.1,0.1-0.1l0.1,0.1
		c0,0,0.1,0.1,0,0.3c-0.1,0.2-0.4,0.7-1.1,0.7c-0.5,0-0.9-0.4-1-0.9h0c-0.3,0.4-0.8,0.6-1.4,0.9c-0.3,0.1-0.5,0.1-0.8,0.1
		c-0.3,0-0.8-0.3-0.8-1.2c0-0.6,0.3-1.2,1.4-1.7c0.6-0.3,1.4-0.6,1.6-0.8v-0.9c0-0.2,0-0.6-0.2-0.8s-0.4-0.3-0.8-0.3
		c-0.3,0-0.7,0.1-0.9,0.3c-0.2,0.2-0.1,0.4-0.1,0.6c0,0.5-0.2,0.8-0.7,0.8c-0.2,0-0.3-0.1-0.3-0.4c0-0.4,0.4-1,1-1.3
		c0.6-0.4,1.1-0.5,1.7-0.5c0.7,0,0.9,0.2,1.1,0.4c0.3,0.3,0.3,0.6,0.3,1v2.1V65.7z M35.5,64.3c-0.5,0.4-1.9,0.7-1.9,1.8
		c0,0.5,0.3,0.8,0.7,0.8c0.4,0,1.1-0.5,1.1-0.9V64.3z"/>
	<path fill="#BBBBBB" d="M44.4,66.6c0,0.2,0.1,0.3,0.3,0.3h0.4c0.1,0,0.2,0,0.2,0.1v0.2c0,0.1,0,0.2-0.1,0.2c-0.1,0-0.5,0-1.3,0
		c-0.7,0-1.2,0-1.3,0c-0.1,0-0.1,0-0.1-0.2V67c0-0.1,0-0.1,0.2-0.1H43c0.2,0,0.3-0.1,0.3-0.3c0-0.4,0-0.8,0-1.2v-1.9
		c0-0.6,0-1-0.4-1.3c-0.3-0.3-0.7-0.3-1-0.3c-0.2,0-0.7,0.1-1.1,0.5c-0.3,0.3-0.3,0.7-0.3,1v2.9c0,0.4,0,0.5,0.3,0.5h0.4
		c0.1,0,0.1,0,0.1,0.1v0.2c0,0.1,0,0.1-0.1,0.1c-0.1,0-0.5,0-1.2,0c-0.7,0-1.2,0-1.2,0c-0.1,0-0.1,0-0.1-0.1V67c0-0.1,0-0.1,0.1-0.1
		h0.4c0.2,0,0.3,0,0.3-0.3v-3.3c0-0.4-0.2-0.7-0.6-0.8l-0.1-0.1c-0.1,0-0.1-0.1-0.1-0.1v-0.1c0-0.1,0.1-0.1,0.1-0.1l1.2-0.7
		c0.1-0.1,0.2-0.1,0.3-0.1c0.1,0,0.1,0.1,0.1,0.2l0.1,0.9h0c0.4-0.5,1.2-1,1.9-1c0.4,0,0.9,0.1,1.2,0.3c0.4,0.3,0.8,1,0.8,1.3V66.6z
		"/>
	<path fill="#BBBBBB" d="M47.4,63.9c0,0.8,0.3,1.6,0.7,2.1c0.5,0.6,1.1,0.7,1.5,0.7c0.7,0,1.1-0.2,1.5-0.6c0,0,0.1,0,0.1,0l0.1,0.1
		c0.1,0.1,0.1,0.1,0,0.2c-0.4,0.5-1.3,1-2.3,1c-0.7,0-1.5-0.2-2.2-1c-0.5-0.7-0.6-1.3-0.6-1.9c0-1.6,1.1-3.3,3-3.3
		c1.5,0,1.9,0.8,1.9,1.1c0,0.3-0.2,0.5-0.5,0.5c-0.3,0-0.6-0.2-0.8-0.6c-0.3-0.6-0.6-0.6-0.9-0.6C48.2,61.8,47.4,62.5,47.4,63.9z"/>
	<path fill="#BBBBBB" d="M53.5,63.6c0,0.1,0,0.4,0,0.7c0,1.4,0.9,2.4,2,2.4c0.9,0,1.5-0.5,1.7-1c0-0.1,0.1-0.1,0.1-0.1l0.2,0.1
		c0,0,0.1,0.1,0,0.2c-0.3,0.6-1,1.5-2.2,1.5c-0.8,0-1.7-0.2-2.2-1c-0.5-0.7-0.6-1.2-0.6-2.2c0-0.5,0.1-1.5,0.9-2.2
		c0.6-0.6,1.3-0.7,2-0.7c1.6,0,2.1,1.5,2.1,2.1c0,0.2-0.2,0.2-0.4,0.2H53.5z M55.7,63.2c0.3,0,0.4-0.1,0.4-0.2
		c0-0.3-0.2-1.2-1.1-1.2c-0.6,0-1.2,0.4-1.5,1.4H55.7z"/>
	<path fill="#BBBBBB" d="M66.7,65.7c0,0.8,0.2,1.1,0.4,1.1c0.2,0,0.4-0.1,0.5-0.2c0.1-0.1,0.1-0.1,0.1-0.1l0.1,0.1
		c0,0,0.1,0.1,0,0.3c-0.1,0.2-0.4,0.7-1.1,0.7c-0.5,0-0.9-0.4-1-0.9h0c-0.3,0.4-0.8,0.6-1.4,0.9c-0.3,0.1-0.5,0.1-0.8,0.1
		c-0.3,0-0.8-0.3-0.8-1.2c0-0.6,0.3-1.2,1.4-1.7c0.6-0.3,1.4-0.6,1.6-0.8v-0.9c0-0.2,0-0.6-0.2-0.8s-0.4-0.3-0.8-0.3
		c-0.3,0-0.7,0.1-0.9,0.3c-0.2,0.2-0.1,0.4-0.1,0.6c0,0.5-0.2,0.8-0.7,0.8c-0.2,0-0.3-0.1-0.3-0.4c0-0.4,0.4-1,1-1.3
		c0.6-0.4,1.1-0.5,1.7-0.5c0.7,0,0.9,0.2,1.1,0.4c0.3,0.3,0.3,0.6,0.3,1v2.1V65.7z M65.6,64.3c-0.5,0.4-1.9,0.7-1.9,1.8
		c0,0.5,0.3,0.8,0.7,0.8c0.4,0,1.1-0.5,1.1-0.9V64.3z"/>
	<path fill="#BBBBBB" d="M74.5,66.6c0,0.2,0.1,0.3,0.3,0.3h0.4c0.1,0,0.2,0,0.2,0.1v0.2c0,0.1,0,0.2-0.1,0.2c-0.1,0-0.5,0-1.3,0
		c-0.7,0-1.2,0-1.3,0c-0.1,0-0.1,0-0.1-0.2V67c0-0.1,0-0.1,0.2-0.1h0.4c0.2,0,0.3-0.1,0.3-0.3c0-0.4,0-0.8,0-1.2v-1.9
		c0-0.6,0-1-0.4-1.3c-0.3-0.3-0.7-0.3-1-0.3c-0.2,0-0.7,0.1-1.1,0.5c-0.3,0.3-0.3,0.7-0.3,1v2.9c0,0.4,0,0.5,0.3,0.5h0.4
		c0.1,0,0.1,0,0.1,0.1v0.2c0,0.1,0,0.1-0.1,0.1c-0.1,0-0.5,0-1.2,0c-0.7,0-1.2,0-1.2,0c-0.1,0-0.1,0-0.1-0.1V67c0-0.1,0-0.1,0.1-0.1
		h0.4c0.2,0,0.3,0,0.3-0.3v-3.3c0-0.4-0.2-0.7-0.6-0.8l-0.1-0.1c-0.1,0-0.1-0.1-0.1-0.1v-0.1c0-0.1,0.1-0.1,0.1-0.1l1.2-0.7
		c0.1-0.1,0.2-0.1,0.3-0.1c0.1,0,0.1,0.1,0.1,0.2l0.1,0.9h0c0.4-0.5,1.2-1,1.9-1c0.4,0,0.9,0.1,1.2,0.3c0.4,0.3,0.8,1,0.8,1.3V66.6z
		"/>
	<path fill="#BBBBBB" d="M81.1,58.8c0-0.5-0.1-0.7-0.9-0.8c-0.1,0-0.1,0-0.1-0.1v-0.2c0-0.1,0-0.1,0.1-0.1c0.5-0.1,1.3-0.2,1.5-0.3
		c0.1,0,0.2,0,0.3,0c0.1,0,0.1,0.1,0.1,0.3c0,0.7-0.1,2.7-0.1,4.5v3.1c0,0.5,0,1.1,0.1,1.3c0.1,0.1,0.4,0.2,0.6,0.2
		c0.2,0,0.3,0,0.3,0.1l0,0.1c0,0.1,0,0.1-0.1,0.2l-1.6,0.5c-0.1,0-0.2,0-0.2-0.1l-0.2-0.6c-0.4,0.4-1.3,0.8-2.1,0.8
		c-0.5,0-1,0-1.7-0.6c-0.7-0.7-0.9-1.3-0.9-2.3c0-0.9,0.3-1.7,1-2.4c0.5-0.6,1.3-0.9,2.1-0.9c0.6,0,1.1,0.1,1.5,0.2V58.8z
		 M81.1,63.2c0-0.2,0-0.5-0.1-0.7c-0.2-0.4-0.6-0.8-1.5-0.8c-0.4,0-0.9,0.1-1.3,0.5c-0.5,0.6-0.6,1.3-0.6,1.9c0,1.6,1.1,2.7,1.9,2.7
		c0.8,0,1.4-0.4,1.5-0.8c0.1-0.2,0.1-0.3,0.1-0.5V63.2z"/>
	<path fill="#BBBBBB" d="M90.7,62c0.1,0,1.6-0.1,1.8-0.1c0.4-0.1,0.5-0.2,0.6-0.6c0-0.1,0.1-0.4,0.1-0.7c0-0.1,0-0.1,0.1-0.1l0.4,0
		c0.1,0,0.1,0.1,0.1,0.1c0,0.2,0,1.4,0,1.6c0,0.5,0.1,1.2,0.1,1.5c0,0.1,0,0.1-0.1,0.1l-0.3,0c-0.1,0-0.1,0-0.1-0.1
		c0-0.2-0.1-0.5-0.2-0.7c-0.1-0.3-0.2-0.5-0.6-0.5c-0.7-0.1-1.6-0.1-1.9-0.1v0.9c0,0.8,0,2.1,0,2.4c0,0.7,0.4,1,0.8,1.1
		c0.3,0.1,0.7,0.1,1,0.1c0.2,0,0.9,0,1.2,0c0.2,0,0.9-0.2,1.2-0.5c0.2-0.1,1-1.1,1.1-1.5c0-0.1,0.1-0.1,0.2-0.1l0.2,0.1
		c0.1,0,0.1,0.1,0,0.2l-0.7,2.1c0,0.1-0.1,0.2-0.3,0.2c-0.1,0-0.4,0-1.2,0c-0.8,0-2.2,0-4.4,0c-0.5,0-0.9,0-1.2,0
		c-0.3,0-0.5,0-0.6,0c-0.1,0-0.1,0-0.1-0.1v-0.4c0-0.1,0-0.1,0.1-0.1h0.6c0.6,0,0.7-0.1,0.7-0.6v-3.3v-1.4c0-1.2,0-2.9,0-3.1
		c-0.1-0.4-0.2-0.5-0.7-0.5h-0.5c-0.1,0-0.1,0-0.1-0.1v-0.4c0,0,0-0.1,0.1-0.1c0.3,0,0.8,0,1.7,0h0.6c1.4,0,2.8,0,4.2,0
		c0.2,0,0.5,0,0.6,0c0.1,0,0.1,0,0.1,0.1c0.1,0.2,0.7,2.1,0.7,2.3c0,0.1,0,0.1,0,0.1l-0.2,0.1c0,0-0.1,0-0.1,0
		c0-0.1-1.1-1.4-1.4-1.6c-0.3-0.2-0.7-0.4-1.1-0.4l-2.5-0.1V62z"/>
	<path fill="#BBBBBB" d="M102.6,63.7c0-1-0.2-1.3-0.4-1.5c-0.2-0.2-0.6-0.3-0.9-0.3c-0.4,0-1,0.2-1.3,0.8c-0.2,0.3-0.2,0.5-0.2,0.9
		v2.8c0,0.2,0.1,0.4,0.3,0.4h0.5c0.1,0,0.1,0,0.1,0.1v0.2c0,0.1,0,0.2-0.1,0.2c-0.1,0-0.5,0-1.3,0c-0.7,0-1.2,0-1.3,0
		c-0.1,0-0.1,0-0.1-0.1V67c0-0.1,0-0.1,0.2-0.1h0.5c0.1,0,0.2-0.1,0.2-0.4c0-0.2,0-0.5,0-0.7v-2.5c0-0.3-0.1-0.5-0.4-0.7L98,62.4
		c-0.1,0-0.1-0.1-0.1-0.1v-0.1c0,0,0.1-0.1,0.1-0.1l1.2-0.6c0.1-0.1,0.2-0.1,0.3-0.1c0.1,0,0.1,0.1,0.1,0.2l0.1,0.8h0
		c0.4-0.6,1.2-1.1,2.1-1.1c0.7,0,1.3,0.4,1.6,1.1h0.1c0.4-0.5,1.2-1.1,2.1-1.1c0.5,0,0.9,0.1,1.3,0.4c0.3,0.3,0.7,0.6,0.7,1.7v3.1
		c0,0.2,0.1,0.3,0.3,0.3h0.4c0.1,0,0.2,0,0.2,0.1v0.2c0,0.1,0,0.1-0.1,0.1c-0.1,0-0.5,0-1.2,0c-0.7,0-1.2,0-1.3,0
		c-0.1,0-0.1,0-0.1-0.1V67c0-0.1,0-0.1,0.2-0.1h0.4c0.2,0,0.3-0.1,0.3-0.3c0-0.3,0-0.8,0-1.1v-2.1c0-0.5-0.1-0.9-0.4-1.1
		c-0.3-0.2-0.6-0.3-1-0.3s-1,0.3-1.2,0.7c-0.2,0.4-0.2,0.8-0.2,1.4v2.4c0,0.2,0.1,0.3,0.3,0.3h0.5c0.1,0,0.2,0,0.2,0.1v0.2
		c0,0.1,0,0.2-0.1,0.2c-0.1,0-0.5,0-1.2,0c-0.8,0-1.2,0-1.3,0c-0.1,0-0.1,0-0.1-0.1V67c0-0.1,0-0.1,0.1-0.1h0.4
		c0.2,0,0.3-0.1,0.3-0.2V63.7z"/>
	<path fill="#BBBBBB" d="M110.2,63.4c0-0.3-0.1-0.5-0.5-0.8l-0.3-0.2c-0.1,0-0.1-0.1-0.1-0.1v-0.1c0,0,0-0.1,0.1-0.1l1.3-0.7
		c0.1-0.1,0.2-0.1,0.3-0.1c0.1,0,0.1,0.1,0.1,0.3l0.1,0.7h0c0.4-0.5,1.1-0.9,2-0.9c0.7,0,1.2,0.3,1.6,0.7c0.5,0.5,0.8,1.1,0.8,2.2
		c0,1.8-1.3,3.3-3,3.3c-0.4,0-1-0.1-1.4-0.2v3c0,0.4,0.1,0.5,0.3,0.5h0.6c0.1,0,0.1,0.1,0.1,0.1v0.2c0,0.1,0,0.1-0.1,0.1
		c-0.1,0-0.5,0-1.4,0c-0.8,0-1.3,0-1.4,0c-0.1,0-0.1,0-0.1-0.1v-0.3c0-0.1,0-0.1,0.2-0.1h0.5c0.2,0,0.3-0.1,0.3-0.4
		c0-0.3,0-1.1,0-2.4V63.4z M111.2,65.9c0,0.3,0,0.6,0.3,0.7c0.4,0.3,0.8,0.4,1.4,0.4c0.8,0,1.6-0.6,1.6-2.3c0-2-0.9-2.7-1.8-2.7
		c-0.6,0-1.2,0.3-1.5,0.9V65.9z"/>
	<path fill="#BBBBBB" d="M118.8,63.2c0,0.7,0,2.8,0,3.3c0,0.2,0.1,0.4,0.4,0.4h0.6c0.1,0,0.2,0,0.2,0.1v0.2c0,0.1,0,0.1-0.1,0.1
		c-0.1,0-0.7,0-1.6,0c-0.9,0-1.5,0-1.6,0c-0.1,0-0.1-0.1-0.1-0.1V67c0-0.1,0-0.1,0.2-0.1h0.7c0.2,0,0.3-0.1,0.3-0.4
		c0-0.4,0-2.8,0-3.7V62c0-1,0-2.3,0-2.6c0-0.5-0.3-0.7-0.7-0.8l-0.3-0.1c-0.1,0-0.1,0-0.1-0.1v-0.1c0,0,0-0.1,0.1-0.1
		c0.5-0.2,1.1-0.5,1.6-0.8c0.1-0.1,0.2-0.1,0.3-0.1c0.1,0,0.1,0.1,0.1,0.3c0,0.8-0.1,3.7-0.1,4.5V63.2z"/>
	<path fill="#BBBBBB" d="M121.5,66.5c-0.6-0.8-0.8-1.3-0.8-2.3c0-0.7,0.4-1.6,1.2-2.3c0.7-0.6,1.4-0.7,1.9-0.7c0.8,0,1.5,0.4,2,0.8
		c0.6,0.6,1,1.4,1,2.3c0,1.5-1.4,3.1-3.1,3.1C123,67.5,122.1,67.2,121.5,66.5z M125.6,64.3c0-1.6-1.1-2.5-1.9-2.5
		c-0.4,0-0.7,0.1-1.1,0.4c-0.5,0.6-0.7,1.1-0.7,2.2c0,0.8,0.1,1.3,0.5,2c0.3,0.5,0.7,0.7,1.4,0.7C124.9,67.1,125.6,65.8,125.6,64.3z
		"/>
	<path fill="#BBBBBB" d="M127.4,70.4c0-0.3,0.3-0.5,0.6-0.5c0.3,0,0.5,0.1,0.6,0.2c0.1,0,0.2,0,0.3-0.1c0.2-0.3,0.9-1.9,1.1-2.4
		c-0.1-0.4-1.6-4.7-1.7-5c-0.2-0.4-0.3-0.6-0.7-0.6h-0.4c-0.1,0-0.1,0-0.1-0.1v-0.3c0-0.1,0-0.1,0.1-0.1c0.1,0,0.5,0,1.3,0
		c0.7,0,1.2,0,1.3,0c0.1,0,0.1,0,0.1,0.1v0.3c0,0.1,0,0.1-0.1,0.1h-0.3c-0.2,0-0.2,0.1-0.2,0.3c0,0.3,1,3.4,1.2,3.7h0.1
		c0.1-0.2,1.4-3.1,1.4-3.5s0-0.5-0.2-0.5h-0.2c-0.1,0-0.1,0-0.1-0.1v-0.3c0-0.1,0-0.1,0.1-0.1c0.2,0,0.5,0,1.1,0c0.4,0,0.7,0,0.9,0
		c0.1,0,0.1,0.1,0.1,0.1v0.3c0,0.1,0,0.1-0.1,0.1h-0.2c-0.2,0-0.4,0.1-0.5,0.3c-0.3,0.4-1.2,2.5-2.2,4.7c-0.7,1.6-1.2,2.9-1.5,3.3
		c-0.2,0.4-0.4,0.9-1.2,0.9C127.6,71.2,127.4,70.9,127.4,70.4z"/>
	<path fill="#BBBBBB" d="M135.2,63.6c0,0.1,0,0.4,0,0.7c0,1.4,0.9,2.4,2,2.4c0.9,0,1.5-0.5,1.7-1c0-0.1,0.1-0.1,0.1-0.1l0.2,0.1
		c0,0,0.1,0.1,0,0.2c-0.3,0.6-1,1.5-2.2,1.5c-0.8,0-1.7-0.2-2.2-1c-0.5-0.7-0.6-1.2-0.6-2.2c0-0.5,0.1-1.5,0.9-2.2
		c0.6-0.6,1.3-0.7,2-0.7c1.6,0,2.1,1.5,2.1,2.1c0,0.2-0.2,0.2-0.4,0.2H135.2z M137.4,63.2c0.3,0,0.4-0.1,0.4-0.2
		c0-0.3-0.2-1.2-1.1-1.2c-0.6,0-1.2,0.4-1.5,1.4H137.4z"/>
	<path fill="#BBBBBB" d="M141.5,63.6c0,0.1,0,0.4,0,0.7c0,1.4,0.9,2.4,2,2.4c0.9,0,1.5-0.5,1.7-1c0-0.1,0.1-0.1,0.1-0.1l0.2,0.1
		c0,0,0.1,0.1,0,0.2c-0.3,0.6-1,1.5-2.2,1.5c-0.8,0-1.7-0.2-2.2-1c-0.5-0.7-0.6-1.2-0.6-2.2c0-0.5,0.1-1.5,0.9-2.2
		c0.6-0.6,1.3-0.7,2-0.7c1.6,0,2.1,1.5,2.1,2.1c0,0.2-0.2,0.2-0.4,0.2H141.5z M143.7,63.2c0.3,0,0.4-0.1,0.4-0.2
		c0-0.3-0.2-1.2-1.1-1.2c-0.6,0-1.2,0.4-1.5,1.4H143.7z"/>
	<path fill="#BBBBBB" d="M151.9,61.2c0-0.5,0-2.2,0-2.5c0-0.8-0.3-0.8-0.9-0.8h-0.4c-0.1,0-0.1,0-0.1-0.1v-0.4c0-0.1,0-0.1,0.1-0.1
		c0.2,0,0.9,0,1.9,0c0.4,0,1.3,0,1.8,0c1.1,0,2,0.1,2.5,0.4c0.8,0.4,1.1,1.1,1.1,1.9c0,1.4-0.6,1.7-1.7,2.3l0,0
		c1.4,0.4,2.3,1.3,2.3,2.8c0,0.7-0.4,1.7-1.1,2.1c-0.6,0.4-1.4,0.5-2.7,0.5c-1,0-1.5,0-2.1,0c-0.7,0-1.5,0-1.8,0
		c-0.2,0-0.2,0-0.2-0.1v-0.4c0-0.1,0-0.1,0.1-0.1h0.7c0.4,0,0.5-0.2,0.6-0.6c0-0.3,0.1-2.2,0.1-3.3V61.2z M153.1,61.8
		c0.3,0,0.5,0,0.7,0c0.8,0,1.4-0.1,1.8-0.4c0.6-0.4,0.8-1.1,0.8-1.7c0-0.5-0.2-1.1-0.7-1.5c-0.5-0.4-1.2-0.5-1.9-0.5
		c-0.2,0-0.4,0-0.5,0c-0.1,0-0.2,0.1-0.2,0.3c0,0.3,0,1.5,0,2.7V61.8z M153.1,63.1v1.9c0,1.3,0.3,1.9,1.5,1.9c1.2,0,2.3-0.6,2.3-2.2
		c0-1.1-0.6-1.9-1.4-2.2c-0.6-0.2-1.2-0.2-1.9-0.2h-0.4V63.1z"/>
	<path fill="#BBBBBB" d="M161.1,63.6c0,0.1,0,0.4,0,0.7c0,1.4,0.9,2.4,2,2.4c0.9,0,1.5-0.5,1.7-1c0-0.1,0.1-0.1,0.1-0.1l0.2,0.1
		c0,0,0.1,0.1,0,0.2c-0.3,0.6-1,1.5-2.2,1.5c-0.8,0-1.7-0.2-2.2-1c-0.5-0.7-0.6-1.2-0.6-2.2c0-0.5,0.1-1.5,0.9-2.2
		c0.6-0.6,1.3-0.7,2-0.7c1.6,0,2.1,1.5,2.1,2.1c0,0.2-0.2,0.2-0.4,0.2H161.1z M163.3,63.2c0.3,0,0.4-0.1,0.4-0.2
		c0-0.3-0.2-1.2-1.1-1.2c-0.6,0-1.2,0.4-1.5,1.4H163.3z"/>
	<path fill="#BBBBBB" d="M172,66.6c0,0.2,0.1,0.3,0.3,0.3h0.4c0.1,0,0.2,0,0.2,0.1v0.2c0,0.1,0,0.2-0.1,0.2c-0.1,0-0.5,0-1.3,0
		c-0.7,0-1.2,0-1.3,0c-0.1,0-0.1,0-0.1-0.2V67c0-0.1,0-0.1,0.2-0.1h0.4c0.2,0,0.3-0.1,0.3-0.3c0-0.4,0-0.8,0-1.2v-1.9
		c0-0.6,0-1-0.4-1.3c-0.3-0.3-0.7-0.3-1-0.3c-0.2,0-0.7,0.1-1.1,0.5c-0.3,0.3-0.3,0.7-0.3,1v2.9c0,0.4,0,0.5,0.3,0.5h0.4
		c0.1,0,0.1,0,0.1,0.1v0.2c0,0.1,0,0.1-0.1,0.1c-0.1,0-0.5,0-1.2,0c-0.7,0-1.2,0-1.2,0c-0.1,0-0.1,0-0.1-0.1V67c0-0.1,0-0.1,0.1-0.1
		h0.4c0.2,0,0.3,0,0.3-0.3v-3.3c0-0.4-0.2-0.7-0.6-0.8l-0.1-0.1c-0.1,0-0.1-0.1-0.1-0.1v-0.1c0-0.1,0.1-0.1,0.1-0.1l1.2-0.7
		c0.1-0.1,0.2-0.1,0.3-0.1c0.1,0,0.1,0.1,0.1,0.2l0.1,0.9h0c0.4-0.5,1.2-1,1.9-1c0.4,0,0.9,0.1,1.2,0.3c0.4,0.3,0.8,1,0.8,1.3V66.6z
		"/>
	<path fill="#BBBBBB" d="M175.1,63.6c0,0.1,0,0.4,0,0.7c0,1.4,0.9,2.4,2,2.4c0.9,0,1.5-0.5,1.7-1c0-0.1,0.1-0.1,0.1-0.1l0.2,0.1
		c0,0,0.1,0.1,0,0.2c-0.3,0.6-1,1.5-2.2,1.5c-0.8,0-1.7-0.2-2.2-1c-0.5-0.7-0.6-1.2-0.6-2.2c0-0.5,0.1-1.5,0.9-2.2
		c0.6-0.6,1.3-0.7,2-0.7c1.6,0,2.1,1.5,2.1,2.1c0,0.2-0.2,0.2-0.4,0.2H175.1z M177.3,63.2c0.3,0,0.4-0.1,0.4-0.2
		c0-0.3-0.2-1.2-1.1-1.2c-0.6,0-1.2,0.4-1.5,1.4H177.3z"/>
	<path fill="#BBBBBB" d="M181.2,62.2h-0.9c-0.1,0-0.1-0.1-0.1-0.1l0.1-0.4c0-0.1,0.1-0.1,0.2-0.1h0.8v-0.2c0-1.4,0.4-2.2,1.1-2.9
		c0.8-0.8,1.8-1.2,2.5-1.2c0.8,0,1.4,0.5,1.4,1c0,0.5-0.4,0.7-0.7,0.7c-0.3,0-0.6-0.2-0.9-0.5c-0.2-0.3-0.4-0.4-0.7-0.4
		c-0.4,0-0.8,0.2-1.1,0.5c-0.7,0.7-0.7,1.9-0.7,2.8v0.3h2c0.5,0,1.1-0.1,1.5-0.2c0.1,0,0.2-0.1,0.3-0.1c0.1,0,0.1,0.1,0.1,0.2
		c0,0.2,0,1.1,0,2.4v1.5c0,0.5,0,1.1,0,1.2c0,0.3,0.1,0.4,0.3,0.4h0.6c0.1,0,0.1,0,0.1,0.1v0.3c0,0.1,0,0.1-0.1,0.1
		c-0.1,0-0.5,0-1.3,0c-0.8,0-1.2,0-1.4,0c-0.1,0-0.1,0-0.1-0.1V67c0-0.1,0-0.1,0.1-0.1h0.6c0.1,0,0.2-0.1,0.2-0.3v-1.2v-2.1
		c0-0.8-0.2-1.1-1.2-1.1h-1.7v1.2c0,1.7,0,2.9,0,3.1c0,0.2,0,0.4,0.3,0.4h0.6c0.1,0,0.1,0,0.1,0.1v0.3c0,0.1,0,0.1-0.1,0.1
		c-0.1,0-0.5,0-1.4,0c-0.9,0-1.5,0-1.6,0c-0.1,0-0.1,0-0.1-0.1V67c0-0.1,0-0.1,0.1-0.1h0.7c0.2,0,0.3-0.1,0.3-0.5v-2.6V62.2z"/>
	<path fill="#BBBBBB" d="M190,65.6c0,1.1,0.5,1.2,0.7,1.2c0.3,0,0.7-0.1,0.9-0.2c0.1,0,0.1,0,0.2,0l0.1,0.1c0,0.1,0,0.1,0,0.2
		c-0.1,0.1-0.7,0.6-1.6,0.6c-0.7,0-1.4-0.7-1.4-1.2c0-0.6,0-1.8,0-2V64c0-0.3,0-1.2,0-1.8h-0.9c-0.1,0-0.2-0.1-0.2-0.2
		c0-0.1,0.1-0.2,0.3-0.3c0.3-0.2,1.4-1.3,1.6-1.8c0-0.1,0.1-0.1,0.2-0.1c0.1,0,0.1,0.1,0.1,0.2l-0.1,1.4h1.9c0.1,0,0.1,0.1,0.1,0.1
		l-0.1,0.5c0,0.1,0,0.1-0.1,0.1h-1.8c0,0.6,0,1.3,0,2V65.6z"/>
	<path fill="#BBBBBB" d="M193.3,67.1c-0.1,0-0.1-0.1-0.1-0.2l-0.2-1.3c0-0.1,0-0.1,0.1-0.1l0.2,0c0.1,0,0.1,0,0.1,0.1l0.4,0.7
		c0.3,0.5,0.5,0.9,1.2,0.9c0.5,0,1.1-0.3,1.1-1c0-0.6-0.3-1-1.4-1.3c-0.8-0.2-1.7-0.7-1.7-1.8c0-1,0.9-1.7,2-1.7
		c0.7,0,1,0.2,1.3,0.3c0.2,0.1,0.2,0.2,0.3,0.3l0.2,1c0,0.1,0,0.1-0.1,0.1l-0.2,0.1c-0.1,0-0.1,0-0.1-0.1l-0.5-0.6
		c-0.2-0.3-0.4-0.5-1-0.5c-0.5,0-1.1,0.3-1.1,0.9c0,0.8,0.7,1,1.3,1.2c1,0.3,1.7,0.7,1.7,1.8c0,1.1-0.9,1.9-2.1,1.9
		C194.1,67.5,193.5,67.2,193.3,67.1z"/>
</g>
<g>
	<path fill="#BBBBBB" d="M58.6,82.9L58.6,82.9l0.9-2.4c0.1-0.4,0.1-0.6-0.2-0.6h-0.1c-0.1,0-0.1,0-0.1-0.1v-0.2c0-0.1,0-0.1,0.1-0.1
		c0.1,0,0.4,0,0.8,0c0.5,0,0.7,0,0.8,0c0.1,0,0.1,0,0.1,0.1v0.2c0,0.1,0,0.1-0.1,0.1h-0.3c-0.1,0-0.3,0.1-0.3,0.2
		c-0.1,0.2-1.5,3.6-1.6,3.9c0,0.1-0.1,0.1-0.2,0.1c-0.1,0-0.1-0.1-0.2-0.2l-1-3H57L55.7,84c-0.1,0.1-0.1,0.2-0.2,0.2
		s-0.1-0.1-0.2-0.2l-1.4-3.8c-0.1-0.2-0.2-0.3-0.4-0.3h-0.2c-0.1,0-0.1,0-0.1-0.1v-0.2c0-0.1,0-0.1,0.1-0.1c0.1,0,0.4,0,1,0
		c0.5,0,0.7,0,0.9,0c0.1,0,0.1,0,0.1,0.1v0.2c0,0.1,0,0.1-0.1,0.1H55c-0.1,0-0.2,0.1-0.1,0.3l0.8,2.8h0l1.1-2.6c0-0.2,0-0.3-0.1-0.3
		C56.7,80,56.6,80,56.5,80h-0.2c-0.1,0-0.1,0-0.1-0.1v-0.2c0-0.1,0-0.1,0.1-0.1c0.1,0,0.4,0,1,0c0.5,0,0.7,0,0.8,0
		c0.1,0,0.1,0,0.1,0.1v0.2c0,0.1,0,0.1-0.1,0.1h-0.2c-0.1,0-0.2,0.1-0.1,0.3L58.6,82.9z"/>
	<path fill="#BBBBBB" d="M66.1,82.9L66.1,82.9l0.9-2.4c0.1-0.4,0.1-0.6-0.2-0.6h-0.1c-0.1,0-0.1,0-0.1-0.1v-0.2c0-0.1,0-0.1,0.1-0.1
		c0.1,0,0.4,0,0.8,0c0.5,0,0.7,0,0.8,0c0.1,0,0.1,0,0.1,0.1v0.2c0,0.1,0,0.1-0.1,0.1h-0.3c-0.1,0-0.3,0.1-0.3,0.2
		c-0.1,0.2-1.5,3.6-1.6,3.9c0,0.1-0.1,0.1-0.2,0.1c-0.1,0-0.1-0.1-0.2-0.2l-1-3h-0.1L63.3,84c-0.1,0.1-0.1,0.2-0.2,0.2
		s-0.1-0.1-0.2-0.2l-1.4-3.8c-0.1-0.2-0.2-0.3-0.4-0.3h-0.2c-0.1,0-0.1,0-0.1-0.1v-0.2c0-0.1,0-0.1,0.1-0.1c0.1,0,0.4,0,1,0
		c0.5,0,0.7,0,0.9,0c0.1,0,0.1,0,0.1,0.1v0.2c0,0.1,0,0.1-0.1,0.1h-0.1c-0.1,0-0.2,0.1-0.1,0.3l0.8,2.8h0l1.1-2.6
		c0-0.2,0-0.3-0.1-0.3C64.3,80,64.2,80,64,80h-0.2c-0.1,0-0.1,0-0.1-0.1v-0.2c0-0.1,0-0.1,0.1-0.1c0.1,0,0.4,0,1,0
		c0.5,0,0.7,0,0.8,0c0.1,0,0.1,0,0.1,0.1v0.2c0,0.1,0,0.1-0.1,0.1h-0.2c-0.1,0-0.2,0.1-0.1,0.3L66.1,82.9z"/>
	<path fill="#BBBBBB" d="M73.7,82.9L73.7,82.9l0.9-2.4c0.1-0.4,0.1-0.6-0.2-0.6h-0.1c-0.1,0-0.1,0-0.1-0.1v-0.2c0-0.1,0-0.1,0.1-0.1
		c0.1,0,0.4,0,0.8,0c0.5,0,0.7,0,0.8,0c0.1,0,0.1,0,0.1,0.1v0.2c0,0.1,0,0.1-0.1,0.1h-0.3c-0.1,0-0.3,0.1-0.3,0.2
		c-0.1,0.2-1.5,3.6-1.6,3.9c0,0.1-0.1,0.1-0.2,0.1c-0.1,0-0.1-0.1-0.2-0.2l-1-3h-0.1L70.8,84c-0.1,0.1-0.1,0.2-0.2,0.2
		s-0.1-0.1-0.2-0.2L69,80.2c-0.1-0.2-0.2-0.3-0.4-0.3h-0.2c-0.1,0-0.1,0-0.1-0.1v-0.2c0-0.1,0-0.1,0.1-0.1c0.1,0,0.4,0,1,0
		c0.5,0,0.7,0,0.9,0c0.1,0,0.1,0,0.1,0.1v0.2c0,0.1,0,0.1-0.1,0.1h-0.1c-0.1,0-0.2,0.1-0.1,0.3l0.8,2.8h0l1.1-2.6
		c0-0.2,0-0.3-0.1-0.3C71.8,80,71.7,80,71.6,80h-0.2c-0.1,0-0.1,0-0.1-0.1v-0.2c0-0.1,0-0.1,0.1-0.1c0.1,0,0.4,0,1,0
		c0.5,0,0.7,0,0.8,0c0.1,0,0.1,0,0.1,0.1v0.2c0,0.1,0,0.1-0.1,0.1H73c-0.1,0-0.2,0.1-0.1,0.3L73.7,82.9z"/>
	<path fill="#BBBBBB" d="M75.9,83.5c0-0.2,0.1-0.6,0.7-0.6c0.3,0,0.6,0.2,0.6,0.6c0,0.4-0.3,0.6-0.6,0.6
		C76.3,84.2,75.9,84,75.9,83.5z"/>
	<path fill="#BBBBBB" d="M78.9,78.3c0-0.7-0.1-0.9-0.5-1l-0.1,0c-0.1,0-0.1-0.1-0.1-0.1v-0.1c0,0,0-0.1,0.1-0.1
		c0.3-0.1,0.9-0.4,1.1-0.6c0.1-0.1,0.2-0.1,0.2-0.1c0.1,0,0.1,0.1,0.1,0.2c0,0.1,0,1.3,0,2.3V80c0.3-0.3,1-0.5,1.5-0.5
		c0.9,0,2,0.8,2,2.3c0,1.3-1,2.4-2.2,2.4c-0.6,0-1-0.1-1.3-0.3l-0.4,0.2c0,0-0.1,0-0.1,0l-0.1,0c0,0-0.1,0,0-0.1c0-0.1,0-1,0-1.8
		V78.3z M79.6,81.7c0,0.9,0,1.2,0.2,1.6c0.1,0.3,0.6,0.5,1,0.5c0.6,0,1.4-0.4,1.4-1.8c0-1-0.5-2-1.6-2c-0.4,0-0.8,0.1-1,0.4V81.7z"
		/>
	<path fill="#BBBBBB" d="M84.7,81.2c0-0.5-0.1-0.7-0.4-0.8l-0.2-0.1c-0.1,0-0.1,0-0.1-0.1v-0.1c0,0,0-0.1,0.1-0.1l1.1-0.5
		c0.1,0,0.1,0,0.1,0c0.1,0,0.1,0.1,0.1,0.1l0.1,0.7h0c0.3-0.5,0.8-0.9,1.3-0.9c0.4,0,0.5,0.2,0.5,0.5c0,0.3-0.3,0.5-0.4,0.5
		c-0.1,0-0.2,0-0.3-0.1c-0.1-0.1-0.2-0.1-0.4-0.1c-0.2,0-0.4,0.1-0.6,0.4c-0.1,0.1-0.1,0.3-0.1,0.3v2.2c0,0.3,0.1,0.4,0.3,0.4h0.5
		c0.1,0,0.1,0,0.1,0.1V84c0,0.1,0,0.1-0.1,0.1c-0.1,0-0.6,0-1.1,0c-0.7,0-1.1,0-1.2,0c0,0-0.1,0-0.1-0.1v-0.2c0-0.1,0-0.1,0.1-0.1
		h0.4c0.2,0,0.2-0.1,0.2-0.2c0-0.4,0-0.7,0-1.3V81.2z"/>
	<path fill="#BBBBBB" d="M88.8,80.9c0-0.4-0.1-0.6-0.6-0.6c-0.1,0-0.1,0-0.1-0.1v-0.1c0,0,0-0.1,0.1-0.1c0.3-0.1,0.7-0.3,1.2-0.5
		c0.1,0,0.1-0.1,0.2-0.1c0.1,0,0.1,0.1,0.1,0.1c0,0.2,0,0.9,0,1.7v1.2c0,0.4,0,0.8,0,0.9c0,0.2,0.1,0.3,0.2,0.3h0.5
		c0.1,0,0.1,0,0.1,0.1V84c0,0.1,0,0.1-0.1,0.1c-0.1,0-0.6,0-1,0c-0.6,0-1,0-1.2,0c-0.1,0-0.1,0-0.1-0.1v-0.2c0-0.1,0-0.1,0.1-0.1
		h0.5c0.1,0,0.2,0,0.2-0.2c0-0.3,0-0.7,0-1V80.9z M88.3,77.7c0-0.3,0.2-0.6,0.7-0.6c0.4,0,0.6,0.3,0.6,0.5c0,0.3-0.2,0.6-0.6,0.6
		C88.6,78.2,88.3,78,88.3,77.7z"/>
	<path fill="#BBBBBB" d="M92,81.2c0,0.1,0,0.3,0,0.5c0,1,0.7,1.8,1.5,1.8c0.7,0,1.1-0.4,1.3-0.7c0,0,0.1-0.1,0.1-0.1l0.1,0.1
		c0,0,0.1,0,0,0.2c-0.2,0.4-0.7,1.2-1.7,1.2c-0.6,0-1.3-0.2-1.7-0.8c-0.4-0.5-0.5-0.9-0.5-1.7c0-0.4,0.1-1.1,0.7-1.7
		c0.5-0.5,1-0.6,1.5-0.6c1.2,0,1.6,1.2,1.6,1.6c0,0.2-0.1,0.2-0.3,0.2H92z M93.7,80.9c0.2,0,0.3-0.1,0.3-0.1c0-0.2-0.1-1-0.8-1
		c-0.5,0-0.9,0.3-1.1,1.1H93.7z"/>
	<path fill="#BBBBBB" d="M96.6,81.2c0-0.5-0.1-0.7-0.4-0.8L96,80.3c-0.1,0-0.1,0-0.1-0.1v-0.1c0,0,0-0.1,0.1-0.1l1.1-0.5
		c0.1,0,0.1,0,0.1,0c0.1,0,0.1,0.1,0.1,0.1l0.1,0.7h0c0.3-0.5,0.8-0.9,1.3-0.9c0.4,0,0.5,0.2,0.5,0.5c0,0.3-0.3,0.5-0.4,0.5
		c-0.1,0-0.2,0-0.3-0.1c-0.1-0.1-0.2-0.1-0.4-0.1c-0.2,0-0.4,0.1-0.6,0.4c-0.1,0.1-0.1,0.3-0.1,0.3v2.2c0,0.3,0.1,0.4,0.3,0.4h0.5
		c0.1,0,0.1,0,0.1,0.1V84c0,0.1,0,0.1-0.1,0.1c-0.1,0-0.6,0-1.1,0c-0.7,0-1.1,0-1.2,0c0,0-0.1,0-0.1-0.1v-0.2c0-0.1,0-0.1,0.1-0.1
		h0.4c0.2,0,0.2-0.1,0.2-0.2c0-0.4,0-0.7,0-1.3V81.2z"/>
	<path fill="#BBBBBB" d="M99.9,81C99.9,80.9,100,80.9,99.9,81l3.1-0.1c0.1,0,0.1,0,0.1,0.1v0.4c0,0.1,0,0.1-0.1,0.1h-3
		c-0.1,0-0.1,0-0.1-0.1V81z"/>
	<path fill="#BBBBBB" d="M104.7,78.3c0-0.7-0.1-0.9-0.5-1l-0.1,0c-0.1,0-0.1-0.1-0.1-0.1v-0.1c0,0,0-0.1,0.1-0.1
		c0.3-0.1,0.9-0.4,1.1-0.6c0.1-0.1,0.2-0.1,0.2-0.1c0.1,0,0.1,0.1,0.1,0.2c0,0.1,0,1.3,0,2.3V80c0.3-0.3,1-0.5,1.5-0.5
		c0.9,0,2,0.8,2,2.3c0,1.3-1,2.4-2.2,2.4c-0.6,0-1-0.1-1.3-0.3l-0.4,0.2c0,0-0.1,0-0.1,0l-0.1,0c0,0-0.1,0,0-0.1c0-0.1,0-1,0-1.8
		V78.3z M105.5,81.7c0,0.9,0,1.2,0.2,1.6c0.1,0.3,0.6,0.5,1,0.5c0.6,0,1.4-0.4,1.4-1.8c0-1-0.5-2-1.6-2c-0.4,0-0.8,0.1-1,0.4V81.7z"
		/>
	<path fill="#BBBBBB" d="M110.6,81.2c0-0.5-0.1-0.7-0.4-0.8l-0.2-0.1c-0.1,0-0.1,0-0.1-0.1v-0.1c0,0,0-0.1,0.1-0.1l1.1-0.5
		c0.1,0,0.1,0,0.2,0c0.1,0,0.1,0.1,0.1,0.1l0.1,0.7h0c0.3-0.5,0.8-0.9,1.3-0.9c0.4,0,0.5,0.2,0.5,0.5c0,0.3-0.3,0.5-0.4,0.5
		c-0.1,0-0.2,0-0.3-0.1c-0.1-0.1-0.2-0.1-0.4-0.1c-0.2,0-0.4,0.1-0.6,0.4c-0.1,0.1-0.1,0.3-0.1,0.3v2.2c0,0.3,0.1,0.4,0.3,0.4h0.5
		c0.1,0,0.1,0,0.1,0.1V84c0,0.1,0,0.1-0.1,0.1c-0.1,0-0.6,0-1.1,0c-0.7,0-1.1,0-1.2,0c0,0-0.1,0-0.1-0.1v-0.2c0-0.1,0-0.1,0.1-0.1
		h0.4c0.2,0,0.2-0.1,0.2-0.2c0-0.4,0-0.7,0-1.3V81.2z"/>
	<path fill="#BBBBBB" d="M114.6,80.9c0-0.4-0.1-0.6-0.6-0.6c-0.1,0-0.1,0-0.1-0.1v-0.1c0,0,0-0.1,0.1-0.1c0.3-0.1,0.7-0.3,1.2-0.5
		c0.1,0,0.1-0.1,0.2-0.1c0.1,0,0.1,0.1,0.1,0.1c0,0.2,0,0.9,0,1.7v1.2c0,0.4,0,0.8,0,0.9c0,0.2,0.1,0.3,0.2,0.3h0.5
		c0.1,0,0.1,0,0.1,0.1V84c0,0.1,0,0.1-0.1,0.1c-0.1,0-0.6,0-1,0c-0.6,0-1,0-1.2,0c-0.1,0-0.1,0-0.1-0.1v-0.2c0-0.1,0-0.1,0.1-0.1
		h0.5c0.1,0,0.2,0,0.2-0.2c0-0.3,0-0.7,0-1V80.9z M114.1,77.7c0-0.3,0.2-0.6,0.7-0.6c0.4,0,0.6,0.3,0.6,0.5c0,0.3-0.2,0.6-0.6,0.6
		C114.5,78.2,114.1,78,114.1,77.7z"/>
	<path fill="#BBBBBB" d="M117.8,81.2c0,0.1,0,0.3,0,0.5c0,1,0.7,1.8,1.5,1.8c0.7,0,1.1-0.4,1.3-0.7c0,0,0.1-0.1,0.1-0.1l0.1,0.1
		c0,0,0.1,0,0,0.2c-0.2,0.4-0.7,1.2-1.7,1.2c-0.6,0-1.3-0.2-1.7-0.8c-0.4-0.5-0.5-0.9-0.5-1.7c0-0.4,0.1-1.1,0.7-1.7
		c0.5-0.5,1-0.6,1.5-0.6c1.2,0,1.6,1.2,1.6,1.6c0,0.2-0.1,0.2-0.3,0.2H117.8z M119.5,80.9c0.2,0,0.3-0.1,0.3-0.1c0-0.2-0.1-1-0.8-1
		c-0.5,0-0.9,0.3-1.1,1.1H119.5z"/>
	<path fill="#BBBBBB" d="M122.4,81.2c0-0.5-0.1-0.7-0.4-0.8l-0.2-0.1c-0.1,0-0.1,0-0.1-0.1v-0.1c0,0,0-0.1,0.1-0.1l1.1-0.5
		c0.1,0,0.1,0,0.2,0c0.1,0,0.1,0.1,0.1,0.1l0.1,0.7h0c0.3-0.5,0.8-0.9,1.3-0.9c0.4,0,0.5,0.2,0.5,0.5c0,0.3-0.3,0.5-0.4,0.5
		c-0.1,0-0.2,0-0.3-0.1c-0.1-0.1-0.2-0.1-0.4-0.1c-0.2,0-0.4,0.1-0.6,0.4c-0.1,0.1-0.1,0.3-0.1,0.3v2.2c0,0.3,0.1,0.4,0.3,0.4h0.5
		c0.1,0,0.1,0,0.1,0.1V84c0,0.1,0,0.1-0.1,0.1c-0.1,0-0.6,0-1.1,0c-0.7,0-1.1,0-1.2,0c0,0-0.1,0-0.1-0.1v-0.2c0-0.1,0-0.1,0.1-0.1
		h0.4c0.2,0,0.2-0.1,0.2-0.2c0-0.4,0-0.7,0-1.3V81.2z"/>
	<path fill="#BBBBBB" d="M125.3,83.5c0-0.2,0.1-0.6,0.7-0.6c0.3,0,0.6,0.2,0.6,0.6c0,0.4-0.3,0.6-0.6,0.6
		C125.7,84.2,125.3,84,125.3,83.5z"/>
	<path fill="#BBBBBB" d="M128.7,81.5c0,0.6,0.3,1.2,0.5,1.6c0.4,0.5,0.8,0.5,1.2,0.5c0.5,0,0.8-0.1,1.2-0.5c0,0,0.1,0,0.1,0l0.1,0.1
		c0,0,0.1,0.1,0,0.1c-0.3,0.4-1,0.8-1.7,0.8c-0.6,0-1.2-0.1-1.7-0.7c-0.4-0.5-0.5-1-0.5-1.5c0-1.3,0.9-2.5,2.3-2.5
		c1.1,0,1.5,0.6,1.5,0.9c0,0.2-0.2,0.4-0.4,0.4c-0.2,0-0.4-0.1-0.6-0.4c-0.2-0.4-0.5-0.5-0.7-0.5C129.3,79.8,128.7,80.3,128.7,81.5z
		"/>
	<path fill="#BBBBBB" d="M133.1,83.4c-0.5-0.6-0.6-1-0.6-1.7c0-0.5,0.3-1.2,0.9-1.7c0.6-0.4,1.1-0.5,1.4-0.5c0.6,0,1.2,0.3,1.5,0.6
		c0.5,0.5,0.7,1,0.7,1.7c0,1.2-1,2.4-2.4,2.4C134.2,84.2,133.5,84,133.1,83.4z M136.2,81.7c0-1.2-0.9-1.9-1.4-1.9
		c-0.3,0-0.6,0.1-0.8,0.3c-0.4,0.4-0.6,0.9-0.6,1.7c0,0.6,0.1,1,0.4,1.5c0.2,0.4,0.6,0.6,1.1,0.6C135.6,83.8,136.2,82.9,136.2,81.7z
		"/>
	<path fill="#BBBBBB" d="M141.6,81.3c0-0.8-0.1-1-0.3-1.2c-0.1-0.1-0.4-0.2-0.7-0.2c-0.3,0-0.7,0.1-1,0.6c-0.1,0.2-0.1,0.4-0.1,0.7
		v2.1c0,0.2,0.1,0.3,0.2,0.3h0.4c0.1,0,0.1,0,0.1,0.1V84c0,0.1,0,0.1-0.1,0.1c-0.1,0-0.4,0-1,0c-0.6,0-0.9,0-1,0
		c-0.1,0-0.1,0-0.1-0.1v-0.2c0-0.1,0-0.1,0.1-0.1h0.4c0.1,0,0.2-0.1,0.2-0.3c0-0.2,0-0.4,0-0.6V81c0-0.2,0-0.4-0.3-0.5l-0.2-0.1
		c-0.1,0-0.1-0.1-0.1-0.1v-0.1c0,0,0-0.1,0.1-0.1l0.9-0.5c0.1,0,0.2-0.1,0.2-0.1c0.1,0,0.1,0.1,0.1,0.1l0,0.6h0
		c0.3-0.4,1-0.8,1.6-0.8c0.6,0,1,0.3,1.2,0.8h0.1c0.3-0.4,0.9-0.8,1.6-0.8c0.4,0,0.7,0.1,1,0.3c0.2,0.3,0.5,0.5,0.5,1.3v2.4
		c0,0.2,0.1,0.2,0.2,0.2h0.3c0.1,0,0.1,0,0.1,0.1V84c0,0.1,0,0.1-0.1,0.1c-0.1,0-0.4,0-0.9,0c-0.5,0-0.9,0-1,0c-0.1,0-0.1,0-0.1-0.1
		v-0.2c0-0.1,0-0.1,0.1-0.1h0.3c0.1,0,0.2-0.1,0.2-0.2c0-0.2,0-0.6,0-0.9V81c0-0.4-0.1-0.7-0.3-0.9c-0.2-0.1-0.5-0.2-0.8-0.2
		c-0.3,0-0.8,0.2-0.9,0.6c-0.2,0.3-0.1,0.6-0.1,1.1v1.9c0,0.1,0.1,0.2,0.2,0.2h0.4c0.1,0,0.1,0,0.1,0.1V84c0,0.1,0,0.1-0.1,0.1
		c-0.1,0-0.4,0-1,0c-0.6,0-0.9,0-1,0c-0.1,0-0.1,0-0.1-0.1v-0.2c0-0.1,0-0.1,0.1-0.1h0.3c0.2,0,0.2,0,0.2-0.2V81.3z"/>
</g>
<rect fill="#BBBBBB" width="198.9" height="4.9"/>
<rect y="42.9" fill="#BBBBBB" width="198.9" height="4.9"/>
<rect y="79.1" fill="#BBBBBB" width="48.9" height="4.9"/>
<rect x="149.9" y="79.1" fill="#BBBBBB" width="48.9" height="4.9"/>
</svg>
