<?xml version="1.0" encoding="utf-8"?>
<!-- Generator: Adobe Illustrator 19.1.0, SVG Export Plug-In . SVG Version: 6.00 Build 0)  -->
<!DOCTYPE svg PUBLIC "-//W3C//DTD SVG 1.1//EN" "http://www.w3.org/Graphics/SVG/1.1/DTD/svg11.dtd">
<svg version="1.1" id="Layer_1" xmlns="http://www.w3.org/2000/svg" xmlns:xlink="http://www.w3.org/1999/xlink" x="0px" y="0px"
	 viewBox="-312 353 121.6 64.5" style="enable-background:new -312 353 121.6 64.5;" xml:space="preserve">
<style type="text/css">
	.st0{fill:#BBBBBB;}
	.st1{fill:#9F9F9F;}
</style>
<g>
	<g>
		<g>
			<path class="st0" d="M-280,368.4h-19.4l-9.7,16.9l9.7,16.9h19.4l9.7-16.9L-280,368.4z M-281.5,392.3h-4.6v-5.9l0.8-1.4l-4.5,2.9
				l-4.5-2.9l0.8,1.4v5.9h-4.6v-13.9h2.8l5.5,3.9l5.5-3.9h2.7V392.3z"/>
		</g>
	</g>
	<g>
		<path class="st1" d="M-263.8,381.5h3l0.2,0.6c0.4-0.6,1.3-1.1,2.4-1.1c1.2,0,2,0.4,2.4,1.1c0.5-0.7,1.4-1.1,2.5-1.1
			c2.2,0,2.9,1.2,2.9,3.6v5.5h-3.1v-5.5c0-0.4-0.3-0.7-0.8-0.7c-0.4,0-0.8,0.2-0.8,0.7v5.5h-3.9v-5.5c0-0.4-0.3-0.7-0.8-0.7
			c-0.5,0-0.8,0.2-0.8,0.7v5.5h-3.1C-263.8,390.1-263.8,381.5-263.8,381.5z"/>
		<path class="st1" d="M-249.9,385.5c0-3.4,2.1-4.6,4.9-4.6c2.7,0,4.6,1.3,4.6,4.6c0,3.4-2.2,4.6-4.9,4.6
			C-248,390.2-249.9,388.9-249.9,385.5z M-244,385.5c0-1.2-0.3-1.8-1.2-1.8c-0.8,0-1.2,0.6-1.2,1.8c0,1.2,0.3,1.8,1.2,1.8
			C-244.3,387.4-244,386.7-244,385.5z"/>
		<path class="st1" d="M-235.6,385.5c0-3.3,2.1-4.6,4.9-4.6c2.7,0,4.6,1.3,4.6,4.6c0,3.4-2.2,4.6-4.9,4.6
			C-233.8,390.1-235.6,388.8-235.6,385.5z M-229.7,385.5c0-1.2-0.3-1.8-1.2-1.8c-0.8,0-1.2,0.6-1.2,1.8c0,1.2,0.3,1.8,1.2,1.8
			C-230,387.3-229.7,386.7-229.7,385.5z"/>
		<path class="st1" d="M-241,392.6V390c0,0.2,0.6,0.3,0.9,0.3c0.4,0,0.7-0.2,0.7-0.6v-8.2h3.1v8.2c0,2.2-1,3.3-3.2,3.3
			C-240.3,393-241,392.8-241,392.6z M-239.8,379.1c0-0.9,0.8-1.5,1.8-1.5c1,0,1.8,0.6,1.8,1.5c0,0.9-0.8,1.5-1.8,1.5
			C-239,380.6-239.8,380-239.8,379.1z"/>
		<path class="st1" d="M-225.3,387v-3.2h-0.8v-1.5l2.9-3.2h1.8v2.4h1.6v2.4h-1.6v2.7c0,0.5,0.1,0.8,0.5,0.8c0.5,0,1-0.2,1-0.5v2.7
			c0,0.4-1.1,0.7-2.4,0.7C-224.4,390.2-225.3,388.9-225.3,387z"/>
		<path class="st1" d="M-219.3,385.5c0-3.3,2.2-4.6,4.6-4.6c2.3,0,4.3,0.8,4.3,4.2c0,0.3-0.1,1-0.1,1c-1.2,0-5.1,0-5.1,0
			c0.1,0.8,0.5,0.9,2.1,0.9c1.3,0,1.6,0,2.4-0.3v2.7c-0.8,0.4-1.3,0.6-3.2,0.6C-217.7,390.2-219.3,388.7-219.3,385.5z M-213.5,384.6
			v-0.2c0-0.5-0.4-1-1.1-1c-0.7,0-1.1,0.4-1.1,1.2C-215.8,384.6-213.5,384.6-213.5,384.6z"/>
		<path class="st1" d="M-210.1,385.5c0-3.2,2.1-4.6,4.6-4.6c1.4,0,2.1,0.4,3,0.7v3c-0.8-0.4-1.3-0.6-2.1-0.6c-1.2,0-1.7,0.5-1.7,1.6
			c0,1.1,0.6,1.6,1.7,1.6c0.8,0,1.3-0.2,2.1-0.6v2.9c-0.8,0.4-1.5,0.8-2.9,0.8C-208.1,390.2-210.1,388.8-210.1,385.5z"/>
		<path class="st1" d="M-201.7,378.3h3.1v3.4c0.8-0.4,1.3-0.7,2.3-0.7c2.2,0,3.2,1.2,3.2,3.6v5.5h-3.9v-5.5c0-0.3-0.3-0.7-0.8-0.7
			c-0.4,0-0.8,0.3-0.8,0.7v5.5h-3.1L-201.7,378.3L-201.7,378.3z"/>
	</g>
</g>
</svg>
