<?xml version="1.0" encoding="utf-8"?>
<!-- Generator: Adobe Illustrator 19.1.0, SVG Export Plug-In . SVG Version: 6.00 Build 0)  -->
<!DOCTYPE svg PUBLIC "-//W3C//DTD SVG 1.1//EN" "http://www.w3.org/Graphics/SVG/1.1/DTD/svg11.dtd">
<svg version="1.1" id="Layer_1" xmlns="http://www.w3.org/2000/svg" xmlns:xlink="http://www.w3.org/1999/xlink" x="0px" y="0px"
	 viewBox="-406 361.2 90 47.7" style="enable-background:new -406 361.2 90 47.7;" xml:space="preserve">
<style type="text/css">
	.st0{fill:#A6A6A6;}
	.st1{fill:#C8C8C8;}
</style>
<g>
	<g>
		<path class="st0" d="M-372.7,393.4h-4.5v-15.7h4.6c4.5,0,6.8,2.8,6.8,7.8C-365.8,390.6-368.3,393.4-372.7,393.4z M-368.9,385.6
			c0-3.3-1.3-5-3.9-5h-1.7v9.9h1.6C-370.1,390.5-368.9,388.6-368.9,385.6L-368.9,385.6z"/>
		<path class="st0" d="M-363.1,393.4v-15.7h2.9v15.7C-360.3,393.4-363.1,393.4-363.1,393.4z"/>
		<path class="st0" d="M-346.9,393.4v-8.6l-3.6,8.9h-0.1l-3.5-8.8v8.3h-2.9v-15.6h3l3.5,8.6l3.5-8.6h3v15.7H-346.9L-346.9,393.4z"/>
		<path class="st0" d="M-340.9,393.4v-15.7h9.8v2.9h-6.9v2.6h5.7v2.9h-5.7v4.5h7.2v2.9L-340.9,393.4L-340.9,393.4z"/>
		<path class="st0" d="M-322.8,393.8c-3.2,0-6.5-2.9-6.5-8.3s3.1-8.3,6.5-8.3c3.3,0,6.5,2.8,6.5,8.3
			C-316.4,391.2-319.7,393.8-322.8,393.8z M-319.3,385.6c0-3.6-1.6-5.4-3.4-5.4c-1.9,0-3.4,1.6-3.4,5.3c0,3.6,1.6,5.3,3.4,5.3
			C-321,390.9-319.3,389.2-319.3,385.6L-319.3,385.6z"/>
	</g>
	<g>
		<path class="st0" d="M-404.1,387.9v-14c-0.2-0.1-0.4-0.1-0.7,0.1v14.6L-404.1,387.9z"/>
		<polygon class="st0" points="-404,387.2 -405,387.2 -405,388 -405.7,389.2 -404.5,394.5 -403.3,389.2 -403.9,388 		"/>
	</g>
	<path class="st1" d="M-404.9,361.2v13.2c0.9-0.2,1.9-0.4,2.9-0.4c6.2,0,11.1,5,11.1,11.1c0,6.1-5,11.1-11.1,11.1
		c-1,0-1.9-0.1-2.9-0.4v12.2c10.4-2.7,18.2-12.1,18.2-23.4C-386.7,373.4-394.5,363.9-404.9,361.2z"/>
</g>
</svg>
